%FSLAX23Y23*%
%MOIN*%
G70*
G01*
G75*
G04 Layer_Physical_Order=2*
G04 Layer_Color=16711680*
%ADD10R,0.039X0.059*%
%ADD11R,0.059X0.039*%
%ADD12R,0.035X0.031*%
%ADD13R,0.073X0.051*%
%ADD14R,0.059X0.157*%
%ADD15R,0.063X0.079*%
%ADD16R,0.035X0.030*%
%ADD17R,0.030X0.035*%
%ADD18R,0.039X0.022*%
%ADD19C,0.012*%
%ADD20C,0.012*%
%ADD21C,0.006*%
%ADD22O,0.047X0.079*%
%ADD23R,0.051X0.051*%
%ADD24C,0.051*%
%ADD25R,0.043X0.059*%
%ADD26O,0.043X0.059*%
%ADD27C,0.061*%
%ADD28C,0.060*%
%ADD29C,0.024*%
G36*
X2965Y1004D02*
X1074D01*
X1071Y1008D01*
X1071Y1009D01*
X1070Y1016D01*
X1066Y1022D01*
X1065Y1022D01*
Y2153D01*
X1072Y2156D01*
X1079Y2162D01*
X1085Y2169D01*
X1089Y2178D01*
X1090Y2187D01*
X1089Y2197D01*
X1085Y2205D01*
X1079Y2213D01*
X1072Y2219D01*
X1063Y2222D01*
X1054Y2224D01*
X1044Y2222D01*
X1036Y2219D01*
X1028Y2213D01*
X1022Y2205D01*
X1019Y2197D01*
X1017Y2187D01*
X1019Y2178D01*
X1022Y2169D01*
X1028Y2162D01*
X1036Y2156D01*
X1041Y2154D01*
Y1022D01*
X1040Y1022D01*
X1036Y1016D01*
X1035Y1009D01*
X1035Y1008D01*
X1032Y1004D01*
X1004D01*
Y2965D01*
X2405D01*
Y2895D01*
X2484D01*
Y2965D01*
X2622D01*
Y2895D01*
X2701D01*
Y2965D01*
X2878D01*
X2879Y2960D01*
X2871Y2957D01*
X2864Y2951D01*
X2858Y2944D01*
X2855Y2936D01*
X2854Y2927D01*
Y2916D01*
X2922D01*
Y2927D01*
X2921Y2936D01*
X2917Y2944D01*
X2912Y2951D01*
X2905Y2957D01*
X2897Y2960D01*
X2898Y2965D01*
X2965D01*
Y1004D01*
D02*
G37*
%LPC*%
G36*
X2671Y2002D02*
X2664Y2001D01*
X2658Y1997D01*
X2654Y1991D01*
X2653Y1984D01*
X2654Y1977D01*
X2658Y1971D01*
X2662Y1969D01*
Y1881D01*
X2657Y1878D01*
X2656Y1879D01*
X2649Y1880D01*
X2642Y1879D01*
X2636Y1875D01*
X2632Y1869D01*
X2630Y1862D01*
X2631Y1858D01*
X2572Y1798D01*
X2567Y1800D01*
Y1848D01*
X2571Y1850D01*
X2575Y1856D01*
X2576Y1863D01*
X2575Y1870D01*
X2571Y1876D01*
X2565Y1880D01*
X2558Y1881D01*
X2551Y1880D01*
X2545Y1876D01*
X2541Y1870D01*
X2540Y1863D01*
X2541Y1856D01*
X2545Y1850D01*
X2549Y1848D01*
Y1792D01*
X2536Y1779D01*
X2534Y1776D01*
X2533Y1773D01*
Y1520D01*
X2534Y1516D01*
X2536Y1513D01*
X2659Y1390D01*
X2658Y1385D01*
X2654Y1385D01*
X2645Y1381D01*
X2638Y1375D01*
X2632Y1368D01*
X2629Y1359D01*
X2628Y1355D01*
X2663D01*
Y1350D01*
X2668D01*
Y1315D01*
X2673Y1315D01*
X2681Y1319D01*
X2684Y1321D01*
X2689Y1318D01*
Y1288D01*
X2678Y1278D01*
X2672Y1281D01*
X2663Y1282D01*
X2655Y1281D01*
X2647Y1278D01*
X2641Y1272D01*
X2636Y1266D01*
X2633Y1258D01*
X2632Y1250D01*
X2633Y1242D01*
X2636Y1234D01*
X2641Y1227D01*
X2647Y1222D01*
X2655Y1219D01*
X2663Y1218D01*
X2672Y1219D01*
X2679Y1222D01*
X2686Y1227D01*
X2691Y1234D01*
X2694Y1242D01*
X2695Y1250D01*
X2694Y1258D01*
X2691Y1265D01*
X2696Y1270D01*
X2701Y1268D01*
Y1200D01*
X2678Y1178D01*
X2672Y1181D01*
X2663Y1182D01*
X2655Y1181D01*
X2647Y1178D01*
X2641Y1172D01*
X2636Y1166D01*
X2633Y1158D01*
X2632Y1150D01*
X2633Y1142D01*
X2636Y1134D01*
X2641Y1127D01*
X2647Y1122D01*
X2655Y1119D01*
X2663Y1118D01*
X2672Y1119D01*
X2679Y1122D01*
X2686Y1127D01*
X2691Y1134D01*
X2694Y1142D01*
X2695Y1150D01*
X2694Y1158D01*
X2691Y1165D01*
X2716Y1190D01*
X2718Y1193D01*
X2719Y1197D01*
Y1369D01*
X2719Y1372D01*
X2718Y1373D01*
X2716Y1376D01*
X2689Y1403D01*
X2688Y1404D01*
X2563Y1529D01*
Y1666D01*
X2568Y1668D01*
X2569Y1667D01*
X2576Y1666D01*
X2577Y1666D01*
X2578Y1665D01*
X2578Y1665D01*
X2582Y1662D01*
X2587Y1661D01*
X2587Y1661D01*
X2841D01*
X2841Y1660D01*
X2847Y1656D01*
X2854Y1655D01*
X2861Y1656D01*
X2867Y1660D01*
X2871Y1666D01*
X2872Y1673D01*
X2871Y1680D01*
X2867Y1686D01*
X2861Y1690D01*
X2854Y1691D01*
X2847Y1690D01*
X2841Y1686D01*
X2841Y1685D01*
X2680D01*
X2677Y1689D01*
X2677Y1690D01*
X2679Y1697D01*
X2677Y1704D01*
X2673Y1710D01*
X2668Y1714D01*
X2661Y1715D01*
X2654Y1714D01*
X2648Y1710D01*
X2645Y1706D01*
X2636D01*
X2595Y1747D01*
X2596Y1751D01*
X2595Y1755D01*
X2678Y1838D01*
X2680Y1841D01*
X2680Y1844D01*
Y1969D01*
X2684Y1971D01*
X2688Y1977D01*
X2689Y1984D01*
X2688Y1991D01*
X2684Y1997D01*
X2678Y2001D01*
X2671Y2002D01*
D02*
G37*
G36*
X1354Y2224D02*
X1344Y2222D01*
X1336Y2219D01*
X1328Y2213D01*
X1322Y2205D01*
X1319Y2197D01*
X1317Y2187D01*
X1319Y2178D01*
X1322Y2169D01*
X1328Y2162D01*
X1336Y2156D01*
X1344Y2152D01*
X1354Y2151D01*
X1363Y2152D01*
X1372Y2156D01*
X1379Y2162D01*
X1385Y2169D01*
X1389Y2178D01*
X1390Y2187D01*
X1389Y2197D01*
X1385Y2205D01*
X1379Y2213D01*
X1372Y2219D01*
X1363Y2222D01*
X1354Y2224D01*
D02*
G37*
G36*
X1311Y1069D02*
X1276D01*
Y1034D01*
X1282Y1035D01*
X1292Y1039D01*
X1300Y1045D01*
X1306Y1053D01*
X1311Y1063D01*
X1311Y1069D01*
D02*
G37*
G36*
X2413Y1886D02*
X2406Y1885D01*
X2401Y1881D01*
X2397Y1875D01*
X2395Y1868D01*
X2397Y1861D01*
X2401Y1855D01*
X2401Y1855D01*
Y1736D01*
X2396Y1734D01*
X2395Y1736D01*
X2389Y1740D01*
X2382Y1742D01*
X2375Y1740D01*
X2369Y1736D01*
X2365Y1730D01*
X2364Y1723D01*
X2365Y1716D01*
X2369Y1711D01*
X2370Y1710D01*
Y1389D01*
X2366Y1385D01*
X2355D01*
X2354Y1385D01*
X2350Y1387D01*
Y1633D01*
X2350Y1634D01*
X2354Y1640D01*
X2356Y1647D01*
X2354Y1654D01*
X2350Y1659D01*
X2345Y1663D01*
X2338Y1665D01*
X2331Y1663D01*
X2325Y1659D01*
X2321Y1654D01*
X2319Y1647D01*
X2321Y1640D01*
X2325Y1634D01*
X2325Y1633D01*
Y1094D01*
X2325Y1094D01*
X2326Y1090D01*
X2329Y1086D01*
X2354Y1060D01*
Y1014D01*
X2410D01*
Y1018D01*
X2415Y1021D01*
X2418Y1018D01*
X2425Y1015D01*
X2432Y1014D01*
X2439Y1015D01*
X2446Y1018D01*
X2452Y1022D01*
X2456Y1028D01*
X2459Y1035D01*
X2460Y1042D01*
Y1058D01*
X2459Y1065D01*
X2456Y1072D01*
X2452Y1078D01*
X2446Y1082D01*
X2439Y1085D01*
X2432Y1086D01*
X2425Y1085D01*
X2418Y1082D01*
X2415Y1079D01*
X2410Y1082D01*
Y1085D01*
X2364D01*
X2350Y1099D01*
Y1163D01*
X2350D01*
X2354Y1164D01*
X2355Y1164D01*
X2410D01*
Y1168D01*
X2415Y1171D01*
X2418Y1168D01*
X2425Y1165D01*
X2432Y1164D01*
X2439Y1165D01*
X2446Y1168D01*
X2452Y1172D01*
X2456Y1178D01*
X2459Y1185D01*
X2460Y1192D01*
Y1208D01*
X2459Y1215D01*
X2456Y1222D01*
X2452Y1228D01*
X2446Y1232D01*
X2439Y1235D01*
X2432Y1236D01*
X2425Y1235D01*
X2418Y1232D01*
X2415Y1229D01*
X2410Y1232D01*
Y1235D01*
X2394D01*
Y1314D01*
X2410D01*
Y1318D01*
X2415Y1321D01*
X2418Y1318D01*
X2425Y1315D01*
X2432Y1314D01*
X2439Y1315D01*
X2446Y1318D01*
X2452Y1322D01*
X2456Y1328D01*
X2459Y1335D01*
X2460Y1342D01*
Y1358D01*
X2459Y1365D01*
X2456Y1372D01*
X2452Y1378D01*
X2446Y1382D01*
X2444Y1383D01*
Y1393D01*
X2444Y1393D01*
X2443Y1397D01*
X2443Y1398D01*
X2440Y1401D01*
X2440Y1401D01*
X2426Y1416D01*
Y1855D01*
X2426Y1855D01*
X2430Y1861D01*
X2432Y1868D01*
X2430Y1875D01*
X2426Y1881D01*
X2420Y1885D01*
X2413Y1886D01*
D02*
G37*
G36*
X1754Y2224D02*
X1744Y2222D01*
X1736Y2219D01*
X1728Y2213D01*
X1722Y2205D01*
X1719Y2197D01*
X1717Y2187D01*
X1719Y2178D01*
X1722Y2169D01*
X1728Y2162D01*
X1736Y2156D01*
X1744Y2152D01*
X1754Y2151D01*
X1763Y2152D01*
X1772Y2156D01*
X1779Y2162D01*
X1785Y2169D01*
X1789Y2178D01*
X1790Y2187D01*
X1789Y2197D01*
X1785Y2205D01*
X1779Y2213D01*
X1772Y2219D01*
X1763Y2222D01*
X1754Y2224D01*
D02*
G37*
G36*
X1266Y1069D02*
X1231D01*
X1232Y1063D01*
X1236Y1053D01*
X1243Y1045D01*
X1251Y1039D01*
X1261Y1035D01*
X1266Y1034D01*
Y1069D01*
D02*
G37*
G36*
X1654Y2824D02*
X1644Y2822D01*
X1636Y2819D01*
X1628Y2813D01*
X1622Y2805D01*
X1619Y2797D01*
X1617Y2787D01*
X1619Y2778D01*
X1622Y2769D01*
X1628Y2762D01*
X1636Y2756D01*
X1644Y2752D01*
Y2255D01*
X1601Y2213D01*
X1596D01*
X1576Y2233D01*
X1573Y2235D01*
X1562Y2246D01*
Y2752D01*
X1563Y2752D01*
X1572Y2756D01*
X1579Y2762D01*
X1585Y2769D01*
X1589Y2778D01*
X1590Y2787D01*
X1589Y2797D01*
X1585Y2805D01*
X1579Y2813D01*
X1572Y2819D01*
X1563Y2822D01*
X1554Y2824D01*
X1544Y2822D01*
X1536Y2819D01*
X1528Y2813D01*
X1522Y2805D01*
X1519Y2797D01*
X1517Y2787D01*
X1519Y2778D01*
X1522Y2769D01*
X1528Y2762D01*
X1536Y2756D01*
X1544Y2752D01*
Y2242D01*
X1544Y2239D01*
X1546Y2236D01*
X1554Y2228D01*
X1552Y2223D01*
X1544Y2222D01*
X1536Y2219D01*
X1528Y2213D01*
X1528Y2212D01*
X1523Y2214D01*
Y2216D01*
X1522Y2219D01*
X1522Y2219D01*
X1520Y2222D01*
X1462Y2281D01*
Y2752D01*
X1463Y2752D01*
X1472Y2756D01*
X1479Y2762D01*
X1485Y2769D01*
X1489Y2778D01*
X1490Y2787D01*
X1489Y2797D01*
X1485Y2805D01*
X1479Y2813D01*
X1472Y2819D01*
X1463Y2822D01*
X1454Y2824D01*
X1444Y2822D01*
X1436Y2819D01*
X1428Y2813D01*
X1422Y2805D01*
X1419Y2797D01*
X1417Y2787D01*
X1419Y2778D01*
X1422Y2769D01*
X1428Y2762D01*
X1436Y2756D01*
X1444Y2752D01*
Y2289D01*
X1439Y2287D01*
X1362Y2364D01*
Y2752D01*
X1363Y2752D01*
X1372Y2756D01*
X1379Y2762D01*
X1385Y2769D01*
X1389Y2778D01*
X1390Y2787D01*
X1389Y2797D01*
X1385Y2805D01*
X1379Y2813D01*
X1372Y2819D01*
X1363Y2822D01*
X1354Y2824D01*
X1344Y2822D01*
X1336Y2819D01*
X1328Y2813D01*
X1322Y2805D01*
X1319Y2797D01*
X1317Y2787D01*
X1319Y2778D01*
X1322Y2769D01*
X1328Y2762D01*
X1336Y2756D01*
X1344Y2752D01*
Y2360D01*
X1344Y2356D01*
X1346Y2353D01*
X1493Y2207D01*
Y2201D01*
X1488Y2200D01*
X1485Y2205D01*
X1479Y2213D01*
X1472Y2219D01*
X1463Y2222D01*
X1454Y2224D01*
X1444Y2222D01*
X1436Y2219D01*
X1428Y2213D01*
X1422Y2205D01*
X1419Y2197D01*
X1417Y2187D01*
X1419Y2178D01*
X1422Y2169D01*
X1428Y2162D01*
X1436Y2156D01*
X1444Y2152D01*
X1454Y2151D01*
X1463Y2152D01*
X1472Y2156D01*
X1479Y2162D01*
X1485Y2169D01*
X1488Y2175D01*
X1493Y2174D01*
Y2166D01*
X1493Y2163D01*
X1495Y2160D01*
X1560Y2095D01*
Y1159D01*
X1560Y1156D01*
X1562Y1153D01*
X1569Y1147D01*
Y1110D01*
X1562Y1109D01*
X1553Y1106D01*
X1545Y1100D01*
X1540Y1092D01*
X1536Y1083D01*
X1535Y1074D01*
X1536Y1064D01*
X1540Y1056D01*
X1545Y1048D01*
X1553Y1042D01*
X1562Y1038D01*
X1571Y1037D01*
X1581Y1038D01*
X1590Y1042D01*
X1597Y1048D01*
X1603Y1056D01*
X1607Y1064D01*
X1608Y1074D01*
X1607Y1083D01*
X1603Y1092D01*
X1597Y1100D01*
X1590Y1106D01*
X1587Y1107D01*
Y1139D01*
X1592Y1141D01*
X1640Y1092D01*
X1640Y1092D01*
X1636Y1083D01*
X1635Y1074D01*
X1636Y1064D01*
X1640Y1056D01*
X1645Y1048D01*
X1653Y1042D01*
X1662Y1038D01*
X1671Y1037D01*
X1681Y1038D01*
X1690Y1042D01*
X1697Y1048D01*
X1703Y1056D01*
X1707Y1064D01*
X1708Y1074D01*
X1707Y1083D01*
X1703Y1092D01*
X1697Y1100D01*
X1690Y1106D01*
X1681Y1109D01*
X1671Y1110D01*
X1662Y1109D01*
X1653Y1106D01*
X1653Y1105D01*
X1590Y1168D01*
Y1234D01*
X1595Y1236D01*
X1739Y1091D01*
X1736Y1083D01*
X1735Y1074D01*
X1736Y1064D01*
X1740Y1056D01*
X1745Y1048D01*
X1753Y1042D01*
X1762Y1038D01*
X1771Y1037D01*
X1781Y1038D01*
X1790Y1042D01*
X1797Y1048D01*
X1803Y1056D01*
X1807Y1064D01*
X1808Y1074D01*
X1807Y1083D01*
X1803Y1092D01*
X1797Y1100D01*
X1790Y1106D01*
X1781Y1109D01*
X1771Y1110D01*
X1762Y1109D01*
X1753Y1106D01*
X1752Y1105D01*
X1708Y1149D01*
X1709Y1153D01*
X1710Y1154D01*
X1716Y1157D01*
X1720Y1163D01*
X1721Y1170D01*
X1720Y1177D01*
X1716Y1183D01*
X1710Y1187D01*
X1703Y1188D01*
X1696Y1187D01*
X1691Y1184D01*
X1614Y1261D01*
Y2177D01*
X1619Y2178D01*
X1622Y2169D01*
X1628Y2162D01*
X1636Y2156D01*
X1644Y2152D01*
X1654Y2151D01*
X1663Y2152D01*
X1672Y2156D01*
X1679Y2162D01*
X1685Y2169D01*
X1689Y2178D01*
X1690Y2187D01*
X1689Y2197D01*
X1685Y2205D01*
X1679Y2213D01*
X1672Y2219D01*
X1663Y2222D01*
X1654Y2224D01*
X1644Y2222D01*
X1644Y2222D01*
X1641Y2226D01*
X1659Y2245D01*
X1661Y2248D01*
X1662Y2251D01*
Y2752D01*
X1663Y2752D01*
X1672Y2756D01*
X1679Y2762D01*
X1685Y2769D01*
X1689Y2778D01*
X1690Y2787D01*
X1689Y2797D01*
X1685Y2805D01*
X1679Y2813D01*
X1672Y2819D01*
X1663Y2822D01*
X1654Y2824D01*
D02*
G37*
G36*
X1854Y2224D02*
X1844Y2222D01*
X1836Y2219D01*
X1828Y2213D01*
X1822Y2205D01*
X1819Y2197D01*
X1817Y2187D01*
X1819Y2178D01*
X1822Y2169D01*
X1828Y2162D01*
X1836Y2156D01*
X1844Y2152D01*
X1854Y2151D01*
X1863Y2152D01*
X1872Y2156D01*
X1879Y2162D01*
X1885Y2169D01*
X1889Y2178D01*
X1890Y2187D01*
X1889Y2197D01*
X1885Y2205D01*
X1879Y2213D01*
X1872Y2219D01*
X1863Y2222D01*
X1854Y2224D01*
D02*
G37*
G36*
X1954D02*
X1944Y2222D01*
X1936Y2219D01*
X1928Y2213D01*
X1922Y2205D01*
X1919Y2197D01*
X1917Y2187D01*
X1919Y2178D01*
X1922Y2169D01*
X1928Y2162D01*
X1936Y2156D01*
X1944Y2152D01*
X1954Y2151D01*
X1963Y2152D01*
X1972Y2156D01*
X1979Y2162D01*
X1985Y2169D01*
X1989Y2178D01*
X1990Y2187D01*
X1989Y2197D01*
X1985Y2205D01*
X1979Y2213D01*
X1972Y2219D01*
X1963Y2222D01*
X1954Y2224D01*
D02*
G37*
G36*
X1266Y1114D02*
X1261Y1113D01*
X1251Y1109D01*
X1243Y1103D01*
X1236Y1094D01*
X1232Y1084D01*
X1231Y1079D01*
X1266D01*
Y1114D01*
D02*
G37*
G36*
X1276D02*
Y1079D01*
X1311D01*
X1311Y1084D01*
X1306Y1094D01*
X1300Y1103D01*
X1292Y1109D01*
X1282Y1113D01*
X1276Y1114D01*
D02*
G37*
G36*
X1471Y1110D02*
X1462Y1109D01*
X1453Y1106D01*
X1445Y1100D01*
X1440Y1092D01*
X1436Y1083D01*
X1435Y1074D01*
X1436Y1064D01*
X1440Y1056D01*
X1445Y1048D01*
X1453Y1042D01*
X1462Y1038D01*
X1471Y1037D01*
X1481Y1038D01*
X1490Y1042D01*
X1497Y1048D01*
X1503Y1056D01*
X1507Y1064D01*
X1508Y1074D01*
X1507Y1083D01*
X1503Y1092D01*
X1497Y1100D01*
X1490Y1106D01*
X1481Y1109D01*
X1471Y1110D01*
D02*
G37*
G36*
X2171D02*
X2162Y1109D01*
X2153Y1106D01*
X2145Y1100D01*
X2140Y1092D01*
X2136Y1083D01*
X2135Y1074D01*
X2136Y1064D01*
X2140Y1056D01*
X2145Y1048D01*
X2153Y1042D01*
X2162Y1038D01*
X2171Y1037D01*
X2181Y1038D01*
X2190Y1042D01*
X2197Y1048D01*
X2203Y1056D01*
X2207Y1064D01*
X2208Y1074D01*
X2207Y1083D01*
X2203Y1092D01*
X2197Y1100D01*
X2190Y1106D01*
X2181Y1109D01*
X2171Y1110D01*
D02*
G37*
G36*
X1371D02*
X1362Y1109D01*
X1353Y1106D01*
X1345Y1100D01*
X1340Y1092D01*
X1336Y1083D01*
X1335Y1074D01*
X1336Y1064D01*
X1340Y1056D01*
X1345Y1048D01*
X1353Y1042D01*
X1362Y1038D01*
X1371Y1037D01*
X1381Y1038D01*
X1390Y1042D01*
X1397Y1048D01*
X1403Y1056D01*
X1407Y1064D01*
X1408Y1074D01*
X1407Y1083D01*
X1403Y1092D01*
X1397Y1100D01*
X1390Y1106D01*
X1381Y1109D01*
X1371Y1110D01*
D02*
G37*
G36*
X1171D02*
X1162Y1109D01*
X1153Y1106D01*
X1145Y1100D01*
X1140Y1092D01*
X1136Y1083D01*
X1135Y1074D01*
X1136Y1064D01*
X1140Y1056D01*
X1145Y1048D01*
X1153Y1042D01*
X1162Y1038D01*
X1171Y1037D01*
X1181Y1038D01*
X1190Y1042D01*
X1197Y1048D01*
X1203Y1056D01*
X1207Y1064D01*
X1208Y1074D01*
X1207Y1083D01*
X1203Y1092D01*
X1197Y1100D01*
X1190Y1106D01*
X1181Y1109D01*
X1171Y1110D01*
D02*
G37*
G36*
X2888Y2000D02*
X2881Y1998D01*
X2875Y1994D01*
X2871Y1988D01*
X2870Y1981D01*
X2871Y1974D01*
X2875Y1969D01*
X2880Y1966D01*
Y1581D01*
X2876Y1579D01*
X2872Y1573D01*
X2871Y1566D01*
X2872Y1559D01*
X2876Y1553D01*
X2882Y1549D01*
X2889Y1548D01*
X2896Y1549D01*
X2902Y1553D01*
X2906Y1559D01*
X2907Y1566D01*
X2906Y1573D01*
X2902Y1579D01*
X2898Y1581D01*
Y1967D01*
X2901Y1969D01*
X2905Y1974D01*
X2906Y1981D01*
X2905Y1988D01*
X2901Y1994D01*
X2895Y1998D01*
X2888Y2000D01*
D02*
G37*
G36*
X1940Y1472D02*
X1933Y1471D01*
X1927Y1467D01*
X1923Y1461D01*
X1922Y1454D01*
X1923Y1447D01*
X1927Y1441D01*
X1928Y1440D01*
Y1295D01*
X1927Y1294D01*
X1923Y1288D01*
X1922Y1281D01*
X1923Y1275D01*
X1927Y1269D01*
X1933Y1265D01*
X1940Y1263D01*
X1947Y1265D01*
X1953Y1269D01*
X1957Y1275D01*
X1958Y1281D01*
X1957Y1288D01*
X1953Y1294D01*
X1952Y1295D01*
Y1440D01*
X1953Y1441D01*
X1957Y1447D01*
X1958Y1454D01*
X1957Y1461D01*
X1953Y1467D01*
X1947Y1471D01*
X1940Y1472D01*
D02*
G37*
G36*
X2658Y1345D02*
X2628D01*
X2629Y1341D01*
X2632Y1332D01*
X2638Y1325D01*
X2645Y1319D01*
X2654Y1315D01*
X2658Y1315D01*
Y1345D01*
D02*
G37*
G36*
X1154Y2324D02*
X1144Y2322D01*
X1136Y2319D01*
X1128Y2313D01*
X1122Y2305D01*
X1119Y2297D01*
X1117Y2287D01*
X1119Y2278D01*
X1122Y2269D01*
X1128Y2262D01*
X1136Y2256D01*
X1141Y2253D01*
X1141Y2252D01*
X1144Y2248D01*
X1164Y2228D01*
X1163Y2223D01*
X1163Y2222D01*
X1154Y2224D01*
X1144Y2222D01*
X1136Y2219D01*
X1128Y2213D01*
X1122Y2205D01*
X1119Y2197D01*
X1117Y2187D01*
X1119Y2178D01*
X1122Y2169D01*
X1128Y2162D01*
X1136Y2156D01*
X1144Y2152D01*
X1154Y2151D01*
X1163Y2152D01*
X1172Y2156D01*
X1179Y2162D01*
X1184Y2167D01*
X1189Y2165D01*
Y1435D01*
X1188Y1435D01*
X1184Y1429D01*
X1183Y1422D01*
X1184Y1415D01*
X1188Y1409D01*
X1194Y1405D01*
X1201Y1404D01*
X1208Y1405D01*
X1214Y1409D01*
X1218Y1415D01*
X1219Y1422D01*
X1218Y1429D01*
X1214Y1435D01*
X1213Y1435D01*
Y2182D01*
X1218Y2183D01*
X1219Y2178D01*
X1222Y2169D01*
X1228Y2162D01*
X1236Y2156D01*
X1244Y2152D01*
X1254Y2151D01*
X1263Y2152D01*
X1272Y2156D01*
X1279Y2162D01*
X1285Y2169D01*
X1289Y2178D01*
X1290Y2187D01*
X1289Y2197D01*
X1285Y2205D01*
X1279Y2213D01*
X1272Y2219D01*
X1263Y2222D01*
X1254Y2224D01*
X1244Y2222D01*
X1236Y2219D01*
X1228Y2213D01*
X1222Y2205D01*
X1219Y2197D01*
X1218Y2192D01*
X1213Y2192D01*
Y2209D01*
X1212Y2213D01*
X1209Y2217D01*
X1175Y2252D01*
X1175Y2258D01*
X1179Y2262D01*
X1185Y2269D01*
X1189Y2278D01*
X1190Y2287D01*
X1189Y2297D01*
X1185Y2305D01*
X1179Y2313D01*
X1172Y2319D01*
X1163Y2322D01*
X1154Y2324D01*
D02*
G37*
G36*
X2440Y2885D02*
X2405D01*
Y2801D01*
X2440D01*
Y2885D01*
D02*
G37*
G36*
X2484D02*
X2450D01*
Y2801D01*
X2484D01*
Y2885D01*
D02*
G37*
G36*
X1049Y2827D02*
X1043Y2826D01*
X1034Y2822D01*
X1025Y2816D01*
X1019Y2807D01*
X1015Y2798D01*
X1014Y2792D01*
X1049D01*
Y2827D01*
D02*
G37*
G36*
X1059D02*
Y2792D01*
X1093D01*
X1093Y2798D01*
X1089Y2807D01*
X1082Y2816D01*
X1074Y2822D01*
X1064Y2826D01*
X1059Y2827D01*
D02*
G37*
G36*
X2656Y2885D02*
X2622D01*
Y2801D01*
X2656D01*
Y2885D01*
D02*
G37*
G36*
X2922Y2906D02*
X2893D01*
Y2862D01*
X2897Y2863D01*
X2905Y2866D01*
X2912Y2872D01*
X2917Y2879D01*
X2921Y2887D01*
X2922Y2896D01*
Y2906D01*
D02*
G37*
G36*
X2809Y2957D02*
X2801Y2956D01*
X2794Y2953D01*
X2788Y2948D01*
X2783Y2942D01*
X2780Y2935D01*
X2779Y2927D01*
Y2896D01*
X2780Y2888D01*
X2783Y2881D01*
X2788Y2875D01*
X2794Y2870D01*
X2801Y2867D01*
X2809Y2866D01*
X2817Y2867D01*
X2824Y2870D01*
X2830Y2875D01*
X2835Y2881D01*
X2838Y2888D01*
X2839Y2896D01*
Y2927D01*
X2838Y2935D01*
X2835Y2942D01*
X2830Y2948D01*
X2824Y2953D01*
X2817Y2956D01*
X2809Y2957D01*
D02*
G37*
G36*
X2701Y2885D02*
X2666D01*
Y2801D01*
X2701D01*
Y2885D01*
D02*
G37*
G36*
X2883Y2906D02*
X2854D01*
Y2896D01*
X2855Y2887D01*
X2858Y2879D01*
X2864Y2872D01*
X2871Y2866D01*
X2879Y2863D01*
X2883Y2862D01*
Y2906D01*
D02*
G37*
G36*
X1093Y2782D02*
X1059D01*
Y2748D01*
X1064Y2748D01*
X1074Y2752D01*
X1082Y2759D01*
X1089Y2767D01*
X1093Y2777D01*
X1093Y2782D01*
D02*
G37*
G36*
X1154Y2824D02*
X1144Y2822D01*
X1136Y2819D01*
X1128Y2813D01*
X1122Y2805D01*
X1119Y2797D01*
X1117Y2787D01*
X1119Y2778D01*
X1122Y2769D01*
X1128Y2762D01*
X1136Y2756D01*
X1144Y2752D01*
X1154Y2751D01*
X1163Y2752D01*
X1172Y2756D01*
X1179Y2762D01*
X1185Y2769D01*
X1189Y2778D01*
X1190Y2787D01*
X1189Y2797D01*
X1185Y2805D01*
X1179Y2813D01*
X1172Y2819D01*
X1163Y2822D01*
X1154Y2824D01*
D02*
G37*
G36*
X2695Y1082D02*
X2632D01*
Y1018D01*
X2695D01*
Y1082D01*
D02*
G37*
G36*
X1049Y2782D02*
X1014D01*
X1015Y2777D01*
X1019Y2767D01*
X1025Y2759D01*
X1034Y2752D01*
X1043Y2748D01*
X1049Y2748D01*
Y2782D01*
D02*
G37*
G36*
X1254Y2824D02*
X1244Y2822D01*
X1236Y2819D01*
X1228Y2813D01*
X1222Y2805D01*
X1219Y2797D01*
X1217Y2787D01*
X1219Y2778D01*
X1222Y2769D01*
X1228Y2762D01*
X1236Y2756D01*
X1244Y2752D01*
X1254Y2751D01*
X1263Y2752D01*
X1272Y2756D01*
X1279Y2762D01*
X1285Y2769D01*
X1289Y2778D01*
X1290Y2787D01*
X1289Y2797D01*
X1285Y2805D01*
X1279Y2813D01*
X1272Y2819D01*
X1263Y2822D01*
X1254Y2824D01*
D02*
G37*
G36*
X1954D02*
X1944Y2822D01*
X1936Y2819D01*
X1928Y2813D01*
X1922Y2805D01*
X1919Y2797D01*
X1917Y2787D01*
X1919Y2778D01*
X1922Y2769D01*
X1928Y2762D01*
X1936Y2756D01*
X1944Y2752D01*
X1954Y2751D01*
X1963Y2752D01*
X1972Y2756D01*
X1979Y2762D01*
X1985Y2769D01*
X1989Y2778D01*
X1990Y2787D01*
X1989Y2797D01*
X1985Y2805D01*
X1979Y2813D01*
X1972Y2819D01*
X1963Y2822D01*
X1954Y2824D01*
D02*
G37*
G36*
X2314Y2835D02*
X2037D01*
X2033Y2835D01*
X2030Y2833D01*
X2007Y2810D01*
X2005Y2807D01*
X2005Y2803D01*
Y2771D01*
X2005Y2768D01*
X2007Y2765D01*
X2030Y2742D01*
X2033Y2740D01*
X2037Y2739D01*
X2047D01*
X2082Y2704D01*
Y2295D01*
X2083Y2292D01*
X2085Y2289D01*
X2088Y2286D01*
Y2210D01*
X2083Y2208D01*
X2079Y2213D01*
X2072Y2219D01*
X2063Y2222D01*
X2054Y2224D01*
X2044Y2222D01*
X2036Y2219D01*
X2028Y2213D01*
X2022Y2205D01*
X2019Y2197D01*
X2017Y2187D01*
X2019Y2178D01*
X2022Y2169D01*
X2028Y2162D01*
X2036Y2156D01*
X2042Y2153D01*
Y2036D01*
X2038Y2034D01*
X2035Y2028D01*
X2033Y2021D01*
X2035Y2014D01*
X2038Y2008D01*
X2044Y2004D01*
X2051Y2003D01*
X2058Y2004D01*
X2064Y2008D01*
X2068Y2014D01*
X2069Y2021D01*
X2068Y2028D01*
X2064Y2034D01*
X2060Y2036D01*
Y2152D01*
X2063Y2152D01*
X2072Y2156D01*
X2079Y2162D01*
X2083Y2166D01*
X2088Y2165D01*
Y2156D01*
X2089Y2153D01*
X2091Y2150D01*
X2107Y2134D01*
Y1986D01*
X2101Y1980D01*
X2099Y1977D01*
X2098Y1973D01*
Y1956D01*
X2099Y1952D01*
X2101Y1949D01*
X2107Y1943D01*
Y1318D01*
X1892Y1103D01*
X1890Y1106D01*
X1881Y1109D01*
X1871Y1110D01*
X1862Y1109D01*
X1853Y1106D01*
X1845Y1100D01*
X1840Y1092D01*
X1836Y1083D01*
X1835Y1074D01*
X1836Y1064D01*
X1840Y1056D01*
X1845Y1048D01*
X1853Y1042D01*
X1862Y1038D01*
X1871Y1037D01*
X1881Y1038D01*
X1890Y1042D01*
X1897Y1048D01*
X1903Y1056D01*
X1907Y1064D01*
X1908Y1074D01*
X1907Y1083D01*
X1904Y1089D01*
X2122Y1307D01*
X2124Y1310D01*
X2125Y1311D01*
X2125Y1314D01*
Y1942D01*
X2130Y1946D01*
X2130Y1946D01*
X2137Y1948D01*
X2143Y1952D01*
X2147Y1958D01*
X2148Y1965D01*
X2147Y1972D01*
X2143Y1977D01*
X2139Y1980D01*
Y2020D01*
X2142Y2021D01*
X2144Y2022D01*
X2150Y2019D01*
X2156Y2017D01*
X2163Y2019D01*
X2169Y2023D01*
X2173Y2028D01*
X2175Y2035D01*
X2173Y2042D01*
X2169Y2048D01*
X2166Y2051D01*
Y2153D01*
X2172Y2156D01*
X2179Y2162D01*
X2185Y2169D01*
X2186Y2170D01*
X2191Y2169D01*
Y2012D01*
X2190Y2012D01*
X2186Y2006D01*
X2185Y1999D01*
X2186Y1992D01*
X2190Y1986D01*
X2196Y1982D01*
X2203Y1981D01*
X2209Y1982D01*
X2210Y1982D01*
X2214Y1980D01*
Y1230D01*
X2090Y1105D01*
X2090Y1106D01*
X2081Y1109D01*
X2071Y1110D01*
X2062Y1109D01*
X2053Y1106D01*
X2045Y1100D01*
X2040Y1092D01*
X2036Y1083D01*
X2035Y1074D01*
X2036Y1064D01*
X2040Y1056D01*
X2044Y1050D01*
X2042Y1045D01*
X2013D01*
X2003Y1055D01*
X2003Y1056D01*
X2007Y1064D01*
X2008Y1074D01*
X2007Y1083D01*
X2003Y1092D01*
X1997Y1100D01*
X1990Y1106D01*
X1981Y1109D01*
X1971Y1110D01*
X1962Y1109D01*
X1953Y1106D01*
X1945Y1100D01*
X1940Y1092D01*
X1936Y1083D01*
X1935Y1074D01*
X1936Y1064D01*
X1940Y1056D01*
X1945Y1048D01*
X1953Y1042D01*
X1962Y1038D01*
X1971Y1037D01*
X1981Y1038D01*
X1990Y1042D01*
X1990Y1042D01*
X2003Y1029D01*
X2006Y1027D01*
X2010Y1026D01*
X2051D01*
X2051Y1026D01*
X2055Y1025D01*
X2088D01*
X2091Y1026D01*
X2094Y1028D01*
X2117Y1051D01*
X2119Y1054D01*
X2120Y1058D01*
Y1088D01*
X2242Y1210D01*
X2244Y1213D01*
X2244Y1214D01*
X2245Y1217D01*
Y2066D01*
X2335Y2156D01*
X2336Y2156D01*
X2344Y2152D01*
X2354Y2151D01*
X2363Y2152D01*
X2372Y2156D01*
X2379Y2162D01*
X2385Y2169D01*
X2389Y2178D01*
X2390Y2187D01*
X2389Y2197D01*
X2385Y2205D01*
X2379Y2213D01*
X2372Y2219D01*
X2363Y2222D01*
X2354Y2224D01*
X2344Y2222D01*
X2336Y2219D01*
X2328Y2213D01*
X2322Y2205D01*
X2319Y2197D01*
X2317Y2187D01*
X2319Y2178D01*
X2322Y2170D01*
X2229Y2076D01*
X2228Y2075D01*
X2223Y2075D01*
Y2161D01*
X2227Y2162D01*
X2228Y2162D01*
X2236Y2156D01*
X2244Y2152D01*
X2254Y2151D01*
X2263Y2152D01*
X2272Y2156D01*
X2279Y2162D01*
X2285Y2169D01*
X2289Y2178D01*
X2290Y2187D01*
X2289Y2197D01*
X2285Y2205D01*
X2279Y2213D01*
X2272Y2219D01*
X2263Y2222D01*
X2254Y2224D01*
X2244Y2222D01*
X2236Y2219D01*
X2228Y2213D01*
X2227Y2212D01*
X2223Y2214D01*
Y2224D01*
X2222Y2227D01*
X2220Y2230D01*
X2137Y2314D01*
Y2702D01*
X2175Y2741D01*
X2176Y2742D01*
X2199Y2765D01*
X2200Y2766D01*
X2212Y2778D01*
X2219D01*
X2219Y2778D01*
X2222Y2769D01*
X2228Y2762D01*
X2236Y2756D01*
X2244Y2752D01*
X2254Y2751D01*
X2263Y2752D01*
X2272Y2756D01*
X2279Y2762D01*
X2285Y2769D01*
X2289Y2778D01*
X2290Y2787D01*
X2289Y2797D01*
X2285Y2805D01*
X2280Y2812D01*
X2281Y2817D01*
X2310D01*
X2322Y2805D01*
X2319Y2797D01*
X2317Y2787D01*
X2319Y2778D01*
X2322Y2769D01*
X2328Y2762D01*
X2336Y2756D01*
X2344Y2752D01*
X2354Y2751D01*
X2363Y2752D01*
X2372Y2756D01*
X2379Y2762D01*
X2385Y2769D01*
X2389Y2778D01*
X2390Y2787D01*
X2389Y2797D01*
X2385Y2805D01*
X2379Y2813D01*
X2372Y2819D01*
X2363Y2822D01*
X2354Y2824D01*
X2344Y2822D01*
X2336Y2819D01*
X2335Y2818D01*
X2320Y2833D01*
X2317Y2835D01*
X2314Y2835D01*
D02*
G37*
G36*
X1754Y2824D02*
X1744Y2822D01*
X1736Y2819D01*
X1728Y2813D01*
X1722Y2805D01*
X1719Y2797D01*
X1717Y2787D01*
X1719Y2778D01*
X1722Y2769D01*
X1728Y2762D01*
X1736Y2756D01*
X1744Y2752D01*
X1754Y2751D01*
X1763Y2752D01*
X1772Y2756D01*
X1779Y2762D01*
X1785Y2769D01*
X1789Y2778D01*
X1790Y2787D01*
X1789Y2797D01*
X1785Y2805D01*
X1779Y2813D01*
X1772Y2819D01*
X1763Y2822D01*
X1754Y2824D01*
D02*
G37*
G36*
X1854D02*
X1844Y2822D01*
X1836Y2819D01*
X1828Y2813D01*
X1822Y2805D01*
X1819Y2797D01*
X1817Y2787D01*
X1819Y2778D01*
X1822Y2769D01*
X1828Y2762D01*
X1836Y2756D01*
X1844Y2752D01*
X1854Y2751D01*
X1863Y2752D01*
X1872Y2756D01*
X1879Y2762D01*
X1885Y2769D01*
X1889Y2778D01*
X1890Y2787D01*
X1889Y2797D01*
X1885Y2805D01*
X1879Y2813D01*
X1872Y2819D01*
X1863Y2822D01*
X1854Y2824D01*
D02*
G37*
%LPD*%
G36*
X2191Y2217D02*
Y2205D01*
X2186Y2204D01*
X2185Y2205D01*
X2179Y2213D01*
X2172Y2219D01*
X2163Y2222D01*
X2154Y2224D01*
X2144Y2222D01*
X2136Y2219D01*
X2128Y2213D01*
X2123Y2207D01*
X2118Y2209D01*
Y2283D01*
X2123Y2285D01*
X2191Y2217D01*
D02*
G37*
G36*
X2127Y2812D02*
X2122Y2805D01*
X2119Y2797D01*
X2117Y2787D01*
X2119Y2778D01*
X2122Y2769D01*
X2128Y2762D01*
X2136Y2756D01*
X2139Y2754D01*
X2140Y2749D01*
X2111Y2720D01*
X2110Y2720D01*
X2076Y2754D01*
X2076Y2759D01*
X2079Y2762D01*
X2085Y2769D01*
X2089Y2778D01*
X2090Y2787D01*
X2089Y2797D01*
X2085Y2805D01*
X2080Y2812D01*
X2081Y2817D01*
X2126D01*
X2127Y2812D01*
D02*
G37*
G36*
X2571Y1734D02*
X2578Y1733D01*
X2582Y1734D01*
X2625Y1690D01*
X2625Y1690D01*
X2624Y1685D01*
X2594D01*
X2593Y1691D01*
X2589Y1697D01*
X2583Y1701D01*
X2576Y1702D01*
X2569Y1701D01*
X2568Y1700D01*
X2563Y1702D01*
Y1733D01*
X2568Y1736D01*
X2571Y1734D01*
D02*
G37*
G36*
X2370Y1239D02*
X2366Y1235D01*
X2355D01*
X2354Y1235D01*
X2350Y1237D01*
Y1313D01*
X2350D01*
X2354Y1314D01*
X2355Y1314D01*
X2370D01*
Y1239D01*
D02*
G37*
G36*
X2401Y1708D02*
Y1411D01*
X2401Y1411D01*
X2402Y1407D01*
X2405Y1403D01*
X2420Y1388D01*
Y1383D01*
X2418Y1382D01*
X2415Y1379D01*
X2410Y1382D01*
Y1385D01*
X2394D01*
Y1709D01*
X2396Y1711D01*
X2401Y1708D01*
D02*
G37*
D14*
X2661Y2890D02*
D03*
X2445D02*
D03*
D19*
X2413Y1411D02*
Y1868D01*
Y1411D02*
X2432Y1393D01*
Y1350D02*
Y1393D01*
X2382Y1350D02*
Y1723D01*
X2338Y1094D02*
Y1647D01*
Y1094D02*
X2382Y1050D01*
Y1200D02*
Y1350D01*
X1940Y1281D02*
Y1454D01*
X2576Y1684D02*
X2587Y1673D01*
X2854D02*
X2854Y1673D01*
X2587Y1673D02*
X2854D01*
D20*
X1053Y1009D02*
X1053Y1009D01*
X1053Y1009D02*
Y2187D01*
X1153Y2257D02*
Y2287D01*
Y2257D02*
X1201Y2209D01*
Y1422D02*
Y2209D01*
D21*
X2554Y1768D02*
X2649Y1862D01*
X2558Y1789D02*
Y1863D01*
X2542Y1773D02*
X2558Y1789D01*
X2683Y1397D02*
X2710Y1369D01*
Y1197D02*
Y1369D01*
X2678Y1385D02*
X2698Y1364D01*
Y1285D02*
Y1364D01*
X2663Y1250D02*
X2698Y1285D01*
X2663Y1150D02*
X2710Y1197D01*
X2542Y1520D02*
Y1773D01*
Y1520D02*
X2677Y1385D01*
X2678D01*
X2554Y1525D02*
Y1768D01*
Y1525D02*
X2682Y1397D01*
X2683D01*
X2578Y1751D02*
X2632Y1697D01*
X2661D01*
X2051Y2021D02*
Y2186D01*
X2053Y2187D01*
X2578Y1751D02*
X2671Y1844D01*
Y1984D01*
X2889Y1566D02*
Y1981D01*
X2888Y1981D02*
X2889Y1981D01*
X2153Y2187D02*
X2156Y2183D01*
X2053Y2787D02*
X2066D01*
X1353Y2360D02*
Y2787D01*
X1453Y2277D02*
Y2787D01*
X1553Y2242D02*
Y2787D01*
X1453Y2277D02*
X1514Y2216D01*
Y2171D02*
Y2216D01*
X1571Y1074D02*
X1578Y1080D01*
Y1150D01*
X1502Y2166D02*
Y2211D01*
X1353Y2360D02*
X1502Y2211D01*
X1770Y1074D02*
X1771D01*
X1692Y1170D02*
X1703D01*
X2171Y1074D02*
X2171Y1074D01*
X2224Y1226D02*
Y2008D01*
X2071Y1074D02*
X2224Y1226D01*
X2052Y2765D02*
Y2773D01*
X2066Y2787D01*
X2314Y2826D02*
X2353Y2787D01*
X2037Y2826D02*
X2314D01*
X2014Y2803D02*
X2037Y2826D01*
X2014Y2771D02*
Y2803D01*
Y2771D02*
X2037Y2748D01*
X2051D01*
X1876Y1074D02*
X2116Y1314D01*
X1871Y1074D02*
X1876D01*
X2236Y2070D02*
X2353Y2187D01*
X2236Y1217D02*
Y2070D01*
X2111Y1092D02*
X2236Y1217D01*
X2111Y1058D02*
Y1092D01*
X2088Y1035D02*
X2111Y1058D01*
X2055Y1035D02*
X2088D01*
X2054Y1035D02*
X2055Y1035D01*
X2010Y1035D02*
X2054D01*
X1971Y1074D02*
X2010Y1035D01*
X2116Y1314D02*
Y1947D01*
X2107Y1956D02*
X2116Y1947D01*
X2107Y1956D02*
Y1973D01*
X2116Y1982D01*
X2130Y1965D02*
Y2140D01*
X1570Y2226D02*
X1593Y2203D01*
X1569Y2226D02*
X1570D01*
X1553Y2242D02*
X1569Y2226D01*
X1605Y1257D02*
X1692Y1170D01*
X1593Y1251D02*
X1770Y1074D01*
X1593Y1251D02*
Y2203D01*
X1514Y2171D02*
X1581Y2104D01*
Y1164D02*
X1671Y1074D01*
X1581Y1164D02*
Y2104D01*
X1569Y1159D02*
X1578Y1150D01*
X1569Y1159D02*
Y2099D01*
X1502Y2166D02*
X1569Y2099D01*
X1605Y1257D02*
Y2203D01*
X1653Y2251D01*
Y2787D01*
X2052Y2765D02*
X2103Y2714D01*
X2051Y2748D02*
X2091Y2708D01*
X2116Y1982D02*
Y2138D01*
X2156Y2035D02*
Y2183D01*
X2103Y2300D02*
Y2714D01*
X2091Y2295D02*
Y2708D01*
X2109Y2161D02*
X2130Y2140D01*
X2097Y2156D02*
X2116Y2138D01*
X2109Y2161D02*
Y2294D01*
X2103Y2300D02*
X2109Y2294D01*
X2097Y2156D02*
Y2289D01*
X2091Y2295D02*
X2097Y2289D01*
X2200Y2002D02*
X2203Y1999D01*
X2200Y2002D02*
Y2221D01*
X2115Y2305D02*
X2200Y2221D01*
X2214Y2018D02*
Y2224D01*
X2127Y2310D02*
X2214Y2224D01*
Y2018D02*
X2224Y2008D01*
X2115Y2305D02*
Y2712D01*
X2153Y2749D01*
Y2787D01*
X2127Y2310D02*
Y2706D01*
X2208Y2787D02*
X2253D01*
X2127Y2706D02*
X2169Y2748D01*
X2170D01*
X2193Y2771D01*
Y2771D01*
X2208Y2787D01*
D22*
X2809Y2911D02*
D03*
X2888D02*
D03*
D23*
X2663Y1050D02*
D03*
D24*
Y1150D02*
D03*
Y1250D02*
D03*
Y1350D02*
D03*
D25*
X2382Y1050D02*
D03*
Y1200D02*
D03*
Y1350D02*
D03*
D26*
X2432Y1050D02*
D03*
Y1200D02*
D03*
Y1350D02*
D03*
D27*
X2171Y1074D02*
D03*
X2071D02*
D03*
X1971D02*
D03*
X1871D02*
D03*
X1771D02*
D03*
X1671D02*
D03*
X1571D02*
D03*
X1471D02*
D03*
X1371D02*
D03*
X1271D02*
D03*
X1171D02*
D03*
D28*
X1154Y2287D02*
D03*
Y2787D02*
D03*
X1254D02*
D03*
X1354D02*
D03*
X1454D02*
D03*
X1554D02*
D03*
X1654D02*
D03*
X1754D02*
D03*
X1854D02*
D03*
X1954D02*
D03*
X2054D02*
D03*
X2154D02*
D03*
X2254D02*
D03*
X2354D02*
D03*
X1054D02*
D03*
X2354Y2187D02*
D03*
X2254D02*
D03*
X2154D02*
D03*
X2054D02*
D03*
X1954D02*
D03*
X1854D02*
D03*
X1754D02*
D03*
X1654D02*
D03*
X1554D02*
D03*
X1454D02*
D03*
X1354D02*
D03*
X1254D02*
D03*
X1154D02*
D03*
X1054D02*
D03*
D29*
X2576Y1684D02*
D03*
X2413Y1868D02*
D03*
X2382Y1723D02*
D03*
X2338Y1647D02*
D03*
X1053Y1009D02*
D03*
X1940Y1281D02*
D03*
Y1454D02*
D03*
X2649Y1862D02*
D03*
X2558Y1863D02*
D03*
X2578Y1751D02*
D03*
X2661Y1697D02*
D03*
X2854Y1673D02*
D03*
X2051Y2021D02*
D03*
X2671Y1984D02*
D03*
X2889Y1566D02*
D03*
X2888Y1981D02*
D03*
X2203Y1999D02*
D03*
X1703Y1170D02*
D03*
X2156Y2035D02*
D03*
X2130Y1965D02*
D03*
X1201Y1422D02*
D03*
M02*
