%FSLAX23Y23*%
%MOIN*%
G70*
G01*
G75*
G04 Layer_Physical_Order=1*
G04 Layer_Color=255*
%ADD10R,0.039X0.022*%
%ADD11R,0.035X0.031*%
%ADD12R,0.031X0.035*%
%ADD13R,0.063X0.118*%
%ADD14R,0.122X0.157*%
%ADD15R,0.063X0.157*%
%ADD16R,0.073X0.051*%
%ADD17R,0.039X0.059*%
%ADD18R,0.059X0.039*%
%ADD19C,0.006*%
%ADD20C,0.012*%
%ADD21C,0.012*%
G04:AMPARAMS|DCode=22|XSize=39mil|YSize=55mil|CornerRadius=10mil|HoleSize=0mil|Usage=FLASHONLY|Rotation=270.000|XOffset=0mil|YOffset=0mil|HoleType=Round|Shape=RoundedRectangle|*
%AMROUNDEDRECTD22*
21,1,0.039,0.035,0,0,270.0*
21,1,0.020,0.055,0,0,270.0*
1,1,0.020,-0.018,-0.010*
1,1,0.020,-0.018,0.010*
1,1,0.020,0.018,0.010*
1,1,0.020,0.018,-0.010*
%
%ADD22ROUNDEDRECTD22*%
%ADD23C,0.047*%
%ADD24C,0.061*%
%ADD25C,0.051*%
%ADD26R,0.051X0.051*%
%ADD27R,0.043X0.059*%
%ADD28R,0.051X0.051*%
%ADD29O,0.079X0.047*%
%ADD30C,0.024*%
%ADD31C,0.020*%
G36*
X2965Y1953D02*
X2960Y1951D01*
X2959Y1951D01*
X2952Y1953D01*
X2945Y1951D01*
X2939Y1947D01*
X2937Y1944D01*
X2760D01*
X2758Y1947D01*
X2752Y1951D01*
X2745Y1952D01*
X2738Y1951D01*
X2732Y1947D01*
X2728Y1941D01*
X2727Y1934D01*
X2728Y1927D01*
X2732Y1921D01*
X2738Y1917D01*
X2745Y1916D01*
X2752Y1917D01*
X2758Y1921D01*
X2761Y1925D01*
X2937D01*
X2939Y1922D01*
X2945Y1918D01*
X2952Y1916D01*
X2959Y1918D01*
X2960Y1918D01*
X2965Y1916D01*
Y1004D01*
X2434D01*
X2432Y1009D01*
X2438Y1014D01*
X2460D01*
Y1071D01*
X2464Y1073D01*
X2496Y1041D01*
X2496Y1041D01*
X2500Y1039D01*
X2504Y1038D01*
X2504Y1038D01*
X2632D01*
Y1018D01*
X2695D01*
Y1082D01*
X2632D01*
Y1062D01*
X2509D01*
X2411Y1160D01*
X2413Y1164D01*
X2460D01*
Y1235D01*
X2448D01*
X2444Y1238D01*
X2443Y1242D01*
X2443Y1243D01*
X2440Y1247D01*
X2440Y1247D01*
X2397Y1290D01*
X2393Y1293D01*
X2389Y1294D01*
X2389Y1294D01*
X1953D01*
X1953Y1294D01*
X1947Y1298D01*
X1940Y1300D01*
X1933Y1298D01*
X1927Y1294D01*
X1923Y1288D01*
X1922Y1281D01*
X1923Y1275D01*
X1927Y1269D01*
X1933Y1265D01*
X1940Y1263D01*
X1947Y1265D01*
X1953Y1269D01*
X1953Y1269D01*
X2384D01*
X2413Y1240D01*
X2411Y1235D01*
X2354D01*
Y1164D01*
X2373D01*
X2373Y1164D01*
X2447Y1090D01*
X2445Y1085D01*
X2354D01*
Y1021D01*
X1242D01*
X1204Y1058D01*
X1207Y1064D01*
X1208Y1074D01*
X1207Y1083D01*
X1203Y1092D01*
X1197Y1100D01*
X1190Y1106D01*
X1181Y1109D01*
X1171Y1110D01*
X1162Y1109D01*
X1153Y1106D01*
X1145Y1100D01*
X1140Y1092D01*
X1136Y1083D01*
X1135Y1074D01*
X1136Y1064D01*
X1140Y1056D01*
X1145Y1048D01*
X1153Y1042D01*
X1162Y1038D01*
X1171Y1037D01*
X1181Y1038D01*
X1187Y1041D01*
X1219Y1009D01*
X1217Y1004D01*
X1004D01*
Y2343D01*
X1009Y2346D01*
X1010Y2345D01*
X1017Y2344D01*
X1052D01*
X1058Y2345D01*
X1063Y2349D01*
X1067Y2354D01*
X1068Y2360D01*
Y2380D01*
X1067Y2386D01*
X1063Y2391D01*
X1058Y2395D01*
X1052Y2396D01*
X1017D01*
X1010Y2395D01*
X1009Y2394D01*
X1004Y2396D01*
Y2558D01*
X1004Y2559D01*
X1009Y2561D01*
X1013Y2558D01*
X1019Y2557D01*
X1054D01*
X1061Y2558D01*
X1066Y2562D01*
X1069Y2567D01*
X1070Y2573D01*
Y2593D01*
X1069Y2599D01*
X1066Y2604D01*
X1061Y2608D01*
X1054Y2609D01*
X1019D01*
X1013Y2608D01*
X1009Y2605D01*
X1004Y2607D01*
X1004Y2607D01*
Y2965D01*
X2234D01*
Y2895D01*
X2305D01*
Y2890D01*
X2310D01*
Y2801D01*
X2376D01*
Y2723D01*
X2451D01*
Y2719D01*
X2487D01*
Y2788D01*
X2492D01*
Y2793D01*
X2534D01*
Y2801D01*
X2593D01*
Y2885D01*
X2522D01*
Y2895D01*
X2593D01*
Y2965D01*
X2965D01*
Y1953D01*
D02*
G37*
%LPC*%
G36*
X2629Y1590D02*
X2606D01*
Y1590D01*
X2584D01*
Y1564D01*
Y1538D01*
X2606D01*
Y1538D01*
X2629D01*
Y1564D01*
Y1590D01*
D02*
G37*
G36*
X2106Y1583D02*
X2035D01*
Y1531D01*
X2106D01*
Y1583D01*
D02*
G37*
G36*
X2028Y1547D02*
X2003D01*
Y1513D01*
X2028D01*
Y1547D01*
D02*
G37*
G36*
X2498Y1574D02*
X2457D01*
Y1543D01*
X2498D01*
Y1574D01*
D02*
G37*
G36*
X2574Y1590D02*
X2551D01*
Y1578D01*
X2549Y1574D01*
X2546Y1574D01*
X2508D01*
Y1538D01*
X2503D01*
Y1533D01*
X2457D01*
Y1513D01*
X2251D01*
X2248Y1517D01*
X2242Y1521D01*
X2235Y1522D01*
X2228Y1521D01*
X2222Y1517D01*
X2218Y1511D01*
X2217Y1504D01*
X2218Y1497D01*
X2222Y1491D01*
X2228Y1487D01*
X2235Y1486D01*
X2242Y1487D01*
X2248Y1491D01*
X2250Y1495D01*
X2746D01*
X2749Y1495D01*
X2752Y1497D01*
X2793Y1538D01*
X2823D01*
Y1543D01*
X2831D01*
Y1542D01*
X2878D01*
Y1586D01*
X2831D01*
X2829Y1588D01*
X2768D01*
Y1572D01*
X2772D01*
Y1542D01*
X2742Y1513D01*
X2549D01*
Y1534D01*
X2551Y1538D01*
X2554Y1538D01*
X2574D01*
Y1564D01*
Y1590D01*
D02*
G37*
G36*
X2007Y1645D02*
X2000Y1644D01*
X1994Y1640D01*
X1994Y1639D01*
X1300D01*
X1299Y1640D01*
X1293Y1644D01*
X1286Y1645D01*
X1279Y1644D01*
X1274Y1640D01*
X1270Y1634D01*
X1268Y1627D01*
X1270Y1620D01*
X1274Y1614D01*
X1279Y1610D01*
X1286Y1609D01*
X1293Y1610D01*
X1299Y1614D01*
X1300Y1615D01*
X1994D01*
X1994Y1614D01*
X2000Y1610D01*
X2007Y1609D01*
X2014Y1610D01*
X2020Y1614D01*
X2024Y1620D01*
X2025Y1627D01*
X2024Y1634D01*
X2020Y1640D01*
X2014Y1644D01*
X2007Y1645D01*
D02*
G37*
G36*
X1787Y1543D02*
X1736D01*
Y1472D01*
X1787D01*
Y1543D01*
D02*
G37*
G36*
X1728D02*
X1677D01*
Y1472D01*
X1728D01*
Y1543D01*
D02*
G37*
G36*
X1669D02*
X1618D01*
Y1472D01*
X1669D01*
Y1543D01*
D02*
G37*
G36*
X1433D02*
X1382D01*
Y1492D01*
X1377Y1490D01*
X1374Y1493D01*
Y1543D01*
X1323D01*
Y1492D01*
X1318Y1490D01*
X1315Y1493D01*
Y1543D01*
X1264D01*
Y1472D01*
X1309D01*
X1386Y1395D01*
X1389Y1393D01*
X1393Y1392D01*
X2520D01*
X2522Y1390D01*
X2528Y1386D01*
X2535Y1384D01*
X2542Y1386D01*
X2548Y1390D01*
X2552Y1395D01*
X2552Y1397D01*
X2558Y1400D01*
X2561Y1398D01*
X2568Y1396D01*
X2575Y1398D01*
X2581Y1402D01*
X2585Y1407D01*
X2586Y1414D01*
X2585Y1421D01*
X2581Y1427D01*
X2575Y1431D01*
X2568Y1433D01*
X2561Y1431D01*
X2555Y1427D01*
X2553Y1427D01*
X2550Y1430D01*
X2547Y1432D01*
X2544Y1432D01*
X2527D01*
X2524Y1432D01*
X2523Y1432D01*
X2520Y1430D01*
X2514Y1424D01*
X1443D01*
X1399Y1468D01*
X1401Y1472D01*
X1433D01*
Y1543D01*
D02*
G37*
G36*
X1906D02*
X1854D01*
Y1472D01*
X1906D01*
Y1543D01*
D02*
G37*
G36*
X1847D02*
X1795D01*
Y1472D01*
X1847D01*
Y1543D01*
D02*
G37*
G36*
X2106Y1878D02*
X2035D01*
Y1827D01*
X2106D01*
Y1878D01*
D02*
G37*
G36*
X2858Y1832D02*
Y1811D01*
X2881D01*
Y1832D01*
X2858D01*
D02*
G37*
G36*
X2549Y1867D02*
X2508D01*
Y1832D01*
Y1796D01*
X2545D01*
X2549Y1796D01*
X2550Y1791D01*
Y1791D01*
Y1781D01*
X2170D01*
X2167Y1785D01*
X2161Y1789D01*
X2155Y1791D01*
X2148Y1789D01*
X2142Y1785D01*
X2138Y1780D01*
X2136Y1773D01*
X2138Y1766D01*
X2142Y1760D01*
X2148Y1756D01*
X2155Y1754D01*
X2161Y1756D01*
X2167Y1760D01*
X2169Y1763D01*
X2554D01*
Y1734D01*
X2545D01*
Y1755D01*
X2461D01*
Y1736D01*
X2390D01*
X2386Y1738D01*
X2379Y1740D01*
X2372Y1738D01*
X2366Y1734D01*
X2362Y1728D01*
X2361Y1721D01*
X2362Y1715D01*
X2366Y1709D01*
X2372Y1705D01*
X2379Y1703D01*
X2386Y1705D01*
X2392Y1709D01*
X2394Y1711D01*
X2461D01*
Y1692D01*
X2545D01*
Y1705D01*
X2547Y1706D01*
X2552Y1703D01*
Y1679D01*
X2550Y1678D01*
X2545Y1678D01*
Y1678D01*
X2461D01*
Y1634D01*
X2456Y1632D01*
X2452Y1636D01*
X2448Y1638D01*
X2444Y1639D01*
X2140D01*
X2140Y1640D01*
X2134Y1644D01*
X2127Y1645D01*
X2120Y1644D01*
X2114Y1640D01*
X2111Y1636D01*
X2106Y1637D01*
Y1642D01*
X2035D01*
Y1590D01*
X2106D01*
Y1617D01*
X2111Y1618D01*
X2114Y1614D01*
X2120Y1610D01*
X2127Y1609D01*
X2134Y1610D01*
X2140Y1614D01*
X2140Y1615D01*
X2439D01*
X2453Y1600D01*
X2457Y1598D01*
X2462Y1597D01*
X2567D01*
X2571Y1598D01*
X2574Y1599D01*
X2602D01*
Y1627D01*
X2606Y1630D01*
X2610Y1628D01*
Y1599D01*
X2646D01*
X2651Y1594D01*
X2649Y1590D01*
X2639D01*
Y1564D01*
Y1538D01*
X2662D01*
X2662Y1538D01*
Y1538D01*
X2662D01*
X2662Y1538D01*
X2667Y1538D01*
X2715D01*
Y1572D01*
X2705D01*
X2701Y1574D01*
X2700Y1578D01*
X2698Y1582D01*
X2698Y1582D01*
X2671Y1608D01*
X2673Y1613D01*
X2715D01*
Y1647D01*
X2689D01*
X2677Y1659D01*
X2673Y1662D01*
X2668Y1663D01*
X2653D01*
Y1674D01*
X2665D01*
X2668Y1675D01*
X2671Y1677D01*
X2674Y1680D01*
X2680Y1679D01*
X2687Y1680D01*
X2693Y1684D01*
X2697Y1690D01*
X2698Y1697D01*
X2697Y1704D01*
X2693Y1710D01*
X2687Y1714D01*
X2687Y1714D01*
X2685Y1719D01*
X2689Y1723D01*
X2715D01*
Y1757D01*
X2663D01*
X2661Y1761D01*
Y1775D01*
X2638D01*
Y1749D01*
X2628D01*
Y1775D01*
X2605D01*
Y1774D01*
X2601Y1771D01*
X2595D01*
X2594Y1772D01*
X2593Y1775D01*
X2597Y1780D01*
X2605D01*
Y1781D01*
X2605Y1781D01*
X2609Y1784D01*
X2610Y1784D01*
X2657D01*
Y1803D01*
X2663D01*
Y1798D01*
X2715D01*
Y1832D01*
X2663D01*
Y1827D01*
X2657D01*
Y1828D01*
X2610D01*
X2609Y1828D01*
X2605Y1831D01*
Y1832D01*
X2583D01*
Y1806D01*
X2573D01*
Y1832D01*
X2554D01*
X2550Y1832D01*
X2549Y1837D01*
Y1867D01*
D02*
G37*
G36*
X2719Y1918D02*
X2712Y1916D01*
X2706Y1912D01*
X2705Y1912D01*
X2291D01*
X2290Y1912D01*
X2285Y1916D01*
X2278Y1918D01*
X2271Y1916D01*
X2265Y1912D01*
X2261Y1907D01*
X2259Y1900D01*
X2261Y1893D01*
X2265Y1887D01*
X2271Y1883D01*
X2278Y1881D01*
X2285Y1883D01*
X2290Y1887D01*
X2291Y1887D01*
X2705D01*
X2706Y1887D01*
X2712Y1883D01*
X2719Y1881D01*
X2725Y1883D01*
X2731Y1887D01*
X2735Y1893D01*
X2737Y1900D01*
X2735Y1907D01*
X2731Y1912D01*
X2725Y1916D01*
X2719Y1918D01*
D02*
G37*
G36*
X2110Y1965D02*
X2031D01*
Y1941D01*
X2032D01*
X2035Y1937D01*
X2035Y1936D01*
Y1886D01*
X2106D01*
Y1936D01*
X2106Y1937D01*
X2110Y1941D01*
X2110D01*
Y1965D01*
D02*
G37*
G36*
X2498Y1867D02*
X2457D01*
Y1837D01*
X2498D01*
Y1867D01*
D02*
G37*
G36*
X2745Y1833D02*
X2738Y1832D01*
X2732Y1828D01*
X2728Y1822D01*
X2727Y1815D01*
X2728Y1808D01*
X2732Y1802D01*
X2738Y1798D01*
X2745Y1797D01*
X2752Y1798D01*
X2758Y1802D01*
X2760Y1806D01*
X2772D01*
Y1798D01*
X2768D01*
Y1783D01*
X2797D01*
Y1773D01*
X2768D01*
Y1757D01*
X2768Y1757D01*
X2768D01*
X2768Y1757D01*
X2766Y1752D01*
X2758D01*
X2758Y1753D01*
X2752Y1757D01*
X2745Y1758D01*
X2738Y1757D01*
X2732Y1753D01*
X2728Y1747D01*
X2727Y1740D01*
X2728Y1733D01*
X2732Y1727D01*
X2738Y1723D01*
X2745Y1722D01*
X2752Y1723D01*
X2758Y1727D01*
X2758Y1728D01*
X2772D01*
Y1723D01*
X2823D01*
Y1728D01*
X2830D01*
Y1727D01*
X2842D01*
Y1687D01*
X2841Y1686D01*
X2838Y1680D01*
X2836Y1673D01*
X2838Y1666D01*
X2841Y1660D01*
X2842Y1660D01*
Y1643D01*
X2831D01*
Y1642D01*
X2823D01*
Y1647D01*
X2772D01*
Y1613D01*
X2768D01*
Y1598D01*
X2829D01*
X2831Y1599D01*
X2878D01*
Y1643D01*
X2866D01*
Y1660D01*
X2867Y1660D01*
X2871Y1666D01*
X2872Y1673D01*
X2871Y1680D01*
X2867Y1686D01*
X2866Y1687D01*
Y1727D01*
X2877D01*
Y1771D01*
X2830D01*
X2827Y1775D01*
Y1780D01*
X2848D01*
Y1806D01*
Y1832D01*
X2828D01*
X2826Y1832D01*
X2826Y1832D01*
X2823Y1832D01*
Y1832D01*
X2823Y1832D01*
X2772D01*
Y1824D01*
X2760D01*
X2758Y1828D01*
X2752Y1832D01*
X2745Y1833D01*
D02*
G37*
G36*
X2106Y1760D02*
X2035D01*
Y1709D01*
X2106D01*
Y1760D01*
D02*
G37*
G36*
Y1701D02*
X2035D01*
Y1650D01*
X2106D01*
Y1701D01*
D02*
G37*
G36*
X2498Y1827D02*
X2457D01*
Y1796D01*
X2498D01*
Y1827D01*
D02*
G37*
G36*
X2881Y1801D02*
X2858D01*
Y1780D01*
X2881D01*
Y1801D01*
D02*
G37*
G36*
X2106Y1819D02*
X2035D01*
Y1768D01*
X2106D01*
Y1819D01*
D02*
G37*
G36*
X1610Y1543D02*
X1559D01*
Y1472D01*
X1610D01*
Y1543D01*
D02*
G37*
G36*
X1971Y1110D02*
X1962Y1109D01*
X1953Y1106D01*
X1945Y1100D01*
X1940Y1092D01*
X1936Y1083D01*
X1935Y1074D01*
X1936Y1064D01*
X1940Y1056D01*
X1945Y1048D01*
X1953Y1042D01*
X1962Y1038D01*
X1971Y1037D01*
X1981Y1038D01*
X1990Y1042D01*
X1997Y1048D01*
X2003Y1056D01*
X2007Y1064D01*
X2008Y1074D01*
X2007Y1083D01*
X2003Y1092D01*
X1997Y1100D01*
X1990Y1106D01*
X1981Y1109D01*
X1971Y1110D01*
D02*
G37*
G36*
X1871D02*
X1862Y1109D01*
X1853Y1106D01*
X1845Y1100D01*
X1840Y1092D01*
X1836Y1083D01*
X1835Y1074D01*
X1836Y1064D01*
X1840Y1056D01*
X1845Y1048D01*
X1853Y1042D01*
X1862Y1038D01*
X1871Y1037D01*
X1881Y1038D01*
X1890Y1042D01*
X1897Y1048D01*
X1903Y1056D01*
X1907Y1064D01*
X1908Y1074D01*
X1907Y1083D01*
X1903Y1092D01*
X1897Y1100D01*
X1890Y1106D01*
X1881Y1109D01*
X1871Y1110D01*
D02*
G37*
G36*
X1771D02*
X1762Y1109D01*
X1753Y1106D01*
X1745Y1100D01*
X1740Y1092D01*
X1736Y1083D01*
X1735Y1074D01*
X1736Y1064D01*
X1740Y1056D01*
X1745Y1048D01*
X1753Y1042D01*
X1762Y1038D01*
X1771Y1037D01*
X1781Y1038D01*
X1790Y1042D01*
X1797Y1048D01*
X1803Y1056D01*
X1807Y1064D01*
X1808Y1074D01*
X1807Y1083D01*
X1803Y1092D01*
X1797Y1100D01*
X1790Y1106D01*
X1781Y1109D01*
X1771Y1110D01*
D02*
G37*
G36*
X1266Y1114D02*
X1261Y1113D01*
X1251Y1109D01*
X1243Y1103D01*
X1236Y1094D01*
X1232Y1084D01*
X1231Y1079D01*
X1266D01*
Y1114D01*
D02*
G37*
G36*
X2171Y1110D02*
X2162Y1109D01*
X2153Y1106D01*
X2145Y1100D01*
X2140Y1092D01*
X2136Y1083D01*
X2135Y1074D01*
X2136Y1064D01*
X2140Y1056D01*
X2145Y1048D01*
X2153Y1042D01*
X2162Y1038D01*
X2171Y1037D01*
X2181Y1038D01*
X2190Y1042D01*
X2197Y1048D01*
X2203Y1056D01*
X2207Y1064D01*
X2208Y1074D01*
X2207Y1083D01*
X2203Y1092D01*
X2197Y1100D01*
X2190Y1106D01*
X2181Y1109D01*
X2171Y1110D01*
D02*
G37*
G36*
X2071D02*
X2062Y1109D01*
X2053Y1106D01*
X2045Y1100D01*
X2040Y1092D01*
X2036Y1083D01*
X2035Y1074D01*
X2036Y1064D01*
X2040Y1056D01*
X2045Y1048D01*
X2053Y1042D01*
X2062Y1038D01*
X2071Y1037D01*
X2081Y1038D01*
X2090Y1042D01*
X2097Y1048D01*
X2103Y1056D01*
X2107Y1064D01*
X2108Y1074D01*
X2107Y1083D01*
X2103Y1092D01*
X2097Y1100D01*
X2090Y1106D01*
X2081Y1109D01*
X2071Y1110D01*
D02*
G37*
G36*
X1371D02*
X1362Y1109D01*
X1353Y1106D01*
X1345Y1100D01*
X1340Y1092D01*
X1336Y1083D01*
X1335Y1074D01*
X1336Y1064D01*
X1340Y1056D01*
X1345Y1048D01*
X1353Y1042D01*
X1362Y1038D01*
X1371Y1037D01*
X1381Y1038D01*
X1390Y1042D01*
X1397Y1048D01*
X1403Y1056D01*
X1407Y1064D01*
X1408Y1074D01*
X1407Y1083D01*
X1403Y1092D01*
X1397Y1100D01*
X1390Y1106D01*
X1381Y1109D01*
X1371Y1110D01*
D02*
G37*
G36*
X1311Y1069D02*
X1276D01*
Y1034D01*
X1282Y1035D01*
X1292Y1039D01*
X1300Y1045D01*
X1306Y1053D01*
X1311Y1063D01*
X1311Y1069D01*
D02*
G37*
G36*
X1266D02*
X1231D01*
X1232Y1063D01*
X1236Y1053D01*
X1243Y1045D01*
X1251Y1039D01*
X1261Y1035D01*
X1266Y1034D01*
Y1069D01*
D02*
G37*
G36*
X1671Y1110D02*
X1662Y1109D01*
X1653Y1106D01*
X1645Y1100D01*
X1640Y1092D01*
X1636Y1083D01*
X1635Y1074D01*
X1636Y1064D01*
X1640Y1056D01*
X1645Y1048D01*
X1653Y1042D01*
X1662Y1038D01*
X1671Y1037D01*
X1681Y1038D01*
X1690Y1042D01*
X1697Y1048D01*
X1703Y1056D01*
X1707Y1064D01*
X1708Y1074D01*
X1707Y1083D01*
X1703Y1092D01*
X1697Y1100D01*
X1690Y1106D01*
X1681Y1109D01*
X1671Y1110D01*
D02*
G37*
G36*
X1571D02*
X1562Y1109D01*
X1553Y1106D01*
X1545Y1100D01*
X1540Y1092D01*
X1536Y1083D01*
X1535Y1074D01*
X1536Y1064D01*
X1540Y1056D01*
X1545Y1048D01*
X1553Y1042D01*
X1562Y1038D01*
X1571Y1037D01*
X1581Y1038D01*
X1590Y1042D01*
X1597Y1048D01*
X1603Y1056D01*
X1607Y1064D01*
X1608Y1074D01*
X1607Y1083D01*
X1603Y1092D01*
X1597Y1100D01*
X1590Y1106D01*
X1581Y1109D01*
X1571Y1110D01*
D02*
G37*
G36*
X1471D02*
X1462Y1109D01*
X1453Y1106D01*
X1445Y1100D01*
X1440Y1092D01*
X1436Y1083D01*
X1435Y1074D01*
X1436Y1064D01*
X1440Y1056D01*
X1445Y1048D01*
X1453Y1042D01*
X1462Y1038D01*
X1471Y1037D01*
X1481Y1038D01*
X1490Y1042D01*
X1497Y1048D01*
X1503Y1056D01*
X1507Y1064D01*
X1508Y1074D01*
X1507Y1083D01*
X1503Y1092D01*
X1497Y1100D01*
X1490Y1106D01*
X1481Y1109D01*
X1471Y1110D01*
D02*
G37*
G36*
X1993Y1547D02*
X1968D01*
Y1547D01*
X1965Y1543D01*
X1963Y1543D01*
X1913D01*
Y1472D01*
X1928D01*
Y1467D01*
X1927Y1467D01*
X1923Y1461D01*
X1922Y1454D01*
X1923Y1447D01*
X1927Y1441D01*
X1933Y1437D01*
X1940Y1436D01*
X1947Y1437D01*
X1953Y1441D01*
X1957Y1447D01*
X1958Y1454D01*
X1957Y1461D01*
X1953Y1467D01*
X1955Y1471D01*
X1956Y1472D01*
X1963D01*
X1965Y1472D01*
X1968Y1469D01*
Y1468D01*
X1993D01*
Y1508D01*
Y1547D01*
D02*
G37*
G36*
X2668Y1385D02*
Y1355D01*
X2699D01*
X2698Y1359D01*
X2694Y1368D01*
X2689Y1375D01*
X2681Y1381D01*
X2673Y1385D01*
X2668Y1385D01*
D02*
G37*
G36*
X2658D02*
X2654Y1385D01*
X2645Y1381D01*
X2638Y1375D01*
X2632Y1368D01*
X2629Y1359D01*
X2628Y1355D01*
X2658D01*
Y1385D01*
D02*
G37*
G36*
X1551Y1543D02*
X1500D01*
Y1472D01*
X1551D01*
Y1543D01*
D02*
G37*
G36*
X1492D02*
X1441D01*
Y1472D01*
X1492D01*
Y1543D01*
D02*
G37*
G36*
X2028Y1503D02*
X2003D01*
Y1468D01*
X2028D01*
Y1503D01*
D02*
G37*
G36*
X2663Y1282D02*
X2655Y1281D01*
X2647Y1278D01*
X2641Y1272D01*
X2636Y1266D01*
X2633Y1259D01*
X2582D01*
X2580Y1263D01*
X2574Y1267D01*
X2567Y1268D01*
X2560Y1267D01*
X2554Y1263D01*
X2550Y1257D01*
X2549Y1250D01*
X2550Y1243D01*
X2554Y1237D01*
X2560Y1233D01*
X2567Y1232D01*
X2574Y1233D01*
X2580Y1237D01*
X2582Y1241D01*
X2633D01*
X2636Y1234D01*
X2641Y1227D01*
X2647Y1222D01*
X2655Y1219D01*
X2663Y1218D01*
X2672Y1219D01*
X2679Y1222D01*
X2686Y1227D01*
X2691Y1234D01*
X2694Y1242D01*
X2695Y1250D01*
X2694Y1258D01*
X2691Y1266D01*
X2686Y1272D01*
X2679Y1278D01*
X2672Y1281D01*
X2663Y1282D01*
D02*
G37*
G36*
Y1182D02*
X2655Y1181D01*
X2647Y1178D01*
X2641Y1172D01*
X2636Y1166D01*
X2633Y1159D01*
X2551D01*
X2548Y1162D01*
X2542Y1166D01*
X2535Y1168D01*
X2528Y1166D01*
X2523Y1162D01*
X2519Y1157D01*
X2517Y1150D01*
X2519Y1143D01*
X2523Y1137D01*
X2528Y1133D01*
X2535Y1131D01*
X2542Y1133D01*
X2548Y1137D01*
X2551Y1140D01*
X2633D01*
X2636Y1134D01*
X2641Y1127D01*
X2647Y1122D01*
X2655Y1119D01*
X2663Y1118D01*
X2672Y1119D01*
X2679Y1122D01*
X2686Y1127D01*
X2691Y1134D01*
X2694Y1142D01*
X2695Y1150D01*
X2694Y1158D01*
X2691Y1166D01*
X2686Y1172D01*
X2679Y1178D01*
X2672Y1181D01*
X2663Y1182D01*
D02*
G37*
G36*
X1276Y1114D02*
Y1079D01*
X1311D01*
X1311Y1084D01*
X1306Y1094D01*
X1300Y1103D01*
X1292Y1109D01*
X1282Y1113D01*
X1276Y1114D01*
D02*
G37*
G36*
X2699Y1345D02*
X2668D01*
Y1315D01*
X2673Y1315D01*
X2681Y1319D01*
X2689Y1325D01*
X2694Y1332D01*
X2698Y1341D01*
X2699Y1345D01*
D02*
G37*
G36*
X2658D02*
X2628D01*
X2629Y1341D01*
X2632Y1332D01*
X2638Y1325D01*
X2645Y1319D01*
X2654Y1315D01*
X2658Y1315D01*
Y1345D01*
D02*
G37*
G36*
X2460Y1385D02*
X2354D01*
Y1314D01*
X2460D01*
Y1385D01*
D02*
G37*
G36*
X2650Y2297D02*
X2587D01*
Y2234D01*
X2650D01*
Y2297D01*
D02*
G37*
G36*
X2818Y2297D02*
X2810Y2296D01*
X2802Y2293D01*
X2796Y2288D01*
X2791Y2281D01*
X2787Y2273D01*
X2786Y2265D01*
X2787Y2257D01*
X2791Y2249D01*
X2796Y2243D01*
X2802Y2238D01*
X2810Y2234D01*
X2818Y2233D01*
X2826Y2234D01*
X2834Y2238D01*
X2841Y2243D01*
X2846Y2249D01*
X2849Y2257D01*
X2850Y2265D01*
X2849Y2273D01*
X2846Y2281D01*
X2841Y2288D01*
X2834Y2293D01*
X2826Y2296D01*
X2818Y2297D01*
D02*
G37*
G36*
X2718D02*
X2710Y2296D01*
X2702Y2293D01*
X2696Y2288D01*
X2691Y2281D01*
X2687Y2273D01*
X2686Y2265D01*
X2687Y2257D01*
X2691Y2249D01*
X2696Y2243D01*
X2702Y2238D01*
X2710Y2234D01*
X2718Y2233D01*
X2726Y2234D01*
X2734Y2238D01*
X2741Y2243D01*
X2746Y2249D01*
X2749Y2257D01*
X2750Y2265D01*
X2749Y2273D01*
X2746Y2281D01*
X2741Y2288D01*
X2734Y2293D01*
X2726Y2296D01*
X2718Y2297D01*
D02*
G37*
G36*
X1171Y2407D02*
X1136D01*
X1130Y2406D01*
X1124Y2402D01*
X1121Y2397D01*
X1120Y2391D01*
Y2371D01*
X1121Y2365D01*
X1124Y2360D01*
X1130Y2356D01*
X1136Y2355D01*
X1171D01*
X1177Y2356D01*
X1183Y2360D01*
X1186Y2365D01*
X1187Y2371D01*
Y2391D01*
X1186Y2397D01*
X1183Y2402D01*
X1177Y2406D01*
X1171Y2407D01*
D02*
G37*
G36*
X2923Y2300D02*
Y2270D01*
X2953D01*
X2953Y2274D01*
X2949Y2283D01*
X2943Y2291D01*
X2936Y2296D01*
X2927Y2300D01*
X2923Y2300D01*
D02*
G37*
G36*
X2913D02*
X2909Y2300D01*
X2900Y2296D01*
X2893Y2291D01*
X2887Y2283D01*
X2883Y2274D01*
X2883Y2270D01*
X2913D01*
Y2300D01*
D02*
G37*
G36*
X2468Y2245D02*
X2458D01*
X2449Y2243D01*
X2441Y2240D01*
X2434Y2235D01*
X2428Y2228D01*
X2425Y2219D01*
X2424Y2216D01*
X2468D01*
Y2245D01*
D02*
G37*
G36*
X2156Y2201D02*
X2149Y2200D01*
X2143Y2196D01*
X2140Y2192D01*
X1783D01*
X1781Y2196D01*
X1775Y2200D01*
X1768Y2201D01*
X1761Y2200D01*
X1755Y2196D01*
X1751Y2190D01*
X1751Y2189D01*
X1746Y2187D01*
X1744Y2188D01*
X1737Y2189D01*
X1730Y2188D01*
X1724Y2184D01*
X1720Y2178D01*
X1719Y2171D01*
X1720Y2164D01*
X1724Y2158D01*
X1730Y2154D01*
X1737Y2153D01*
X1744Y2154D01*
X1750Y2158D01*
X1753Y2156D01*
X1756Y2154D01*
X1759Y2153D01*
X1776D01*
X1780Y2154D01*
X1783Y2156D01*
X1789Y2162D01*
X2134D01*
X2140Y2156D01*
X2143Y2154D01*
X2147Y2153D01*
X2164D01*
X2168Y2154D01*
X2171Y2156D01*
X2177Y2162D01*
X2221D01*
X2223Y2158D01*
X2229Y2154D01*
X2236Y2153D01*
X2243Y2154D01*
X2249Y2158D01*
X2253Y2164D01*
X2254Y2171D01*
X2253Y2178D01*
X2249Y2184D01*
X2243Y2188D01*
X2236Y2189D01*
X2229Y2188D01*
X2223Y2184D01*
X2221Y2180D01*
X2176D01*
X2174Y2183D01*
X2172Y2190D01*
X2168Y2196D01*
X2162Y2200D01*
X2156Y2201D01*
D02*
G37*
G36*
X1318Y2384D02*
X1311Y2383D01*
X1305Y2379D01*
X1301Y2373D01*
X1300Y2366D01*
X1301Y2359D01*
X1305Y2353D01*
X1311Y2349D01*
X1318Y2348D01*
X1325Y2349D01*
X1331Y2353D01*
X1333Y2357D01*
X1340D01*
X1343Y2352D01*
X1341Y2349D01*
X1340Y2343D01*
X1341Y2336D01*
X1345Y2330D01*
X1349Y2327D01*
X1348Y2322D01*
X1185D01*
X1184Y2323D01*
X1178Y2327D01*
X1171Y2328D01*
X1164Y2327D01*
X1158Y2323D01*
X1154Y2317D01*
X1153Y2310D01*
X1154Y2303D01*
X1158Y2297D01*
X1164Y2293D01*
X1171Y2292D01*
X1178Y2293D01*
X1184Y2297D01*
X1185Y2298D01*
X1399D01*
X1400Y2297D01*
X1405Y2293D01*
X1412Y2292D01*
X1419Y2293D01*
X1425Y2297D01*
X1429Y2303D01*
X1431Y2310D01*
X1429Y2317D01*
X1425Y2323D01*
X1419Y2327D01*
X1412Y2328D01*
X1405Y2327D01*
X1400Y2323D01*
X1399Y2322D01*
X1369D01*
X1368Y2327D01*
X1371Y2330D01*
X1374Y2333D01*
X1584D01*
X1594Y2323D01*
X1593Y2319D01*
X1594Y2312D01*
X1595Y2310D01*
X1593Y2305D01*
X1497D01*
X1494Y2305D01*
X1491Y2303D01*
X1464Y2276D01*
X1459Y2277D01*
X1452Y2275D01*
X1446Y2271D01*
X1442Y2265D01*
X1441Y2258D01*
X1442Y2252D01*
X1446Y2246D01*
X1452Y2242D01*
X1459Y2240D01*
X1466Y2242D01*
X1472Y2246D01*
X1476Y2252D01*
X1477Y2258D01*
X1477Y2263D01*
X1501Y2287D01*
X1630D01*
X1633Y2288D01*
X1634Y2288D01*
X1641Y2287D01*
X1648Y2288D01*
X1654Y2292D01*
X1659Y2292D01*
X1660Y2290D01*
X1664Y2288D01*
Y2258D01*
X1596Y2190D01*
X1592Y2192D01*
X1591Y2192D01*
X1588Y2198D01*
X1582Y2202D01*
X1575Y2203D01*
X1568Y2202D01*
X1562Y2198D01*
X1560Y2194D01*
X1519D01*
X1517Y2198D01*
X1511Y2202D01*
X1504Y2203D01*
X1497Y2202D01*
X1491Y2198D01*
X1490Y2196D01*
X1484Y2196D01*
X1478Y2200D01*
X1471Y2201D01*
X1465Y2200D01*
X1459Y2196D01*
X1456Y2192D01*
X1411D01*
X1409Y2196D01*
X1403Y2200D01*
X1396Y2201D01*
X1389Y2200D01*
X1383Y2196D01*
X1379Y2190D01*
X1378Y2183D01*
X1379Y2176D01*
X1383Y2170D01*
X1389Y2166D01*
X1396Y2165D01*
X1403Y2166D01*
X1409Y2170D01*
X1411Y2174D01*
X1456D01*
X1459Y2170D01*
X1465Y2166D01*
X1471Y2165D01*
X1478Y2166D01*
X1484Y2170D01*
X1485Y2172D01*
X1491Y2172D01*
X1497Y2168D01*
X1504Y2167D01*
X1511Y2168D01*
X1517Y2172D01*
X1519Y2176D01*
X1558D01*
X1560Y2171D01*
X1559Y2171D01*
X1544Y2155D01*
X1539Y2156D01*
X1532Y2155D01*
X1527Y2151D01*
X1523Y2145D01*
X1521Y2138D01*
X1523Y2131D01*
X1523Y2130D01*
X1521Y2125D01*
X1512D01*
X1510Y2129D01*
X1504Y2133D01*
X1497Y2134D01*
X1490Y2133D01*
X1484Y2129D01*
X1480Y2123D01*
X1479Y2116D01*
X1480Y2109D01*
X1484Y2103D01*
X1490Y2099D01*
X1497Y2098D01*
X1504Y2099D01*
X1510Y2103D01*
X1512Y2107D01*
X1517Y2106D01*
X1519Y2102D01*
X1516Y2098D01*
X1514Y2091D01*
X1516Y2084D01*
X1520Y2078D01*
X1526Y2074D01*
X1532Y2072D01*
X1539Y2074D01*
X1545Y2078D01*
X1549Y2084D01*
X1550Y2088D01*
X1556D01*
X1559Y2083D01*
X1558Y2082D01*
X1557Y2075D01*
X1558Y2068D01*
X1562Y2062D01*
X1565Y2060D01*
X1563Y2055D01*
X1559D01*
Y1984D01*
X1610D01*
Y2055D01*
X1587D01*
X1585Y2060D01*
X1588Y2062D01*
X1591Y2068D01*
X1857D01*
X1865Y2060D01*
X1863Y2055D01*
X1854D01*
Y1984D01*
X1906D01*
Y2055D01*
X1889D01*
Y2058D01*
X1889Y2061D01*
X1888Y2062D01*
X1886Y2065D01*
X1873Y2078D01*
X1875Y2082D01*
X1888D01*
X1891Y2079D01*
X1897Y2075D01*
X1904Y2073D01*
X1910Y2075D01*
X1916Y2079D01*
X1920Y2085D01*
X1922Y2092D01*
X1920Y2098D01*
X1916Y2104D01*
X1910Y2108D01*
X1904Y2110D01*
X1903Y2110D01*
X1900Y2114D01*
X1901Y2118D01*
X1900Y2125D01*
X1896Y2131D01*
X1890Y2135D01*
X1883Y2136D01*
X1876Y2135D01*
X1870Y2131D01*
X1866Y2125D01*
X1558D01*
X1555Y2130D01*
X1556Y2131D01*
X1558Y2138D01*
X1557Y2142D01*
X1570Y2155D01*
X1583D01*
X1587Y2156D01*
X1590Y2158D01*
X1680Y2248D01*
X1682Y2251D01*
X1682Y2254D01*
Y2288D01*
X1686Y2290D01*
X1690Y2296D01*
X1691Y2303D01*
X1690Y2310D01*
X1686Y2316D01*
X1680Y2320D01*
X1673Y2321D01*
X1666Y2320D01*
X1660Y2316D01*
X1655Y2317D01*
X1654Y2318D01*
X1648Y2322D01*
X1641Y2323D01*
X1634Y2322D01*
X1633Y2321D01*
X1628Y2323D01*
X1628Y2326D01*
X1624Y2332D01*
X1618Y2336D01*
X1611Y2337D01*
X1607Y2336D01*
X1594Y2349D01*
X1591Y2351D01*
X1588Y2352D01*
X1543D01*
X1541Y2356D01*
X1541Y2357D01*
X1543Y2364D01*
X1541Y2371D01*
X1537Y2377D01*
X1532Y2381D01*
X1525Y2382D01*
X1518Y2381D01*
X1512Y2377D01*
X1511Y2375D01*
X1333D01*
X1331Y2379D01*
X1325Y2383D01*
X1318Y2384D01*
D02*
G37*
G36*
X2953Y2260D02*
X2923D01*
Y2230D01*
X2927Y2230D01*
X2936Y2234D01*
X2943Y2240D01*
X2949Y2247D01*
X2953Y2256D01*
X2953Y2260D01*
D02*
G37*
G36*
X2913D02*
X2883D01*
X2883Y2256D01*
X2887Y2247D01*
X2893Y2240D01*
X2900Y2234D01*
X2909Y2230D01*
X2913Y2230D01*
Y2260D01*
D02*
G37*
G36*
X2489Y2245D02*
X2478D01*
Y2216D01*
X2522D01*
X2522Y2219D01*
X2519Y2228D01*
X2513Y2235D01*
X2506Y2240D01*
X2498Y2243D01*
X2489Y2245D01*
D02*
G37*
G36*
X2010Y2694D02*
X1982D01*
X1979Y2693D01*
X1976Y2691D01*
X1960Y2675D01*
X1913D01*
X1911Y2682D01*
X1908Y2688D01*
X1902Y2692D01*
X1895Y2693D01*
X1888Y2692D01*
X1882Y2688D01*
X1878Y2682D01*
X1877Y2675D01*
X1878Y2669D01*
X1875Y2664D01*
X1859D01*
X1856Y2663D01*
X1852Y2663D01*
X1850Y2665D01*
X1849Y2666D01*
X1846Y2668D01*
X1843Y2669D01*
X1843D01*
X1837Y2672D01*
X1830Y2674D01*
X1823Y2672D01*
X1818Y2669D01*
X1205D01*
X1203Y2672D01*
X1197Y2676D01*
X1190Y2678D01*
X1183Y2676D01*
X1177Y2672D01*
X1173Y2666D01*
X1172Y2659D01*
X1173Y2652D01*
X1177Y2647D01*
X1183Y2643D01*
X1190Y2641D01*
X1197Y2643D01*
X1203Y2647D01*
X1205Y2650D01*
X1523D01*
X1525Y2645D01*
X1524Y2643D01*
X1522Y2636D01*
X1524Y2629D01*
X1528Y2623D01*
X1528Y2622D01*
Y2617D01*
X1528Y2617D01*
X1525Y2614D01*
X1179D01*
X1178Y2617D01*
X1174Y2623D01*
X1168Y2627D01*
X1161Y2628D01*
X1154Y2627D01*
X1149Y2623D01*
X1145Y2617D01*
X1143Y2610D01*
X1145Y2603D01*
X1145Y2602D01*
X1143Y2598D01*
X1136D01*
X1130Y2597D01*
X1124Y2593D01*
X1121Y2588D01*
X1120Y2582D01*
Y2562D01*
X1121Y2556D01*
X1124Y2551D01*
X1130Y2547D01*
X1136Y2546D01*
X1171D01*
X1177Y2547D01*
X1183Y2551D01*
X1186Y2556D01*
X1187Y2562D01*
Y2582D01*
X1186Y2588D01*
X1185Y2590D01*
X1187Y2595D01*
X1520D01*
X1521Y2594D01*
X1520Y2589D01*
X1514Y2585D01*
X1510Y2579D01*
X1508Y2572D01*
X1510Y2565D01*
X1510Y2564D01*
X1508Y2560D01*
X1448D01*
X1445Y2565D01*
X1439Y2569D01*
X1432Y2570D01*
X1425Y2569D01*
X1419Y2565D01*
X1415Y2559D01*
X1414Y2552D01*
X1415Y2548D01*
X1397Y2530D01*
X1395Y2527D01*
X1394Y2523D01*
Y2427D01*
X1391Y2424D01*
X1387Y2418D01*
X1385Y2411D01*
X1387Y2404D01*
X1391Y2399D01*
X1397Y2395D01*
X1404Y2393D01*
X1410Y2395D01*
X1416Y2399D01*
X1420Y2404D01*
X1422Y2411D01*
X1420Y2418D01*
X1416Y2424D01*
X1413Y2427D01*
Y2520D01*
X1428Y2535D01*
X1432Y2534D01*
X1439Y2536D01*
X1445Y2539D01*
X1447Y2542D01*
X1535D01*
X1539Y2543D01*
X1542Y2545D01*
X1542Y2545D01*
X1695D01*
X1698Y2546D01*
X1701Y2548D01*
X1708Y2554D01*
X1861D01*
X1864Y2555D01*
X1867Y2557D01*
X1872Y2561D01*
X1898D01*
X1902Y2562D01*
X1905Y2564D01*
X1923Y2582D01*
X2214D01*
X2222Y2574D01*
Y2534D01*
X2222Y2531D01*
X2224Y2528D01*
X2238Y2514D01*
X2241Y2512D01*
X2242Y2512D01*
X2245Y2511D01*
X2346D01*
X2359Y2499D01*
X2358Y2494D01*
X2355Y2491D01*
X2350Y2485D01*
X2347Y2477D01*
X2346Y2469D01*
X2347Y2460D01*
X2350Y2453D01*
X2355Y2446D01*
X2362Y2441D01*
X2369Y2438D01*
X2378Y2437D01*
X2386Y2438D01*
X2393Y2441D01*
X2400Y2446D01*
X2405Y2453D01*
X2408Y2460D01*
X2409Y2469D01*
X2408Y2477D01*
X2405Y2485D01*
X2400Y2491D01*
X2393Y2496D01*
X2386Y2499D01*
X2383Y2500D01*
X2356Y2527D01*
X2355Y2533D01*
X2363Y2541D01*
X2369Y2538D01*
X2378Y2537D01*
X2386Y2538D01*
X2393Y2541D01*
X2400Y2546D01*
X2405Y2553D01*
X2408Y2560D01*
X2409Y2569D01*
X2408Y2577D01*
X2405Y2585D01*
X2400Y2591D01*
X2393Y2596D01*
X2386Y2599D01*
X2378Y2600D01*
X2369Y2599D01*
X2362Y2596D01*
X2355Y2591D01*
X2350Y2585D01*
X2347Y2577D01*
X2346Y2569D01*
X2347Y2560D01*
X2350Y2554D01*
X2339Y2543D01*
X2309D01*
Y2600D01*
X2259D01*
X2228Y2631D01*
X2227Y2631D01*
X2227Y2637D01*
X2227Y2637D01*
X2231Y2640D01*
X2235Y2646D01*
X2237Y2653D01*
X2235Y2660D01*
X2231Y2665D01*
X2225Y2669D01*
X2219Y2671D01*
X2214Y2670D01*
X2204Y2680D01*
X2201Y2682D01*
X2198Y2683D01*
X2173D01*
X2171Y2682D01*
X2170Y2682D01*
X2167Y2680D01*
X2161Y2674D01*
X2033D01*
X2016Y2691D01*
X2013Y2693D01*
X2010Y2694D01*
D02*
G37*
G36*
X1893Y2495D02*
X1886Y2493D01*
X1880Y2489D01*
X1877Y2486D01*
X1689D01*
X1686Y2489D01*
X1680Y2493D01*
X1673Y2495D01*
X1666Y2493D01*
X1660Y2489D01*
X1656Y2483D01*
X1655Y2476D01*
X1656Y2469D01*
X1660Y2464D01*
X1666Y2460D01*
X1673Y2458D01*
X1680Y2460D01*
X1686Y2464D01*
X1689Y2467D01*
X1877D01*
X1880Y2464D01*
X1886Y2460D01*
X1893Y2458D01*
X1900Y2460D01*
X1905Y2464D01*
X1909Y2469D01*
X1911Y2476D01*
X1909Y2483D01*
X1905Y2489D01*
X1900Y2493D01*
X1893Y2495D01*
D02*
G37*
G36*
X2483Y2504D02*
Y2474D01*
X2513D01*
X2512Y2478D01*
X2509Y2487D01*
X2503Y2494D01*
X2496Y2500D01*
X2487Y2503D01*
X2483Y2504D01*
D02*
G37*
G36*
X2300Y2885D02*
X2234D01*
Y2801D01*
X2300D01*
Y2885D01*
D02*
G37*
G36*
X2148Y2791D02*
X2141Y2789D01*
X2135Y2785D01*
X2131Y2780D01*
X2130Y2773D01*
X2128Y2770D01*
X1565D01*
X1562Y2774D01*
X1556Y2778D01*
X1549Y2779D01*
X1542Y2778D01*
X1536Y2774D01*
X1532Y2768D01*
X1531Y2761D01*
X1532Y2754D01*
X1536Y2748D01*
X1542Y2744D01*
X1549Y2743D01*
X1556Y2744D01*
X1562Y2748D01*
X1565Y2752D01*
X2126D01*
X2133Y2745D01*
X2136Y2743D01*
X2139Y2743D01*
X2156D01*
X2160Y2743D01*
X2163Y2745D01*
X2169Y2752D01*
X2253D01*
X2347Y2658D01*
X2350Y2656D01*
X2354Y2655D01*
X2434D01*
X2468Y2620D01*
Y2599D01*
X2462Y2596D01*
X2455Y2591D01*
X2450Y2585D01*
X2447Y2577D01*
X2446Y2569D01*
X2447Y2560D01*
X2450Y2553D01*
X2455Y2546D01*
X2462Y2541D01*
X2469Y2538D01*
X2478Y2537D01*
X2486Y2538D01*
X2493Y2541D01*
X2500Y2546D01*
X2505Y2553D01*
X2508Y2560D01*
X2509Y2569D01*
X2508Y2577D01*
X2505Y2585D01*
X2500Y2591D01*
X2493Y2596D01*
X2487Y2599D01*
Y2624D01*
X2486Y2627D01*
X2486Y2627D01*
X2484Y2630D01*
X2452Y2662D01*
X2454Y2667D01*
X2869D01*
X2870Y2666D01*
X2877Y2665D01*
X2884Y2666D01*
X2890Y2670D01*
X2894Y2676D01*
X2895Y2683D01*
X2894Y2690D01*
X2890Y2696D01*
X2884Y2700D01*
X2877Y2701D01*
X2870Y2700D01*
X2864Y2696D01*
X2860Y2690D01*
X2859Y2685D01*
X2362D01*
X2268Y2779D01*
X2265Y2781D01*
X2262Y2782D01*
X2163D01*
X2161Y2785D01*
X2155Y2789D01*
X2148Y2791D01*
D02*
G37*
G36*
X2534Y2783D02*
X2497D01*
Y2719D01*
X2534D01*
Y2783D01*
D02*
G37*
G36*
X2473Y2464D02*
X2442D01*
X2443Y2459D01*
X2446Y2451D01*
X2452Y2443D01*
X2460Y2438D01*
X2468Y2434D01*
X2473Y2433D01*
Y2464D01*
D02*
G37*
G36*
X2802Y2412D02*
X2795Y2410D01*
X2789Y2407D01*
X2787Y2403D01*
X2578D01*
X2574Y2402D01*
X2571Y2400D01*
X2490Y2319D01*
X2489Y2319D01*
X2458D01*
X2450Y2318D01*
X2443Y2315D01*
X2437Y2310D01*
X2432Y2304D01*
X2431Y2302D01*
X2291D01*
X2290Y2303D01*
X2285Y2307D01*
X2278Y2309D01*
X2271Y2307D01*
X2265Y2303D01*
X2261Y2297D01*
X2259Y2290D01*
X2261Y2283D01*
X2265Y2278D01*
X2271Y2274D01*
X2278Y2272D01*
X2285Y2274D01*
X2290Y2278D01*
X2291Y2278D01*
X2430D01*
X2432Y2274D01*
X2437Y2268D01*
X2443Y2263D01*
X2450Y2261D01*
X2458Y2259D01*
X2489D01*
X2497Y2261D01*
X2504Y2263D01*
X2510Y2268D01*
X2515Y2274D01*
X2518Y2282D01*
X2519Y2289D01*
X2518Y2297D01*
X2515Y2304D01*
X2510Y2310D01*
X2510Y2313D01*
X2582Y2385D01*
X2787D01*
X2789Y2381D01*
X2795Y2377D01*
X2802Y2376D01*
X2809Y2377D01*
X2815Y2381D01*
X2819Y2387D01*
X2820Y2394D01*
X2819Y2401D01*
X2815Y2407D01*
X2809Y2410D01*
X2802Y2412D01*
D02*
G37*
G36*
X1608Y2396D02*
X1601Y2395D01*
X1596Y2391D01*
X1592Y2385D01*
X1590Y2378D01*
X1592Y2371D01*
X1596Y2365D01*
X1601Y2361D01*
X1608Y2360D01*
X1615Y2361D01*
X1621Y2365D01*
X1622Y2366D01*
X1843D01*
X1847Y2360D01*
X1852Y2356D01*
X1859Y2355D01*
X1866Y2356D01*
X1872Y2360D01*
X1876Y2366D01*
X1878Y2373D01*
X1876Y2380D01*
X1872Y2386D01*
X1866Y2390D01*
X1859Y2391D01*
X1854Y2390D01*
X1622D01*
X1621Y2391D01*
X1615Y2395D01*
X1608Y2396D01*
D02*
G37*
G36*
X2473Y2504D02*
X2468Y2503D01*
X2460Y2500D01*
X2452Y2494D01*
X2446Y2487D01*
X2443Y2478D01*
X2442Y2474D01*
X2473D01*
Y2504D01*
D02*
G37*
G36*
X2278Y2500D02*
X2269Y2499D01*
X2262Y2496D01*
X2255Y2491D01*
X2250Y2485D01*
X2247Y2477D01*
X2246Y2469D01*
X2247Y2460D01*
X2250Y2453D01*
X2255Y2446D01*
X2262Y2441D01*
X2269Y2438D01*
X2278Y2437D01*
X2286Y2438D01*
X2293Y2441D01*
X2300Y2446D01*
X2305Y2453D01*
X2308Y2460D01*
X2309Y2469D01*
X2308Y2477D01*
X2305Y2485D01*
X2300Y2491D01*
X2293Y2496D01*
X2286Y2499D01*
X2278Y2500D01*
D02*
G37*
G36*
X2513Y2464D02*
X2483D01*
Y2433D01*
X2487Y2434D01*
X2496Y2438D01*
X2503Y2443D01*
X2509Y2451D01*
X2512Y2459D01*
X2513Y2464D01*
D02*
G37*
G36*
X1728Y2055D02*
X1677D01*
Y1984D01*
X1728D01*
Y2055D01*
D02*
G37*
G36*
X1669D02*
X1618D01*
Y1984D01*
X1669D01*
Y2055D01*
D02*
G37*
G36*
X1847D02*
X1795D01*
Y1984D01*
X1847D01*
Y2055D01*
D02*
G37*
G36*
X1787D02*
X1736D01*
Y1984D01*
X1787D01*
Y2055D01*
D02*
G37*
G36*
X1551D02*
X1500D01*
Y1984D01*
X1551D01*
Y2055D01*
D02*
G37*
G36*
X1374D02*
X1323D01*
Y1984D01*
X1374D01*
Y2055D01*
D02*
G37*
G36*
X1315D02*
X1264D01*
Y1984D01*
X1315D01*
Y2055D01*
D02*
G37*
G36*
X1492D02*
X1441D01*
Y1984D01*
X1492D01*
Y2055D01*
D02*
G37*
G36*
X1433D02*
X1382D01*
Y1984D01*
X1433D01*
Y2055D01*
D02*
G37*
G36*
X1993Y2059D02*
X1968D01*
Y2058D01*
X1968Y2058D01*
X1965Y2055D01*
X1963Y2055D01*
X1913D01*
Y1984D01*
X1963D01*
X1965Y1984D01*
X1968Y1981D01*
Y1980D01*
X1993D01*
Y2020D01*
Y2059D01*
D02*
G37*
G36*
X2920Y2172D02*
X2916Y2172D01*
X2908Y2168D01*
X2901Y2163D01*
X2896Y2156D01*
X2892Y2148D01*
X2892Y2144D01*
X2920D01*
Y2172D01*
D02*
G37*
G36*
X2768Y2169D02*
X2760Y2168D01*
X2753Y2165D01*
X2747Y2160D01*
X2742Y2154D01*
X2739Y2147D01*
X2738Y2139D01*
X2739Y2131D01*
X2742Y2124D01*
X2747Y2118D01*
X2753Y2113D01*
X2759Y2110D01*
X2758Y2105D01*
X2699D01*
X2698Y2110D01*
X2704Y2113D01*
X2710Y2118D01*
X2715Y2124D01*
X2718Y2131D01*
X2719Y2139D01*
X2718Y2147D01*
X2715Y2154D01*
X2710Y2160D01*
X2704Y2165D01*
X2697Y2168D01*
X2689Y2169D01*
X2681Y2168D01*
X2674Y2165D01*
X2668Y2160D01*
X2663Y2154D01*
X2660Y2147D01*
X2659Y2139D01*
X2660Y2131D01*
X2663Y2124D01*
X2668Y2118D01*
X2674Y2113D01*
X2680Y2110D01*
X2679Y2105D01*
X2659D01*
Y2106D01*
X2658Y2109D01*
X2656Y2112D01*
X2642Y2127D01*
X2639Y2129D01*
X2635Y2130D01*
X2239D01*
X2235Y2135D01*
X2235Y2135D01*
X2233Y2142D01*
X2229Y2148D01*
X2223Y2152D01*
X2217Y2153D01*
X2210Y2152D01*
X2204Y2148D01*
X2200Y2142D01*
X2198Y2135D01*
X2200Y2128D01*
X2203Y2123D01*
X2201Y2119D01*
X2197Y2119D01*
X2195Y2121D01*
X2189Y2125D01*
X2182Y2127D01*
X2175Y2125D01*
X2169Y2121D01*
X2165Y2116D01*
X2164Y2109D01*
X2165Y2102D01*
X2169Y2096D01*
X2175Y2092D01*
X2182Y2090D01*
X2189Y2092D01*
X2195Y2096D01*
X2197Y2099D01*
X2376D01*
Y1975D01*
X2393D01*
X2396Y1971D01*
X2396Y1970D01*
X2394Y1964D01*
X2396Y1957D01*
X2400Y1951D01*
X2405Y1947D01*
X2412Y1945D01*
X2419Y1947D01*
X2425Y1951D01*
X2429Y1957D01*
X2431Y1964D01*
X2429Y1970D01*
X2429Y1971D01*
X2432Y1975D01*
X2451D01*
Y1975D01*
X2455D01*
Y1975D01*
X2474D01*
X2477Y1970D01*
X2475Y1968D01*
X2474Y1961D01*
X2475Y1954D01*
X2479Y1948D01*
X2485Y1944D01*
X2492Y1942D01*
X2499Y1944D01*
X2505Y1948D01*
X2509Y1954D01*
X2510Y1961D01*
X2509Y1968D01*
X2507Y1970D01*
X2510Y1975D01*
X2529D01*
Y1971D01*
X2566D01*
Y2040D01*
X2576D01*
Y1971D01*
X2612D01*
Y1975D01*
X2630D01*
X2633Y1971D01*
X2633Y1970D01*
X2631Y1964D01*
X2633Y1957D01*
X2637Y1951D01*
X2643Y1947D01*
X2650Y1945D01*
X2657Y1947D01*
X2662Y1951D01*
X2666Y1957D01*
X2668Y1964D01*
X2666Y1970D01*
X2666Y1971D01*
X2669Y1975D01*
X2686D01*
X2687Y1975D01*
X2689D01*
X2691D01*
X2692Y1975D01*
X2766D01*
Y1971D01*
X2802D01*
Y2040D01*
Y2109D01*
X2786D01*
X2785Y2114D01*
X2789Y2118D01*
X2794Y2124D01*
X2797Y2131D01*
X2798Y2139D01*
X2797Y2147D01*
X2794Y2154D01*
X2789Y2160D01*
X2783Y2165D01*
X2775Y2168D01*
X2768Y2169D01*
D02*
G37*
G36*
X2846D02*
X2839Y2168D01*
X2832Y2165D01*
X2825Y2160D01*
X2821Y2154D01*
X2818Y2147D01*
X2817Y2139D01*
X2818Y2131D01*
X2821Y2124D01*
X2825Y2118D01*
X2830Y2114D01*
X2828Y2109D01*
X2812D01*
Y2040D01*
Y1971D01*
X2849D01*
Y1975D01*
X2923D01*
Y2101D01*
X2926Y2105D01*
X2926D01*
X2934Y2106D01*
X2942Y2109D01*
X2949Y2115D01*
X2955Y2122D01*
X2958Y2130D01*
X2958Y2134D01*
X2892D01*
X2892Y2130D01*
X2896Y2122D01*
X2901Y2115D01*
X2907Y2110D01*
X2905Y2105D01*
X2856D01*
X2855Y2110D01*
X2861Y2113D01*
X2868Y2118D01*
X2872Y2124D01*
X2875Y2131D01*
X2876Y2139D01*
X2875Y2147D01*
X2872Y2154D01*
X2868Y2160D01*
X2861Y2165D01*
X2854Y2168D01*
X2846Y2169D01*
D02*
G37*
G36*
X2522Y2206D02*
X2478D01*
Y2177D01*
X2489D01*
X2498Y2178D01*
X2506Y2181D01*
X2513Y2187D01*
X2519Y2194D01*
X2522Y2202D01*
X2522Y2206D01*
D02*
G37*
G36*
X2468D02*
X2424D01*
X2425Y2202D01*
X2428Y2194D01*
X2434Y2187D01*
X2441Y2181D01*
X2449Y2178D01*
X2458Y2177D01*
X2468D01*
Y2206D01*
D02*
G37*
G36*
X2930Y2172D02*
Y2144D01*
X2958D01*
X2958Y2148D01*
X2955Y2156D01*
X2949Y2163D01*
X2942Y2168D01*
X2934Y2172D01*
X2930Y2172D01*
D02*
G37*
G36*
X2028Y2059D02*
X2003D01*
Y2025D01*
X2028D01*
Y2059D01*
D02*
G37*
G36*
X2076Y2000D02*
Y1975D01*
X2110D01*
Y2000D01*
X2076D01*
D02*
G37*
G36*
X2028Y2015D02*
X2003D01*
Y1980D01*
X2026D01*
X2028Y1980D01*
X2031Y1977D01*
Y1975D01*
X2066D01*
Y2000D01*
X2033D01*
X2031Y2000D01*
X2028Y2003D01*
Y2015D01*
D02*
G37*
%LPD*%
G36*
X2018Y2646D02*
X2021Y2644D01*
X2025Y2643D01*
X2167D01*
X2169Y2640D01*
X2171Y2638D01*
X2170Y2633D01*
X2010D01*
X2008Y2638D01*
X2009Y2639D01*
X2013Y2644D01*
X2013Y2645D01*
X2018Y2646D01*
X2018Y2646D01*
D02*
G37*
G36*
X1564Y2600D02*
X1568Y2599D01*
X1621D01*
X1623Y2595D01*
X1623Y2594D01*
X1622Y2588D01*
X1623Y2581D01*
X1623Y2580D01*
X1621Y2576D01*
X1544D01*
X1543Y2579D01*
X1542Y2581D01*
X1544Y2587D01*
X1548Y2588D01*
X1554Y2591D01*
X1558Y2597D01*
X1558Y2599D01*
X1563Y2601D01*
X1564Y2600D01*
D02*
G37*
G36*
X1596Y2645D02*
X1593Y2641D01*
X1592Y2634D01*
X1593Y2627D01*
X1596Y2623D01*
X1594Y2618D01*
X1572D01*
X1558Y2632D01*
X1559Y2636D01*
X1557Y2643D01*
X1555Y2645D01*
X1558Y2650D01*
X1594D01*
X1596Y2645D01*
D02*
G37*
G36*
X1425Y1415D02*
X1423Y1411D01*
X1397D01*
X1340Y1468D01*
X1342Y1472D01*
X1368D01*
X1425Y1415D01*
D02*
G37*
G36*
X1867Y2106D02*
X1867Y2105D01*
X1864Y2101D01*
X1820D01*
X1819Y2102D01*
X1822Y2107D01*
X1865D01*
X1867Y2106D01*
D02*
G37*
G36*
X2526Y2107D02*
X2526Y2105D01*
X2496D01*
X2495Y2106D01*
X2498Y2111D01*
X2522D01*
X2526Y2107D01*
D02*
G37*
G36*
X2555Y1639D02*
Y1621D01*
X2545D01*
Y1637D01*
X2547Y1638D01*
X2550Y1641D01*
X2555Y1639D01*
D02*
G37*
G36*
X2609Y1707D02*
Y1663D01*
X2608D01*
X2604Y1662D01*
X2601Y1660D01*
X2597Y1661D01*
X2596Y1662D01*
Y1707D01*
X2600Y1709D01*
X2605D01*
X2609Y1707D01*
D02*
G37*
G36*
X1504Y2357D02*
X1501Y2352D01*
X1379D01*
X1379Y2352D01*
X1382Y2357D01*
X1503D01*
X1504Y2357D01*
D02*
G37*
G36*
X2595Y1655D02*
X2583Y1643D01*
X2559D01*
X2557Y1648D01*
X2569Y1660D01*
X2593D01*
X2595Y1655D01*
D02*
G37*
D10*
X2797Y1740D02*
D03*
Y1778D02*
D03*
Y1815D02*
D03*
X2689D02*
D03*
Y1740D02*
D03*
X2797Y1555D02*
D03*
Y1593D02*
D03*
Y1630D02*
D03*
X2689D02*
D03*
Y1555D02*
D03*
D11*
X2578Y1806D02*
D03*
Y1749D02*
D03*
X2634Y1564D02*
D03*
Y1621D02*
D03*
X2854Y1564D02*
D03*
Y1621D02*
D03*
X2633Y1806D02*
D03*
Y1749D02*
D03*
X2853D02*
D03*
Y1806D02*
D03*
X2579Y1621D02*
D03*
Y1564D02*
D03*
D12*
X2574Y1684D02*
D03*
X2631D02*
D03*
D13*
X2492Y2788D02*
D03*
X2413D02*
D03*
X2886Y2040D02*
D03*
X2807D02*
D03*
X2728D02*
D03*
X2650D02*
D03*
X2571D02*
D03*
X2492D02*
D03*
X2413D02*
D03*
D14*
X2305Y2890D02*
D03*
X2522D02*
D03*
D15*
X2413D02*
D03*
D16*
X2503Y1832D02*
D03*
Y1723D02*
D03*
Y1538D02*
D03*
Y1647D02*
D03*
D17*
X1289Y2020D02*
D03*
X1348D02*
D03*
X1407D02*
D03*
X1467D02*
D03*
X1526D02*
D03*
X1585D02*
D03*
X1644D02*
D03*
X1703D02*
D03*
X1762D02*
D03*
X1821D02*
D03*
X1880D02*
D03*
X1939D02*
D03*
X1998D02*
D03*
Y1508D02*
D03*
X1939D02*
D03*
X1880D02*
D03*
X1821D02*
D03*
X1762D02*
D03*
X1703D02*
D03*
X1644D02*
D03*
X1585D02*
D03*
X1526D02*
D03*
X1467D02*
D03*
X1407D02*
D03*
X1348D02*
D03*
X1289D02*
D03*
D03*
D18*
X2071Y1970D02*
D03*
Y1911D02*
D03*
Y1852D02*
D03*
Y1793D02*
D03*
Y1734D02*
D03*
Y1675D02*
D03*
Y1616D02*
D03*
Y1557D02*
D03*
D19*
X1673Y2476D02*
X1893D01*
X1673Y2254D02*
Y2303D01*
X1583Y2164D02*
X1673Y2254D01*
X1566Y2164D02*
X1583D01*
X1539Y2138D02*
X1566Y2164D01*
X1497Y2296D02*
X1630D01*
X1639Y2305D01*
X1504Y2185D02*
X1575D01*
X1396Y2183D02*
X1471D01*
X1575Y2075D02*
X1577Y2077D01*
X1540Y2098D02*
X1807D01*
X1532Y2091D02*
X1540Y2098D01*
X1807D02*
X1813Y2092D01*
X1577Y2077D02*
X1861D01*
X2746Y1935D02*
X2952D01*
X2745Y1934D02*
X2746Y1935D01*
X1535Y2551D02*
X1538Y2554D01*
X1861Y2563D02*
X1868Y2571D01*
X1704Y2563D02*
X1861D01*
X1695Y2554D02*
X1704Y2563D01*
X1538Y2554D02*
X1695D01*
X1885Y2655D02*
X1886Y2654D01*
X1859Y2655D02*
X1885D01*
X1969Y2654D02*
X1987Y2672D01*
X1899Y2654D02*
X1969D01*
X1899Y2654D02*
X1899Y2654D01*
X1886Y2654D02*
X1899D01*
X1964Y2666D02*
X1982Y2684D01*
X1904Y2666D02*
X1964D01*
X1895Y2675D02*
X1904Y2666D01*
X1987Y2672D02*
X2005D01*
X1982Y2684D02*
X2010D01*
X1871Y2624D02*
X2222D01*
X1851Y2605D02*
X1871Y2624D01*
X1867Y2603D02*
X1885D01*
X1851Y2587D02*
X1867Y2603D01*
X1568Y2608D02*
X1780D01*
X1540Y2636D02*
X1568Y2608D01*
X1649Y2596D02*
X1776D01*
X1640Y2587D02*
X1649Y2596D01*
X1827Y2605D02*
X1851D01*
X1780Y2608D02*
X1789Y2599D01*
X1827Y2588D02*
X1828Y2587D01*
X1827Y2588D02*
X1827D01*
X1826Y2587D02*
X1827Y2588D01*
X1784Y2587D02*
X1826D01*
X1776Y2596D02*
X1784Y2587D01*
X1821Y2599D02*
X1827Y2605D01*
X1789Y2599D02*
X1821D01*
X1828Y2587D02*
X1851D01*
X1190Y2659D02*
X1843D01*
X1657Y2575D02*
X1856D01*
X1863Y2583D01*
X2222Y2624D02*
X2278Y2569D01*
X1919Y2591D02*
X2218D01*
X1913Y2603D02*
X2226D01*
X1839Y2635D02*
X1859Y2655D01*
X1809Y2635D02*
X1839D01*
X1898Y2571D02*
X1919Y2591D01*
X1906Y2596D02*
X1913Y2603D01*
X2218Y2591D02*
X2231Y2578D01*
X2226Y2603D02*
X2243Y2586D01*
X1532Y2567D02*
X1648D01*
X1656Y2575D02*
X1657Y2575D01*
X1527Y2572D02*
X1532Y2567D01*
X1648D02*
X1656Y2575D01*
X1686D01*
X1639Y2305D02*
X1641D01*
X1459Y2258D02*
X1497Y2296D01*
X1588Y2343D02*
X1611Y2319D01*
X1358Y2343D02*
X1588D01*
X2182Y2108D02*
X2476D01*
X2231Y2120D02*
X2635D01*
X2217Y2135D02*
X2231Y2120D01*
X2476Y2108D02*
X2492Y2093D01*
X2635Y2120D02*
X2650Y2106D01*
X1813Y2092D02*
X1904D01*
X1861Y2077D02*
X1880Y2058D01*
X1497Y2116D02*
X1881D01*
X1883Y2118D01*
X1404Y2523D02*
X1432Y2552D01*
X1404Y2411D02*
Y2523D01*
X1318Y2366D02*
X1523D01*
X1525Y2364D01*
X1880Y2020D02*
Y2058D01*
X1393Y1402D02*
X2538D01*
X2663Y1150D02*
X2663Y1150D01*
X2535Y1150D02*
X2663D01*
X2535Y1402D02*
X2539D01*
X2553Y1414D02*
X2568D01*
X2544Y1423D02*
X2553Y1414D01*
X2527Y1423D02*
X2544D01*
X2518Y1414D02*
X2527Y1423D01*
X1439Y1414D02*
X2518D01*
X2538Y1402D02*
X2539Y1402D01*
X1289Y1505D02*
X1393Y1402D01*
X1289Y1505D02*
Y1508D01*
X2663Y1250D02*
X2663Y1250D01*
X2567Y1250D02*
X2663D01*
X1348Y1505D02*
X1439Y1414D01*
X1348Y1505D02*
Y1508D01*
X1768Y2183D02*
Y2183D01*
X1785Y2171D02*
X2138D01*
X1776Y2162D02*
X1785Y2171D01*
X1759Y2162D02*
X1776D01*
X1750Y2171D02*
X1759Y2162D01*
X1737Y2171D02*
X1750D01*
X1768Y2183D02*
X2143D01*
X2143Y2183D01*
X2156D01*
X2138Y2171D02*
X2147Y2162D01*
X2164D01*
X2173Y2171D02*
X2236D01*
X2164Y2162D02*
X2173Y2171D01*
X2155Y1773D02*
X2155Y1772D01*
X2576D01*
X2235Y1504D02*
X2235Y1504D01*
X2746D01*
X2797Y1555D01*
X2182Y2109D02*
X2182Y2108D01*
X2650Y1964D02*
Y2106D01*
X2198Y2673D02*
X2219Y2653D01*
X2173Y2673D02*
X2198D01*
X2165Y2665D02*
X2173Y2673D01*
X2029Y2665D02*
X2165D01*
X2010Y2684D02*
X2029Y2665D01*
X1868Y2571D02*
X1898D01*
X1640Y2588D02*
X1640Y2587D01*
X1805Y2638D02*
X1809Y2635D01*
X1830Y2655D02*
X1839D01*
X1863Y2583D02*
X1893D01*
X1906Y2595D02*
Y2596D01*
X1893Y2583D02*
X1906Y2595D01*
X1839Y2655D02*
X1843Y2659D01*
X2005Y2672D02*
X2025Y2653D01*
X2182D01*
X2492Y2040D02*
Y2093D01*
Y1961D02*
Y2040D01*
X2576Y1751D02*
X2578Y1749D01*
X2576Y1751D02*
Y1772D01*
X2745Y1815D02*
X2745Y1815D01*
X2678Y1697D02*
X2680D01*
X2665Y1684D02*
X2678Y1697D01*
X2631Y1684D02*
X2665D01*
X2745Y1815D02*
X2797D01*
X2148Y2773D02*
X2262D01*
X2148D02*
X2148Y2773D01*
X2165Y2761D02*
X2257D01*
X2156Y2752D02*
X2165Y2761D01*
X2139Y2752D02*
X2156D01*
X2130Y2761D02*
X2139Y2752D01*
X1549Y2761D02*
X2130D01*
X2262Y2773D02*
X2359Y2676D01*
X2870D01*
X2877Y2683D01*
X2257Y2761D02*
X2354Y2664D01*
X2437D01*
X2478Y2624D01*
X2578Y2394D02*
X2802D01*
X2473Y2289D02*
X2578Y2394D01*
X1432Y2552D02*
X1433Y2551D01*
X1535D01*
X2231Y2534D02*
Y2578D01*
Y2534D02*
X2245Y2521D01*
X2349D01*
X2378Y2493D01*
Y2469D02*
Y2493D01*
X1167Y2604D02*
X1541D01*
X1161Y2610D02*
X1167Y2604D01*
X2243Y2539D02*
Y2586D01*
Y2539D02*
X2248Y2534D01*
X2343D01*
X2378Y2569D01*
X2478D02*
Y2624D01*
X1358Y2344D02*
X1359Y2344D01*
D20*
X2504Y1050D02*
X2663D01*
X2382Y1172D02*
X2504Y1050D01*
X2382Y1172D02*
Y1200D01*
X2505Y1721D02*
X2670D01*
X2674Y1725D01*
X2503Y1721D02*
X2505Y1721D01*
X2379Y1721D02*
X2381Y1723D01*
X2503D01*
X2278Y2290D02*
X2472D01*
X2642Y1815D02*
X2689D01*
X2797Y1740D02*
X2797Y1740D01*
X2745Y1740D02*
X2797D01*
X2278Y1900D02*
X2719D01*
X2472Y2290D02*
X2473Y2289D01*
X2412Y1964D02*
Y2039D01*
X2797Y1740D02*
X2844D01*
X2678D02*
X2689D01*
X2797Y1630D02*
X2844D01*
X2853Y1620D01*
X2844Y1555D02*
X2854Y1566D01*
X2797Y1555D02*
X2844D01*
X2689D02*
Y1574D01*
X2644Y1619D02*
X2689Y1574D01*
X2634Y1619D02*
X2644D01*
X2634Y1563D02*
Y1566D01*
Y1563D02*
X2664Y1532D01*
X2717D01*
X2778Y1593D01*
X2797D01*
X2844Y1740D02*
X2853Y1749D01*
X2503Y1647D02*
X2539D01*
X2576Y1684D01*
X2854Y1619D02*
Y1748D01*
X2432Y1200D02*
Y1238D01*
X2389Y1281D02*
X2432Y1238D01*
X1940Y1281D02*
X2389D01*
X1940Y1454D02*
Y1507D01*
X1939Y1508D02*
X1940Y1507D01*
X2674Y1725D02*
X2689Y1740D01*
D21*
X1865Y2639D02*
X1975D01*
X1988Y2652D01*
X1996D01*
X1845Y2620D02*
X1865Y2639D01*
X1821Y2620D02*
X1845D01*
X1776Y2634D02*
X1795Y2614D01*
X1815D02*
X1821Y2620D01*
X1795Y2614D02*
X1815D01*
X1610Y2634D02*
X1776D01*
X1608Y2378D02*
X1857D01*
X1859Y2373D02*
Y2376D01*
X1857Y2378D02*
X1859Y2376D01*
X1171Y2310D02*
X1412D01*
X1171Y1074D02*
X1237Y1008D01*
X2432Y1025D02*
Y1050D01*
X2415Y1008D02*
X2432Y1025D01*
X1237Y1008D02*
X2415D01*
X1286Y1627D02*
X2007D01*
X2567Y1609D02*
X2579Y1621D01*
X2462Y1609D02*
X2567D01*
X2444Y1627D02*
X2462Y1609D01*
X2127Y1627D02*
X2444D01*
X2668Y1651D02*
X2689Y1630D01*
X2608Y1651D02*
X2668D01*
X2579Y1621D02*
X2608Y1651D01*
D22*
X1037Y2583D02*
D03*
X1154Y2381D02*
D03*
Y2572D02*
D03*
X1034Y2370D02*
D03*
D23*
X2689Y2139D02*
D03*
X2768D02*
D03*
X2846D02*
D03*
X2925D02*
D03*
D24*
X1171Y1074D02*
D03*
X1271D02*
D03*
X1371D02*
D03*
X1471D02*
D03*
X1571D02*
D03*
X1671D02*
D03*
X1771D02*
D03*
X1871D02*
D03*
X1971D02*
D03*
X2071D02*
D03*
X2171D02*
D03*
D25*
X2918Y2265D02*
D03*
X2818D02*
D03*
X2718D02*
D03*
X2663Y1150D02*
D03*
Y1250D02*
D03*
Y1350D02*
D03*
X2478Y2569D02*
D03*
Y2469D02*
D03*
X2378D02*
D03*
Y2569D02*
D03*
X2278Y2469D02*
D03*
D26*
X2618Y2265D02*
D03*
D27*
X2432Y1350D02*
D03*
X2382D02*
D03*
X2432Y1200D02*
D03*
X2382D02*
D03*
X2432Y1050D02*
D03*
X2382D02*
D03*
D28*
X2663D02*
D03*
X2278Y2569D02*
D03*
D29*
X2473Y2211D02*
D03*
Y2289D02*
D03*
D30*
X1893Y2476D02*
D03*
X1673D02*
D03*
Y2303D02*
D03*
X1539Y2138D02*
D03*
X1504Y2185D02*
D03*
X1471Y2183D02*
D03*
X1575Y2185D02*
D03*
Y2075D02*
D03*
X2307Y2835D02*
D03*
Y2874D02*
D03*
Y2913D02*
D03*
X2520Y2835D02*
D03*
Y2874D02*
D03*
Y2913D02*
D03*
X2044Y2463D02*
D03*
X2099D02*
D03*
X2072D02*
D03*
X1435Y2460D02*
D03*
X1540Y2636D02*
D03*
X1686Y2575D02*
D03*
X1608Y2378D02*
D03*
X1641Y2305D02*
D03*
X1459Y2258D02*
D03*
X1904Y2092D02*
D03*
X1859Y2373D02*
D03*
X1532Y2091D02*
D03*
X1497Y2116D02*
D03*
X1883Y2118D02*
D03*
X1404Y2411D02*
D03*
X1396Y2183D02*
D03*
X1318Y2366D02*
D03*
X1525Y2364D02*
D03*
X2535Y1150D02*
D03*
X2535Y1402D02*
D03*
X2567Y1250D02*
D03*
X2568Y1414D02*
D03*
X1412Y2310D02*
D03*
X1171D02*
D03*
X1768Y2183D02*
D03*
X2156D02*
D03*
X2155Y1773D02*
D03*
X1737Y2171D02*
D03*
X2236D02*
D03*
X2235Y1504D02*
D03*
X2182Y2109D02*
D03*
X2217Y2135D02*
D03*
X2278Y2290D02*
D03*
X2219Y2653D02*
D03*
X1895Y2675D02*
D03*
X1805Y2638D02*
D03*
X1830Y2655D02*
D03*
X1885Y2603D02*
D03*
X2182Y2653D02*
D03*
X2492Y1961D02*
D03*
X2576Y1772D02*
D03*
X2745Y1815D02*
D03*
X2680Y1697D02*
D03*
X1610Y2634D02*
D03*
X2745Y1740D02*
D03*
X2719Y1900D02*
D03*
X2278D02*
D03*
X2745Y1934D02*
D03*
X2952Y1935D02*
D03*
X2148Y2773D02*
D03*
X2350Y2717D02*
D03*
X2390Y2697D02*
D03*
X2877Y2683D02*
D03*
X2802Y2394D02*
D03*
X1432Y2552D02*
D03*
X1527Y2572D02*
D03*
X1541Y2604D02*
D03*
X1640Y2588D02*
D03*
X1549Y2761D02*
D03*
X2350Y2756D02*
D03*
X1611Y2319D02*
D03*
X1996Y2652D02*
D03*
X1358Y2343D02*
D03*
X2007Y1627D02*
D03*
X1286D02*
D03*
X2127D02*
D03*
X1161Y2610D02*
D03*
X1190Y2659D02*
D03*
X2412Y1964D02*
D03*
X2650D02*
D03*
X2518Y2953D02*
D03*
X2307D02*
D03*
X2437Y2697D02*
D03*
X2476Y2717D02*
D03*
Y2756D02*
D03*
Y2835D02*
D03*
Y2874D02*
D03*
Y2913D02*
D03*
Y2953D02*
D03*
X2350Y2835D02*
D03*
Y2874D02*
D03*
Y2913D02*
D03*
Y2953D02*
D03*
X2476Y2795D02*
D03*
X2518D02*
D03*
X2559D02*
D03*
X2350D02*
D03*
X2307D02*
D03*
X2264D02*
D03*
Y2953D02*
D03*
Y2913D02*
D03*
Y2874D02*
D03*
Y2835D02*
D03*
X2559Y2953D02*
D03*
Y2913D02*
D03*
Y2874D02*
D03*
Y2835D02*
D03*
X2576Y1684D02*
D03*
X2379Y1721D02*
D03*
X1940Y1281D02*
D03*
Y1454D02*
D03*
X2854Y1673D02*
D03*
D31*
X2756Y2362D02*
D03*
Y1575D02*
D03*
X2854Y1378D02*
D03*
X2756Y1181D02*
D03*
X2657Y2559D02*
D03*
X2559Y1181D02*
D03*
X2362Y2362D02*
D03*
X2461Y2165D02*
D03*
X2362Y1969D02*
D03*
X2165Y1575D02*
D03*
X2264Y1378D02*
D03*
X2165Y1181D02*
D03*
X1969Y1969D02*
D03*
Y1575D02*
D03*
X2067Y1378D02*
D03*
X1969Y1181D02*
D03*
X1772Y1969D02*
D03*
X1870Y1772D02*
D03*
X1772Y1575D02*
D03*
X1870Y1378D02*
D03*
X1772Y1181D02*
D03*
X1673Y2165D02*
D03*
X1575Y1969D02*
D03*
X1673Y1772D02*
D03*
X1575Y1575D02*
D03*
X1673Y1378D02*
D03*
X1575Y1181D02*
D03*
X1378Y2756D02*
D03*
Y1969D02*
D03*
Y1575D02*
D03*
Y1181D02*
D03*
X1280Y1378D02*
D03*
M02*
