%FSLAX23Y23*%
%MOIN*%
G70*
G01*
G75*
G04 Layer_Color=32896*
%ADD10R,0.039X0.059*%
%ADD11R,0.059X0.039*%
%ADD12R,0.035X0.031*%
%ADD13R,0.073X0.051*%
%ADD14R,0.059X0.157*%
%ADD15R,0.063X0.079*%
%ADD16R,0.035X0.030*%
%ADD17R,0.030X0.035*%
%ADD18R,0.039X0.022*%
%ADD19C,0.012*%
%ADD20C,0.012*%
%ADD21C,0.006*%
%ADD22O,0.047X0.079*%
%ADD23R,0.051X0.051*%
%ADD24C,0.051*%
%ADD25R,0.043X0.059*%
%ADD26O,0.043X0.059*%
%ADD27C,0.061*%
%ADD28C,0.060*%
%ADD29C,0.024*%
%ADD30C,0.008*%
%ADD31R,0.006X0.159*%
%ADD32R,0.006X0.159*%
%ADD33R,0.248X0.006*%
%ADD34R,0.350X0.006*%
%ADD35R,0.008X0.008*%
%ADD36R,0.006X0.314*%
%ADD37R,0.269X0.006*%
%ADD38R,0.047X0.067*%
%ADD39R,0.067X0.047*%
%ADD40R,0.043X0.039*%
%ADD41R,0.081X0.059*%
%ADD42R,0.067X0.165*%
%ADD43R,0.071X0.087*%
%ADD44R,0.043X0.038*%
%ADD45R,0.038X0.043*%
%ADD46R,0.047X0.030*%
%ADD47O,0.055X0.087*%
%ADD48R,0.059X0.059*%
%ADD49C,0.059*%
%ADD50R,0.051X0.067*%
%ADD51O,0.051X0.067*%
%ADD52C,0.069*%
%ADD53C,0.068*%
%ADD54C,0.001*%
%ADD55C,0.002*%
%ADD56R,0.008X0.008*%
%ADD57R,0.277X0.006*%
%ADD58R,0.008X0.004*%
G36*
X1759Y2940D02*
X1751D01*
Y2915D01*
X1759D01*
Y2911D01*
X1739D01*
Y2915D01*
X1747D01*
Y2940D01*
X1739D01*
Y2944D01*
X1759D01*
Y2940D01*
D02*
G37*
G36*
X1788D02*
X1779D01*
Y2911D01*
X1774D01*
Y2940D01*
X1765D01*
Y2944D01*
X1788D01*
Y2940D01*
D02*
G37*
G36*
X1652Y2911D02*
X1647D01*
X1645Y2918D01*
X1632D01*
X1629Y2911D01*
X1625D01*
X1635Y2944D01*
X1641D01*
X1652Y2911D01*
D02*
G37*
G36*
X1674D02*
X1655D01*
Y2915D01*
X1670D01*
Y2944D01*
X1674D01*
Y2911D01*
D02*
G37*
G36*
X1818D02*
X1813D01*
X1811Y2918D01*
X1798D01*
X1795Y2911D01*
X1791D01*
X1801Y2944D01*
X1807D01*
X1818Y2911D01*
D02*
G37*
G36*
X1858Y2944D02*
X1859Y2944D01*
X1860Y2944D01*
X1861Y2943D01*
X1862Y2943D01*
X1862Y2943D01*
X1863Y2943D01*
X1863Y2943D01*
X1863Y2943D01*
X1863D01*
X1864Y2942D01*
X1865Y2942D01*
X1866Y2941D01*
X1866Y2941D01*
X1867Y2940D01*
X1867Y2940D01*
X1868Y2940D01*
X1868Y2940D01*
X1868Y2939D01*
X1869Y2938D01*
X1870Y2937D01*
X1870Y2936D01*
X1870Y2935D01*
X1871Y2935D01*
X1871Y2935D01*
X1871Y2934D01*
X1871Y2934D01*
Y2934D01*
X1871Y2933D01*
X1871Y2932D01*
X1872Y2931D01*
X1872Y2929D01*
X1872Y2929D01*
Y2928D01*
X1872Y2928D01*
Y2927D01*
Y2927D01*
Y2927D01*
Y2927D01*
X1872Y2926D01*
X1872Y2924D01*
X1872Y2923D01*
X1871Y2922D01*
X1871Y2921D01*
X1871Y2921D01*
X1871Y2921D01*
X1871Y2920D01*
X1871Y2920D01*
X1871Y2920D01*
Y2920D01*
X1871Y2919D01*
X1870Y2918D01*
X1870Y2917D01*
X1869Y2916D01*
X1869Y2916D01*
X1868Y2915D01*
X1868Y2915D01*
X1868Y2915D01*
X1867Y2914D01*
X1867Y2914D01*
X1866Y2913D01*
X1865Y2913D01*
X1865Y2912D01*
X1864Y2912D01*
X1864Y2912D01*
X1864Y2912D01*
X1864D01*
X1863Y2912D01*
X1861Y2911D01*
X1861Y2911D01*
X1860Y2911D01*
X1859Y2911D01*
X1858Y2911D01*
X1858D01*
X1857Y2911D01*
X1856Y2911D01*
X1856D01*
X1856Y2911D01*
X1855D01*
X1855Y2911D01*
X1854Y2911D01*
X1854Y2911D01*
X1853D01*
X1853Y2911D01*
X1853D01*
X1852Y2912D01*
X1852Y2912D01*
X1852Y2912D01*
X1851Y2912D01*
X1851Y2912D01*
X1851Y2912D01*
X1851D01*
X1850Y2912D01*
X1849Y2913D01*
X1849Y2913D01*
X1849Y2913D01*
X1849Y2913D01*
X1849D01*
Y2929D01*
X1860D01*
Y2926D01*
X1853D01*
Y2916D01*
X1853Y2915D01*
X1854Y2915D01*
X1854Y2915D01*
X1854Y2915D01*
X1854Y2915D01*
X1855Y2915D01*
X1855Y2915D01*
X1855D01*
X1855Y2915D01*
X1856D01*
X1856Y2915D01*
X1857D01*
X1858Y2915D01*
X1859Y2915D01*
X1860Y2915D01*
X1860Y2915D01*
X1861Y2915D01*
X1861Y2916D01*
X1862Y2916D01*
X1862Y2916D01*
X1862Y2916D01*
X1863Y2916D01*
X1864Y2917D01*
X1864Y2917D01*
X1864Y2918D01*
X1865Y2918D01*
X1865Y2918D01*
X1865Y2918D01*
X1865Y2919D01*
X1866Y2919D01*
X1866Y2920D01*
X1866Y2921D01*
X1866Y2921D01*
X1867Y2922D01*
X1867Y2922D01*
X1867Y2922D01*
X1867Y2923D01*
X1867Y2924D01*
X1867Y2925D01*
X1867Y2926D01*
Y2926D01*
X1867Y2927D01*
Y2927D01*
Y2927D01*
Y2927D01*
Y2927D01*
X1867Y2928D01*
X1867Y2929D01*
X1867Y2930D01*
X1867Y2931D01*
X1867Y2932D01*
X1867Y2932D01*
X1867Y2932D01*
X1867Y2933D01*
X1866Y2933D01*
X1866Y2934D01*
X1866Y2935D01*
X1865Y2935D01*
X1865Y2936D01*
X1865Y2936D01*
X1865Y2936D01*
X1865Y2937D01*
X1864Y2937D01*
X1863Y2938D01*
X1863Y2938D01*
X1862Y2938D01*
X1862Y2939D01*
X1861Y2939D01*
X1861Y2939D01*
X1861Y2939D01*
X1860Y2939D01*
X1860Y2940D01*
X1859Y2940D01*
X1858Y2940D01*
X1858Y2940D01*
X1857Y2940D01*
X1856D01*
X1855Y2940D01*
X1854Y2940D01*
X1854Y2940D01*
X1853Y2940D01*
X1853Y2940D01*
X1853Y2940D01*
X1852D01*
X1851Y2939D01*
X1850Y2939D01*
X1850Y2939D01*
X1849Y2938D01*
X1849Y2938D01*
X1849Y2938D01*
X1849Y2938D01*
Y2942D01*
X1850Y2943D01*
X1851Y2943D01*
X1851Y2943D01*
X1852Y2943D01*
X1852Y2944D01*
X1852Y2944D01*
X1853D01*
X1854Y2944D01*
X1855Y2944D01*
X1855Y2944D01*
X1856Y2944D01*
X1857D01*
X1858Y2944D01*
D02*
G37*
G36*
X1554Y2944D02*
X1555Y2944D01*
X1556Y2944D01*
X1557Y2943D01*
X1557Y2943D01*
X1558Y2943D01*
X1558Y2943D01*
X1558Y2943D01*
X1558Y2943D01*
X1558D01*
X1559Y2942D01*
X1560Y2942D01*
X1561Y2941D01*
X1562Y2941D01*
X1562Y2940D01*
X1563Y2940D01*
X1563Y2939D01*
X1563Y2939D01*
X1564Y2939D01*
X1564Y2938D01*
X1565Y2937D01*
X1565Y2936D01*
X1565Y2935D01*
X1566Y2935D01*
X1566Y2934D01*
X1566Y2934D01*
X1566Y2934D01*
Y2934D01*
X1566Y2933D01*
X1566Y2932D01*
X1567Y2930D01*
X1567Y2929D01*
X1567Y2929D01*
Y2928D01*
X1567Y2928D01*
Y2927D01*
Y2927D01*
Y2927D01*
Y2927D01*
X1567Y2926D01*
X1567Y2924D01*
X1566Y2923D01*
X1566Y2922D01*
X1566Y2921D01*
X1566Y2920D01*
X1565Y2919D01*
X1565Y2918D01*
X1565Y2917D01*
X1564Y2917D01*
X1564Y2916D01*
X1564Y2916D01*
X1563Y2916D01*
X1563Y2915D01*
X1563Y2915D01*
X1563Y2915D01*
X1562Y2914D01*
X1562Y2914D01*
X1561Y2913D01*
X1560Y2913D01*
X1559Y2912D01*
X1558Y2912D01*
X1557Y2912D01*
X1557Y2912D01*
X1556Y2911D01*
X1555Y2911D01*
X1554Y2911D01*
X1554Y2911D01*
X1553D01*
X1553Y2911D01*
X1553D01*
X1551Y2911D01*
X1550Y2911D01*
X1548Y2912D01*
X1547Y2912D01*
X1546Y2912D01*
X1546Y2912D01*
X1546Y2912D01*
X1545Y2912D01*
X1545Y2912D01*
X1545Y2913D01*
X1545Y2913D01*
X1545D01*
Y2917D01*
X1546Y2916D01*
X1547Y2916D01*
X1547Y2916D01*
X1548Y2916D01*
X1548Y2916D01*
X1548Y2915D01*
X1548D01*
X1550Y2915D01*
X1550Y2915D01*
X1551Y2915D01*
X1551Y2915D01*
X1552D01*
X1553Y2915D01*
X1554Y2915D01*
X1555Y2915D01*
X1555Y2915D01*
X1556Y2916D01*
X1557Y2916D01*
X1557Y2916D01*
X1558Y2917D01*
X1558Y2917D01*
X1559Y2917D01*
X1559Y2917D01*
X1559Y2918D01*
X1559Y2918D01*
X1560Y2918D01*
X1560Y2918D01*
X1560Y2918D01*
X1560Y2919D01*
X1560Y2919D01*
X1561Y2921D01*
X1562Y2923D01*
X1562Y2924D01*
X1562Y2925D01*
X1562Y2925D01*
X1562Y2926D01*
Y2926D01*
X1562Y2927D01*
Y2927D01*
Y2927D01*
Y2928D01*
X1562Y2929D01*
X1562Y2930D01*
X1562Y2930D01*
X1562Y2931D01*
X1562Y2932D01*
X1562Y2932D01*
X1561Y2933D01*
Y2933D01*
X1561Y2934D01*
X1561Y2934D01*
X1561Y2935D01*
X1560Y2936D01*
X1560Y2936D01*
X1560Y2936D01*
X1560Y2937D01*
X1560Y2937D01*
X1559Y2937D01*
X1558Y2938D01*
X1558Y2938D01*
X1557Y2939D01*
X1557Y2939D01*
X1557Y2939D01*
X1556Y2939D01*
X1556Y2939D01*
X1556Y2939D01*
X1555Y2940D01*
X1554Y2940D01*
X1554Y2940D01*
X1553Y2940D01*
X1553Y2940D01*
X1551D01*
X1551Y2940D01*
X1550Y2940D01*
X1549Y2940D01*
X1549Y2940D01*
X1549Y2940D01*
X1548Y2940D01*
X1548D01*
X1547Y2939D01*
X1546Y2939D01*
X1546Y2939D01*
X1545Y2938D01*
X1545Y2938D01*
X1545Y2938D01*
X1545Y2938D01*
Y2942D01*
X1546Y2943D01*
X1547Y2943D01*
X1547Y2943D01*
X1548Y2943D01*
X1548Y2944D01*
X1548Y2944D01*
X1548D01*
X1550Y2944D01*
X1550Y2944D01*
X1551Y2944D01*
X1552Y2944D01*
X1552D01*
X1554Y2944D01*
D02*
G37*
G36*
X1901Y2911D02*
X1896D01*
X1894Y2918D01*
X1881D01*
X1879Y2911D01*
X1874D01*
X1884Y2944D01*
X1890D01*
X1901Y2911D01*
D02*
G37*
G36*
X1927Y2940D02*
X1917D01*
Y2911D01*
X1913D01*
Y2940D01*
X1903D01*
Y2944D01*
X1927D01*
Y2940D01*
D02*
G37*
G36*
X2969Y2613D02*
X2794D01*
Y2662D01*
X2969D01*
Y2613D01*
D02*
G37*
G36*
X2692Y2752D02*
X2596D01*
Y2800D01*
X2692D01*
Y2752D01*
D02*
G37*
G36*
X2402Y2841D02*
X2222D01*
Y2890D01*
X2402D01*
Y2841D01*
D02*
G37*
G36*
X2969Y2122D02*
X2433D01*
Y2170D01*
X2969D01*
Y2122D01*
D02*
G37*
G36*
X1528Y2944D02*
X1529Y2944D01*
X1530Y2944D01*
X1531Y2944D01*
X1531Y2943D01*
X1532Y2943D01*
X1532Y2943D01*
X1532Y2943D01*
X1533Y2943D01*
X1534Y2942D01*
X1534Y2942D01*
X1535Y2941D01*
X1536Y2941D01*
X1536Y2940D01*
X1536Y2940D01*
X1536Y2940D01*
X1537Y2939D01*
X1537Y2938D01*
X1538Y2937D01*
X1538Y2937D01*
X1539Y2936D01*
X1539Y2935D01*
X1539Y2935D01*
X1539Y2935D01*
X1539Y2935D01*
Y2935D01*
X1539Y2934D01*
X1539Y2932D01*
X1540Y2931D01*
X1540Y2930D01*
X1540Y2929D01*
Y2928D01*
X1540Y2928D01*
Y2928D01*
Y2927D01*
Y2927D01*
Y2927D01*
X1540Y2926D01*
X1540Y2925D01*
X1540Y2923D01*
X1540Y2922D01*
X1539Y2922D01*
X1539Y2921D01*
X1539Y2921D01*
X1539Y2921D01*
Y2921D01*
X1539Y2920D01*
Y2920D01*
X1539Y2919D01*
X1539Y2918D01*
X1538Y2917D01*
X1538Y2917D01*
X1538Y2916D01*
X1537Y2916D01*
X1537Y2915D01*
X1537Y2915D01*
X1536Y2915D01*
X1536Y2914D01*
X1535Y2913D01*
X1534Y2913D01*
X1534Y2913D01*
X1534Y2912D01*
X1533Y2912D01*
X1533Y2912D01*
X1532Y2912D01*
X1531Y2911D01*
X1530Y2911D01*
X1530Y2911D01*
X1529Y2911D01*
X1528Y2911D01*
X1528D01*
X1527Y2911D01*
X1526Y2911D01*
X1525Y2911D01*
X1524Y2911D01*
X1524Y2912D01*
X1523Y2912D01*
X1523Y2912D01*
X1523Y2912D01*
X1522Y2912D01*
X1521Y2913D01*
X1521Y2913D01*
X1520Y2914D01*
X1519Y2914D01*
X1519Y2915D01*
X1519Y2915D01*
X1519Y2915D01*
X1518Y2916D01*
X1518Y2917D01*
X1517Y2918D01*
X1517Y2918D01*
X1516Y2919D01*
X1516Y2920D01*
X1516Y2920D01*
X1516Y2920D01*
X1516Y2920D01*
Y2920D01*
X1516Y2921D01*
X1515Y2923D01*
X1515Y2924D01*
X1515Y2925D01*
X1515Y2926D01*
Y2927D01*
X1515Y2927D01*
Y2927D01*
Y2928D01*
Y2928D01*
Y2928D01*
X1515Y2929D01*
X1515Y2930D01*
X1515Y2932D01*
X1515Y2932D01*
X1516Y2933D01*
X1516Y2934D01*
X1516Y2934D01*
X1516Y2934D01*
Y2934D01*
X1516Y2934D01*
Y2934D01*
X1516Y2936D01*
X1516Y2937D01*
X1517Y2937D01*
X1517Y2938D01*
X1518Y2939D01*
X1518Y2939D01*
X1518Y2939D01*
X1518Y2940D01*
X1519Y2940D01*
X1519Y2941D01*
X1520Y2942D01*
X1521Y2942D01*
X1521Y2942D01*
X1522Y2943D01*
X1522Y2943D01*
X1522Y2943D01*
X1523Y2943D01*
X1524Y2944D01*
X1525Y2944D01*
X1525Y2944D01*
X1526Y2944D01*
X1527Y2944D01*
X1527D01*
X1528Y2944D01*
D02*
G37*
G36*
X1943D02*
X1944Y2944D01*
X1945Y2944D01*
X1945Y2944D01*
X1946Y2943D01*
X1947Y2943D01*
X1947Y2943D01*
X1947Y2943D01*
X1948Y2943D01*
X1948Y2943D01*
X1949Y2942D01*
X1950Y2942D01*
X1950Y2942D01*
X1950Y2941D01*
X1951Y2941D01*
X1951Y2941D01*
X1951Y2941D01*
X1952Y2940D01*
X1952Y2940D01*
X1952Y2939D01*
X1952Y2939D01*
X1953Y2939D01*
X1953Y2938D01*
X1953Y2938D01*
X1953Y2938D01*
X1953Y2937D01*
X1953Y2937D01*
X1953Y2936D01*
X1953Y2936D01*
X1953Y2935D01*
Y2935D01*
Y2935D01*
X1953Y2934D01*
X1953Y2934D01*
X1953Y2933D01*
X1953Y2933D01*
X1953Y2932D01*
X1953Y2932D01*
X1953Y2932D01*
X1953Y2932D01*
X1952Y2931D01*
X1952Y2930D01*
X1952Y2930D01*
X1951Y2930D01*
X1951Y2930D01*
X1951Y2929D01*
X1951Y2929D01*
X1950Y2929D01*
X1949Y2928D01*
X1949Y2928D01*
X1949Y2928D01*
X1948Y2928D01*
X1948Y2928D01*
X1948Y2928D01*
X1947Y2927D01*
X1947Y2927D01*
X1946Y2927D01*
X1946Y2927D01*
X1945Y2926D01*
X1945Y2926D01*
X1945Y2926D01*
X1944Y2926D01*
X1943Y2926D01*
X1943Y2925D01*
X1943Y2925D01*
X1942Y2925D01*
X1942Y2925D01*
X1942Y2925D01*
X1941Y2925D01*
X1940Y2924D01*
X1940Y2924D01*
X1940Y2924D01*
X1940Y2924D01*
X1939Y2924D01*
X1939Y2924D01*
X1938Y2923D01*
X1938Y2923D01*
X1938Y2923D01*
X1938Y2922D01*
X1938Y2922D01*
X1937Y2922D01*
X1937Y2922D01*
X1937Y2922D01*
X1937Y2921D01*
X1937Y2921D01*
X1937Y2920D01*
X1937Y2920D01*
Y2920D01*
Y2920D01*
X1937Y2919D01*
X1937Y2919D01*
X1937Y2918D01*
X1937Y2918D01*
X1937Y2918D01*
X1937Y2918D01*
Y2918D01*
X1937Y2917D01*
X1938Y2917D01*
X1938Y2916D01*
X1938Y2916D01*
X1938Y2916D01*
X1938Y2916D01*
X1939Y2916D01*
X1940Y2915D01*
X1940Y2915D01*
X1941Y2915D01*
X1941Y2915D01*
X1941D01*
X1941Y2915D01*
X1942Y2915D01*
X1943Y2915D01*
X1943D01*
X1944Y2915D01*
X1946D01*
X1947Y2915D01*
X1947Y2915D01*
X1948Y2915D01*
X1949Y2915D01*
X1949Y2915D01*
X1950Y2915D01*
X1950D01*
X1951Y2915D01*
X1951Y2916D01*
X1952Y2916D01*
X1953Y2916D01*
X1953Y2916D01*
X1953Y2916D01*
X1954Y2916D01*
X1954Y2916D01*
Y2912D01*
X1953Y2912D01*
X1953Y2912D01*
X1952Y2912D01*
X1952Y2912D01*
X1952Y2912D01*
X1952D01*
X1951Y2912D01*
X1950Y2911D01*
X1950D01*
X1950Y2911D01*
X1950D01*
X1949Y2911D01*
X1948Y2911D01*
X1948D01*
X1948Y2911D01*
X1947D01*
X1946Y2911D01*
X1946D01*
X1946Y2911D01*
X1944D01*
X1943Y2911D01*
X1942Y2911D01*
X1941Y2911D01*
X1941Y2911D01*
X1940Y2911D01*
X1940Y2912D01*
X1940D01*
X1939Y2912D01*
X1938Y2912D01*
X1937Y2912D01*
X1937Y2913D01*
X1936Y2913D01*
X1936Y2913D01*
X1936Y2913D01*
X1936Y2913D01*
X1935Y2914D01*
X1934Y2914D01*
X1934Y2915D01*
X1934Y2915D01*
X1933Y2915D01*
X1933Y2916D01*
X1933Y2916D01*
X1933Y2916D01*
X1933Y2917D01*
X1932Y2917D01*
X1932Y2918D01*
X1932Y2919D01*
X1932Y2919D01*
X1932Y2920D01*
Y2920D01*
Y2920D01*
X1932Y2921D01*
X1932Y2921D01*
X1932Y2922D01*
X1932Y2923D01*
X1933Y2923D01*
X1933Y2923D01*
X1933Y2923D01*
X1933Y2923D01*
X1933Y2924D01*
X1934Y2925D01*
X1934Y2925D01*
X1934Y2926D01*
X1934Y2926D01*
X1935Y2926D01*
X1935Y2926D01*
X1936Y2927D01*
X1936Y2927D01*
X1937Y2927D01*
X1937Y2928D01*
X1937Y2928D01*
X1937Y2928D01*
X1939Y2928D01*
X1939Y2928D01*
X1940Y2929D01*
X1940Y2929D01*
X1940Y2929D01*
X1940Y2929D01*
X1941D01*
X1942Y2930D01*
X1942Y2930D01*
X1943Y2930D01*
X1943Y2930D01*
X1943Y2930D01*
X1944Y2930D01*
X1944D01*
X1945Y2931D01*
X1945Y2931D01*
X1945Y2931D01*
X1946Y2931D01*
X1946Y2932D01*
X1946Y2932D01*
X1946Y2932D01*
X1947Y2932D01*
X1948Y2933D01*
X1948Y2933D01*
X1948Y2933D01*
X1948Y2933D01*
X1948Y2933D01*
X1948Y2934D01*
X1949Y2934D01*
X1949Y2935D01*
X1949Y2935D01*
X1949Y2935D01*
Y2935D01*
Y2936D01*
X1949Y2936D01*
X1949Y2937D01*
X1948Y2938D01*
X1948Y2938D01*
X1948Y2938D01*
X1947Y2939D01*
X1947Y2939D01*
X1947Y2939D01*
X1946Y2939D01*
X1946Y2940D01*
X1945Y2940D01*
X1944Y2940D01*
X1943Y2940D01*
X1942Y2940D01*
X1942D01*
X1940Y2940D01*
X1940Y2940D01*
X1939Y2940D01*
X1939Y2940D01*
X1938Y2940D01*
X1938Y2940D01*
X1938D01*
X1937Y2940D01*
X1936Y2940D01*
X1935Y2939D01*
X1935Y2939D01*
X1934Y2939D01*
X1934Y2939D01*
X1934D01*
Y2943D01*
X1935Y2943D01*
X1935Y2943D01*
X1936Y2943D01*
X1936Y2943D01*
X1936D01*
X1937Y2944D01*
X1937Y2944D01*
X1937D01*
X1938Y2944D01*
X1938D01*
X1939Y2944D01*
X1939Y2944D01*
X1939Y2944D01*
X1940D01*
X1940Y2944D01*
X1941Y2944D01*
X1941D01*
X1943Y2944D01*
D02*
G37*
G36*
X1620Y2911D02*
X1612D01*
X1611Y2911D01*
X1610Y2912D01*
X1609Y2912D01*
X1609Y2912D01*
X1608Y2912D01*
X1607Y2912D01*
X1607Y2912D01*
X1607D01*
X1606Y2912D01*
X1605Y2913D01*
X1605Y2913D01*
X1604Y2913D01*
X1604Y2913D01*
X1603Y2914D01*
X1603Y2914D01*
X1603Y2914D01*
X1603Y2914D01*
X1602Y2915D01*
X1602Y2915D01*
X1601Y2916D01*
X1601Y2916D01*
X1601Y2917D01*
X1601Y2917D01*
X1601Y2917D01*
X1600Y2918D01*
X1600Y2918D01*
X1600Y2919D01*
X1600Y2920D01*
X1600Y2920D01*
X1600Y2921D01*
Y2921D01*
Y2921D01*
X1600Y2922D01*
X1600Y2923D01*
X1600Y2923D01*
X1600Y2923D01*
X1600Y2924D01*
X1600Y2924D01*
Y2924D01*
X1601Y2925D01*
X1601Y2925D01*
X1601Y2926D01*
X1601Y2926D01*
X1601Y2926D01*
X1602Y2926D01*
X1602Y2926D01*
X1602Y2927D01*
X1603Y2927D01*
X1603Y2927D01*
X1603Y2928D01*
X1604Y2928D01*
X1604D01*
X1604Y2928D01*
X1605Y2928D01*
X1606Y2928D01*
X1606Y2928D01*
X1606Y2928D01*
X1606D01*
X1605Y2929D01*
X1604Y2929D01*
X1604Y2930D01*
X1603Y2930D01*
X1603Y2931D01*
X1602Y2931D01*
X1602Y2931D01*
X1602Y2931D01*
X1602Y2932D01*
X1601Y2933D01*
X1601Y2933D01*
X1601Y2934D01*
X1601Y2935D01*
X1601Y2935D01*
Y2936D01*
Y2936D01*
Y2936D01*
X1601Y2936D01*
X1601Y2937D01*
X1601Y2938D01*
X1602Y2939D01*
X1602Y2940D01*
X1603Y2941D01*
X1604Y2942D01*
X1605Y2942D01*
X1606Y2943D01*
X1607Y2943D01*
X1608Y2943D01*
X1609Y2943D01*
X1610Y2943D01*
X1610Y2943D01*
X1611Y2944D01*
X1620D01*
Y2911D01*
D02*
G37*
G36*
X1584Y2919D02*
X1584Y2919D01*
X1584Y2919D01*
X1585Y2919D01*
X1585Y2919D01*
X1585D01*
X1585Y2919D01*
X1586Y2918D01*
X1586Y2918D01*
X1586Y2918D01*
Y2918D01*
X1586Y2917D01*
X1587Y2917D01*
X1587Y2917D01*
X1587Y2917D01*
Y2917D01*
X1587Y2916D01*
X1587Y2916D01*
X1587Y2915D01*
Y2915D01*
Y2915D01*
Y2915D01*
X1587Y2914D01*
X1587Y2914D01*
Y2914D01*
X1587Y2914D01*
X1587Y2913D01*
Y2913D01*
X1587Y2913D01*
X1586Y2913D01*
X1586Y2912D01*
X1586Y2912D01*
X1586Y2912D01*
X1585Y2912D01*
X1585Y2911D01*
X1585Y2911D01*
X1585D01*
X1584Y2911D01*
X1584Y2911D01*
X1583Y2911D01*
X1583D01*
X1582Y2911D01*
X1582Y2911D01*
X1582Y2911D01*
X1582Y2911D01*
X1582Y2911D01*
X1582D01*
X1581Y2912D01*
X1581Y2912D01*
X1580Y2912D01*
X1580Y2912D01*
X1580Y2913D01*
X1580Y2913D01*
X1579Y2913D01*
X1579Y2913D01*
Y2913D01*
X1579Y2914D01*
X1579Y2915D01*
X1579Y2915D01*
Y2915D01*
Y2915D01*
Y2915D01*
X1579Y2916D01*
X1579Y2916D01*
X1579Y2916D01*
X1579Y2917D01*
Y2917D01*
X1580Y2917D01*
X1580Y2918D01*
X1580Y2918D01*
X1580Y2918D01*
X1581Y2918D01*
X1581Y2919D01*
X1581Y2919D01*
X1581Y2919D01*
X1582D01*
X1582Y2919D01*
X1583Y2919D01*
X1583Y2919D01*
X1583D01*
X1584Y2919D01*
D02*
G37*
G36*
X1722Y2944D02*
X1723Y2944D01*
X1724Y2944D01*
X1724Y2944D01*
X1725Y2943D01*
X1726Y2943D01*
X1726Y2943D01*
X1726Y2943D01*
X1727Y2943D01*
X1728Y2942D01*
X1728Y2942D01*
X1729Y2941D01*
X1729Y2941D01*
X1730Y2940D01*
X1730Y2940D01*
X1730Y2940D01*
X1731Y2939D01*
X1731Y2938D01*
X1732Y2937D01*
X1732Y2937D01*
X1732Y2936D01*
X1733Y2935D01*
X1733Y2935D01*
X1733Y2935D01*
X1733Y2935D01*
Y2935D01*
X1733Y2934D01*
X1733Y2932D01*
X1733Y2931D01*
X1734Y2930D01*
X1734Y2929D01*
Y2928D01*
X1734Y2928D01*
Y2928D01*
Y2927D01*
Y2927D01*
Y2927D01*
X1734Y2926D01*
X1734Y2925D01*
X1733Y2923D01*
X1733Y2922D01*
X1733Y2922D01*
X1733Y2921D01*
X1733Y2921D01*
X1733Y2921D01*
Y2921D01*
X1733Y2920D01*
Y2920D01*
X1733Y2919D01*
X1732Y2918D01*
X1732Y2917D01*
X1732Y2917D01*
X1731Y2916D01*
X1731Y2916D01*
X1731Y2915D01*
X1731Y2915D01*
X1730Y2915D01*
X1729Y2914D01*
X1729Y2913D01*
X1728Y2913D01*
X1728Y2913D01*
X1727Y2912D01*
X1727Y2912D01*
X1727Y2912D01*
X1726Y2912D01*
X1725Y2911D01*
X1724Y2911D01*
X1723Y2911D01*
X1723Y2911D01*
X1722Y2911D01*
X1722D01*
X1721Y2911D01*
X1720Y2911D01*
X1719Y2911D01*
X1718Y2911D01*
X1718Y2912D01*
X1717Y2912D01*
X1717Y2912D01*
X1717Y2912D01*
X1716Y2912D01*
X1715Y2913D01*
X1714Y2913D01*
X1714Y2914D01*
X1713Y2914D01*
X1713Y2915D01*
X1713Y2915D01*
X1713Y2915D01*
X1712Y2916D01*
X1711Y2917D01*
X1711Y2918D01*
X1711Y2918D01*
X1710Y2919D01*
X1710Y2920D01*
X1710Y2920D01*
X1710Y2920D01*
X1710Y2920D01*
Y2920D01*
X1709Y2921D01*
X1709Y2923D01*
X1709Y2924D01*
X1709Y2925D01*
X1709Y2926D01*
Y2927D01*
X1709Y2927D01*
Y2927D01*
Y2928D01*
Y2928D01*
Y2928D01*
X1709Y2929D01*
X1709Y2930D01*
X1709Y2932D01*
X1709Y2932D01*
X1709Y2933D01*
X1709Y2934D01*
X1709Y2934D01*
X1709Y2934D01*
Y2934D01*
X1710Y2934D01*
Y2934D01*
X1710Y2936D01*
X1710Y2937D01*
X1711Y2937D01*
X1711Y2938D01*
X1711Y2939D01*
X1712Y2939D01*
X1712Y2939D01*
X1712Y2940D01*
X1712Y2940D01*
X1713Y2941D01*
X1714Y2942D01*
X1714Y2942D01*
X1715Y2942D01*
X1715Y2943D01*
X1716Y2943D01*
X1716Y2943D01*
X1717Y2943D01*
X1717Y2944D01*
X1718Y2944D01*
X1719Y2944D01*
X1720Y2944D01*
X1721Y2944D01*
X1721D01*
X1722Y2944D01*
D02*
G37*
G36*
X1072Y2919D02*
X1073Y2919D01*
X1073Y2919D01*
X1073Y2919D01*
X1073Y2919D01*
X1073D01*
X1074Y2919D01*
X1074Y2918D01*
X1074Y2918D01*
X1074Y2918D01*
Y2918D01*
X1075Y2917D01*
X1075Y2917D01*
X1075Y2917D01*
X1075Y2917D01*
Y2917D01*
X1075Y2916D01*
X1075Y2916D01*
X1075Y2915D01*
Y2915D01*
Y2915D01*
Y2915D01*
X1075Y2914D01*
X1075Y2914D01*
Y2914D01*
X1075Y2914D01*
X1075Y2913D01*
Y2913D01*
X1075Y2913D01*
X1075Y2913D01*
X1074Y2912D01*
X1074Y2912D01*
X1074Y2912D01*
X1073Y2912D01*
X1073Y2911D01*
X1073Y2911D01*
X1073D01*
X1072Y2911D01*
X1072Y2911D01*
X1072Y2911D01*
X1071D01*
X1071Y2911D01*
X1070Y2911D01*
X1070Y2911D01*
X1070Y2911D01*
X1070Y2911D01*
X1070D01*
X1069Y2912D01*
X1069Y2912D01*
X1069Y2912D01*
X1069Y2912D01*
X1068Y2913D01*
X1068Y2913D01*
X1068Y2913D01*
X1068Y2913D01*
Y2913D01*
X1067Y2914D01*
X1067Y2915D01*
X1067Y2915D01*
Y2915D01*
Y2915D01*
Y2915D01*
X1067Y2916D01*
X1067Y2916D01*
X1068Y2916D01*
X1068Y2917D01*
Y2917D01*
X1068Y2917D01*
X1068Y2918D01*
X1068Y2918D01*
X1069Y2918D01*
X1069Y2918D01*
X1069Y2919D01*
X1070Y2919D01*
X1070Y2919D01*
X1070D01*
X1070Y2919D01*
X1071Y2919D01*
X1071Y2919D01*
X1071D01*
X1072Y2919D01*
D02*
G37*
G36*
X2596Y2752D02*
X2596Y2752D01*
X2578Y2800D01*
X2596Y2800D01*
Y2752D01*
D02*
G37*
G36*
X1512Y2911D02*
X1508D01*
X1508Y2931D01*
X1508Y2939D01*
X1506Y2934D01*
X1502Y2922D01*
X1499D01*
X1494Y2935D01*
X1492Y2939D01*
X1492Y2931D01*
X1491Y2911D01*
X1487D01*
X1489Y2944D01*
X1494D01*
X1499Y2931D01*
X1500Y2927D01*
X1501Y2931D01*
X1506Y2944D01*
X1511D01*
X1512Y2911D01*
D02*
G37*
G36*
X1044Y2944D02*
X1045Y2944D01*
X1046Y2944D01*
X1047Y2943D01*
X1048Y2943D01*
X1048Y2943D01*
X1048Y2943D01*
X1048Y2943D01*
X1049Y2942D01*
X1050Y2942D01*
X1051Y2941D01*
X1051Y2941D01*
X1052Y2940D01*
X1052Y2940D01*
X1052Y2940D01*
X1052Y2939D01*
X1053Y2939D01*
X1053Y2938D01*
X1054Y2937D01*
X1054Y2936D01*
X1054Y2935D01*
X1054Y2935D01*
X1054Y2934D01*
X1054Y2934D01*
X1054Y2934D01*
Y2934D01*
X1055Y2933D01*
X1055Y2932D01*
X1055Y2931D01*
X1055Y2930D01*
X1055Y2929D01*
X1055Y2928D01*
Y2928D01*
Y2928D01*
Y2928D01*
Y2928D01*
Y2927D01*
X1055Y2926D01*
X1055Y2924D01*
X1055Y2923D01*
X1055Y2922D01*
X1055Y2922D01*
X1055Y2921D01*
X1055Y2921D01*
X1054Y2921D01*
X1054Y2920D01*
Y2920D01*
X1054Y2920D01*
Y2920D01*
X1054Y2919D01*
X1054Y2918D01*
X1053Y2917D01*
X1053Y2916D01*
X1053Y2916D01*
X1052Y2915D01*
X1052Y2915D01*
X1052Y2915D01*
X1051Y2914D01*
X1051Y2914D01*
X1050Y2913D01*
X1050Y2913D01*
X1049Y2912D01*
X1049Y2912D01*
X1049Y2912D01*
X1048Y2912D01*
X1048Y2912D01*
X1047Y2911D01*
X1046Y2911D01*
X1045Y2911D01*
X1045Y2911D01*
X1044Y2911D01*
X1044D01*
X1043Y2911D01*
X1042Y2911D01*
X1041Y2911D01*
X1040Y2912D01*
X1039Y2912D01*
X1039Y2912D01*
X1039Y2912D01*
X1039Y2912D01*
X1038Y2913D01*
X1037Y2913D01*
X1036Y2914D01*
X1036Y2914D01*
X1035Y2915D01*
X1035Y2915D01*
X1035Y2915D01*
X1035Y2916D01*
X1034Y2916D01*
X1034Y2917D01*
X1033Y2918D01*
X1033Y2919D01*
X1033Y2920D01*
X1033Y2920D01*
X1033Y2920D01*
Y2921D01*
X1033Y2921D01*
Y2921D01*
X1032Y2922D01*
X1032Y2923D01*
X1032Y2924D01*
X1032Y2925D01*
X1032Y2926D01*
X1032Y2927D01*
Y2927D01*
Y2927D01*
Y2927D01*
Y2927D01*
Y2927D01*
X1032Y2929D01*
X1032Y2930D01*
X1032Y2932D01*
X1032Y2933D01*
X1032Y2933D01*
X1032Y2934D01*
X1032Y2934D01*
X1033Y2934D01*
X1033Y2935D01*
Y2935D01*
X1033Y2935D01*
Y2935D01*
X1033Y2936D01*
X1033Y2937D01*
X1034Y2938D01*
X1034Y2939D01*
X1034Y2939D01*
X1035Y2940D01*
X1035Y2940D01*
X1035Y2940D01*
X1036Y2941D01*
X1036Y2941D01*
X1037Y2942D01*
X1037Y2942D01*
X1038Y2943D01*
X1038Y2943D01*
X1038Y2943D01*
X1039Y2943D01*
X1039Y2943D01*
X1040Y2944D01*
X1041Y2944D01*
X1042Y2944D01*
X1042Y2944D01*
X1043Y2944D01*
X1043D01*
X1044Y2944D01*
D02*
G37*
G36*
X2433Y2170D02*
Y2122D01*
X2415Y2122D01*
X2432Y2170D01*
X2433Y2170D01*
D02*
G37*
G36*
X2794Y2613D02*
X2793Y2613D01*
X2776Y2662D01*
X2794Y2662D01*
Y2613D01*
D02*
G37*
G36*
X1129Y2911D02*
X1124D01*
X1114Y2936D01*
X1119D01*
X1125Y2920D01*
X1127Y2916D01*
X1128Y2920D01*
X1134Y2936D01*
X1139D01*
X1129Y2911D01*
D02*
G37*
G36*
X1109Y2938D02*
X1108Y2935D01*
X1100Y2939D01*
Y2915D01*
X1108D01*
Y2911D01*
X1088D01*
Y2915D01*
X1095D01*
Y2944D01*
X1099D01*
X1109Y2938D01*
D02*
G37*
G36*
X2222Y2890D02*
Y2841D01*
X2204Y2841D01*
X2221Y2890D01*
X2222Y2890D01*
D02*
G37*
G36*
X1843Y2911D02*
X1839D01*
Y2922D01*
Y2938D01*
X1836Y2931D01*
X1827Y2911D01*
X1821D01*
Y2944D01*
X1825D01*
Y2934D01*
Y2917D01*
X1829Y2925D01*
X1837Y2944D01*
X1843D01*
Y2911D01*
D02*
G37*
G36*
X1704D02*
X1700D01*
Y2922D01*
Y2938D01*
X1698Y2931D01*
X1689Y2911D01*
X1683D01*
Y2944D01*
X1687D01*
Y2934D01*
Y2917D01*
X1690Y2925D01*
X1699Y2944D01*
X1704D01*
Y2911D01*
D02*
G37*
%LPC*%
G36*
X2734Y2162D02*
X2728D01*
X2717Y2130D01*
X2722D01*
X2724Y2137D01*
X2738D01*
X2740Y2130D01*
X2745D01*
X2734Y2162D01*
D02*
G37*
G36*
X2769D02*
X2759D01*
X2759Y2162D01*
X2758Y2162D01*
X2757Y2162D01*
X2756Y2162D01*
X2755Y2161D01*
X2754Y2161D01*
X2753Y2161D01*
X2752Y2160D01*
X2752Y2160D01*
X2751Y2159D01*
X2750Y2158D01*
X2749Y2157D01*
X2749Y2156D01*
X2749Y2155D01*
X2749Y2154D01*
Y2154D01*
Y2154D01*
Y2154D01*
X2749Y2153D01*
X2749Y2153D01*
X2749Y2152D01*
X2750Y2151D01*
X2750Y2150D01*
X2750Y2150D01*
X2750Y2150D01*
X2751Y2149D01*
X2751Y2149D01*
X2751Y2149D01*
X2752Y2148D01*
X2752Y2148D01*
X2753Y2147D01*
X2754Y2147D01*
X2754D01*
X2754Y2147D01*
X2754Y2147D01*
X2753Y2147D01*
X2753Y2147D01*
X2752Y2146D01*
X2752D01*
X2752Y2146D01*
X2751Y2146D01*
X2751Y2146D01*
X2750Y2145D01*
X2750Y2145D01*
X2750Y2145D01*
X2750Y2144D01*
X2749Y2144D01*
X2749Y2144D01*
X2749Y2144D01*
X2749Y2143D01*
X2748Y2142D01*
Y2142D01*
X2748Y2142D01*
X2748Y2142D01*
X2748Y2142D01*
X2748Y2141D01*
X2748Y2141D01*
X2748Y2140D01*
Y2139D01*
Y2139D01*
X2748Y2139D01*
X2748Y2138D01*
X2748Y2138D01*
X2748Y2137D01*
X2749Y2136D01*
X2749Y2135D01*
X2749Y2135D01*
X2749Y2135D01*
X2749Y2135D01*
X2749Y2134D01*
X2750Y2134D01*
X2750Y2133D01*
X2751Y2133D01*
X2751Y2132D01*
X2751Y2132D01*
X2752Y2132D01*
X2752Y2132D01*
X2752Y2132D01*
X2753Y2131D01*
X2754Y2131D01*
X2754Y2131D01*
X2755Y2131D01*
X2755D01*
X2756Y2130D01*
X2756Y2130D01*
X2757Y2130D01*
X2758Y2130D01*
X2758Y2130D01*
X2759Y2130D01*
X2760Y2130D01*
X2769D01*
Y2162D01*
D02*
G37*
G36*
X2687D02*
X2664D01*
Y2158D01*
X2673D01*
Y2130D01*
X2678D01*
Y2158D01*
X2687D01*
Y2162D01*
D02*
G37*
G36*
X2715D02*
X2692D01*
Y2158D01*
X2701D01*
Y2130D01*
X2706D01*
Y2158D01*
X2715D01*
Y2162D01*
D02*
G37*
G36*
X2879D02*
X2860D01*
Y2158D01*
X2867D01*
Y2134D01*
X2860D01*
Y2130D01*
X2879D01*
Y2134D01*
X2872D01*
Y2158D01*
X2879D01*
Y2162D01*
D02*
G37*
G36*
X2825D02*
X2819D01*
X2811Y2143D01*
X2808Y2136D01*
Y2153D01*
Y2162D01*
X2803D01*
Y2130D01*
X2809D01*
X2818Y2150D01*
X2821Y2156D01*
Y2140D01*
Y2130D01*
X2825D01*
Y2162D01*
D02*
G37*
G36*
X2905Y2145D02*
X2890D01*
Y2141D01*
X2905D01*
Y2145D01*
D02*
G37*
G36*
X2468Y2162D02*
X2463D01*
X2456Y2140D01*
X2454Y2134D01*
X2452Y2140D01*
X2445Y2162D01*
X2441D01*
X2451Y2130D01*
X2457D01*
X2468Y2162D01*
D02*
G37*
G36*
X2934D02*
X2915D01*
Y2158D01*
X2923D01*
Y2134D01*
X2915D01*
Y2130D01*
X2934D01*
Y2134D01*
X2927D01*
Y2158D01*
X2934D01*
Y2162D01*
D02*
G37*
G36*
X2961D02*
X2956D01*
Y2134D01*
X2942D01*
Y2130D01*
X2961D01*
Y2162D01*
D02*
G37*
G36*
X2363Y2882D02*
X2345D01*
Y2878D01*
X2359D01*
Y2868D01*
X2345D01*
Y2864D01*
X2359D01*
Y2853D01*
X2345D01*
Y2849D01*
X2363D01*
Y2882D01*
D02*
G37*
G36*
X2336D02*
X2317D01*
Y2878D01*
X2331D01*
Y2868D01*
X2318D01*
Y2864D01*
X2331D01*
Y2853D01*
X2317D01*
Y2849D01*
X2336D01*
Y2882D01*
D02*
G37*
G36*
X2394D02*
X2370D01*
Y2878D01*
X2380D01*
Y2849D01*
X2384D01*
Y2878D01*
X2394D01*
Y2882D01*
D02*
G37*
G36*
X2310D02*
X2304D01*
X2295Y2863D01*
X2292Y2855D01*
Y2872D01*
Y2882D01*
X2288D01*
Y2849D01*
X2294D01*
X2303Y2869D01*
X2305Y2876D01*
Y2860D01*
Y2849D01*
X2310D01*
Y2882D01*
D02*
G37*
G36*
X2257D02*
X2252D01*
X2246Y2870D01*
X2243Y2865D01*
X2241Y2869D01*
X2235Y2882D01*
X2230D01*
X2241Y2861D01*
Y2849D01*
X2246D01*
Y2861D01*
X2257Y2882D01*
D02*
G37*
G36*
X2510Y2138D02*
X2510D01*
X2509Y2138D01*
X2509Y2138D01*
X2508Y2137D01*
X2508D01*
X2508Y2137D01*
X2508Y2137D01*
X2507Y2137D01*
X2507Y2136D01*
X2507Y2136D01*
X2507Y2136D01*
X2506Y2136D01*
X2506Y2135D01*
Y2135D01*
X2506Y2135D01*
X2506Y2135D01*
X2506Y2134D01*
X2506Y2134D01*
Y2133D01*
Y2133D01*
Y2133D01*
X2506Y2133D01*
X2506Y2132D01*
X2506Y2132D01*
Y2132D01*
X2506Y2132D01*
X2506Y2132D01*
X2507Y2131D01*
X2507Y2131D01*
X2507Y2131D01*
X2507Y2130D01*
X2508Y2130D01*
X2508Y2130D01*
X2508D01*
X2508Y2130D01*
X2509Y2130D01*
X2509Y2130D01*
X2509Y2130D01*
X2510Y2129D01*
X2510D01*
X2510Y2130D01*
X2511Y2130D01*
X2511Y2130D01*
X2512D01*
X2512Y2130D01*
X2512Y2130D01*
X2512Y2130D01*
X2513Y2131D01*
X2513Y2131D01*
X2513Y2131D01*
X2513Y2131D01*
X2514Y2132D01*
Y2132D01*
X2514Y2132D01*
X2514Y2132D01*
Y2132D01*
X2514Y2133D01*
X2514Y2134D01*
Y2134D01*
Y2134D01*
Y2134D01*
X2514Y2134D01*
X2514Y2135D01*
X2514Y2135D01*
Y2135D01*
X2514Y2135D01*
X2513Y2136D01*
X2513Y2136D01*
X2513Y2136D01*
Y2136D01*
X2513Y2137D01*
X2512Y2137D01*
X2512Y2137D01*
X2511Y2137D01*
X2511D01*
X2511Y2137D01*
X2511Y2137D01*
X2511Y2138D01*
X2510Y2138D01*
X2510Y2138D01*
D02*
G37*
G36*
X2630Y2162D02*
X2621D01*
X2620Y2162D01*
X2620D01*
X2619Y2162D01*
X2618Y2162D01*
X2617Y2162D01*
X2617Y2161D01*
X2616D01*
X2616Y2161D01*
X2616Y2161D01*
X2615Y2161D01*
X2615Y2161D01*
X2614Y2160D01*
X2614Y2160D01*
X2613Y2160D01*
X2613Y2160D01*
X2613Y2159D01*
X2613Y2159D01*
X2613Y2159D01*
X2612Y2159D01*
X2612Y2158D01*
X2612Y2158D01*
X2611Y2157D01*
X2611Y2157D01*
X2611Y2157D01*
X2611Y2156D01*
X2611Y2156D01*
X2611Y2155D01*
X2611Y2155D01*
X2611Y2154D01*
Y2154D01*
Y2154D01*
Y2153D01*
Y2153D01*
X2611Y2153D01*
X2611Y2152D01*
X2611Y2152D01*
X2611Y2151D01*
Y2151D01*
X2611Y2150D01*
X2611Y2150D01*
X2612Y2150D01*
X2612Y2149D01*
X2613Y2148D01*
X2613Y2148D01*
X2613Y2148D01*
X2613Y2148D01*
X2613Y2148D01*
X2613Y2147D01*
X2614Y2147D01*
X2615Y2146D01*
X2615Y2146D01*
X2615Y2146D01*
X2615Y2146D01*
X2616Y2146D01*
X2616Y2146D01*
X2616Y2146D01*
X2617Y2145D01*
X2618Y2145D01*
X2618D01*
X2617Y2145D01*
X2617Y2145D01*
X2617Y2145D01*
X2617Y2145D01*
X2616Y2144D01*
X2616Y2144D01*
X2615Y2144D01*
X2615Y2143D01*
X2615Y2143D01*
X2615Y2143D01*
X2615Y2143D01*
X2614Y2142D01*
X2614Y2142D01*
X2614Y2141D01*
X2613Y2140D01*
X2608Y2130D01*
X2613D01*
X2618Y2140D01*
Y2140D01*
X2618Y2140D01*
X2618Y2141D01*
X2618Y2141D01*
X2619Y2141D01*
X2619Y2142D01*
Y2142D01*
X2619Y2142D01*
X2620Y2143D01*
X2620Y2143D01*
X2620Y2143D01*
X2620D01*
X2621Y2143D01*
X2621Y2144D01*
X2621Y2144D01*
X2622Y2144D01*
X2622D01*
X2622Y2144D01*
X2622D01*
X2622Y2144D01*
X2623Y2144D01*
X2624Y2144D01*
X2626D01*
Y2130D01*
X2630D01*
Y2162D01*
D02*
G37*
G36*
X2657D02*
X2639D01*
Y2158D01*
X2653D01*
Y2148D01*
X2639D01*
Y2145D01*
X2653D01*
Y2134D01*
X2639D01*
Y2130D01*
X2657D01*
Y2162D01*
D02*
G37*
G36*
X2493D02*
X2471D01*
Y2158D01*
X2485Y2130D01*
X2490D01*
X2476Y2158D01*
X2493D01*
Y2162D01*
D02*
G37*
G36*
X2270Y2882D02*
X2269D01*
X2269Y2882D01*
X2268Y2882D01*
X2268D01*
X2268Y2882D01*
X2267Y2882D01*
X2266Y2882D01*
X2266D01*
X2266Y2882D01*
X2266D01*
X2265Y2882D01*
X2264Y2881D01*
X2264D01*
X2264Y2881D01*
X2264Y2881D01*
X2263Y2881D01*
X2263Y2881D01*
Y2877D01*
X2263D01*
X2263Y2877D01*
X2263Y2877D01*
X2264Y2877D01*
X2264Y2878D01*
X2265Y2878D01*
X2266Y2878D01*
X2267D01*
X2267Y2878D01*
X2267Y2878D01*
X2268Y2878D01*
X2268Y2878D01*
X2269Y2878D01*
X2270Y2878D01*
X2271D01*
X2271Y2878D01*
X2272Y2878D01*
X2273Y2878D01*
X2274Y2878D01*
X2275Y2877D01*
X2276Y2877D01*
X2276Y2877D01*
X2276Y2877D01*
X2276Y2876D01*
X2277Y2876D01*
X2277Y2876D01*
X2277Y2875D01*
X2277Y2874D01*
X2277Y2874D01*
Y2873D01*
Y2873D01*
X2277Y2873D01*
X2277Y2873D01*
X2277Y2872D01*
X2277Y2872D01*
X2277Y2871D01*
X2277Y2871D01*
X2277Y2871D01*
X2276Y2871D01*
X2276Y2871D01*
X2276Y2870D01*
X2275Y2870D01*
X2275Y2870D01*
X2275Y2869D01*
X2274Y2869D01*
X2274Y2869D01*
X2274Y2869D01*
X2273Y2869D01*
X2272Y2868D01*
X2272D01*
X2272Y2868D01*
X2272Y2868D01*
X2271Y2868D01*
X2271Y2868D01*
X2270Y2868D01*
X2269Y2867D01*
X2269D01*
X2269Y2867D01*
X2268Y2867D01*
X2268Y2867D01*
X2268Y2866D01*
X2267Y2866D01*
X2266Y2866D01*
X2266Y2866D01*
X2266Y2866D01*
X2265Y2865D01*
X2265Y2865D01*
X2264Y2865D01*
X2263Y2864D01*
X2263Y2864D01*
X2263Y2864D01*
X2263Y2863D01*
X2263Y2863D01*
X2262Y2863D01*
X2262Y2862D01*
X2261Y2861D01*
X2261Y2861D01*
X2261Y2861D01*
X2261Y2861D01*
X2261Y2860D01*
X2261Y2860D01*
X2261Y2859D01*
X2261Y2859D01*
X2261Y2858D01*
Y2858D01*
Y2858D01*
X2261Y2857D01*
X2261Y2857D01*
X2261Y2856D01*
X2261Y2855D01*
X2261Y2855D01*
X2262Y2854D01*
X2262Y2854D01*
X2262Y2854D01*
X2262Y2853D01*
X2262Y2853D01*
X2263Y2853D01*
X2263Y2852D01*
X2264Y2852D01*
X2264Y2851D01*
X2264Y2851D01*
X2264Y2851D01*
X2265Y2851D01*
X2265Y2851D01*
X2266Y2850D01*
X2267Y2850D01*
X2267Y2850D01*
X2268Y2850D01*
X2268D01*
X2269Y2849D01*
X2269Y2849D01*
X2270Y2849D01*
X2270Y2849D01*
X2271Y2849D01*
X2272Y2849D01*
X2274D01*
X2275Y2849D01*
X2275D01*
X2276Y2849D01*
X2276D01*
X2276Y2849D01*
X2277D01*
X2277Y2849D01*
X2278Y2849D01*
X2279D01*
X2279Y2849D01*
X2279D01*
X2280Y2850D01*
X2281Y2850D01*
X2281D01*
X2281Y2850D01*
X2281Y2850D01*
X2281Y2850D01*
X2282Y2850D01*
X2282Y2850D01*
Y2854D01*
X2282Y2854D01*
X2282Y2854D01*
X2282Y2854D01*
X2281Y2854D01*
X2281Y2854D01*
X2280Y2854D01*
X2279Y2853D01*
X2278Y2853D01*
X2278D01*
X2278Y2853D01*
X2277Y2853D01*
X2277Y2853D01*
X2276Y2853D01*
X2275Y2853D01*
X2274Y2853D01*
X2272D01*
X2272Y2853D01*
X2271D01*
X2271Y2853D01*
X2270Y2853D01*
X2269Y2853D01*
X2269D01*
X2269Y2853D01*
X2269Y2853D01*
X2269Y2853D01*
X2268Y2854D01*
X2267Y2854D01*
X2267Y2854D01*
X2267Y2854D01*
X2267Y2854D01*
X2266Y2855D01*
X2266Y2855D01*
X2266Y2856D01*
Y2856D01*
X2266Y2856D01*
X2265Y2856D01*
X2265Y2856D01*
X2265Y2857D01*
X2265Y2857D01*
X2265Y2858D01*
Y2858D01*
Y2858D01*
X2265Y2858D01*
X2265Y2859D01*
X2266Y2859D01*
X2266Y2860D01*
X2266Y2860D01*
X2266Y2860D01*
X2266Y2860D01*
X2266Y2860D01*
X2266Y2861D01*
X2267Y2861D01*
X2267Y2861D01*
X2268Y2862D01*
X2268Y2862D01*
X2268Y2862D01*
X2268Y2862D01*
X2269Y2862D01*
X2269Y2862D01*
X2269Y2863D01*
X2271Y2863D01*
X2271Y2863D01*
X2271Y2863D01*
X2271Y2863D01*
X2272Y2863D01*
X2272Y2864D01*
X2272Y2864D01*
X2274Y2864D01*
X2274Y2864D01*
X2274Y2864D01*
X2274Y2865D01*
X2275Y2865D01*
X2275Y2865D01*
X2276Y2865D01*
X2277Y2866D01*
X2277Y2866D01*
X2277Y2866D01*
X2277Y2866D01*
X2278Y2866D01*
X2278Y2866D01*
X2278Y2867D01*
X2279Y2867D01*
X2279Y2867D01*
X2280Y2868D01*
X2280Y2868D01*
X2280Y2868D01*
X2280Y2868D01*
X2281Y2869D01*
X2281Y2870D01*
X2281Y2870D01*
X2281Y2870D01*
X2281Y2870D01*
X2282Y2871D01*
X2282Y2871D01*
X2282Y2872D01*
X2282Y2872D01*
X2282Y2873D01*
Y2873D01*
Y2873D01*
X2282Y2874D01*
X2282Y2874D01*
X2282Y2875D01*
X2282Y2875D01*
X2282Y2876D01*
X2281Y2876D01*
X2281Y2876D01*
X2281Y2877D01*
X2281Y2877D01*
X2281Y2877D01*
X2281Y2878D01*
X2280Y2878D01*
X2280Y2879D01*
X2279Y2879D01*
X2279Y2879D01*
X2279Y2879D01*
X2279Y2880D01*
X2278Y2880D01*
X2278Y2880D01*
X2277Y2881D01*
X2276Y2881D01*
X2275Y2881D01*
X2275Y2881D01*
X2275Y2881D01*
X2275Y2881D01*
X2274Y2882D01*
X2273Y2882D01*
X2272Y2882D01*
X2271Y2882D01*
X2270Y2882D01*
D02*
G37*
G36*
X2842Y2163D02*
X2841D01*
X2840Y2162D01*
X2840Y2162D01*
X2839Y2162D01*
X2838Y2162D01*
X2837Y2162D01*
X2836Y2161D01*
X2836Y2161D01*
X2836Y2161D01*
X2835Y2161D01*
X2835Y2161D01*
X2834Y2160D01*
X2834Y2160D01*
X2833Y2159D01*
X2832Y2158D01*
X2832Y2158D01*
X2832Y2158D01*
X2832Y2157D01*
X2832Y2157D01*
X2831Y2156D01*
X2831Y2155D01*
X2830Y2154D01*
X2830Y2153D01*
Y2153D01*
X2830Y2153D01*
Y2153D01*
X2830Y2152D01*
X2830Y2152D01*
X2830Y2152D01*
X2830Y2151D01*
X2830Y2150D01*
X2829Y2149D01*
X2829Y2148D01*
X2829Y2146D01*
Y2146D01*
Y2146D01*
Y2146D01*
Y2145D01*
X2829Y2145D01*
Y2145D01*
X2829Y2144D01*
X2830Y2142D01*
X2830Y2141D01*
X2830Y2140D01*
X2830Y2139D01*
Y2139D01*
X2830Y2139D01*
X2830Y2138D01*
X2831Y2138D01*
X2831Y2138D01*
X2831Y2137D01*
X2832Y2136D01*
X2832Y2135D01*
X2833Y2134D01*
X2833Y2133D01*
X2833Y2133D01*
X2833Y2133D01*
X2834Y2133D01*
X2834Y2132D01*
X2835Y2132D01*
X2836Y2131D01*
X2836Y2131D01*
X2837Y2130D01*
X2837Y2130D01*
X2838Y2130D01*
X2838Y2130D01*
X2839Y2130D01*
X2839Y2130D01*
X2840Y2130D01*
X2841Y2130D01*
X2842Y2129D01*
X2843D01*
X2843Y2130D01*
X2844Y2130D01*
X2845Y2130D01*
X2846Y2130D01*
X2847Y2130D01*
X2847Y2131D01*
X2848Y2131D01*
X2848Y2131D01*
X2848Y2131D01*
X2849Y2131D01*
X2849Y2132D01*
X2850Y2132D01*
X2851Y2133D01*
X2851Y2134D01*
X2851Y2134D01*
X2852Y2134D01*
X2852Y2135D01*
X2852Y2135D01*
X2852Y2136D01*
X2853Y2137D01*
X2853Y2138D01*
X2854Y2139D01*
Y2139D01*
X2854Y2139D01*
Y2139D01*
X2854Y2139D01*
X2854Y2140D01*
X2854Y2140D01*
X2854Y2141D01*
X2854Y2142D01*
X2854Y2143D01*
X2854Y2144D01*
X2854Y2146D01*
Y2146D01*
Y2146D01*
Y2146D01*
Y2147D01*
X2854Y2147D01*
Y2147D01*
X2854Y2148D01*
X2854Y2150D01*
X2854Y2151D01*
X2854Y2152D01*
X2853Y2153D01*
Y2153D01*
X2853Y2153D01*
X2853Y2154D01*
X2853Y2154D01*
X2853Y2154D01*
X2853Y2155D01*
X2852Y2156D01*
X2852Y2157D01*
X2851Y2158D01*
X2851Y2158D01*
X2850Y2159D01*
X2850Y2159D01*
X2850Y2159D01*
X2849Y2160D01*
X2849Y2160D01*
X2848Y2161D01*
X2847Y2161D01*
X2846Y2161D01*
X2846Y2162D01*
X2846Y2162D01*
X2846Y2162D01*
X2845Y2162D01*
X2844Y2162D01*
X2843Y2162D01*
X2843Y2162D01*
X2842Y2163D01*
D02*
G37*
G36*
X2606Y2162D02*
X2601D01*
X2595Y2150D01*
X2592Y2146D01*
X2590Y2150D01*
X2584Y2162D01*
X2579D01*
X2590Y2141D01*
Y2130D01*
X2595D01*
Y2141D01*
X2606Y2162D01*
D02*
G37*
G36*
X1044Y2940D02*
X1044D01*
X1043Y2940D01*
X1042Y2940D01*
X1042Y2940D01*
X1042Y2940D01*
X1041Y2940D01*
X1041Y2940D01*
X1041D01*
X1041Y2940D01*
X1040Y2939D01*
X1040Y2939D01*
X1040Y2939D01*
X1040Y2939D01*
X1039Y2939D01*
X1039Y2938D01*
X1038Y2938D01*
X1038Y2937D01*
X1038Y2937D01*
X1038Y2937D01*
Y2937D01*
X1038Y2936D01*
X1037Y2935D01*
X1037Y2935D01*
X1037Y2935D01*
X1037Y2935D01*
Y2935D01*
X1051Y2925D01*
X1051Y2925D01*
Y2926D01*
Y2926D01*
Y2926D01*
Y2926D01*
Y2927D01*
Y2927D01*
Y2927D01*
Y2928D01*
Y2928D01*
Y2929D01*
X1051Y2930D01*
X1051Y2931D01*
X1051Y2932D01*
X1050Y2932D01*
X1050Y2933D01*
X1050Y2933D01*
Y2933D01*
X1050Y2934D01*
X1050Y2935D01*
X1050Y2935D01*
X1049Y2936D01*
X1049Y2936D01*
X1049Y2937D01*
X1049Y2937D01*
X1049Y2937D01*
X1049Y2938D01*
X1048Y2938D01*
X1048Y2939D01*
X1047Y2939D01*
X1047Y2939D01*
X1047Y2939D01*
X1047Y2939D01*
X1047Y2940D01*
X1046Y2940D01*
X1046Y2940D01*
X1045Y2940D01*
X1045Y2940D01*
X1044Y2940D01*
X1044Y2940D01*
D02*
G37*
G36*
X1036Y2931D02*
X1036Y2930D01*
Y2929D01*
X1036Y2929D01*
Y2929D01*
Y2929D01*
Y2929D01*
X1036Y2928D01*
X1036Y2928D01*
Y2928D01*
Y2927D01*
Y2927D01*
Y2927D01*
Y2926D01*
X1036Y2925D01*
X1036Y2924D01*
X1036Y2923D01*
X1037Y2923D01*
X1037Y2922D01*
X1037Y2922D01*
Y2922D01*
Y2922D01*
X1037Y2921D01*
X1037Y2920D01*
X1037Y2919D01*
X1038Y2919D01*
X1038Y2918D01*
X1038Y2918D01*
X1038Y2918D01*
X1038Y2918D01*
X1039Y2917D01*
X1039Y2917D01*
X1039Y2916D01*
X1040Y2916D01*
X1040Y2916D01*
X1040Y2916D01*
X1040Y2915D01*
X1040Y2915D01*
X1041Y2915D01*
X1041Y2915D01*
X1042Y2915D01*
X1042Y2915D01*
X1043Y2915D01*
X1043Y2915D01*
X1044D01*
X1044Y2915D01*
X1045Y2915D01*
X1045Y2915D01*
X1045Y2915D01*
X1046Y2915D01*
X1046Y2915D01*
X1046D01*
X1047Y2915D01*
X1047Y2916D01*
X1047Y2916D01*
X1047Y2916D01*
X1048Y2916D01*
X1048Y2916D01*
X1048Y2917D01*
X1049Y2917D01*
X1049Y2918D01*
X1049Y2918D01*
X1049Y2918D01*
X1049Y2918D01*
X1049Y2919D01*
X1050Y2920D01*
X1050Y2920D01*
X1050Y2920D01*
X1050Y2920D01*
Y2920D01*
X1036Y2931D01*
D02*
G37*
G36*
X1616Y2940D02*
X1611D01*
X1610Y2940D01*
X1610Y2940D01*
X1609Y2940D01*
X1609Y2940D01*
X1609Y2939D01*
X1609Y2939D01*
X1609D01*
X1608Y2939D01*
X1608Y2939D01*
X1607Y2939D01*
X1607Y2939D01*
X1607Y2939D01*
X1607Y2938D01*
X1607Y2938D01*
X1607Y2938D01*
X1606Y2938D01*
X1606Y2937D01*
X1606Y2937D01*
X1606Y2937D01*
X1606Y2937D01*
Y2937D01*
X1605Y2936D01*
X1605Y2936D01*
X1605Y2935D01*
Y2935D01*
Y2935D01*
Y2935D01*
X1605Y2934D01*
X1605Y2934D01*
X1605Y2933D01*
X1606Y2933D01*
X1606Y2933D01*
X1606Y2933D01*
Y2933D01*
X1606Y2932D01*
X1607Y2932D01*
X1607Y2931D01*
X1607Y2931D01*
X1607Y2931D01*
X1608Y2931D01*
X1608Y2930D01*
X1609Y2930D01*
X1609Y2930D01*
X1609Y2930D01*
X1609D01*
X1610Y2930D01*
X1611Y2930D01*
X1611D01*
X1611Y2930D01*
X1616D01*
Y2940D01*
D02*
G37*
G36*
X2672Y2792D02*
X2671D01*
X2671Y2792D01*
X2670Y2792D01*
X2670D01*
X2669Y2792D01*
X2669Y2792D01*
X2668Y2792D01*
X2668D01*
X2668Y2792D01*
X2667D01*
X2667Y2792D01*
X2666Y2792D01*
X2666D01*
X2666Y2792D01*
X2666Y2792D01*
X2665Y2792D01*
X2664Y2792D01*
Y2788D01*
X2664D01*
X2665Y2788D01*
X2665Y2788D01*
X2666Y2788D01*
X2666Y2788D01*
X2667Y2788D01*
X2668Y2788D01*
X2668D01*
X2668Y2788D01*
X2669Y2788D01*
X2669Y2789D01*
X2670Y2789D01*
X2671Y2789D01*
X2672Y2789D01*
X2672D01*
X2673Y2789D01*
X2674Y2789D01*
X2675Y2788D01*
X2676Y2788D01*
X2677Y2788D01*
X2677Y2787D01*
X2677Y2787D01*
X2678Y2787D01*
X2678Y2787D01*
X2678Y2786D01*
X2679Y2786D01*
X2679Y2785D01*
X2679Y2785D01*
X2679Y2784D01*
Y2784D01*
Y2784D01*
X2679Y2784D01*
X2679Y2783D01*
X2679Y2783D01*
X2679Y2782D01*
X2678Y2782D01*
X2678Y2782D01*
X2678Y2782D01*
X2678Y2781D01*
X2678Y2781D01*
X2677Y2781D01*
X2677Y2780D01*
X2676Y2780D01*
X2676Y2780D01*
X2676Y2780D01*
X2676Y2780D01*
X2675Y2779D01*
X2675Y2779D01*
X2674Y2779D01*
X2674D01*
X2674Y2779D01*
X2673Y2779D01*
X2673Y2778D01*
X2672Y2778D01*
X2672Y2778D01*
X2671Y2777D01*
X2671D01*
X2670Y2777D01*
X2670Y2777D01*
X2670Y2777D01*
X2669Y2777D01*
X2669Y2777D01*
X2668Y2776D01*
X2668Y2776D01*
X2667Y2776D01*
X2667Y2776D01*
X2667Y2776D01*
X2666Y2775D01*
X2665Y2774D01*
X2665Y2774D01*
X2665Y2774D01*
X2665Y2774D01*
X2664Y2774D01*
X2664Y2773D01*
X2664Y2773D01*
X2663Y2772D01*
X2663Y2772D01*
X2663Y2772D01*
X2663Y2771D01*
X2663Y2771D01*
X2662Y2770D01*
X2662Y2770D01*
X2662Y2769D01*
X2662Y2769D01*
Y2768D01*
Y2768D01*
X2662Y2768D01*
X2662Y2767D01*
X2662Y2767D01*
X2663Y2766D01*
X2663Y2765D01*
X2663Y2764D01*
X2663Y2764D01*
X2663Y2764D01*
X2664Y2764D01*
X2664Y2764D01*
X2664Y2763D01*
X2665Y2763D01*
X2665Y2762D01*
X2666Y2762D01*
X2666Y2762D01*
X2666Y2761D01*
X2667Y2761D01*
X2667Y2761D01*
X2668Y2761D01*
X2668Y2760D01*
X2669Y2760D01*
X2670Y2760D01*
X2670D01*
X2670Y2760D01*
X2671Y2760D01*
X2671Y2760D01*
X2672Y2760D01*
X2673Y2760D01*
X2674Y2759D01*
X2676D01*
X2676Y2759D01*
X2677D01*
X2678Y2760D01*
X2678D01*
X2678Y2760D01*
X2678D01*
X2679Y2760D01*
X2680Y2760D01*
X2680D01*
X2680Y2760D01*
X2681D01*
X2681Y2760D01*
X2682Y2760D01*
X2682D01*
X2682Y2760D01*
X2683Y2760D01*
X2683Y2760D01*
X2683Y2760D01*
X2684Y2761D01*
Y2765D01*
X2684Y2765D01*
X2684Y2765D01*
X2683Y2765D01*
X2683Y2764D01*
X2682Y2764D01*
X2682Y2764D01*
X2681Y2764D01*
X2680Y2764D01*
X2680D01*
X2680Y2764D01*
X2679Y2764D01*
X2678Y2764D01*
X2678Y2763D01*
X2677Y2763D01*
X2676Y2763D01*
X2674D01*
X2673Y2763D01*
X2673D01*
X2672Y2763D01*
X2672Y2764D01*
X2671Y2764D01*
X2671D01*
X2671Y2764D01*
X2671Y2764D01*
X2670Y2764D01*
X2669Y2764D01*
X2669Y2765D01*
X2669Y2765D01*
X2669Y2765D01*
X2668Y2765D01*
X2668Y2765D01*
X2668Y2765D01*
X2667Y2766D01*
Y2766D01*
X2667Y2766D01*
X2667Y2767D01*
X2667Y2767D01*
X2667Y2767D01*
X2667Y2767D01*
X2667Y2768D01*
Y2768D01*
Y2769D01*
X2667Y2769D01*
X2667Y2769D01*
X2667Y2770D01*
X2667Y2770D01*
X2668Y2770D01*
X2668Y2771D01*
X2668Y2771D01*
X2668Y2771D01*
X2668Y2771D01*
X2668Y2771D01*
X2669Y2772D01*
X2670Y2772D01*
X2670Y2772D01*
X2670Y2772D01*
X2670Y2772D01*
X2670Y2773D01*
X2671Y2773D01*
X2671Y2773D01*
X2672Y2773D01*
X2672Y2774D01*
X2672Y2774D01*
X2673Y2774D01*
X2673Y2774D01*
X2674Y2774D01*
X2674Y2774D01*
X2675Y2775D01*
X2675Y2775D01*
X2676Y2775D01*
X2676Y2775D01*
X2676Y2775D01*
X2677Y2775D01*
X2677Y2776D01*
X2678Y2776D01*
X2678Y2776D01*
X2679Y2776D01*
X2679Y2776D01*
X2679Y2777D01*
X2680Y2777D01*
X2680Y2777D01*
X2681Y2778D01*
X2681Y2778D01*
X2681Y2778D01*
X2681Y2778D01*
X2682Y2779D01*
X2682Y2779D01*
X2682Y2779D01*
X2683Y2780D01*
X2683Y2780D01*
X2683Y2781D01*
X2683Y2781D01*
X2683Y2781D01*
X2683Y2782D01*
X2684Y2782D01*
X2684Y2783D01*
X2684Y2784D01*
Y2784D01*
Y2784D01*
X2684Y2784D01*
X2684Y2785D01*
X2684Y2785D01*
X2683Y2786D01*
X2683Y2786D01*
X2683Y2787D01*
X2683Y2787D01*
X2683Y2787D01*
X2683Y2787D01*
X2682Y2788D01*
X2682Y2788D01*
X2682Y2789D01*
X2681Y2789D01*
X2681Y2790D01*
X2681Y2790D01*
X2681Y2790D01*
X2680Y2790D01*
X2680Y2790D01*
X2679Y2791D01*
X2679Y2791D01*
X2678Y2791D01*
X2677Y2792D01*
X2677Y2792D01*
X2677Y2792D01*
X2676Y2792D01*
X2676Y2792D01*
X2675Y2792D01*
X2674Y2792D01*
X2673Y2792D01*
X2672Y2792D01*
D02*
G37*
G36*
X2621Y2792D02*
X2615D01*
X2604Y2760D01*
X2609D01*
X2611Y2767D01*
X2624D01*
X2627Y2760D01*
X2631D01*
X2621Y2792D01*
D02*
G37*
G36*
X2656D02*
X2651D01*
X2647Y2780D01*
X2645Y2776D01*
X2644Y2780D01*
X2640Y2792D01*
X2634D01*
X2633Y2760D01*
X2637D01*
X2638Y2780D01*
X2638Y2788D01*
X2639Y2783D01*
X2644Y2770D01*
X2647D01*
X2652Y2783D01*
X2653Y2788D01*
X2653Y2780D01*
X2654Y2760D01*
X2658D01*
X2656Y2792D01*
D02*
G37*
G36*
X1528Y2940D02*
X1528D01*
X1527Y2940D01*
X1526Y2940D01*
X1525Y2940D01*
X1525Y2940D01*
X1524Y2940D01*
X1524Y2939D01*
X1524Y2939D01*
X1524Y2939D01*
X1523Y2939D01*
X1523Y2938D01*
X1522Y2938D01*
X1522Y2938D01*
X1522Y2937D01*
X1521Y2937D01*
X1521Y2937D01*
X1521Y2937D01*
X1521Y2936D01*
X1521Y2935D01*
X1520Y2935D01*
X1520Y2934D01*
X1520Y2933D01*
X1520Y2933D01*
X1520Y2933D01*
Y2933D01*
Y2933D01*
X1520Y2931D01*
X1519Y2930D01*
X1519Y2929D01*
X1519Y2928D01*
Y2928D01*
Y2928D01*
Y2927D01*
Y2927D01*
Y2927D01*
Y2926D01*
X1519Y2926D01*
X1520Y2925D01*
X1520Y2924D01*
X1520Y2923D01*
X1520Y2923D01*
X1520Y2923D01*
Y2922D01*
X1520Y2922D01*
X1520Y2921D01*
X1521Y2920D01*
X1521Y2920D01*
X1521Y2919D01*
X1521Y2919D01*
X1521Y2919D01*
X1521Y2918D01*
X1522Y2918D01*
X1522Y2917D01*
X1523Y2917D01*
X1523Y2916D01*
X1523Y2916D01*
X1524Y2916D01*
X1524Y2916D01*
X1524Y2916D01*
X1524Y2915D01*
X1525Y2915D01*
X1526Y2915D01*
X1526Y2915D01*
X1527Y2915D01*
X1527Y2915D01*
X1528D01*
X1528Y2915D01*
X1529Y2915D01*
X1530Y2915D01*
X1530Y2915D01*
X1531Y2915D01*
X1531Y2916D01*
X1531Y2916D01*
X1531Y2916D01*
X1532Y2916D01*
X1532Y2917D01*
X1533Y2917D01*
X1533Y2917D01*
X1533Y2918D01*
X1534Y2918D01*
X1534Y2918D01*
X1534Y2918D01*
X1534Y2919D01*
X1534Y2920D01*
X1535Y2920D01*
X1535Y2921D01*
X1535Y2922D01*
X1535Y2922D01*
X1535Y2922D01*
Y2922D01*
X1535Y2924D01*
X1535Y2925D01*
X1535Y2926D01*
X1536Y2927D01*
Y2927D01*
Y2927D01*
Y2927D01*
Y2928D01*
Y2928D01*
Y2929D01*
X1535Y2929D01*
X1535Y2930D01*
X1535Y2931D01*
X1535Y2932D01*
X1535Y2932D01*
X1535Y2932D01*
Y2932D01*
X1535Y2933D01*
X1535Y2934D01*
X1534Y2935D01*
X1534Y2935D01*
X1534Y2936D01*
X1534Y2936D01*
X1534Y2936D01*
X1534Y2936D01*
X1533Y2937D01*
X1533Y2938D01*
X1532Y2938D01*
X1532Y2938D01*
X1532Y2939D01*
X1531Y2939D01*
X1531Y2939D01*
X1531Y2939D01*
X1531Y2939D01*
X1530Y2940D01*
X1529Y2940D01*
X1529Y2940D01*
X1528Y2940D01*
X1528Y2940D01*
D02*
G37*
G36*
X1722D02*
X1721D01*
X1721Y2940D01*
X1720Y2940D01*
X1719Y2940D01*
X1719Y2940D01*
X1718Y2940D01*
X1718Y2939D01*
X1718Y2939D01*
X1718Y2939D01*
X1717Y2939D01*
X1717Y2938D01*
X1716Y2938D01*
X1716Y2938D01*
X1715Y2937D01*
X1715Y2937D01*
X1715Y2937D01*
X1715Y2937D01*
X1715Y2936D01*
X1714Y2935D01*
X1714Y2935D01*
X1714Y2934D01*
X1714Y2933D01*
X1714Y2933D01*
X1714Y2933D01*
Y2933D01*
Y2933D01*
X1713Y2931D01*
X1713Y2930D01*
X1713Y2929D01*
X1713Y2928D01*
Y2928D01*
Y2928D01*
Y2927D01*
Y2927D01*
Y2927D01*
Y2926D01*
X1713Y2926D01*
X1713Y2925D01*
X1713Y2924D01*
X1713Y2923D01*
X1714Y2923D01*
X1714Y2923D01*
Y2922D01*
X1714Y2922D01*
X1714Y2921D01*
X1714Y2920D01*
X1715Y2920D01*
X1715Y2919D01*
X1715Y2919D01*
X1715Y2919D01*
X1715Y2918D01*
X1715Y2918D01*
X1716Y2917D01*
X1716Y2917D01*
X1717Y2916D01*
X1717Y2916D01*
X1717Y2916D01*
X1718Y2916D01*
X1718Y2916D01*
X1718Y2915D01*
X1719Y2915D01*
X1719Y2915D01*
X1720Y2915D01*
X1721Y2915D01*
X1721Y2915D01*
X1721D01*
X1722Y2915D01*
X1723Y2915D01*
X1723Y2915D01*
X1724Y2915D01*
X1724Y2915D01*
X1725Y2916D01*
X1725Y2916D01*
X1725Y2916D01*
X1726Y2916D01*
X1726Y2917D01*
X1726Y2917D01*
X1727Y2917D01*
X1727Y2918D01*
X1727Y2918D01*
X1727Y2918D01*
X1728Y2918D01*
X1728Y2919D01*
X1728Y2920D01*
X1728Y2920D01*
X1729Y2921D01*
X1729Y2922D01*
X1729Y2922D01*
X1729Y2922D01*
Y2922D01*
X1729Y2924D01*
X1729Y2925D01*
X1729Y2926D01*
X1729Y2927D01*
Y2927D01*
Y2927D01*
Y2927D01*
Y2928D01*
Y2928D01*
Y2929D01*
X1729Y2929D01*
X1729Y2930D01*
X1729Y2931D01*
X1729Y2932D01*
X1729Y2932D01*
X1729Y2932D01*
Y2932D01*
X1729Y2933D01*
X1728Y2934D01*
X1728Y2935D01*
X1728Y2935D01*
X1728Y2936D01*
X1728Y2936D01*
X1727Y2936D01*
X1727Y2936D01*
X1727Y2937D01*
X1727Y2938D01*
X1726Y2938D01*
X1726Y2938D01*
X1725Y2939D01*
X1725Y2939D01*
X1725Y2939D01*
X1725Y2939D01*
X1724Y2939D01*
X1724Y2940D01*
X1723Y2940D01*
X1723Y2940D01*
X1722Y2940D01*
X1722Y2940D01*
D02*
G37*
G36*
X1616Y2926D02*
X1611D01*
X1610Y2926D01*
X1610Y2926D01*
X1609Y2926D01*
X1609Y2926D01*
X1609Y2926D01*
X1609Y2926D01*
X1608D01*
X1607Y2925D01*
X1607Y2925D01*
X1607Y2925D01*
X1606Y2925D01*
X1606Y2925D01*
X1606Y2925D01*
X1606Y2925D01*
X1605Y2924D01*
X1605Y2924D01*
X1605Y2923D01*
X1605Y2923D01*
X1605Y2923D01*
Y2923D01*
X1604Y2922D01*
X1604Y2922D01*
X1604Y2921D01*
Y2921D01*
Y2921D01*
Y2921D01*
X1604Y2920D01*
X1604Y2919D01*
X1605Y2918D01*
X1605Y2918D01*
X1605Y2917D01*
X1606Y2917D01*
X1606Y2917D01*
X1606Y2916D01*
X1607Y2916D01*
X1608Y2916D01*
X1608Y2915D01*
X1609Y2915D01*
X1610Y2915D01*
X1611D01*
X1611Y2915D01*
X1616D01*
Y2926D01*
D02*
G37*
G36*
X1887Y2939D02*
X1882Y2922D01*
X1893D01*
X1887Y2939D01*
D02*
G37*
G36*
X1804D02*
X1799Y2922D01*
X1810D01*
X1804Y2939D01*
D02*
G37*
G36*
X1638D02*
X1633Y2922D01*
X1644D01*
X1638Y2939D01*
D02*
G37*
G36*
X2824Y2653D02*
X2820D01*
Y2640D01*
X2806D01*
Y2653D01*
X2802D01*
Y2621D01*
X2806D01*
Y2636D01*
X2820D01*
Y2621D01*
X2824D01*
Y2653D01*
D02*
G37*
G36*
X2960D02*
X2944D01*
Y2631D01*
Y2631D01*
Y2631D01*
X2944Y2630D01*
Y2630D01*
X2944Y2629D01*
X2944Y2629D01*
X2944Y2628D01*
X2944Y2627D01*
Y2627D01*
X2944Y2627D01*
X2945Y2626D01*
X2945Y2626D01*
X2945Y2626D01*
X2945Y2625D01*
X2946Y2624D01*
X2946Y2624D01*
X2946Y2624D01*
X2946Y2624D01*
X2947Y2623D01*
X2947Y2623D01*
X2947Y2623D01*
X2948Y2622D01*
X2949Y2622D01*
X2949Y2622D01*
X2949Y2622D01*
X2950Y2622D01*
X2950Y2622D01*
X2951Y2621D01*
X2951Y2621D01*
X2952Y2621D01*
X2953Y2621D01*
X2954Y2621D01*
X2954D01*
X2955Y2621D01*
X2956Y2621D01*
X2956D01*
X2956Y2621D01*
X2956Y2621D01*
X2957Y2621D01*
X2958Y2621D01*
X2958D01*
X2958Y2622D01*
X2958Y2622D01*
X2958Y2622D01*
X2959Y2622D01*
X2959Y2622D01*
X2959D01*
X2959Y2622D01*
X2960Y2622D01*
X2960Y2622D01*
X2961Y2623D01*
Y2627D01*
X2961Y2627D01*
X2960Y2627D01*
X2960Y2627D01*
X2960Y2627D01*
X2959Y2626D01*
X2959Y2626D01*
X2958Y2626D01*
X2957Y2625D01*
X2957D01*
X2957Y2625D01*
X2957Y2625D01*
X2956Y2625D01*
X2956Y2625D01*
X2955Y2625D01*
X2954Y2625D01*
X2954Y2625D01*
X2953D01*
X2953Y2625D01*
X2952Y2625D01*
X2951Y2625D01*
X2951Y2625D01*
X2950Y2626D01*
X2949Y2626D01*
X2949Y2626D01*
X2949Y2627D01*
X2949Y2627D01*
X2949Y2628D01*
X2949Y2628D01*
X2948Y2629D01*
X2948Y2630D01*
X2948Y2631D01*
Y2650D01*
X2960D01*
Y2653D01*
D02*
G37*
G36*
X2851D02*
X2841D01*
X2840Y2653D01*
X2839Y2653D01*
X2839Y2653D01*
X2837Y2653D01*
X2837D01*
X2837Y2653D01*
X2836Y2653D01*
X2836Y2652D01*
X2835Y2652D01*
X2834Y2652D01*
X2834Y2652D01*
X2833Y2651D01*
X2833Y2651D01*
X2833Y2651D01*
X2832Y2651D01*
X2832Y2650D01*
X2832Y2650D01*
X2831Y2649D01*
X2831Y2649D01*
X2830Y2648D01*
X2830Y2648D01*
X2830Y2648D01*
X2830Y2647D01*
X2830Y2647D01*
X2830Y2646D01*
X2830Y2645D01*
X2829Y2645D01*
X2829Y2644D01*
Y2643D01*
Y2643D01*
X2829Y2643D01*
X2830Y2642D01*
X2830Y2642D01*
X2830Y2641D01*
X2830Y2640D01*
X2830Y2640D01*
X2830Y2640D01*
X2830Y2639D01*
X2831Y2639D01*
X2831Y2639D01*
X2831Y2638D01*
X2831Y2637D01*
X2832Y2637D01*
X2832Y2636D01*
X2833Y2636D01*
X2833Y2636D01*
X2833Y2636D01*
X2834Y2635D01*
X2834Y2635D01*
X2835Y2635D01*
X2836Y2634D01*
X2836Y2634D01*
X2837Y2634D01*
X2837Y2634D01*
X2837Y2633D01*
X2838Y2633D01*
X2839Y2633D01*
X2840Y2633D01*
X2841Y2633D01*
X2842Y2633D01*
X2846D01*
Y2621D01*
X2851D01*
Y2653D01*
D02*
G37*
G36*
X2539Y2163D02*
X2538D01*
X2538Y2162D01*
X2537D01*
X2537Y2162D01*
X2536Y2162D01*
X2535Y2162D01*
X2534Y2162D01*
X2534D01*
X2534Y2162D01*
X2534Y2162D01*
X2533Y2162D01*
X2533Y2161D01*
X2532Y2161D01*
X2532Y2161D01*
X2531Y2160D01*
X2531Y2160D01*
X2531Y2160D01*
X2531Y2160D01*
X2530Y2160D01*
X2530Y2159D01*
X2530Y2159D01*
X2529Y2158D01*
X2529Y2158D01*
X2529Y2158D01*
X2529Y2158D01*
X2529Y2157D01*
X2529Y2157D01*
X2529Y2156D01*
X2529Y2156D01*
X2529Y2155D01*
X2528Y2154D01*
Y2154D01*
Y2154D01*
Y2154D01*
X2529Y2154D01*
X2529Y2153D01*
X2529Y2152D01*
X2529Y2151D01*
X2529Y2151D01*
X2530Y2150D01*
X2530Y2150D01*
X2530Y2150D01*
X2530Y2149D01*
X2531Y2149D01*
X2531Y2148D01*
X2532Y2148D01*
X2533Y2147D01*
X2534Y2147D01*
X2534D01*
X2534Y2147D01*
X2533Y2147D01*
X2533Y2147D01*
X2533Y2147D01*
X2532Y2146D01*
X2531Y2146D01*
X2531D01*
X2531Y2146D01*
X2531Y2146D01*
X2531Y2146D01*
X2530Y2145D01*
X2529Y2145D01*
X2529Y2145D01*
X2529Y2144D01*
X2529Y2144D01*
X2529Y2144D01*
X2528Y2144D01*
X2528Y2143D01*
X2528Y2142D01*
X2528Y2142D01*
X2527Y2142D01*
X2527Y2142D01*
X2527Y2142D01*
X2527Y2141D01*
X2527Y2141D01*
X2527Y2140D01*
Y2140D01*
Y2140D01*
Y2139D01*
X2527Y2139D01*
X2527Y2138D01*
X2527Y2138D01*
X2527Y2137D01*
X2528Y2136D01*
X2528Y2136D01*
X2528Y2136D01*
X2528Y2135D01*
X2528Y2135D01*
X2528Y2135D01*
X2529Y2134D01*
X2529Y2134D01*
X2530Y2133D01*
X2530Y2132D01*
X2530Y2132D01*
X2531Y2132D01*
X2531Y2132D01*
X2532Y2132D01*
X2532Y2131D01*
X2533Y2131D01*
X2534Y2131D01*
X2535Y2130D01*
X2535D01*
X2535Y2130D01*
X2535D01*
X2535Y2130D01*
X2536Y2130D01*
X2536Y2130D01*
X2537Y2130D01*
X2538Y2130D01*
X2540Y2130D01*
X2541Y2129D01*
X2542D01*
X2543Y2130D01*
X2543D01*
X2544Y2130D01*
X2545D01*
X2545Y2130D01*
X2545D01*
X2546Y2130D01*
X2546Y2130D01*
X2547Y2130D01*
Y2134D01*
X2547D01*
X2547Y2134D01*
X2547Y2134D01*
X2546Y2134D01*
X2546Y2134D01*
X2545Y2133D01*
X2544Y2133D01*
X2544D01*
X2543Y2133D01*
X2542D01*
X2542Y2133D01*
X2540D01*
X2539Y2133D01*
X2538Y2133D01*
X2538Y2133D01*
X2537Y2133D01*
X2536Y2134D01*
X2536D01*
X2536Y2134D01*
X2536Y2134D01*
X2535Y2134D01*
X2534Y2134D01*
X2534Y2135D01*
X2534Y2135D01*
X2533Y2135D01*
X2533Y2135D01*
X2533Y2135D01*
X2533Y2135D01*
X2532Y2136D01*
X2532Y2136D01*
X2532Y2137D01*
Y2137D01*
X2532Y2137D01*
X2532Y2137D01*
X2532Y2138D01*
X2532Y2138D01*
X2532Y2138D01*
X2531Y2139D01*
Y2139D01*
Y2140D01*
X2531Y2140D01*
Y2140D01*
X2532Y2141D01*
X2532Y2141D01*
X2532Y2142D01*
Y2142D01*
X2532Y2142D01*
X2532Y2142D01*
X2532Y2142D01*
X2533Y2143D01*
X2534Y2143D01*
X2534Y2143D01*
X2534Y2143D01*
X2534Y2144D01*
X2534Y2144D01*
X2535Y2144D01*
X2535Y2144D01*
X2536Y2144D01*
X2536Y2144D01*
X2536D01*
X2537Y2144D01*
X2537Y2144D01*
X2537Y2145D01*
X2538Y2145D01*
X2538Y2145D01*
X2539Y2145D01*
X2543D01*
Y2148D01*
X2539D01*
X2539Y2148D01*
X2538Y2148D01*
X2538Y2148D01*
X2537Y2149D01*
X2537D01*
X2537Y2149D01*
X2536Y2149D01*
X2536Y2149D01*
X2535Y2149D01*
X2535Y2150D01*
X2535Y2150D01*
X2535Y2150D01*
X2534Y2150D01*
X2534Y2150D01*
X2534Y2151D01*
X2533Y2151D01*
Y2151D01*
X2533Y2152D01*
X2533Y2152D01*
X2533Y2152D01*
X2533Y2152D01*
X2533Y2153D01*
X2533Y2154D01*
Y2154D01*
Y2154D01*
Y2154D01*
X2533Y2155D01*
X2533Y2155D01*
X2533Y2156D01*
X2534Y2157D01*
X2534Y2157D01*
X2535Y2158D01*
X2535Y2158D01*
X2535Y2158D01*
X2535Y2158D01*
X2536Y2158D01*
X2536Y2158D01*
X2537Y2159D01*
X2538Y2159D01*
X2539Y2159D01*
X2540D01*
X2540Y2159D01*
X2541D01*
X2541Y2159D01*
X2543Y2158D01*
X2543D01*
X2543Y2158D01*
X2543Y2158D01*
X2544Y2158D01*
X2544Y2158D01*
X2545Y2158D01*
X2546Y2158D01*
X2546Y2158D01*
Y2161D01*
X2546D01*
X2546Y2161D01*
X2546Y2161D01*
X2546Y2161D01*
X2545Y2162D01*
X2544Y2162D01*
X2544D01*
X2544Y2162D01*
X2544D01*
X2544Y2162D01*
X2543Y2162D01*
X2543Y2162D01*
X2543D01*
X2542Y2162D01*
X2542D01*
X2542Y2162D01*
X2541Y2162D01*
X2541Y2162D01*
X2541D01*
X2540Y2162D01*
X2540D01*
X2539Y2163D01*
D02*
G37*
G36*
X2922Y2654D02*
X2922D01*
X2921Y2654D01*
X2921Y2654D01*
X2920D01*
X2920Y2654D01*
X2919Y2654D01*
X2919Y2654D01*
X2919D01*
X2918Y2654D01*
X2918D01*
X2917Y2653D01*
X2917Y2653D01*
X2917D01*
X2916Y2653D01*
X2916Y2653D01*
X2916Y2653D01*
X2915Y2653D01*
Y2649D01*
X2915D01*
X2915Y2649D01*
X2916Y2649D01*
X2916Y2649D01*
X2917Y2649D01*
X2917Y2650D01*
X2919Y2650D01*
X2919D01*
X2919Y2650D01*
X2919Y2650D01*
X2920Y2650D01*
X2920Y2650D01*
X2921Y2650D01*
X2922Y2650D01*
X2923D01*
X2924Y2650D01*
X2925Y2650D01*
X2925Y2650D01*
X2926Y2650D01*
X2927Y2649D01*
X2928Y2649D01*
X2928Y2649D01*
X2928Y2649D01*
X2929Y2648D01*
X2929Y2648D01*
X2929Y2647D01*
X2929Y2647D01*
X2930Y2646D01*
X2930Y2645D01*
Y2645D01*
Y2645D01*
X2930Y2645D01*
X2930Y2645D01*
X2929Y2644D01*
X2929Y2644D01*
X2929Y2643D01*
X2929Y2643D01*
X2929Y2643D01*
X2929Y2643D01*
X2929Y2643D01*
X2928Y2642D01*
X2927Y2642D01*
X2927Y2641D01*
X2927Y2641D01*
X2927Y2641D01*
X2926Y2641D01*
X2926Y2641D01*
X2926Y2641D01*
X2924Y2640D01*
X2924D01*
X2924Y2640D01*
X2924Y2640D01*
X2923Y2640D01*
X2923Y2640D01*
X2923Y2639D01*
X2921Y2639D01*
X2921D01*
X2921Y2639D01*
X2921Y2639D01*
X2920Y2639D01*
X2920Y2638D01*
X2919Y2638D01*
X2918Y2638D01*
X2918Y2638D01*
X2918Y2637D01*
X2918Y2637D01*
X2917Y2637D01*
X2916Y2636D01*
X2916Y2636D01*
X2916Y2636D01*
X2915Y2636D01*
X2915Y2635D01*
X2915Y2635D01*
X2915Y2635D01*
X2914Y2634D01*
X2914Y2633D01*
X2914Y2633D01*
X2914Y2633D01*
X2913Y2633D01*
X2913Y2632D01*
X2913Y2632D01*
X2913Y2631D01*
X2913Y2631D01*
X2913Y2630D01*
Y2630D01*
Y2630D01*
X2913Y2629D01*
X2913Y2629D01*
X2913Y2628D01*
X2913Y2627D01*
X2914Y2627D01*
X2914Y2626D01*
X2914Y2626D01*
X2914Y2626D01*
X2914Y2625D01*
X2915Y2625D01*
X2915Y2625D01*
X2915Y2624D01*
X2916Y2624D01*
X2917Y2623D01*
X2917Y2623D01*
X2917Y2623D01*
X2917Y2623D01*
X2918Y2622D01*
X2918Y2622D01*
X2919Y2622D01*
X2920Y2622D01*
X2920Y2621D01*
X2921D01*
X2921Y2621D01*
X2921Y2621D01*
X2922Y2621D01*
X2923Y2621D01*
X2924Y2621D01*
X2925Y2621D01*
X2926D01*
X2927Y2621D01*
X2927D01*
X2928Y2621D01*
X2928D01*
X2929Y2621D01*
X2929D01*
X2930Y2621D01*
X2931Y2621D01*
X2931D01*
X2931Y2621D01*
X2931D01*
X2932Y2621D01*
X2933Y2622D01*
X2933D01*
X2933Y2622D01*
X2933Y2622D01*
X2933Y2622D01*
X2934Y2622D01*
X2935Y2622D01*
Y2626D01*
X2935Y2626D01*
X2934Y2626D01*
X2934Y2626D01*
X2933Y2626D01*
X2933Y2626D01*
X2932Y2625D01*
X2931Y2625D01*
X2931Y2625D01*
X2930D01*
X2930Y2625D01*
X2930Y2625D01*
X2929Y2625D01*
X2928Y2625D01*
X2927Y2625D01*
X2926Y2625D01*
X2925D01*
X2924Y2625D01*
X2924D01*
X2923Y2625D01*
X2922Y2625D01*
X2922Y2625D01*
X2922D01*
X2921Y2625D01*
X2921Y2625D01*
X2921Y2625D01*
X2920Y2626D01*
X2919Y2626D01*
X2919Y2626D01*
X2919Y2626D01*
X2919Y2626D01*
X2919Y2626D01*
X2918Y2627D01*
X2918Y2628D01*
Y2628D01*
X2918Y2628D01*
X2918Y2628D01*
X2918Y2628D01*
X2918Y2629D01*
X2918Y2629D01*
X2917Y2630D01*
Y2630D01*
Y2630D01*
X2918Y2630D01*
X2918Y2631D01*
X2918Y2631D01*
X2918Y2632D01*
X2918Y2632D01*
X2918Y2632D01*
X2918Y2632D01*
X2919Y2632D01*
X2919Y2632D01*
X2919Y2633D01*
X2919Y2633D01*
X2920Y2634D01*
X2920Y2634D01*
X2920Y2634D01*
X2921Y2634D01*
X2921Y2634D01*
X2921Y2634D01*
X2922Y2634D01*
X2923Y2635D01*
X2923Y2635D01*
X2923Y2635D01*
X2923Y2635D01*
X2924Y2635D01*
X2924Y2635D01*
X2925Y2636D01*
X2926Y2636D01*
X2926Y2636D01*
X2926Y2636D01*
X2927Y2636D01*
X2927Y2637D01*
X2927Y2637D01*
X2928Y2637D01*
X2929Y2638D01*
X2929Y2638D01*
X2929Y2638D01*
X2930Y2638D01*
X2930Y2638D01*
X2930Y2638D01*
X2931Y2639D01*
X2932Y2639D01*
X2932Y2639D01*
X2932Y2639D01*
X2932Y2640D01*
X2932Y2640D01*
X2933Y2640D01*
X2933Y2641D01*
X2934Y2642D01*
X2934Y2642D01*
X2934Y2642D01*
X2934Y2642D01*
X2934Y2643D01*
X2934Y2643D01*
X2934Y2644D01*
X2934Y2644D01*
X2934Y2645D01*
Y2645D01*
Y2645D01*
X2934Y2646D01*
X2934Y2646D01*
X2934Y2647D01*
X2934Y2647D01*
X2934Y2648D01*
X2934Y2648D01*
X2934Y2648D01*
X2934Y2649D01*
X2933Y2649D01*
X2933Y2649D01*
X2933Y2650D01*
X2932Y2650D01*
X2932Y2651D01*
X2932Y2651D01*
X2931Y2651D01*
X2931Y2651D01*
X2931Y2652D01*
X2930Y2652D01*
X2930Y2652D01*
X2929Y2652D01*
X2929Y2653D01*
X2928Y2653D01*
X2928Y2653D01*
X2927Y2653D01*
X2927Y2653D01*
X2926Y2654D01*
X2925Y2654D01*
X2925Y2654D01*
X2924Y2654D01*
X2922Y2654D01*
D02*
G37*
G36*
X2876Y2637D02*
X2861D01*
Y2633D01*
X2876D01*
Y2637D01*
D02*
G37*
G36*
X2908Y2653D02*
X2884D01*
Y2650D01*
X2894D01*
Y2621D01*
X2898D01*
Y2650D01*
X2908D01*
Y2653D01*
D02*
G37*
%LPD*%
G36*
X2764Y2148D02*
X2759D01*
X2759Y2148D01*
X2759D01*
X2758Y2148D01*
X2757Y2149D01*
X2757D01*
X2757Y2149D01*
X2757Y2149D01*
X2757Y2149D01*
X2756Y2149D01*
X2755Y2150D01*
X2755Y2150D01*
X2755Y2150D01*
X2755Y2150D01*
X2754Y2151D01*
X2754Y2151D01*
Y2151D01*
X2754Y2151D01*
X2754Y2152D01*
X2754Y2152D01*
X2754Y2152D01*
X2753Y2153D01*
X2753Y2154D01*
Y2154D01*
Y2154D01*
Y2154D01*
X2753Y2154D01*
X2754Y2155D01*
X2754Y2155D01*
Y2155D01*
X2754Y2156D01*
X2754Y2156D01*
X2754Y2156D01*
X2754Y2156D01*
X2755Y2157D01*
X2755Y2157D01*
X2755Y2157D01*
X2755Y2157D01*
X2755Y2157D01*
X2756Y2157D01*
X2756Y2158D01*
X2756Y2158D01*
X2757Y2158D01*
X2757D01*
X2757Y2158D01*
X2757Y2158D01*
X2758Y2158D01*
X2758Y2158D01*
X2759Y2158D01*
X2759Y2158D01*
X2764D01*
Y2148D01*
D02*
G37*
G36*
X2737Y2141D02*
X2726D01*
X2731Y2158D01*
X2737Y2141D01*
D02*
G37*
G36*
X2626Y2148D02*
X2622D01*
X2621Y2148D01*
X2621D01*
X2620Y2148D01*
X2619Y2148D01*
X2619D01*
X2619Y2148D01*
X2619Y2148D01*
X2619Y2148D01*
X2618Y2149D01*
X2617Y2149D01*
X2617Y2149D01*
X2617Y2149D01*
X2617Y2149D01*
X2617Y2150D01*
X2616Y2150D01*
X2616Y2151D01*
Y2151D01*
X2616Y2151D01*
X2616Y2151D01*
X2616Y2151D01*
X2616Y2152D01*
X2615Y2152D01*
X2615Y2153D01*
Y2153D01*
Y2153D01*
Y2154D01*
X2615Y2154D01*
X2616Y2155D01*
X2616Y2155D01*
X2616Y2156D01*
X2616Y2156D01*
X2617Y2157D01*
X2617Y2157D01*
X2617Y2157D01*
X2618Y2157D01*
X2618Y2158D01*
X2619Y2158D01*
X2620Y2158D01*
X2620Y2158D01*
X2622Y2158D01*
X2626D01*
Y2148D01*
D02*
G37*
G36*
X2846Y2637D02*
X2842D01*
X2841Y2637D01*
X2841D01*
X2841Y2637D01*
X2840Y2637D01*
X2839Y2637D01*
X2838Y2637D01*
X2837Y2638D01*
X2836Y2638D01*
X2836Y2638D01*
X2836Y2639D01*
X2835Y2639D01*
X2835Y2639D01*
X2835Y2640D01*
X2834Y2641D01*
X2834Y2642D01*
X2834Y2643D01*
Y2643D01*
Y2643D01*
Y2644D01*
X2834Y2644D01*
X2834Y2644D01*
X2834Y2645D01*
X2834Y2646D01*
X2835Y2647D01*
X2835Y2647D01*
X2836Y2648D01*
X2836Y2648D01*
X2836Y2648D01*
X2837Y2649D01*
X2838Y2649D01*
X2838Y2649D01*
X2839Y2649D01*
X2840Y2650D01*
X2842Y2650D01*
X2846D01*
Y2637D01*
D02*
G37*
G36*
X2623Y2771D02*
X2612D01*
X2618Y2788D01*
X2623Y2771D01*
D02*
G37*
G36*
X2843Y2159D02*
X2843Y2159D01*
X2844Y2158D01*
X2844Y2158D01*
X2845Y2158D01*
X2845Y2158D01*
X2846Y2158D01*
X2846Y2157D01*
X2846Y2157D01*
X2846Y2157D01*
X2847Y2157D01*
X2847Y2156D01*
X2848Y2156D01*
X2848Y2155D01*
X2848Y2155D01*
X2848Y2155D01*
X2848Y2154D01*
X2848Y2154D01*
X2849Y2153D01*
X2849Y2153D01*
X2849Y2152D01*
X2849Y2151D01*
Y2151D01*
X2849Y2151D01*
X2850Y2150D01*
X2850Y2149D01*
X2850Y2149D01*
X2850Y2148D01*
X2850Y2147D01*
Y2146D01*
Y2146D01*
Y2146D01*
Y2146D01*
Y2146D01*
Y2145D01*
X2850Y2144D01*
X2850Y2144D01*
X2850Y2143D01*
X2849Y2141D01*
Y2141D01*
X2849Y2140D01*
X2849Y2140D01*
X2849Y2139D01*
X2849Y2139D01*
X2849Y2138D01*
X2848Y2137D01*
X2848Y2137D01*
X2848Y2137D01*
X2848Y2137D01*
X2848Y2136D01*
X2847Y2136D01*
X2847Y2135D01*
X2847Y2135D01*
X2846Y2135D01*
X2846Y2134D01*
X2845Y2134D01*
X2845Y2134D01*
X2845Y2134D01*
X2844Y2134D01*
X2844Y2134D01*
X2843Y2133D01*
X2843Y2133D01*
X2842Y2133D01*
X2841D01*
X2841Y2133D01*
X2841Y2133D01*
X2840Y2134D01*
X2839Y2134D01*
X2839Y2134D01*
X2838Y2134D01*
X2838Y2134D01*
X2838Y2134D01*
X2838Y2135D01*
X2837Y2135D01*
X2837Y2135D01*
X2836Y2136D01*
X2836Y2136D01*
X2836Y2137D01*
X2836Y2137D01*
X2835Y2137D01*
X2835Y2138D01*
X2835Y2138D01*
X2835Y2139D01*
X2835Y2139D01*
X2834Y2140D01*
X2834Y2141D01*
Y2141D01*
X2834Y2141D01*
X2834Y2142D01*
X2834Y2142D01*
X2834Y2143D01*
X2834Y2144D01*
X2834Y2145D01*
Y2146D01*
Y2146D01*
Y2146D01*
Y2146D01*
Y2146D01*
Y2147D01*
X2834Y2148D01*
X2834Y2148D01*
X2834Y2149D01*
X2834Y2151D01*
Y2151D01*
Y2151D01*
X2834Y2151D01*
X2834Y2152D01*
X2835Y2152D01*
X2835Y2153D01*
X2835Y2154D01*
X2835Y2154D01*
X2836Y2155D01*
X2836Y2155D01*
X2836Y2155D01*
X2836Y2156D01*
X2836Y2156D01*
X2837Y2156D01*
X2837Y2157D01*
X2838Y2157D01*
X2838Y2158D01*
X2838Y2158D01*
X2838Y2158D01*
X2839Y2158D01*
X2839Y2158D01*
X2840Y2158D01*
X2840Y2159D01*
X2841Y2159D01*
X2842Y2159D01*
X2842D01*
X2843Y2159D01*
D02*
G37*
G36*
X2764Y2134D02*
X2759D01*
X2759Y2134D01*
X2758D01*
X2758Y2134D01*
X2757Y2134D01*
X2756Y2134D01*
X2755Y2135D01*
X2754Y2135D01*
X2754Y2135D01*
X2754Y2135D01*
X2754Y2136D01*
X2753Y2136D01*
X2753Y2137D01*
X2753Y2137D01*
X2752Y2138D01*
X2752Y2139D01*
Y2139D01*
Y2140D01*
Y2140D01*
X2752Y2140D01*
X2752Y2141D01*
X2753Y2142D01*
Y2142D01*
X2753Y2142D01*
X2753Y2142D01*
X2753Y2142D01*
X2754Y2143D01*
X2754Y2143D01*
X2754Y2143D01*
X2754Y2143D01*
X2755Y2143D01*
X2755Y2144D01*
X2755Y2144D01*
X2756Y2144D01*
X2757Y2144D01*
X2757D01*
X2757Y2144D01*
X2757Y2144D01*
X2758Y2144D01*
X2758Y2145D01*
X2759Y2145D01*
X2759Y2145D01*
X2764D01*
Y2134D01*
D02*
G37*
D30*
X1004Y1004D02*
X2965D01*
X1004D02*
Y2118D01*
X2965D01*
Y1004D02*
Y2118D01*
X2732Y2965D02*
X2965D01*
X2732Y2665D02*
X2965D01*
X2732D02*
Y2965D01*
X2965Y2665D02*
Y2965D01*
X1004Y2137D02*
X2399D01*
X1004D02*
Y2331D01*
Y2647D02*
Y2838D01*
X2399Y2137D02*
Y2838D01*
X1004D02*
X2399D01*
D54*
X2659Y2565D02*
X2701D01*
X2659Y2564D02*
X2702D01*
X2658Y2563D02*
X2702D01*
X2658Y2562D02*
X2702D01*
X2658Y2561D02*
X2702D01*
X2658Y2560D02*
X2703D01*
X2658Y2559D02*
X2703D01*
X2657Y2558D02*
X2703D01*
X2657Y2557D02*
X2703D01*
X2657Y2556D02*
X2703D01*
X2657Y2555D02*
X2703D01*
X2656Y2554D02*
X2704D01*
X2656Y2553D02*
X2704D01*
X2656Y2552D02*
X2704D01*
X2656Y2551D02*
X2704D01*
X2656Y2550D02*
X2704D01*
X2655Y2549D02*
X2705D01*
X2655Y2548D02*
X2705D01*
X2655Y2547D02*
X2705D01*
X2655Y2546D02*
X2705D01*
X2655Y2545D02*
X2705D01*
X2654Y2544D02*
X2706D01*
X2654Y2543D02*
X2706D01*
X2654Y2542D02*
X2706D01*
X2654Y2541D02*
X2706D01*
X2654Y2540D02*
X2706D01*
X2653Y2539D02*
X2706D01*
X2653Y2538D02*
X2707D01*
X2653Y2537D02*
X2707D01*
X2769Y2536D02*
X2773D01*
X2653D02*
X2707D01*
X2587D02*
X2590D01*
X2768Y2535D02*
X2774D01*
X2653D02*
X2707D01*
X2586D02*
X2592D01*
X2766Y2534D02*
X2775D01*
X2653D02*
X2707D01*
X2585D02*
X2594D01*
X2765Y2533D02*
X2776D01*
X2652D02*
X2708D01*
X2584D02*
X2595D01*
X2763Y2532D02*
X2777D01*
X2652D02*
X2708D01*
X2583D02*
X2596D01*
X2762Y2531D02*
X2778D01*
X2652D02*
X2708D01*
X2582D02*
X2598D01*
X2761Y2530D02*
X2779D01*
X2652D02*
X2708D01*
X2581D02*
X2599D01*
X2759Y2529D02*
X2780D01*
X2652D02*
X2708D01*
X2580D02*
X2601D01*
X2758Y2528D02*
X2781D01*
X2651D02*
X2708D01*
X2579D02*
X2602D01*
X2756Y2527D02*
X2782D01*
X2651D02*
X2709D01*
X2578D02*
X2604D01*
X2755Y2526D02*
X2783D01*
X2651D02*
X2709D01*
X2577D02*
X2605D01*
X2753Y2525D02*
X2784D01*
X2651D02*
X2709D01*
X2576D02*
X2606D01*
X2752Y2524D02*
X2784D01*
X2649D02*
X2711D01*
X2575D02*
X2608D01*
X2751Y2523D02*
X2785D01*
X2646D02*
X2714D01*
X2574D02*
X2609D01*
X2749Y2522D02*
X2786D01*
X2644D02*
X2716D01*
X2574D02*
X2610D01*
X2748Y2521D02*
X2787D01*
X2642D02*
X2718D01*
X2573D02*
X2612D01*
X2747Y2520D02*
X2788D01*
X2640D02*
X2720D01*
X2572D02*
X2613D01*
X2745Y2519D02*
X2790D01*
X2637D02*
X2723D01*
X2571D02*
X2615D01*
X2744Y2518D02*
X2791D01*
X2635D02*
X2725D01*
X2569D02*
X2616D01*
X2742Y2517D02*
X2792D01*
X2632D02*
X2728D01*
X2568D02*
X2618D01*
X2741Y2516D02*
X2793D01*
X2630D02*
X2730D01*
X2567D02*
X2619D01*
X2739Y2515D02*
X2794D01*
X2627D02*
X2733D01*
X2566D02*
X2621D01*
X2738Y2514D02*
X2795D01*
X2625D02*
X2735D01*
X2565D02*
X2622D01*
X2564Y2513D02*
X2796D01*
X2563Y2512D02*
X2797D01*
X2562Y2511D02*
X2798D01*
X2561Y2510D02*
X2799D01*
X2560Y2509D02*
X2800D01*
X2559Y2508D02*
X2800D01*
X2559Y2507D02*
X2801D01*
X2559Y2506D02*
X2801D01*
X2560Y2505D02*
X2800D01*
X2560Y2504D02*
X2800D01*
X2561Y2503D02*
X2799D01*
X2562Y2502D02*
X2798D01*
X2562Y2501D02*
X2798D01*
X2563Y2500D02*
X2797D01*
X2564Y2499D02*
X2796D01*
X2564Y2498D02*
X2796D01*
X2565Y2497D02*
X2795D01*
X2566Y2496D02*
X2794D01*
X2566Y2495D02*
X2794D01*
X2567Y2494D02*
X2793D01*
X2568Y2493D02*
X2792D01*
X2569Y2492D02*
X2791D01*
X2569Y2491D02*
X2791D01*
X2570Y2490D02*
X2790D01*
X2571Y2489D02*
X2789D01*
X2572Y2488D02*
X2789D01*
X2572Y2487D02*
X2788D01*
X2573Y2486D02*
X2787D01*
X2574Y2485D02*
X2786D01*
X2574Y2484D02*
X2786D01*
X2575Y2483D02*
X2785D01*
X2576Y2482D02*
X2784D01*
X2576Y2481D02*
X2783D01*
X2577Y2480D02*
X2783D01*
X2578Y2479D02*
X2782D01*
X2578Y2478D02*
X2781D01*
X2579Y2477D02*
X2781D01*
X2580Y2476D02*
X2780D01*
X2580Y2475D02*
X2779D01*
X2581Y2474D02*
X2779D01*
X2582Y2473D02*
X2778D01*
X2581Y2472D02*
X2778D01*
X2581Y2471D02*
X2779D01*
X2581Y2470D02*
X2779D01*
X2580Y2469D02*
X2780D01*
X2580Y2468D02*
X2780D01*
X2579Y2467D02*
X2781D01*
X2579Y2466D02*
X2781D01*
X2578Y2465D02*
X2781D01*
X2578Y2464D02*
X2782D01*
X2578Y2463D02*
X2782D01*
X2577Y2462D02*
X2783D01*
X2577Y2461D02*
X2783D01*
X2576Y2460D02*
X2784D01*
X2576Y2459D02*
X2784D01*
X2575Y2458D02*
X2784D01*
X2575Y2457D02*
X2785D01*
X2685Y2456D02*
X2785D01*
X2575D02*
X2675D01*
X2690Y2455D02*
X2786D01*
X2574D02*
X2670D01*
X2693Y2454D02*
X2786D01*
X2574D02*
X2667D01*
X2696Y2453D02*
X2787D01*
X2573D02*
X2664D01*
X2698Y2452D02*
X2787D01*
X2573D02*
X2662D01*
X2700Y2451D02*
X2787D01*
X2572D02*
X2660D01*
X2702Y2450D02*
X2788D01*
X2572D02*
X2658D01*
X2703Y2449D02*
X2789D01*
X2572D02*
X2657D01*
X2705Y2448D02*
X2789D01*
X2571D02*
X2655D01*
X2706Y2447D02*
X2789D01*
X2571D02*
X2654D01*
X2707Y2446D02*
X2790D01*
X2570D02*
X2653D01*
X2708Y2445D02*
X2791D01*
X2570D02*
X2652D01*
X2709Y2444D02*
X2793D01*
X2567D02*
X2651D01*
X2710Y2443D02*
X2799D01*
X2561D02*
X2650D01*
X2711Y2442D02*
X2804D01*
X2556D02*
X2649D01*
X2712Y2441D02*
X2809D01*
X2551D02*
X2648D01*
X2713Y2440D02*
X2815D01*
X2545D02*
X2647D01*
X2713Y2439D02*
X2820D01*
X2540D02*
X2646D01*
X2714Y2438D02*
X2825D01*
X2534D02*
X2646D01*
X2715Y2437D02*
X2829D01*
X2531D02*
X2645D01*
X2715Y2436D02*
X2830D01*
X2530D02*
X2645D01*
X2716Y2435D02*
X2830D01*
X2530D02*
X2644D01*
X2716Y2434D02*
X2830D01*
X2530D02*
X2643D01*
X2717Y2433D02*
X2830D01*
X2530D02*
X2643D01*
X2717Y2432D02*
X2830D01*
X2530D02*
X2642D01*
X2718Y2431D02*
X2830D01*
X2530D02*
X2642D01*
X2718Y2430D02*
X2830D01*
X2530D02*
X2642D01*
X2719Y2429D02*
X2830D01*
X2530D02*
X2641D01*
X2719Y2428D02*
X2830D01*
X2530D02*
X2641D01*
X2719Y2427D02*
X2830D01*
X2530D02*
X2641D01*
X2720Y2426D02*
X2830D01*
X2530D02*
X2640D01*
X2720Y2425D02*
X2830D01*
X2530D02*
X2640D01*
X2720Y2424D02*
X2830D01*
X2530D02*
X2640D01*
X2720Y2423D02*
X2830D01*
X2530D02*
X2640D01*
X2720Y2422D02*
X2830D01*
X2530D02*
X2639D01*
X2721Y2421D02*
X2830D01*
X2530D02*
X2639D01*
X2721Y2420D02*
X2830D01*
X2530D02*
X2639D01*
X2721Y2419D02*
X2830D01*
X2530D02*
X2639D01*
X2721Y2418D02*
X2830D01*
X2530D02*
X2639D01*
X2721Y2417D02*
X2830D01*
X2530D02*
X2639D01*
X2721Y2416D02*
X2830D01*
X2530D02*
X2639D01*
X2721Y2415D02*
X2830D01*
X2530D02*
X2639D01*
X2721Y2414D02*
X2830D01*
X2530D02*
X2639D01*
X2721Y2413D02*
X2830D01*
X2530D02*
X2639D01*
X2721Y2412D02*
X2830D01*
X2530D02*
X2639D01*
X2721Y2411D02*
X2830D01*
X2530D02*
X2639D01*
X2721Y2410D02*
X2830D01*
X2530D02*
X2639D01*
X2720Y2409D02*
X2830D01*
X2530D02*
X2639D01*
X2720Y2408D02*
X2830D01*
X2530D02*
X2640D01*
X2720Y2407D02*
X2830D01*
X2530D02*
X2640D01*
X2720Y2406D02*
X2830D01*
X2530D02*
X2640D01*
X2720Y2405D02*
X2830D01*
X2530D02*
X2640D01*
X2719Y2404D02*
X2830D01*
X2530D02*
X2641D01*
X2719Y2403D02*
X2830D01*
X2530D02*
X2641D01*
X2719Y2402D02*
X2830D01*
X2530D02*
X2641D01*
X2718Y2401D02*
X2830D01*
X2530D02*
X2642D01*
X2718Y2400D02*
X2830D01*
X2530D02*
X2642D01*
X2717Y2399D02*
X2830D01*
X2530D02*
X2643D01*
X2717Y2398D02*
X2830D01*
X2530D02*
X2643D01*
X2716Y2397D02*
X2830D01*
X2530D02*
X2644D01*
X2716Y2396D02*
X2830D01*
X2530D02*
X2644D01*
X2715Y2395D02*
X2830D01*
X2530D02*
X2645D01*
X2715Y2394D02*
X2828D01*
X2532D02*
X2645D01*
X2714Y2393D02*
X2822D01*
X2538D02*
X2646D01*
X2713Y2392D02*
X2817D01*
X2543D02*
X2647D01*
X2713Y2391D02*
X2811D01*
X2548D02*
X2647D01*
X2712Y2390D02*
X2806D01*
X2554D02*
X2648D01*
X2711Y2389D02*
X2801D01*
X2559D02*
X2649D01*
X2710Y2388D02*
X2795D01*
X2565D02*
X2650D01*
X2709Y2387D02*
X2792D01*
X2568D02*
X2650D01*
X2709Y2386D02*
X2791D01*
X2569D02*
X2651D01*
X2707Y2385D02*
X2791D01*
X2569D02*
X2652D01*
X2706Y2384D02*
X2790D01*
X2570D02*
X2654D01*
X2705Y2383D02*
X2790D01*
X2570D02*
X2655D01*
X2704Y2382D02*
X2789D01*
X2571D02*
X2656D01*
X2702Y2381D02*
X2789D01*
X2571D02*
X2658D01*
X2701Y2380D02*
X2789D01*
X2572D02*
X2659D01*
X2700Y2379D02*
X2788D01*
X2572D02*
X2661D01*
X2698Y2378D02*
X2788D01*
X2572D02*
X2662D01*
X2696Y2377D02*
X2787D01*
X2573D02*
X2664D01*
X2695Y2376D02*
X2787D01*
X2573D02*
X2664D01*
X2695Y2375D02*
X2786D01*
X2573D02*
X2665D01*
X2695Y2374D02*
X2786D01*
X2574D02*
X2664D01*
X2696Y2373D02*
X2786D01*
X2574D02*
X2664D01*
X2696Y2372D02*
X2785D01*
X2575D02*
X2664D01*
X2697Y2371D02*
X2785D01*
X2575D02*
X2663D01*
X2697Y2370D02*
X2784D01*
X2575D02*
X2663D01*
X2698Y2369D02*
X2784D01*
X2576D02*
X2662D01*
X2698Y2368D02*
X2784D01*
X2576D02*
X2662D01*
X2698Y2367D02*
X2783D01*
X2577D02*
X2662D01*
X2699Y2366D02*
X2783D01*
X2577D02*
X2661D01*
X2699Y2365D02*
X2782D01*
X2577D02*
X2661D01*
X2700Y2364D02*
X2782D01*
X2578D02*
X2660D01*
X2700Y2363D02*
X2782D01*
X2578D02*
X2660D01*
X2701Y2362D02*
X2781D01*
X2579D02*
X2659D01*
X2701Y2361D02*
X2781D01*
X2579D02*
X2659D01*
X2702Y2360D02*
X2780D01*
X2579D02*
X2659D01*
X2702Y2359D02*
X2780D01*
X2580D02*
X2658D01*
X2702Y2358D02*
X2780D01*
X2580D02*
X2658D01*
X2703Y2357D02*
X2779D01*
X2581D02*
X2657D01*
X2703Y2356D02*
X2780D01*
X2580D02*
X2657D01*
X2704Y2355D02*
X2780D01*
X2579D02*
X2656D01*
X2704Y2354D02*
X2781D01*
X2579D02*
X2656D01*
X2704Y2353D02*
X2782D01*
X2578D02*
X2655D01*
X2705Y2352D02*
X2783D01*
X2577D02*
X2655D01*
X2705Y2351D02*
X2783D01*
X2577D02*
X2655D01*
X2706Y2350D02*
X2784D01*
X2576D02*
X2654D01*
X2706Y2349D02*
X2785D01*
X2575D02*
X2654D01*
X2707Y2348D02*
X2785D01*
X2575D02*
X2653D01*
X2707Y2347D02*
X2786D01*
X2574D02*
X2653D01*
X2707Y2346D02*
X2787D01*
X2573D02*
X2653D01*
X2708Y2345D02*
X2787D01*
X2573D02*
X2652D01*
X2708Y2344D02*
X2788D01*
X2572D02*
X2652D01*
X2709Y2343D02*
X2789D01*
X2571D02*
X2651D01*
X2709Y2342D02*
X2789D01*
X2571D02*
X2651D01*
X2709Y2341D02*
X2790D01*
X2570D02*
X2650D01*
X2710Y2340D02*
X2791D01*
X2569D02*
X2650D01*
X2710Y2339D02*
X2792D01*
X2568D02*
X2650D01*
X2711Y2338D02*
X2792D01*
X2568D02*
X2649D01*
X2711Y2337D02*
X2793D01*
X2567D02*
X2649D01*
X2711Y2336D02*
X2794D01*
X2566D02*
X2649D01*
X2712Y2335D02*
X2794D01*
X2566D02*
X2648D01*
X2712Y2334D02*
X2795D01*
X2565D02*
X2648D01*
X2713Y2333D02*
X2796D01*
X2564D02*
X2647D01*
X2713Y2332D02*
X2796D01*
X2564D02*
X2647D01*
X2713Y2331D02*
X2797D01*
X2563D02*
X2646D01*
X2714Y2330D02*
X2798D01*
X2562D02*
X2646D01*
X2714Y2329D02*
X2798D01*
X2561D02*
X2646D01*
X2715Y2328D02*
X2799D01*
X2561D02*
X2645D01*
X2715Y2327D02*
X2800D01*
X2560D02*
X2645D01*
X2715Y2326D02*
X2800D01*
X2559D02*
X2644D01*
X2716Y2325D02*
X2801D01*
X2559D02*
X2644D01*
X2716Y2324D02*
X2801D01*
X2559D02*
X2644D01*
X2717Y2323D02*
X2800D01*
X2560D02*
X2643D01*
X2717Y2322D02*
X2799D01*
X2560D02*
X2643D01*
X2717Y2321D02*
X2798D01*
X2561D02*
X2642D01*
X2718Y2320D02*
X2797D01*
X2562D02*
X2642D01*
X2718Y2319D02*
X2796D01*
X2563D02*
X2642D01*
X2719Y2318D02*
X2795D01*
X2564D02*
X2641D01*
X2719Y2317D02*
X2794D01*
X2565D02*
X2641D01*
X2720Y2316D02*
X2793D01*
X2566D02*
X2640D01*
X2741Y2315D02*
X2792D01*
X2720D02*
X2737D01*
X2623D02*
X2640D01*
X2568D02*
X2619D01*
X2742Y2314D02*
X2791D01*
X2720D02*
X2735D01*
X2624D02*
X2640D01*
X2569D02*
X2618D01*
X2744Y2313D02*
X2790D01*
X2721D02*
X2734D01*
X2626D02*
X2639D01*
X2570D02*
X2616D01*
X2745Y2312D02*
X2789D01*
X2721D02*
X2732D01*
X2628D02*
X2639D01*
X2571D02*
X2614D01*
X2747Y2311D02*
X2788D01*
X2722D02*
X2730D01*
X2630D02*
X2638D01*
X2572D02*
X2613D01*
X2748Y2310D02*
X2787D01*
X2722D02*
X2728D01*
X2632D02*
X2638D01*
X2573D02*
X2612D01*
X2750Y2309D02*
X2786D01*
X2723D02*
X2726D01*
X2634D02*
X2637D01*
X2574D02*
X2610D01*
X2751Y2308D02*
X2785D01*
X2575D02*
X2609D01*
X2753Y2307D02*
X2784D01*
X2576D02*
X2607D01*
X2754Y2306D02*
X2783D01*
X2577D02*
X2606D01*
X2756Y2305D02*
X2782D01*
X2578D02*
X2604D01*
X2757Y2304D02*
X2781D01*
X2579D02*
X2603D01*
X2758Y2303D02*
X2780D01*
X2580D02*
X2601D01*
X2760Y2302D02*
X2779D01*
X2581D02*
X2600D01*
X2761Y2301D02*
X2778D01*
X2582D02*
X2598D01*
X2763Y2300D02*
X2777D01*
X2583D02*
X2597D01*
X2764Y2299D02*
X2776D01*
X2584D02*
X2596D01*
X2766Y2298D02*
X2775D01*
X2585D02*
X2594D01*
X2767Y2297D02*
X2774D01*
X2586D02*
X2593D01*
X2769Y2296D02*
X2773D01*
X2587D02*
X2591D01*
D55*
X1462Y1636D02*
X1911D01*
X1617Y1396D02*
X1900D01*
X1536Y1477D02*
X1663D01*
X1462Y1556D02*
X1911D01*
X1497Y1730D02*
X1626D01*
X1495Y1732D02*
X1624D01*
X1494Y1733D02*
X1623D01*
X1492Y1735D02*
X1621D01*
X1491Y1736D02*
X1620D01*
X1489Y1738D02*
X1618D01*
X1488Y1739D02*
X1617D01*
X1486Y1741D02*
X1615D01*
X1485Y1742D02*
X1614D01*
X1483Y1744D02*
X1612D01*
X1482Y1745D02*
X1611D01*
X1480Y1747D02*
X1609D01*
X1479Y1748D02*
X1608D01*
X1477Y1750D02*
X1606D01*
X1476Y1751D02*
X1605D01*
X1474Y1753D02*
X1603D01*
X1473Y1754D02*
X1602D01*
X1471Y1756D02*
X1600D01*
X1470Y1757D02*
X1599D01*
X1468Y1759D02*
X1597D01*
X1467Y1760D02*
X1596D01*
X1465Y1762D02*
X1594D01*
X1464Y1763D02*
X1593D01*
X1462Y1765D02*
X1591D01*
X1461Y1766D02*
X1590D01*
X1459Y1768D02*
X1588D01*
X1458Y1769D02*
X1587D01*
X1456Y1771D02*
X1585D01*
X1455Y1772D02*
X1584D01*
X1453Y1774D02*
X1582D01*
X1452Y1775D02*
X1581D01*
X1450Y1777D02*
X1579D01*
X1449Y1778D02*
X1578D01*
X1447Y1780D02*
X1576D01*
X1446Y1781D02*
X1575D01*
X1444Y1783D02*
X1573D01*
X1443Y1784D02*
X1572D01*
X1441Y1786D02*
X1570D01*
X1440Y1787D02*
X1569D01*
X1438Y1789D02*
X1567D01*
X1437Y1790D02*
X1566D01*
X1435Y1792D02*
X1564D01*
X1434Y1793D02*
X1563D01*
X1432Y1795D02*
X1561D01*
X1462Y1637D02*
X1911D01*
X1462Y1639D02*
X1911D01*
X1462Y1640D02*
X1911D01*
X1783Y1642D02*
X1911D01*
X1782Y1643D02*
X1909D01*
X1780Y1645D02*
X1908D01*
X1779Y1646D02*
X1906D01*
X1777Y1648D02*
X1905D01*
X1776Y1649D02*
X1903D01*
X1774Y1651D02*
X1902D01*
X1773Y1652D02*
X1900D01*
X1771Y1654D02*
X1899D01*
X1770Y1655D02*
X1897D01*
X1768Y1657D02*
X1896D01*
X1767Y1658D02*
X1894D01*
X1765Y1660D02*
X1893D01*
X1764Y1661D02*
X1891D01*
X1762Y1663D02*
X1890D01*
X1761Y1664D02*
X1888D01*
X1759Y1666D02*
X1887D01*
X1758Y1667D02*
X1885D01*
X1756Y1669D02*
X1884D01*
X1755Y1670D02*
X1882D01*
X1753Y1672D02*
X1881D01*
X1462Y1558D02*
X1911D01*
X1462Y1559D02*
X1911D01*
X1462Y1561D02*
X1911D01*
X1462Y1562D02*
X1911D01*
X1462Y1564D02*
X1911D01*
X1462Y1565D02*
X1911D01*
X1462Y1567D02*
X1911D01*
X1462Y1568D02*
X1911D01*
X1462Y1570D02*
X1911D01*
X1462Y1571D02*
X1911D01*
X1462Y1573D02*
X1911D01*
X1462Y1574D02*
X1911D01*
X1462Y1576D02*
X1911D01*
X1462Y1577D02*
X1911D01*
X1462Y1579D02*
X1911D01*
X1462Y1580D02*
X1911D01*
X1462Y1582D02*
X1911D01*
X1462Y1583D02*
X1911D01*
X1462Y1585D02*
X1911D01*
X1462Y1586D02*
X1911D01*
X1462Y1588D02*
X1911D01*
X1462Y1589D02*
X1911D01*
X1462Y1591D02*
X1911D01*
X1462Y1592D02*
X1911D01*
X1462Y1594D02*
X1911D01*
X1462Y1595D02*
X1911D01*
X1462Y1597D02*
X1911D01*
X1462Y1598D02*
X1911D01*
X1462Y1600D02*
X1911D01*
X1462Y1601D02*
X1911D01*
X1462Y1603D02*
X1911D01*
X1462Y1604D02*
X1911D01*
X1462Y1606D02*
X1911D01*
X1462Y1607D02*
X1911D01*
X1462Y1609D02*
X1911D01*
X1462Y1610D02*
X1911D01*
X1462Y1612D02*
X1911D01*
X1462Y1613D02*
X1911D01*
X1462Y1615D02*
X1911D01*
X1462Y1616D02*
X1911D01*
X1462Y1618D02*
X1911D01*
X1462Y1619D02*
X1911D01*
X1462Y1621D02*
X1911D01*
X1462Y1622D02*
X1911D01*
X1462Y1624D02*
X1911D01*
X1462Y1625D02*
X1911D01*
X1462Y1627D02*
X1911D01*
X1462Y1628D02*
X1911D01*
X1462Y1630D02*
X1911D01*
X1462Y1631D02*
X1911D01*
X1462Y1633D02*
X1911D01*
X1462Y1634D02*
X1911D01*
X1534Y1478D02*
X1662D01*
X1533Y1480D02*
X1660D01*
X1531Y1481D02*
X1659D01*
X1530Y1483D02*
X1657D01*
X1528Y1484D02*
X1656D01*
X1527Y1486D02*
X1654D01*
X1525Y1487D02*
X1653D01*
X1524Y1489D02*
X1651D01*
X1522Y1490D02*
X1650D01*
X1521Y1492D02*
X1648D01*
X1519Y1493D02*
X1647D01*
X1518Y1495D02*
X1645D01*
X1516Y1496D02*
X1644D01*
X1515Y1498D02*
X1642D01*
X1513Y1499D02*
X1641D01*
X1512Y1501D02*
X1639D01*
X1510Y1502D02*
X1638D01*
X1509Y1504D02*
X1636D01*
X1507Y1505D02*
X1635D01*
X1506Y1507D02*
X1633D01*
X1504Y1508D02*
X1632D01*
X1503Y1510D02*
X1630D01*
X1501Y1511D02*
X1629D01*
X1500Y1513D02*
X1627D01*
X1498Y1514D02*
X1626D01*
X1497Y1516D02*
X1624D01*
X1495Y1517D02*
X1623D01*
X1494Y1519D02*
X1621D01*
X1492Y1520D02*
X1620D01*
X1491Y1522D02*
X1618D01*
X1489Y1523D02*
X1617D01*
X1488Y1525D02*
X1615D01*
X1486Y1526D02*
X1614D01*
X1485Y1528D02*
X1612D01*
X1483Y1529D02*
X1611D01*
X1482Y1531D02*
X1609D01*
X1480Y1532D02*
X1608D01*
X1479Y1534D02*
X1606D01*
X1477Y1535D02*
X1605D01*
X1476Y1537D02*
X1603D01*
X1474Y1538D02*
X1602D01*
X1473Y1540D02*
X1600D01*
X1471Y1541D02*
X1599D01*
X1470Y1543D02*
X1597D01*
X1468Y1544D02*
X1596D01*
X1467Y1546D02*
X1594D01*
X1465Y1547D02*
X1593D01*
X1464Y1549D02*
X1591D01*
X1462Y1550D02*
X1590D01*
X1462Y1552D02*
X1911D01*
X1462Y1553D02*
X1911D01*
X1462Y1555D02*
X1911D01*
X1615Y1397D02*
X1899D01*
X1614Y1399D02*
X1897D01*
X1612Y1400D02*
X1896D01*
X1611Y1402D02*
X1894D01*
X1609Y1403D02*
X1893D01*
X1608Y1405D02*
X1891D01*
X1606Y1406D02*
X1890D01*
X1605Y1408D02*
X1888D01*
X1603Y1409D02*
X1887D01*
X1602Y1411D02*
X1885D01*
X1600Y1412D02*
X1884D01*
X1599Y1414D02*
X1882D01*
X1597Y1415D02*
X1881D01*
X1561Y1451D02*
X1845D01*
X1560Y1453D02*
X1843D01*
X1558Y1454D02*
X1842D01*
X1557Y1456D02*
X1840D01*
X1555Y1457D02*
X1839D01*
X1554Y1459D02*
X1837D01*
X1552Y1460D02*
X1836D01*
X1551Y1462D02*
X1834D01*
X1549Y1463D02*
X1677D01*
X1548Y1465D02*
X1675D01*
X1546Y1466D02*
X1674D01*
X1545Y1468D02*
X1672D01*
X1543Y1469D02*
X1671D01*
X1542Y1471D02*
X1669D01*
X1540Y1472D02*
X1668D01*
X1539Y1474D02*
X1666D01*
X1537Y1475D02*
X1665D01*
X1641Y1372D02*
X1923D01*
X1639Y1373D02*
X1923D01*
X1638Y1375D02*
X1921D01*
X1636Y1376D02*
X1920D01*
X1635Y1378D02*
X1918D01*
X1633Y1379D02*
X1917D01*
X1632Y1381D02*
X1915D01*
X1630Y1382D02*
X1914D01*
X1629Y1384D02*
X1912D01*
X1627Y1385D02*
X1911D01*
X1626Y1387D02*
X1909D01*
X1624Y1388D02*
X1908D01*
X1623Y1390D02*
X1906D01*
X1621Y1391D02*
X1905D01*
X1620Y1393D02*
X1903D01*
X1618Y1394D02*
X1902D01*
X1431Y1796D02*
X1560D01*
X1708Y1717D02*
X1836D01*
X1629Y1796D02*
X1756D01*
X1429Y1798D02*
X1558D01*
X1428Y1799D02*
X1557D01*
X1426Y1801D02*
X1555D01*
X1425Y1802D02*
X1554D01*
X1423Y1804D02*
X1552D01*
X1422Y1805D02*
X1551D01*
X1420Y1807D02*
X1549D01*
X1419Y1808D02*
X1548D01*
X1417Y1810D02*
X1546D01*
X1416Y1811D02*
X1545D01*
X1414Y1813D02*
X1543D01*
X1413Y1814D02*
X1542D01*
X1411Y1816D02*
X1540D01*
X1410Y1817D02*
X1539D01*
X1408Y1819D02*
X1537D01*
X1408Y1820D02*
X1536D01*
X1627Y1798D02*
X1755D01*
X1626Y1799D02*
X1753D01*
X1624Y1801D02*
X1752D01*
X1623Y1802D02*
X1750D01*
X1621Y1804D02*
X1749D01*
X1620Y1805D02*
X1747D01*
X1618Y1807D02*
X1746D01*
X1617Y1808D02*
X1744D01*
X1615Y1810D02*
X1743D01*
X1614Y1811D02*
X1741D01*
X1612Y1813D02*
X1740D01*
X1611Y1814D02*
X1738D01*
X1609Y1816D02*
X1737D01*
X1608Y1817D02*
X1735D01*
X1606Y1819D02*
X1734D01*
X1605Y1820D02*
X1732D01*
X1707Y1718D02*
X1834D01*
X1705Y1720D02*
X1833D01*
X1704Y1721D02*
X1831D01*
X1702Y1723D02*
X1830D01*
X1701Y1724D02*
X1828D01*
X1699Y1726D02*
X1827D01*
X1698Y1727D02*
X1825D01*
X1696Y1729D02*
X1824D01*
X1695Y1730D02*
X1822D01*
X1693Y1732D02*
X1821D01*
X1692Y1733D02*
X1819D01*
X1690Y1735D02*
X1818D01*
X1689Y1736D02*
X1816D01*
X1687Y1738D02*
X1815D01*
X1686Y1739D02*
X1813D01*
X1684Y1741D02*
X1812D01*
X1683Y1742D02*
X1810D01*
X1681Y1744D02*
X1809D01*
X1680Y1745D02*
X1807D01*
X1678Y1747D02*
X1806D01*
X1677Y1748D02*
X1804D01*
X1675Y1750D02*
X1803D01*
X1674Y1751D02*
X1801D01*
X1672Y1753D02*
X1800D01*
X1671Y1754D02*
X1798D01*
X1669Y1756D02*
X1797D01*
X1668Y1757D02*
X1795D01*
X1666Y1759D02*
X1794D01*
X1665Y1760D02*
X1792D01*
X1663Y1762D02*
X1791D01*
X1662Y1763D02*
X1789D01*
X1660Y1765D02*
X1788D01*
X1659Y1766D02*
X1786D01*
X1657Y1768D02*
X1785D01*
X1656Y1769D02*
X1783D01*
X1654Y1771D02*
X1782D01*
X1653Y1772D02*
X1780D01*
X1651Y1774D02*
X1779D01*
X1650Y1775D02*
X1777D01*
X1648Y1777D02*
X1776D01*
X1647Y1778D02*
X1774D01*
X1645Y1780D02*
X1773D01*
X1644Y1781D02*
X1771D01*
X1642Y1783D02*
X1770D01*
X1641Y1784D02*
X1768D01*
X1639Y1786D02*
X1767D01*
X1638Y1787D02*
X1765D01*
X1636Y1789D02*
X1764D01*
X1635Y1790D02*
X1762D01*
X1633Y1792D02*
X1761D01*
X1632Y1793D02*
X1759D01*
X1630Y1795D02*
X1758D01*
X1752Y1673D02*
X1879D01*
X1750Y1675D02*
X1878D01*
X1749Y1676D02*
X1876D01*
X1747Y1678D02*
X1875D01*
X1746Y1679D02*
X1873D01*
X1744Y1681D02*
X1872D01*
X1743Y1682D02*
X1870D01*
X1741Y1684D02*
X1869D01*
X1740Y1685D02*
X1867D01*
X1738Y1687D02*
X1866D01*
X1737Y1688D02*
X1864D01*
X1735Y1690D02*
X1863D01*
X1734Y1691D02*
X1861D01*
X1732Y1693D02*
X1860D01*
X1731Y1694D02*
X1858D01*
X1729Y1696D02*
X1857D01*
X1728Y1697D02*
X1855D01*
X1726Y1699D02*
X1854D01*
X1725Y1700D02*
X1852D01*
X1723Y1702D02*
X1851D01*
X1722Y1703D02*
X1849D01*
X1720Y1705D02*
X1848D01*
X1719Y1706D02*
X1846D01*
X1717Y1708D02*
X1845D01*
X1716Y1709D02*
X1843D01*
X1714Y1711D02*
X1842D01*
X1713Y1712D02*
X1840D01*
X1711Y1714D02*
X1839D01*
X1710Y1715D02*
X1837D01*
X1596Y1417D02*
X1879D01*
X1594Y1418D02*
X1878D01*
X1593Y1420D02*
X1876D01*
X1591Y1421D02*
X1875D01*
X1590Y1423D02*
X1873D01*
X1588Y1424D02*
X1872D01*
X1587Y1426D02*
X1870D01*
X1585Y1427D02*
X1869D01*
X1584Y1429D02*
X1867D01*
X1582Y1430D02*
X1866D01*
X1581Y1432D02*
X1864D01*
X1579Y1433D02*
X1863D01*
X1578Y1435D02*
X1861D01*
X1576Y1436D02*
X1860D01*
X1575Y1438D02*
X1858D01*
X1573Y1439D02*
X1857D01*
X1572Y1441D02*
X1855D01*
X1570Y1442D02*
X1854D01*
X1569Y1444D02*
X1852D01*
X1567Y1445D02*
X1851D01*
X1566Y1447D02*
X1849D01*
X1564Y1448D02*
X1848D01*
X1563Y1450D02*
X1846D01*
D56*
X2965Y2665D02*
D03*
D57*
X2554Y2797D02*
D03*
D58*
X2965Y2120D02*
D03*
M02*
