%FSLAX23Y23*%
%MOIN*%
G70*
G01*
G75*
G04 Layer_Color=8388736*
%ADD10R,0.039X0.059*%
%ADD11R,0.059X0.039*%
%ADD12R,0.035X0.031*%
%ADD13R,0.073X0.051*%
%ADD14R,0.063X0.157*%
%ADD15R,0.122X0.157*%
%ADD16R,0.063X0.118*%
%ADD17R,0.031X0.035*%
%ADD18R,0.039X0.022*%
%ADD19C,0.012*%
%ADD20C,0.012*%
%ADD21C,0.006*%
%ADD22R,0.051X0.051*%
%ADD23C,0.051*%
%ADD24O,0.079X0.047*%
%ADD25R,0.043X0.059*%
%ADD26R,0.051X0.051*%
%ADD27C,0.061*%
%ADD28C,0.047*%
G04:AMPARAMS|DCode=29|XSize=39mil|YSize=55mil|CornerRadius=10mil|HoleSize=0mil|Usage=FLASHONLY|Rotation=90.000|XOffset=0mil|YOffset=0mil|HoleType=Round|Shape=RoundedRectangle|*
%AMROUNDEDRECTD29*
21,1,0.039,0.035,0,0,90.0*
21,1,0.020,0.055,0,0,90.0*
1,1,0.020,0.018,0.010*
1,1,0.020,0.018,-0.010*
1,1,0.020,-0.018,-0.010*
1,1,0.020,-0.018,0.010*
%
%ADD29ROUNDEDRECTD29*%
%ADD30C,0.024*%
%ADD31C,0.020*%
%ADD32R,0.030X0.035*%
%ADD33R,0.039X0.039*%
%ADD34O,0.018X0.059*%
%ADD35O,0.059X0.018*%
%ADD36R,0.020X0.035*%
%ADD37R,0.069X0.018*%
%ADD38R,0.071X0.094*%
%ADD39R,0.073X0.079*%
%ADD40C,0.008*%
%ADD41R,0.008X0.012*%
%ADD42R,0.269X0.006*%
%ADD43R,0.006X0.314*%
%ADD44R,0.008X0.008*%
%ADD45R,0.350X0.006*%
%ADD46R,0.248X0.006*%
%ADD47R,0.006X0.159*%
%ADD48R,0.006X0.159*%
%ADD49R,0.047X0.067*%
%ADD50R,0.067X0.047*%
%ADD51R,0.043X0.039*%
%ADD52R,0.081X0.059*%
%ADD53R,0.071X0.165*%
%ADD54R,0.130X0.165*%
%ADD55R,0.071X0.126*%
%ADD56R,0.039X0.043*%
%ADD57R,0.047X0.030*%
%ADD58R,0.059X0.059*%
%ADD59C,0.059*%
%ADD60O,0.087X0.055*%
%ADD61R,0.051X0.067*%
%ADD62R,0.059X0.059*%
%ADD63C,0.069*%
%ADD64C,0.055*%
G04:AMPARAMS|DCode=65|XSize=47mil|YSize=63mil|CornerRadius=14mil|HoleSize=0mil|Usage=FLASHONLY|Rotation=90.000|XOffset=0mil|YOffset=0mil|HoleType=Round|Shape=RoundedRectangle|*
%AMROUNDEDRECTD65*
21,1,0.047,0.035,0,0,90.0*
21,1,0.020,0.063,0,0,90.0*
1,1,0.028,0.018,0.010*
1,1,0.028,0.018,-0.010*
1,1,0.028,-0.018,-0.010*
1,1,0.028,-0.018,0.010*
%
%ADD65ROUNDEDRECTD65*%
D49*
X1289Y1508D02*
D03*
D03*
X1348D02*
D03*
X1407D02*
D03*
X1467D02*
D03*
X1526D02*
D03*
X1585D02*
D03*
X1644D02*
D03*
X1703D02*
D03*
X1762D02*
D03*
X1821D02*
D03*
X1880D02*
D03*
X1939D02*
D03*
X1998D02*
D03*
Y2020D02*
D03*
X1939D02*
D03*
X1880D02*
D03*
X1821D02*
D03*
X1762D02*
D03*
X1703D02*
D03*
X1644D02*
D03*
X1585D02*
D03*
X1526D02*
D03*
X1467D02*
D03*
X1407D02*
D03*
X1348D02*
D03*
X1289D02*
D03*
D50*
X2071Y1557D02*
D03*
Y1616D02*
D03*
Y1675D02*
D03*
Y1734D02*
D03*
Y1793D02*
D03*
Y1852D02*
D03*
Y1911D02*
D03*
Y1970D02*
D03*
D51*
X2579Y1564D02*
D03*
Y1621D02*
D03*
X2853Y1806D02*
D03*
Y1749D02*
D03*
X2633D02*
D03*
Y1806D02*
D03*
X2854Y1621D02*
D03*
Y1564D02*
D03*
X2634Y1621D02*
D03*
Y1564D02*
D03*
X2578Y1749D02*
D03*
Y1806D02*
D03*
D52*
X2503Y1647D02*
D03*
Y1538D02*
D03*
Y1723D02*
D03*
Y1832D02*
D03*
D53*
X2413Y2890D02*
D03*
D54*
X2522D02*
D03*
X2305D02*
D03*
D55*
X2413Y2040D02*
D03*
X2492D02*
D03*
X2571D02*
D03*
X2650D02*
D03*
X2728D02*
D03*
X2807D02*
D03*
X2886D02*
D03*
X2413Y2788D02*
D03*
X2492D02*
D03*
D56*
X2631Y1684D02*
D03*
X2574D02*
D03*
D57*
X2689Y1555D02*
D03*
Y1630D02*
D03*
X2797D02*
D03*
Y1593D02*
D03*
Y1555D02*
D03*
X2689Y1740D02*
D03*
Y1815D02*
D03*
X2797D02*
D03*
Y1778D02*
D03*
Y1740D02*
D03*
D58*
X2278Y2569D02*
D03*
X2663Y1050D02*
D03*
D59*
X2278Y2469D02*
D03*
X2378Y2569D02*
D03*
Y2469D02*
D03*
X2478D02*
D03*
Y2569D02*
D03*
X2663Y1350D02*
D03*
Y1250D02*
D03*
Y1150D02*
D03*
X2718Y2265D02*
D03*
X2818D02*
D03*
X2918D02*
D03*
D60*
X2473Y2289D02*
D03*
Y2211D02*
D03*
D61*
X2382Y1050D02*
D03*
X2432D02*
D03*
X2382Y1200D02*
D03*
X2432D02*
D03*
X2382Y1350D02*
D03*
X2432D02*
D03*
D62*
X2618Y2265D02*
D03*
D63*
X2171Y1074D02*
D03*
X2071D02*
D03*
X1971D02*
D03*
X1871D02*
D03*
X1771D02*
D03*
X1671D02*
D03*
X1571D02*
D03*
X1471D02*
D03*
X1371D02*
D03*
X1271D02*
D03*
X1171D02*
D03*
D64*
X2925Y2139D02*
D03*
X2846D02*
D03*
X2768D02*
D03*
X2689D02*
D03*
D65*
X1034Y2370D02*
D03*
X1154Y2572D02*
D03*
Y2381D02*
D03*
X1037Y2583D02*
D03*
M02*
