%FSLAX23Y23*%
%MOIN*%
G70*
G01*
G75*
G04 Layer_Color=2752767*
%ADD10R,0.039X0.059*%
%ADD11R,0.059X0.039*%
%ADD12R,0.035X0.031*%
%ADD13R,0.073X0.051*%
%ADD14R,0.059X0.157*%
%ADD15R,0.063X0.079*%
%ADD16R,0.035X0.030*%
%ADD17R,0.030X0.035*%
%ADD18R,0.039X0.022*%
%ADD19C,0.012*%
%ADD20C,0.012*%
%ADD21C,0.006*%
%ADD22O,0.047X0.079*%
%ADD23R,0.051X0.051*%
%ADD24C,0.051*%
%ADD25R,0.043X0.059*%
%ADD26O,0.043X0.059*%
%ADD27C,0.061*%
%ADD28C,0.060*%
%ADD29C,0.024*%
%ADD30C,0.008*%
%ADD31R,0.006X0.159*%
%ADD32R,0.006X0.159*%
%ADD33R,0.248X0.006*%
%ADD34R,0.350X0.006*%
%ADD35R,0.008X0.008*%
%ADD36R,0.006X0.314*%
%ADD37R,0.269X0.006*%
%ADD38R,0.047X0.067*%
%ADD39R,0.067X0.047*%
%ADD40R,0.043X0.039*%
%ADD41R,0.081X0.059*%
%ADD42R,0.067X0.165*%
%ADD43R,0.071X0.087*%
%ADD44R,0.043X0.038*%
%ADD45R,0.038X0.043*%
%ADD46R,0.047X0.030*%
%ADD47O,0.055X0.087*%
%ADD48R,0.059X0.059*%
%ADD49C,0.059*%
%ADD50R,0.051X0.067*%
%ADD51O,0.051X0.067*%
%ADD52C,0.069*%
%ADD53C,0.068*%
%ADD54C,0.001*%
%ADD55C,0.002*%
%ADD56R,0.008X0.008*%
%ADD57R,0.277X0.006*%
%ADD58R,0.008X0.004*%
%ADD59C,0.010*%
%ADD60C,0.005*%
%ADD61C,0.007*%
D60*
X2789Y2891D02*
Y2931D01*
X2829D01*
Y2891D01*
X2789D01*
X2868D02*
Y2931D01*
X2908D01*
Y2891D01*
X2868D01*
X2382Y1030D02*
X2362Y1070D01*
X2402D01*
X2382Y1030D01*
X2432D02*
X2412Y1070D01*
X2452D01*
X2432Y1030D01*
X2382Y1180D02*
X2362Y1220D01*
X2402D01*
X2382Y1180D01*
X2432D02*
X2412Y1220D01*
X2452D01*
X2432Y1180D01*
X2382Y1330D02*
X2362Y1370D01*
X2402D01*
X2382Y1330D01*
X2432D02*
X2412Y1370D01*
X2452D01*
X2432Y1330D01*
X2171Y1054D02*
X2181Y1064D01*
X2191D01*
X2181Y1074D01*
X2191Y1084D01*
X2181D01*
X2171Y1094D01*
X2161Y1084D01*
X2151D01*
X2161Y1074D01*
X2151Y1064D01*
X2161D01*
X2171Y1054D01*
X2071D02*
X2081Y1064D01*
X2091D01*
X2081Y1074D01*
X2091Y1084D01*
X2081D01*
X2071Y1094D01*
X2061Y1084D01*
X2051D01*
X2061Y1074D01*
X2051Y1064D01*
X2061D01*
X2071Y1054D01*
X1971D02*
X1981Y1064D01*
X1991D01*
X1981Y1074D01*
X1991Y1084D01*
X1981D01*
X1971Y1094D01*
X1961Y1084D01*
X1951D01*
X1961Y1074D01*
X1951Y1064D01*
X1961D01*
X1971Y1054D01*
X1871D02*
X1881Y1064D01*
X1891D01*
X1881Y1074D01*
X1891Y1084D01*
X1881D01*
X1871Y1094D01*
X1861Y1084D01*
X1851D01*
X1861Y1074D01*
X1851Y1064D01*
X1861D01*
X1871Y1054D01*
X1771D02*
X1781Y1064D01*
X1791D01*
X1781Y1074D01*
X1791Y1084D01*
X1781D01*
X1771Y1094D01*
X1761Y1084D01*
X1751D01*
X1761Y1074D01*
X1751Y1064D01*
X1761D01*
X1771Y1054D01*
X1671D02*
X1681Y1064D01*
X1691D01*
X1681Y1074D01*
X1691Y1084D01*
X1681D01*
X1671Y1094D01*
X1661Y1084D01*
X1651D01*
X1661Y1074D01*
X1651Y1064D01*
X1661D01*
X1671Y1054D01*
X1571D02*
X1581Y1064D01*
X1591D01*
X1581Y1074D01*
X1591Y1084D01*
X1581D01*
X1571Y1094D01*
X1561Y1084D01*
X1551D01*
X1561Y1074D01*
X1551Y1064D01*
X1561D01*
X1571Y1054D01*
X1471D02*
X1481Y1064D01*
X1491D01*
X1481Y1074D01*
X1491Y1084D01*
X1481D01*
X1471Y1094D01*
X1461Y1084D01*
X1451D01*
X1461Y1074D01*
X1451Y1064D01*
X1461D01*
X1471Y1054D01*
X1371D02*
X1381Y1064D01*
X1391D01*
X1381Y1074D01*
X1391Y1084D01*
X1381D01*
X1371Y1094D01*
X1361Y1084D01*
X1351D01*
X1361Y1074D01*
X1351Y1064D01*
X1361D01*
X1371Y1054D01*
X1271D02*
X1281Y1064D01*
X1291D01*
X1281Y1074D01*
X1291Y1084D01*
X1281D01*
X1271Y1094D01*
X1261Y1084D01*
X1251D01*
X1261Y1074D01*
X1251Y1064D01*
X1261D01*
X1271Y1054D01*
X1171D02*
X1181Y1064D01*
X1191D01*
X1181Y1074D01*
X1191Y1084D01*
X1181D01*
X1171Y1094D01*
X1161Y1084D01*
X1151D01*
X1161Y1074D01*
X1151Y1064D01*
X1161D01*
X1171Y1054D01*
X1134Y2267D02*
X1144Y2287D01*
X1134Y2307D01*
X1154Y2297D01*
X1174Y2307D01*
X1164Y2287D01*
X1174Y2267D01*
X1154Y2277D01*
X1134Y2267D01*
Y2767D02*
X1144Y2787D01*
X1134Y2807D01*
X1154Y2797D01*
X1174Y2807D01*
X1164Y2787D01*
X1174Y2767D01*
X1154Y2777D01*
X1134Y2767D01*
X1234D02*
X1244Y2787D01*
X1234Y2807D01*
X1254Y2797D01*
X1274Y2807D01*
X1264Y2787D01*
X1274Y2767D01*
X1254Y2777D01*
X1234Y2767D01*
X1334D02*
X1344Y2787D01*
X1334Y2807D01*
X1354Y2797D01*
X1374Y2807D01*
X1364Y2787D01*
X1374Y2767D01*
X1354Y2777D01*
X1334Y2767D01*
X1434D02*
X1444Y2787D01*
X1434Y2807D01*
X1454Y2797D01*
X1474Y2807D01*
X1464Y2787D01*
X1474Y2767D01*
X1454Y2777D01*
X1434Y2767D01*
X1534D02*
X1544Y2787D01*
X1534Y2807D01*
X1554Y2797D01*
X1574Y2807D01*
X1564Y2787D01*
X1574Y2767D01*
X1554Y2777D01*
X1534Y2767D01*
X1634D02*
X1644Y2787D01*
X1634Y2807D01*
X1654Y2797D01*
X1674Y2807D01*
X1664Y2787D01*
X1674Y2767D01*
X1654Y2777D01*
X1634Y2767D01*
X1734D02*
X1744Y2787D01*
X1734Y2807D01*
X1754Y2797D01*
X1774Y2807D01*
X1764Y2787D01*
X1774Y2767D01*
X1754Y2777D01*
X1734Y2767D01*
X1834D02*
X1844Y2787D01*
X1834Y2807D01*
X1854Y2797D01*
X1874Y2807D01*
X1864Y2787D01*
X1874Y2767D01*
X1854Y2777D01*
X1834Y2767D01*
X1934D02*
X1944Y2787D01*
X1934Y2807D01*
X1954Y2797D01*
X1974Y2807D01*
X1964Y2787D01*
X1974Y2767D01*
X1954Y2777D01*
X1934Y2767D01*
X2034D02*
X2044Y2787D01*
X2034Y2807D01*
X2054Y2797D01*
X2074Y2807D01*
X2064Y2787D01*
X2074Y2767D01*
X2054Y2777D01*
X2034Y2767D01*
X2134D02*
X2144Y2787D01*
X2134Y2807D01*
X2154Y2797D01*
X2174Y2807D01*
X2164Y2787D01*
X2174Y2767D01*
X2154Y2777D01*
X2134Y2767D01*
X2234D02*
X2244Y2787D01*
X2234Y2807D01*
X2254Y2797D01*
X2274Y2807D01*
X2264Y2787D01*
X2274Y2767D01*
X2254Y2777D01*
X2234Y2767D01*
X2334D02*
X2344Y2787D01*
X2334Y2807D01*
X2354Y2797D01*
X2374Y2807D01*
X2364Y2787D01*
X2374Y2767D01*
X2354Y2777D01*
X2334Y2767D01*
X1034D02*
X1044Y2787D01*
X1034Y2807D01*
X1054Y2797D01*
X1074Y2807D01*
X1064Y2787D01*
X1074Y2767D01*
X1054Y2777D01*
X1034Y2767D01*
X2334Y2167D02*
X2344Y2187D01*
X2334Y2207D01*
X2354Y2197D01*
X2374Y2207D01*
X2364Y2187D01*
X2374Y2167D01*
X2354Y2177D01*
X2334Y2167D01*
X2234D02*
X2244Y2187D01*
X2234Y2207D01*
X2254Y2197D01*
X2274Y2207D01*
X2264Y2187D01*
X2274Y2167D01*
X2254Y2177D01*
X2234Y2167D01*
X2134D02*
X2144Y2187D01*
X2134Y2207D01*
X2154Y2197D01*
X2174Y2207D01*
X2164Y2187D01*
X2174Y2167D01*
X2154Y2177D01*
X2134Y2167D01*
X2034D02*
X2044Y2187D01*
X2034Y2207D01*
X2054Y2197D01*
X2074Y2207D01*
X2064Y2187D01*
X2074Y2167D01*
X2054Y2177D01*
X2034Y2167D01*
X1934D02*
X1944Y2187D01*
X1934Y2207D01*
X1954Y2197D01*
X1974Y2207D01*
X1964Y2187D01*
X1974Y2167D01*
X1954Y2177D01*
X1934Y2167D01*
X1834D02*
X1844Y2187D01*
X1834Y2207D01*
X1854Y2197D01*
X1874Y2207D01*
X1864Y2187D01*
X1874Y2167D01*
X1854Y2177D01*
X1834Y2167D01*
X1734D02*
X1744Y2187D01*
X1734Y2207D01*
X1754Y2197D01*
X1774Y2207D01*
X1764Y2187D01*
X1774Y2167D01*
X1754Y2177D01*
X1734Y2167D01*
X1634D02*
X1644Y2187D01*
X1634Y2207D01*
X1654Y2197D01*
X1674Y2207D01*
X1664Y2187D01*
X1674Y2167D01*
X1654Y2177D01*
X1634Y2167D01*
X1534D02*
X1544Y2187D01*
X1534Y2207D01*
X1554Y2197D01*
X1574Y2207D01*
X1564Y2187D01*
X1574Y2167D01*
X1554Y2177D01*
X1534Y2167D01*
X1434D02*
X1444Y2187D01*
X1434Y2207D01*
X1454Y2197D01*
X1474Y2207D01*
X1464Y2187D01*
X1474Y2167D01*
X1454Y2177D01*
X1434Y2167D01*
X1334D02*
X1344Y2187D01*
X1334Y2207D01*
X1354Y2197D01*
X1374Y2207D01*
X1364Y2187D01*
X1374Y2167D01*
X1354Y2177D01*
X1334Y2167D01*
X1234D02*
X1244Y2187D01*
X1234Y2207D01*
X1254Y2197D01*
X1274Y2207D01*
X1264Y2187D01*
X1274Y2167D01*
X1254Y2177D01*
X1234Y2167D01*
X1134D02*
X1144Y2187D01*
X1134Y2207D01*
X1154Y2197D01*
X1174Y2207D01*
X1164Y2187D01*
X1174Y2167D01*
X1154Y2177D01*
X1134Y2167D01*
X1034D02*
X1044Y2187D01*
X1034Y2207D01*
X1054Y2197D01*
X1074Y2207D01*
X1064Y2187D01*
X1074Y2167D01*
X1054Y2177D01*
X1034Y2167D01*
X2566Y1674D02*
Y1664D01*
X2586D01*
Y1674D01*
X2596D01*
Y1694D01*
X2586D01*
Y1704D01*
X2566D01*
Y1694D01*
X2556D01*
Y1674D01*
X2566D01*
X2403Y1858D02*
Y1848D01*
X2423D01*
Y1858D01*
X2433D01*
Y1878D01*
X2423D01*
Y1888D01*
X2403D01*
Y1878D01*
X2393D01*
Y1858D01*
X2403D01*
X2372Y1713D02*
Y1703D01*
X2392D01*
Y1713D01*
X2402D01*
Y1733D01*
X2392D01*
Y1743D01*
X2372D01*
Y1733D01*
X2362D01*
Y1713D01*
X2372D01*
X2328Y1637D02*
Y1627D01*
X2348D01*
Y1637D01*
X2358D01*
Y1657D01*
X2348D01*
Y1667D01*
X2328D01*
Y1657D01*
X2318D01*
Y1637D01*
X2328D01*
X1043Y999D02*
Y989D01*
X1063D01*
Y999D01*
X1073D01*
Y1019D01*
X1063D01*
Y1029D01*
X1043D01*
Y1019D01*
X1033D01*
Y999D01*
X1043D01*
X1930Y1271D02*
Y1261D01*
X1950D01*
Y1271D01*
X1960D01*
Y1291D01*
X1950D01*
Y1301D01*
X1930D01*
Y1291D01*
X1920D01*
Y1271D01*
X1930D01*
Y1444D02*
Y1434D01*
X1950D01*
Y1444D01*
X1960D01*
Y1464D01*
X1950D01*
Y1474D01*
X1930D01*
Y1464D01*
X1920D01*
Y1444D01*
X1930D01*
X2639Y1852D02*
Y1842D01*
X2659D01*
Y1852D01*
X2669D01*
Y1872D01*
X2659D01*
Y1882D01*
X2639D01*
Y1872D01*
X2629D01*
Y1852D01*
X2639D01*
X2548Y1853D02*
Y1843D01*
X2568D01*
Y1853D01*
X2578D01*
Y1873D01*
X2568D01*
Y1883D01*
X2548D01*
Y1873D01*
X2538D01*
Y1853D01*
X2548D01*
X2568Y1741D02*
Y1731D01*
X2588D01*
Y1741D01*
X2598D01*
Y1761D01*
X2588D01*
Y1771D01*
X2568D01*
Y1761D01*
X2558D01*
Y1741D01*
X2568D01*
X2651Y1687D02*
Y1677D01*
X2671D01*
Y1687D01*
X2681D01*
Y1707D01*
X2671D01*
Y1717D01*
X2651D01*
Y1707D01*
X2641D01*
Y1687D01*
X2651D01*
X2844Y1663D02*
Y1653D01*
X2864D01*
Y1663D01*
X2874D01*
Y1683D01*
X2864D01*
Y1693D01*
X2844D01*
Y1683D01*
X2834D01*
Y1663D01*
X2844D01*
X2041Y2011D02*
Y2001D01*
X2061D01*
Y2011D01*
X2071D01*
Y2031D01*
X2061D01*
Y2041D01*
X2041D01*
Y2031D01*
X2031D01*
Y2011D01*
X2041D01*
X2661Y1974D02*
Y1964D01*
X2681D01*
Y1974D01*
X2691D01*
Y1994D01*
X2681D01*
Y2004D01*
X2661D01*
Y1994D01*
X2651D01*
Y1974D01*
X2661D01*
X2879Y1556D02*
Y1546D01*
X2899D01*
Y1556D01*
X2909D01*
Y1576D01*
X2899D01*
Y1586D01*
X2879D01*
Y1576D01*
X2869D01*
Y1556D01*
X2879D01*
X2878Y1971D02*
Y1961D01*
X2898D01*
Y1971D01*
X2908D01*
Y1991D01*
X2898D01*
Y2001D01*
X2878D01*
Y1991D01*
X2868D01*
Y1971D01*
X2878D01*
X2193Y1989D02*
Y1979D01*
X2213D01*
Y1989D01*
X2223D01*
Y2009D01*
X2213D01*
Y2019D01*
X2193D01*
Y2009D01*
X2183D01*
Y1989D01*
X2193D01*
X1693Y1160D02*
Y1150D01*
X1713D01*
Y1160D01*
X1723D01*
Y1180D01*
X1713D01*
Y1190D01*
X1693D01*
Y1180D01*
X1683D01*
Y1160D01*
X1693D01*
X2146Y2025D02*
Y2015D01*
X2166D01*
Y2025D01*
X2176D01*
Y2045D01*
X2166D01*
Y2055D01*
X2146D01*
Y2045D01*
X2136D01*
Y2025D01*
X2146D01*
X2120Y1955D02*
Y1945D01*
X2140D01*
Y1955D01*
X2150D01*
Y1975D01*
X2140D01*
Y1985D01*
X2120D01*
Y1975D01*
X2110D01*
Y1955D01*
X2120D01*
X1191Y1412D02*
Y1402D01*
X1211D01*
Y1412D01*
X1221D01*
Y1432D01*
X1211D01*
Y1442D01*
X1191D01*
Y1432D01*
X1181D01*
Y1412D01*
X1191D01*
D61*
X2683Y1050D02*
G03*
X2683Y1050I-20J0D01*
G01*
Y1150D02*
G03*
X2683Y1150I-20J0D01*
G01*
Y1250D02*
G03*
X2683Y1250I-20J0D01*
G01*
Y1350D02*
G03*
X2683Y1350I-20J0D01*
G01*
M02*
