%FSLAX23Y23*%
%MOIN*%
G70*
G01*
G75*
G04 Layer_Color=128*
%ADD10R,0.039X0.022*%
%ADD11R,0.035X0.031*%
%ADD12R,0.031X0.035*%
%ADD13R,0.063X0.118*%
%ADD14R,0.122X0.157*%
%ADD15R,0.063X0.157*%
%ADD16R,0.073X0.051*%
%ADD17R,0.039X0.059*%
%ADD18R,0.059X0.039*%
%ADD19C,0.006*%
%ADD20C,0.012*%
%ADD21C,0.012*%
G04:AMPARAMS|DCode=22|XSize=39mil|YSize=55mil|CornerRadius=10mil|HoleSize=0mil|Usage=FLASHONLY|Rotation=270.000|XOffset=0mil|YOffset=0mil|HoleType=Round|Shape=RoundedRectangle|*
%AMROUNDEDRECTD22*
21,1,0.039,0.035,0,0,270.0*
21,1,0.020,0.055,0,0,270.0*
1,1,0.020,-0.018,-0.010*
1,1,0.020,-0.018,0.010*
1,1,0.020,0.018,0.010*
1,1,0.020,0.018,-0.010*
%
%ADD22ROUNDEDRECTD22*%
%ADD23C,0.047*%
%ADD24C,0.061*%
%ADD25C,0.051*%
%ADD26R,0.051X0.051*%
%ADD27R,0.043X0.059*%
%ADD28R,0.051X0.051*%
%ADD29O,0.079X0.047*%
%ADD30C,0.024*%
%ADD31C,0.020*%
%ADD32R,0.071X0.094*%
%ADD33R,0.069X0.018*%
%ADD34R,0.020X0.035*%
%ADD35O,0.059X0.018*%
%ADD36O,0.018X0.059*%
%ADD37R,0.039X0.039*%
%ADD38R,0.030X0.035*%
%ADD39R,0.073X0.079*%
%ADD40C,0.008*%
%ADD41R,0.006X0.159*%
%ADD42R,0.006X0.159*%
%ADD43R,0.248X0.006*%
%ADD44R,0.350X0.006*%
%ADD45R,0.008X0.008*%
%ADD46R,0.006X0.314*%
%ADD47R,0.269X0.006*%
%ADD48R,0.008X0.012*%
%ADD49R,0.047X0.030*%
%ADD50R,0.043X0.039*%
%ADD51R,0.039X0.043*%
%ADD52R,0.071X0.126*%
%ADD53R,0.130X0.165*%
%ADD54R,0.071X0.165*%
%ADD55R,0.081X0.059*%
%ADD56R,0.047X0.067*%
%ADD57R,0.067X0.047*%
G04:AMPARAMS|DCode=58|XSize=47mil|YSize=63mil|CornerRadius=14mil|HoleSize=0mil|Usage=FLASHONLY|Rotation=270.000|XOffset=0mil|YOffset=0mil|HoleType=Round|Shape=RoundedRectangle|*
%AMROUNDEDRECTD58*
21,1,0.047,0.035,0,0,270.0*
21,1,0.020,0.063,0,0,270.0*
1,1,0.028,-0.018,-0.010*
1,1,0.028,-0.018,0.010*
1,1,0.028,0.018,0.010*
1,1,0.028,0.018,-0.010*
%
%ADD58ROUNDEDRECTD58*%
%ADD59C,0.055*%
%ADD60C,0.069*%
%ADD61C,0.059*%
%ADD62R,0.059X0.059*%
%ADD63R,0.051X0.067*%
%ADD64R,0.059X0.059*%
%ADD65O,0.087X0.055*%
%ADD66R,0.079X0.102*%
%ADD67R,0.077X0.026*%
%ADD68R,0.028X0.043*%
%ADD69O,0.067X0.026*%
%ADD70O,0.026X0.067*%
%ADD71R,0.047X0.047*%
%ADD72R,0.038X0.043*%
D11*
X1352Y2924D02*
D03*
Y2867D02*
D03*
X1408D02*
D03*
Y2924D02*
D03*
X1996Y2396D02*
D03*
Y2339D02*
D03*
Y2558D02*
D03*
Y2615D02*
D03*
X1464Y2867D02*
D03*
Y2924D02*
D03*
X1358Y2519D02*
D03*
Y2576D02*
D03*
X1996Y2448D02*
D03*
Y2505D02*
D03*
X1297Y2867D02*
D03*
Y2924D02*
D03*
X1358Y2376D02*
D03*
Y2433D02*
D03*
D12*
X2811Y2783D02*
D03*
X2868D02*
D03*
X1231Y2587D02*
D03*
X1288D02*
D03*
X1231Y2531D02*
D03*
X1288D02*
D03*
X1231Y2421D02*
D03*
X1288D02*
D03*
X1231Y2476D02*
D03*
X1288D02*
D03*
X1133Y2736D02*
D03*
X1190D02*
D03*
X1133Y2693D02*
D03*
X1190D02*
D03*
X1023Y2736D02*
D03*
X1080D02*
D03*
X1023Y2693D02*
D03*
X1080D02*
D03*
X1625Y2886D02*
D03*
X1682D02*
D03*
X1784Y2886D02*
D03*
X1727D02*
D03*
D14*
X2305Y2890D02*
D03*
X2522D02*
D03*
D16*
X2072Y2422D02*
D03*
Y2530D02*
D03*
D32*
X1783Y2799D02*
D03*
X1626D02*
D03*
D33*
X1146Y2528D02*
D03*
Y2502D02*
D03*
Y2425D02*
D03*
Y2451D02*
D03*
Y2476D02*
D03*
D34*
X2802Y2638D02*
D03*
X2840D02*
D03*
X2877D02*
D03*
Y2728D02*
D03*
X2840D02*
D03*
X2802D02*
D03*
D35*
X1478Y2319D02*
D03*
Y2350D02*
D03*
Y2382D02*
D03*
Y2413D02*
D03*
Y2445D02*
D03*
Y2476D02*
D03*
Y2508D02*
D03*
Y2539D02*
D03*
Y2571D02*
D03*
Y2602D02*
D03*
Y2634D02*
D03*
X1931D02*
D03*
Y2602D02*
D03*
Y2571D02*
D03*
Y2539D02*
D03*
Y2508D02*
D03*
Y2476D02*
D03*
Y2445D02*
D03*
Y2413D02*
D03*
Y2382D02*
D03*
Y2350D02*
D03*
Y2319D02*
D03*
D36*
X1547Y2703D02*
D03*
X1579D02*
D03*
X1610D02*
D03*
X1642D02*
D03*
X1673D02*
D03*
X1705D02*
D03*
X1736D02*
D03*
X1768D02*
D03*
X1799D02*
D03*
X1831D02*
D03*
X1862D02*
D03*
Y2250D02*
D03*
X1831D02*
D03*
X1799D02*
D03*
X1768D02*
D03*
X1736D02*
D03*
X1705D02*
D03*
X1673D02*
D03*
X1642D02*
D03*
X1610D02*
D03*
X1579D02*
D03*
X1547D02*
D03*
D37*
X2742Y2928D02*
D03*
Y2861D02*
D03*
X2939Y2928D02*
D03*
Y2861D02*
D03*
X1029Y2928D02*
D03*
Y2861D02*
D03*
X1225Y2928D02*
D03*
Y2861D02*
D03*
D38*
X1233Y2366D02*
D03*
X1286D02*
D03*
M02*
