%FSLAX23Y23*%
%MOIN*%
G70*
G01*
G75*
%ADD10R,0.039X0.059*%
%ADD11R,0.059X0.039*%
%ADD12R,0.035X0.031*%
%ADD13R,0.073X0.051*%
%ADD14R,0.059X0.157*%
%ADD15R,0.063X0.079*%
%ADD16R,0.035X0.030*%
%ADD17R,0.030X0.035*%
%ADD18R,0.039X0.022*%
%ADD19C,0.012*%
%ADD20C,0.012*%
%ADD21C,0.006*%
%ADD22O,0.047X0.079*%
%ADD23R,0.051X0.051*%
%ADD24C,0.051*%
%ADD25R,0.043X0.059*%
%ADD26O,0.043X0.059*%
%ADD27C,0.061*%
%ADD28C,0.060*%
%ADD29C,0.024*%
%ADD30C,0.008*%
%ADD31R,0.006X0.159*%
%ADD32R,0.006X0.159*%
%ADD33R,0.248X0.006*%
%ADD34R,0.350X0.006*%
%ADD35R,0.008X0.008*%
%ADD36R,0.006X0.314*%
%ADD37R,0.269X0.006*%
%ADD38R,0.047X0.067*%
%ADD39R,0.067X0.047*%
%ADD40R,0.043X0.039*%
%ADD41R,0.081X0.059*%
%ADD42R,0.067X0.165*%
%ADD43R,0.071X0.087*%
%ADD44R,0.043X0.038*%
%ADD45R,0.038X0.043*%
%ADD46R,0.047X0.030*%
%ADD47O,0.055X0.087*%
%ADD48R,0.059X0.059*%
%ADD49C,0.059*%
%ADD50R,0.051X0.067*%
%ADD51O,0.051X0.067*%
%ADD52C,0.069*%
%ADD53C,0.068*%
%ADD54C,0.001*%
%ADD55C,0.002*%
%ADD56R,0.008X0.008*%
%ADD57R,0.277X0.006*%
%ADD58R,0.008X0.004*%
%ADD59C,0.010*%
%ADD60C,0.005*%
%ADD61C,0.007*%
D60*
X2793Y2911D02*
X2825D01*
X2809Y2896D02*
Y2927D01*
X2872Y2911D02*
X2904D01*
X2888Y2896D02*
Y2927D01*
X2644Y1050D02*
X2683D01*
X2663Y1030D02*
Y1070D01*
X2644Y1150D02*
X2683D01*
X2663Y1130D02*
Y1170D01*
X2644Y1250D02*
X2683D01*
X2663Y1230D02*
Y1270D01*
X2644Y1350D02*
X2683D01*
X2663Y1330D02*
Y1370D01*
X2367Y1050D02*
X2397D01*
X2382Y1035D02*
Y1065D01*
X2417Y1050D02*
X2447D01*
X2432Y1035D02*
Y1065D01*
X2367Y1200D02*
X2397D01*
X2382Y1185D02*
Y1215D01*
X2417Y1200D02*
X2447D01*
X2432Y1185D02*
Y1215D01*
X2367Y1350D02*
X2397D01*
X2382Y1335D02*
Y1365D01*
X2417Y1350D02*
X2447D01*
X2432Y1335D02*
Y1365D01*
X2150Y1074D02*
X2193D01*
X2171Y1052D02*
Y1095D01*
X2050Y1074D02*
X2093D01*
X2071Y1052D02*
Y1095D01*
X1950Y1074D02*
X1993D01*
X1971Y1052D02*
Y1095D01*
X1850Y1074D02*
X1893D01*
X1871Y1052D02*
Y1095D01*
X1750Y1074D02*
X1793D01*
X1771Y1052D02*
Y1095D01*
X1650Y1074D02*
X1693D01*
X1671Y1052D02*
Y1095D01*
X1550Y1074D02*
X1593D01*
X1571Y1052D02*
Y1095D01*
X1450Y1074D02*
X1493D01*
X1471Y1052D02*
Y1095D01*
X1350Y1074D02*
X1393D01*
X1371Y1052D02*
Y1095D01*
X1250Y1074D02*
X1293D01*
X1271Y1052D02*
Y1095D01*
X1150Y1074D02*
X1193D01*
X1171Y1052D02*
Y1095D01*
X1134Y2287D02*
X1174D01*
X1154Y2267D02*
Y2307D01*
X1134Y2787D02*
X1174D01*
X1154Y2767D02*
Y2807D01*
X1234Y2787D02*
X1274D01*
X1254Y2767D02*
Y2807D01*
X1334Y2787D02*
X1374D01*
X1354Y2767D02*
Y2807D01*
X1434Y2787D02*
X1474D01*
X1454Y2767D02*
Y2807D01*
X1534Y2787D02*
X1574D01*
X1554Y2767D02*
Y2807D01*
X1634Y2787D02*
X1674D01*
X1654Y2767D02*
Y2807D01*
X1734Y2787D02*
X1774D01*
X1754Y2767D02*
Y2807D01*
X1834Y2787D02*
X1874D01*
X1854Y2767D02*
Y2807D01*
X1934Y2787D02*
X1974D01*
X1954Y2767D02*
Y2807D01*
X2034Y2787D02*
X2074D01*
X2054Y2767D02*
Y2807D01*
X2134Y2787D02*
X2174D01*
X2154Y2767D02*
Y2807D01*
X2234Y2787D02*
X2274D01*
X2254Y2767D02*
Y2807D01*
X2334Y2787D02*
X2374D01*
X2354Y2767D02*
Y2807D01*
X1034Y2787D02*
X1074D01*
X1054Y2767D02*
Y2807D01*
X2334Y2187D02*
X2374D01*
X2354Y2167D02*
Y2207D01*
X2234Y2187D02*
X2274D01*
X2254Y2167D02*
Y2207D01*
X2134Y2187D02*
X2174D01*
X2154Y2167D02*
Y2207D01*
X2034Y2187D02*
X2074D01*
X2054Y2167D02*
Y2207D01*
X1934Y2187D02*
X1974D01*
X1954Y2167D02*
Y2207D01*
X1834Y2187D02*
X1874D01*
X1854Y2167D02*
Y2207D01*
X1734Y2187D02*
X1774D01*
X1754Y2167D02*
Y2207D01*
X1634Y2187D02*
X1674D01*
X1654Y2167D02*
Y2207D01*
X1534Y2187D02*
X1574D01*
X1554Y2167D02*
Y2207D01*
X1434Y2187D02*
X1474D01*
X1454Y2167D02*
Y2207D01*
X1334Y2187D02*
X1374D01*
X1354Y2167D02*
Y2207D01*
X1234Y2187D02*
X1274D01*
X1254Y2167D02*
Y2207D01*
X1134Y2187D02*
X1174D01*
X1154Y2167D02*
Y2207D01*
X1034Y2187D02*
X1074D01*
X1054Y2167D02*
Y2207D01*
X2570Y1684D02*
X2582D01*
X2576Y1678D02*
Y1690D01*
X2407Y1868D02*
X2419D01*
X2413Y1862D02*
Y1874D01*
X2376Y1723D02*
X2388D01*
X2382Y1718D02*
Y1729D01*
X2332Y1647D02*
X2344D01*
X2338Y1641D02*
Y1653D01*
X1047Y1009D02*
X1059D01*
X1053Y1003D02*
Y1015D01*
X1934Y1281D02*
X1946D01*
X1940Y1276D02*
Y1287D01*
X1934Y1454D02*
X1946D01*
X1940Y1448D02*
Y1460D01*
X2643Y1862D02*
X2655D01*
X2649Y1856D02*
Y1868D01*
X2552Y1863D02*
X2564D01*
X2558Y1857D02*
Y1869D01*
X2572Y1751D02*
X2584D01*
X2578Y1745D02*
Y1757D01*
X2655Y1697D02*
X2666D01*
X2661Y1691D02*
Y1703D01*
X2848Y1673D02*
X2860D01*
X2854Y1667D02*
Y1679D01*
X2045Y2021D02*
X2057D01*
X2051Y2015D02*
Y2027D01*
X2665Y1984D02*
X2677D01*
X2671Y1978D02*
Y1990D01*
X2883Y1566D02*
X2895D01*
X2889Y1560D02*
Y1572D01*
X2882Y1981D02*
X2894D01*
X2888Y1975D02*
Y1987D01*
X2197Y1999D02*
X2209D01*
X2203Y1993D02*
Y2005D01*
X1697Y1170D02*
X1709D01*
X1703Y1164D02*
Y1176D01*
X2151Y2035D02*
X2162D01*
X2156Y2030D02*
Y2041D01*
X2124Y1965D02*
X2136D01*
X2130Y1959D02*
Y1970D01*
X1195Y1422D02*
X1207D01*
X1201Y1416D02*
Y1428D01*
M02*
