%FSLAX23Y23*%
%MOIN*%
G70*
G01*
G75*
G04 Layer_Color=2752767*
%ADD10R,0.039X0.022*%
%ADD11R,0.035X0.031*%
%ADD12R,0.031X0.035*%
%ADD13R,0.063X0.118*%
%ADD14R,0.122X0.157*%
%ADD15R,0.063X0.157*%
%ADD16R,0.073X0.051*%
%ADD17R,0.039X0.059*%
%ADD18R,0.059X0.039*%
%ADD19C,0.006*%
%ADD20C,0.012*%
%ADD21C,0.012*%
G04:AMPARAMS|DCode=22|XSize=39mil|YSize=55mil|CornerRadius=10mil|HoleSize=0mil|Usage=FLASHONLY|Rotation=270.000|XOffset=0mil|YOffset=0mil|HoleType=Round|Shape=RoundedRectangle|*
%AMROUNDEDRECTD22*
21,1,0.039,0.035,0,0,270.0*
21,1,0.020,0.055,0,0,270.0*
1,1,0.020,-0.018,-0.010*
1,1,0.020,-0.018,0.010*
1,1,0.020,0.018,0.010*
1,1,0.020,0.018,-0.010*
%
%ADD22ROUNDEDRECTD22*%
%ADD23C,0.047*%
%ADD24C,0.061*%
%ADD25C,0.051*%
%ADD26R,0.051X0.051*%
%ADD27R,0.043X0.059*%
%ADD28R,0.051X0.051*%
%ADD29O,0.079X0.047*%
%ADD30C,0.024*%
%ADD31C,0.020*%
%ADD32R,0.071X0.094*%
%ADD33R,0.069X0.018*%
%ADD34R,0.020X0.035*%
%ADD35O,0.059X0.018*%
%ADD36O,0.018X0.059*%
%ADD37R,0.039X0.039*%
%ADD38R,0.030X0.035*%
%ADD39R,0.073X0.079*%
%ADD40C,0.008*%
%ADD41R,0.006X0.159*%
%ADD42R,0.006X0.159*%
%ADD43R,0.248X0.006*%
%ADD44R,0.350X0.006*%
%ADD45R,0.008X0.008*%
%ADD46R,0.006X0.314*%
%ADD47R,0.269X0.006*%
%ADD48R,0.008X0.012*%
%ADD49R,0.047X0.030*%
%ADD50R,0.043X0.039*%
%ADD51R,0.039X0.043*%
%ADD52R,0.071X0.126*%
%ADD53R,0.130X0.165*%
%ADD54R,0.071X0.165*%
%ADD55R,0.081X0.059*%
%ADD56R,0.047X0.067*%
%ADD57R,0.067X0.047*%
G04:AMPARAMS|DCode=58|XSize=47mil|YSize=63mil|CornerRadius=14mil|HoleSize=0mil|Usage=FLASHONLY|Rotation=270.000|XOffset=0mil|YOffset=0mil|HoleType=Round|Shape=RoundedRectangle|*
%AMROUNDEDRECTD58*
21,1,0.047,0.035,0,0,270.0*
21,1,0.020,0.063,0,0,270.0*
1,1,0.028,-0.018,-0.010*
1,1,0.028,-0.018,0.010*
1,1,0.028,0.018,0.010*
1,1,0.028,0.018,-0.010*
%
%ADD58ROUNDEDRECTD58*%
%ADD59C,0.055*%
%ADD60C,0.069*%
%ADD61C,0.059*%
%ADD62R,0.059X0.059*%
%ADD63R,0.051X0.067*%
%ADD64R,0.059X0.059*%
%ADD65O,0.087X0.055*%
%ADD66R,0.079X0.102*%
%ADD67R,0.077X0.026*%
%ADD68R,0.028X0.043*%
%ADD69O,0.067X0.026*%
%ADD70O,0.026X0.067*%
%ADD71R,0.047X0.047*%
%ADD72R,0.038X0.043*%
%ADD73C,0.010*%
%ADD74C,0.024*%
%ADD75C,0.006*%
%ADD76C,0.001*%
%ADD77C,0.002*%
%ADD78R,0.531X0.006*%
%ADD79R,0.353X0.006*%
%ADD80R,0.481X0.006*%
%ADD81R,0.002X0.096*%
%ADD82R,0.004X0.004*%
%ADD83R,0.008X0.008*%
%ADD84R,0.339X0.006*%
%ADD85R,0.004X0.004*%
%ADD86R,0.004X0.004*%
%ADD87C,0.010*%
%ADD88C,0.005*%
%ADD89C,0.007*%
D88*
X1017Y2563D02*
Y2603D01*
X1057D01*
Y2563D01*
X1017D01*
X1134Y2361D02*
Y2401D01*
X1174D01*
Y2361D01*
X1134D01*
Y2552D02*
Y2592D01*
X1174D01*
Y2552D01*
X1134D01*
X1014Y2350D02*
Y2390D01*
X1054D01*
Y2350D01*
X1014D01*
X1171Y1054D02*
X1151Y1094D01*
X1191D01*
X1171Y1054D01*
X1271D02*
X1251Y1094D01*
X1291D01*
X1271Y1054D01*
X1371D02*
X1351Y1094D01*
X1391D01*
X1371Y1054D01*
X1471D02*
X1451Y1094D01*
X1491D01*
X1471Y1054D01*
X1571D02*
X1551Y1094D01*
X1591D01*
X1571Y1054D01*
X1671D02*
X1651Y1094D01*
X1691D01*
X1671Y1054D01*
X1771D02*
X1751Y1094D01*
X1791D01*
X1771Y1054D01*
X1871D02*
X1851Y1094D01*
X1891D01*
X1871Y1054D01*
X1971D02*
X1951Y1094D01*
X1991D01*
X1971Y1054D01*
X2071D02*
X2051Y1094D01*
X2091D01*
X2071Y1054D01*
X2171D02*
X2151Y1094D01*
X2191D01*
X2171Y1054D01*
X2918Y2245D02*
X2928Y2255D01*
X2938D01*
X2928Y2265D01*
X2938Y2275D01*
X2928D01*
X2918Y2285D01*
X2908Y2275D01*
X2898D01*
X2908Y2265D01*
X2898Y2255D01*
X2908D01*
X2918Y2245D01*
X2818D02*
X2828Y2255D01*
X2838D01*
X2828Y2265D01*
X2838Y2275D01*
X2828D01*
X2818Y2285D01*
X2808Y2275D01*
X2798D01*
X2808Y2265D01*
X2798Y2255D01*
X2808D01*
X2818Y2245D01*
X2718D02*
X2728Y2255D01*
X2738D01*
X2728Y2265D01*
X2738Y2275D01*
X2728D01*
X2718Y2285D01*
X2708Y2275D01*
X2698D01*
X2708Y2265D01*
X2698Y2255D01*
X2708D01*
X2718Y2245D01*
X2618D02*
X2628Y2255D01*
X2638D01*
X2628Y2265D01*
X2638Y2275D01*
X2628D01*
X2618Y2285D01*
X2608Y2275D01*
X2598D01*
X2608Y2265D01*
X2598Y2255D01*
X2608D01*
X2618Y2245D01*
X2412Y1330D02*
X2422Y1350D01*
X2412Y1370D01*
X2432Y1360D01*
X2452Y1370D01*
X2442Y1350D01*
X2452Y1330D01*
X2432Y1340D01*
X2412Y1330D01*
X2362D02*
X2372Y1350D01*
X2362Y1370D01*
X2382Y1360D01*
X2402Y1370D01*
X2392Y1350D01*
X2402Y1330D01*
X2382Y1340D01*
X2362Y1330D01*
X2412Y1180D02*
X2422Y1200D01*
X2412Y1220D01*
X2432Y1210D01*
X2452Y1220D01*
X2442Y1200D01*
X2452Y1180D01*
X2432Y1190D01*
X2412Y1180D01*
X2362D02*
X2372Y1200D01*
X2362Y1220D01*
X2382Y1210D01*
X2402Y1220D01*
X2392Y1200D01*
X2402Y1180D01*
X2382Y1190D01*
X2362Y1180D01*
X2412Y1030D02*
X2422Y1050D01*
X2412Y1070D01*
X2432Y1060D01*
X2452Y1070D01*
X2442Y1050D01*
X2452Y1030D01*
X2432Y1040D01*
X2412Y1030D01*
X2362D02*
X2372Y1050D01*
X2362Y1070D01*
X2382Y1060D01*
X2402Y1070D01*
X2392Y1050D01*
X2402Y1030D01*
X2382Y1040D01*
X2362Y1030D01*
X2663D02*
X2673Y1040D01*
X2683D01*
X2673Y1050D01*
X2683Y1060D01*
X2673D01*
X2663Y1070D01*
X2653Y1060D01*
X2643D01*
X2653Y1050D01*
X2643Y1040D01*
X2653D01*
X2663Y1030D01*
Y1130D02*
X2673Y1140D01*
X2683D01*
X2673Y1150D01*
X2683Y1160D01*
X2673D01*
X2663Y1170D01*
X2653Y1160D01*
X2643D01*
X2653Y1150D01*
X2643Y1140D01*
X2653D01*
X2663Y1130D01*
Y1230D02*
X2673Y1240D01*
X2683D01*
X2673Y1250D01*
X2683Y1260D01*
X2673D01*
X2663Y1270D01*
X2653Y1260D01*
X2643D01*
X2653Y1250D01*
X2643Y1240D01*
X2653D01*
X2663Y1230D01*
Y1330D02*
X2673Y1340D01*
X2683D01*
X2673Y1350D01*
X2683Y1360D01*
X2673D01*
X2663Y1370D01*
X2653Y1360D01*
X2643D01*
X2653Y1350D01*
X2643Y1340D01*
X2653D01*
X2663Y1330D01*
X2463Y2201D02*
Y2191D01*
X2483D01*
Y2201D01*
X2493D01*
Y2221D01*
X2483D01*
Y2231D01*
X2463D01*
Y2221D01*
X2453D01*
Y2201D01*
X2463D01*
Y2279D02*
Y2269D01*
X2483D01*
Y2279D01*
X2493D01*
Y2299D01*
X2483D01*
Y2309D01*
X2463D01*
Y2299D01*
X2453D01*
Y2279D01*
X2463D01*
X2478Y2549D02*
X2488Y2559D01*
X2498D01*
X2488Y2569D01*
X2498Y2579D01*
X2488D01*
X2478Y2589D01*
X2468Y2579D01*
X2458D01*
X2468Y2569D01*
X2458Y2559D01*
X2468D01*
X2478Y2549D01*
Y2449D02*
X2488Y2459D01*
X2498D01*
X2488Y2469D01*
X2498Y2479D01*
X2488D01*
X2478Y2489D01*
X2468Y2479D01*
X2458D01*
X2468Y2469D01*
X2458Y2459D01*
X2468D01*
X2478Y2449D01*
X2378D02*
X2388Y2459D01*
X2398D01*
X2388Y2469D01*
X2398Y2479D01*
X2388D01*
X2378Y2489D01*
X2368Y2479D01*
X2358D01*
X2368Y2469D01*
X2358Y2459D01*
X2368D01*
X2378Y2449D01*
Y2549D02*
X2388Y2559D01*
X2398D01*
X2388Y2569D01*
X2398Y2579D01*
X2388D01*
X2378Y2589D01*
X2368Y2579D01*
X2358D01*
X2368Y2569D01*
X2358Y2559D01*
X2368D01*
X2378Y2549D01*
X2278Y2449D02*
X2288Y2459D01*
X2298D01*
X2288Y2469D01*
X2298Y2479D01*
X2288D01*
X2278Y2489D01*
X2268Y2479D01*
X2258D01*
X2268Y2469D01*
X2258Y2459D01*
X2268D01*
X2278Y2449D01*
Y2549D02*
X2288Y2559D01*
X2298D01*
X2288Y2569D01*
X2298Y2579D01*
X2288D01*
X2278Y2589D01*
X2268Y2579D01*
X2258D01*
X2268Y2569D01*
X2258Y2559D01*
X2268D01*
X2278Y2549D01*
X1873Y2456D02*
X1883D01*
X1893Y2466D01*
X1903Y2456D01*
X1913D01*
Y2466D01*
X1903Y2476D01*
X1913Y2486D01*
Y2496D01*
X1903D01*
X1893Y2486D01*
X1883Y2496D01*
X1873D01*
Y2486D01*
X1883Y2476D01*
X1873Y2466D01*
Y2456D01*
X1653D02*
X1663D01*
X1673Y2466D01*
X1683Y2456D01*
X1693D01*
Y2466D01*
X1683Y2476D01*
X1693Y2486D01*
Y2496D01*
X1683D01*
X1673Y2486D01*
X1663Y2496D01*
X1653D01*
Y2486D01*
X1663Y2476D01*
X1653Y2466D01*
Y2456D01*
Y2283D02*
X1663D01*
X1673Y2293D01*
X1683Y2283D01*
X1693D01*
Y2293D01*
X1683Y2303D01*
X1693Y2313D01*
Y2323D01*
X1683D01*
X1673Y2313D01*
X1663Y2323D01*
X1653D01*
Y2313D01*
X1663Y2303D01*
X1653Y2293D01*
Y2283D01*
X1519Y2118D02*
X1529D01*
X1539Y2128D01*
X1549Y2118D01*
X1559D01*
Y2128D01*
X1549Y2138D01*
X1559Y2148D01*
Y2158D01*
X1549D01*
X1539Y2148D01*
X1529Y2158D01*
X1519D01*
Y2148D01*
X1529Y2138D01*
X1519Y2128D01*
Y2118D01*
X1484Y2165D02*
X1494D01*
X1504Y2175D01*
X1514Y2165D01*
X1524D01*
Y2175D01*
X1514Y2185D01*
X1524Y2195D01*
Y2205D01*
X1514D01*
X1504Y2195D01*
X1494Y2205D01*
X1484D01*
Y2195D01*
X1494Y2185D01*
X1484Y2175D01*
Y2165D01*
X1451Y2163D02*
X1461D01*
X1471Y2173D01*
X1481Y2163D01*
X1491D01*
Y2173D01*
X1481Y2183D01*
X1491Y2193D01*
Y2203D01*
X1481D01*
X1471Y2193D01*
X1461Y2203D01*
X1451D01*
Y2193D01*
X1461Y2183D01*
X1451Y2173D01*
Y2163D01*
X1555Y2165D02*
X1565D01*
X1575Y2175D01*
X1585Y2165D01*
X1595D01*
Y2175D01*
X1585Y2185D01*
X1595Y2195D01*
Y2205D01*
X1585D01*
X1575Y2195D01*
X1565Y2205D01*
X1555D01*
Y2195D01*
X1565Y2185D01*
X1555Y2175D01*
Y2165D01*
Y2055D02*
X1565D01*
X1575Y2065D01*
X1585Y2055D01*
X1595D01*
Y2065D01*
X1585Y2075D01*
X1595Y2085D01*
Y2095D01*
X1585D01*
X1575Y2085D01*
X1565Y2095D01*
X1555D01*
Y2085D01*
X1565Y2075D01*
X1555Y2065D01*
Y2055D01*
X2287Y2815D02*
X2297D01*
X2307Y2825D01*
X2317Y2815D01*
X2327D01*
Y2825D01*
X2317Y2835D01*
X2327Y2845D01*
Y2855D01*
X2317D01*
X2307Y2845D01*
X2297Y2855D01*
X2287D01*
Y2845D01*
X2297Y2835D01*
X2287Y2825D01*
Y2815D01*
Y2854D02*
X2297D01*
X2307Y2864D01*
X2317Y2854D01*
X2327D01*
Y2864D01*
X2317Y2874D01*
X2327Y2884D01*
Y2894D01*
X2317D01*
X2307Y2884D01*
X2297Y2894D01*
X2287D01*
Y2884D01*
X2297Y2874D01*
X2287Y2864D01*
Y2854D01*
Y2893D02*
X2297D01*
X2307Y2903D01*
X2317Y2893D01*
X2327D01*
Y2903D01*
X2317Y2913D01*
X2327Y2923D01*
Y2933D01*
X2317D01*
X2307Y2923D01*
X2297Y2933D01*
X2287D01*
Y2923D01*
X2297Y2913D01*
X2287Y2903D01*
Y2893D01*
X2500Y2815D02*
X2510D01*
X2520Y2825D01*
X2530Y2815D01*
X2540D01*
Y2825D01*
X2530Y2835D01*
X2540Y2845D01*
Y2855D01*
X2530D01*
X2520Y2845D01*
X2510Y2855D01*
X2500D01*
Y2845D01*
X2510Y2835D01*
X2500Y2825D01*
Y2815D01*
Y2854D02*
X2510D01*
X2520Y2864D01*
X2530Y2854D01*
X2540D01*
Y2864D01*
X2530Y2874D01*
X2540Y2884D01*
Y2894D01*
X2530D01*
X2520Y2884D01*
X2510Y2894D01*
X2500D01*
Y2884D01*
X2510Y2874D01*
X2500Y2864D01*
Y2854D01*
Y2893D02*
X2510D01*
X2520Y2903D01*
X2530Y2893D01*
X2540D01*
Y2903D01*
X2530Y2913D01*
X2540Y2923D01*
Y2933D01*
X2530D01*
X2520Y2923D01*
X2510Y2933D01*
X2500D01*
Y2923D01*
X2510Y2913D01*
X2500Y2903D01*
Y2893D01*
X2024Y2443D02*
X2034D01*
X2044Y2453D01*
X2054Y2443D01*
X2064D01*
Y2453D01*
X2054Y2463D01*
X2064Y2473D01*
Y2483D01*
X2054D01*
X2044Y2473D01*
X2034Y2483D01*
X2024D01*
Y2473D01*
X2034Y2463D01*
X2024Y2453D01*
Y2443D01*
X2079D02*
X2089D01*
X2099Y2453D01*
X2109Y2443D01*
X2119D01*
Y2453D01*
X2109Y2463D01*
X2119Y2473D01*
Y2483D01*
X2109D01*
X2099Y2473D01*
X2089Y2483D01*
X2079D01*
Y2473D01*
X2089Y2463D01*
X2079Y2453D01*
Y2443D01*
X2052D02*
X2062D01*
X2072Y2453D01*
X2082Y2443D01*
X2092D01*
Y2453D01*
X2082Y2463D01*
X2092Y2473D01*
Y2483D01*
X2082D01*
X2072Y2473D01*
X2062Y2483D01*
X2052D01*
Y2473D01*
X2062Y2463D01*
X2052Y2453D01*
Y2443D01*
X1415Y2440D02*
X1425D01*
X1435Y2450D01*
X1445Y2440D01*
X1455D01*
Y2450D01*
X1445Y2460D01*
X1455Y2470D01*
Y2480D01*
X1445D01*
X1435Y2470D01*
X1425Y2480D01*
X1415D01*
Y2470D01*
X1425Y2460D01*
X1415Y2450D01*
Y2440D01*
X2736Y2342D02*
X2746D01*
X2756Y2352D01*
X2766Y2342D01*
X2776D01*
Y2352D01*
X2766Y2362D01*
X2776Y2372D01*
Y2382D01*
X2766D01*
X2756Y2372D01*
X2746Y2382D01*
X2736D01*
Y2372D01*
X2746Y2362D01*
X2736Y2352D01*
Y2342D01*
Y1555D02*
X2746D01*
X2756Y1565D01*
X2766Y1555D01*
X2776D01*
Y1565D01*
X2766Y1575D01*
X2776Y1585D01*
Y1595D01*
X2766D01*
X2756Y1585D01*
X2746Y1595D01*
X2736D01*
Y1585D01*
X2746Y1575D01*
X2736Y1565D01*
Y1555D01*
X2834Y1358D02*
X2844D01*
X2854Y1368D01*
X2864Y1358D01*
X2874D01*
Y1368D01*
X2864Y1378D01*
X2874Y1388D01*
Y1398D01*
X2864D01*
X2854Y1388D01*
X2844Y1398D01*
X2834D01*
Y1388D01*
X2844Y1378D01*
X2834Y1368D01*
Y1358D01*
X2736Y1161D02*
X2746D01*
X2756Y1171D01*
X2766Y1161D01*
X2776D01*
Y1171D01*
X2766Y1181D01*
X2776Y1191D01*
Y1201D01*
X2766D01*
X2756Y1191D01*
X2746Y1201D01*
X2736D01*
Y1191D01*
X2746Y1181D01*
X2736Y1171D01*
Y1161D01*
X2637Y2539D02*
X2647D01*
X2657Y2549D01*
X2667Y2539D01*
X2677D01*
Y2549D01*
X2667Y2559D01*
X2677Y2569D01*
Y2579D01*
X2667D01*
X2657Y2569D01*
X2647Y2579D01*
X2637D01*
Y2569D01*
X2647Y2559D01*
X2637Y2549D01*
Y2539D01*
X2539Y1161D02*
X2549D01*
X2559Y1171D01*
X2569Y1161D01*
X2579D01*
Y1171D01*
X2569Y1181D01*
X2579Y1191D01*
Y1201D01*
X2569D01*
X2559Y1191D01*
X2549Y1201D01*
X2539D01*
Y1191D01*
X2549Y1181D01*
X2539Y1171D01*
Y1161D01*
X2342Y2342D02*
X2352D01*
X2362Y2352D01*
X2372Y2342D01*
X2382D01*
Y2352D01*
X2372Y2362D01*
X2382Y2372D01*
Y2382D01*
X2372D01*
X2362Y2372D01*
X2352Y2382D01*
X2342D01*
Y2372D01*
X2352Y2362D01*
X2342Y2352D01*
Y2342D01*
X2441Y2145D02*
X2451D01*
X2461Y2155D01*
X2471Y2145D01*
X2481D01*
Y2155D01*
X2471Y2165D01*
X2481Y2175D01*
Y2185D01*
X2471D01*
X2461Y2175D01*
X2451Y2185D01*
X2441D01*
Y2175D01*
X2451Y2165D01*
X2441Y2155D01*
Y2145D01*
X2342Y1949D02*
X2352D01*
X2362Y1959D01*
X2372Y1949D01*
X2382D01*
Y1959D01*
X2372Y1969D01*
X2382Y1979D01*
Y1989D01*
X2372D01*
X2362Y1979D01*
X2352Y1989D01*
X2342D01*
Y1979D01*
X2352Y1969D01*
X2342Y1959D01*
Y1949D01*
X2145Y1555D02*
X2155D01*
X2165Y1565D01*
X2175Y1555D01*
X2185D01*
Y1565D01*
X2175Y1575D01*
X2185Y1585D01*
Y1595D01*
X2175D01*
X2165Y1585D01*
X2155Y1595D01*
X2145D01*
Y1585D01*
X2155Y1575D01*
X2145Y1565D01*
Y1555D01*
X2244Y1358D02*
X2254D01*
X2264Y1368D01*
X2274Y1358D01*
X2284D01*
Y1368D01*
X2274Y1378D01*
X2284Y1388D01*
Y1398D01*
X2274D01*
X2264Y1388D01*
X2254Y1398D01*
X2244D01*
Y1388D01*
X2254Y1378D01*
X2244Y1368D01*
Y1358D01*
X2145Y1161D02*
X2155D01*
X2165Y1171D01*
X2175Y1161D01*
X2185D01*
Y1171D01*
X2175Y1181D01*
X2185Y1191D01*
Y1201D01*
X2175D01*
X2165Y1191D01*
X2155Y1201D01*
X2145D01*
Y1191D01*
X2155Y1181D01*
X2145Y1171D01*
Y1161D01*
X1949Y1949D02*
X1959D01*
X1969Y1959D01*
X1979Y1949D01*
X1989D01*
Y1959D01*
X1979Y1969D01*
X1989Y1979D01*
Y1989D01*
X1979D01*
X1969Y1979D01*
X1959Y1989D01*
X1949D01*
Y1979D01*
X1959Y1969D01*
X1949Y1959D01*
Y1949D01*
Y1555D02*
X1959D01*
X1969Y1565D01*
X1979Y1555D01*
X1989D01*
Y1565D01*
X1979Y1575D01*
X1989Y1585D01*
Y1595D01*
X1979D01*
X1969Y1585D01*
X1959Y1595D01*
X1949D01*
Y1585D01*
X1959Y1575D01*
X1949Y1565D01*
Y1555D01*
X2047Y1358D02*
X2057D01*
X2067Y1368D01*
X2077Y1358D01*
X2087D01*
Y1368D01*
X2077Y1378D01*
X2087Y1388D01*
Y1398D01*
X2077D01*
X2067Y1388D01*
X2057Y1398D01*
X2047D01*
Y1388D01*
X2057Y1378D01*
X2047Y1368D01*
Y1358D01*
X1949Y1161D02*
X1959D01*
X1969Y1171D01*
X1979Y1161D01*
X1989D01*
Y1171D01*
X1979Y1181D01*
X1989Y1191D01*
Y1201D01*
X1979D01*
X1969Y1191D01*
X1959Y1201D01*
X1949D01*
Y1191D01*
X1959Y1181D01*
X1949Y1171D01*
Y1161D01*
X1752Y1949D02*
X1762D01*
X1772Y1959D01*
X1782Y1949D01*
X1792D01*
Y1959D01*
X1782Y1969D01*
X1792Y1979D01*
Y1989D01*
X1782D01*
X1772Y1979D01*
X1762Y1989D01*
X1752D01*
Y1979D01*
X1762Y1969D01*
X1752Y1959D01*
Y1949D01*
X1850Y1752D02*
X1860D01*
X1870Y1762D01*
X1880Y1752D01*
X1890D01*
Y1762D01*
X1880Y1772D01*
X1890Y1782D01*
Y1792D01*
X1880D01*
X1870Y1782D01*
X1860Y1792D01*
X1850D01*
Y1782D01*
X1860Y1772D01*
X1850Y1762D01*
Y1752D01*
X1752Y1555D02*
X1762D01*
X1772Y1565D01*
X1782Y1555D01*
X1792D01*
Y1565D01*
X1782Y1575D01*
X1792Y1585D01*
Y1595D01*
X1782D01*
X1772Y1585D01*
X1762Y1595D01*
X1752D01*
Y1585D01*
X1762Y1575D01*
X1752Y1565D01*
Y1555D01*
X1850Y1358D02*
X1860D01*
X1870Y1368D01*
X1880Y1358D01*
X1890D01*
Y1368D01*
X1880Y1378D01*
X1890Y1388D01*
Y1398D01*
X1880D01*
X1870Y1388D01*
X1860Y1398D01*
X1850D01*
Y1388D01*
X1860Y1378D01*
X1850Y1368D01*
Y1358D01*
X1752Y1161D02*
X1762D01*
X1772Y1171D01*
X1782Y1161D01*
X1792D01*
Y1171D01*
X1782Y1181D01*
X1792Y1191D01*
Y1201D01*
X1782D01*
X1772Y1191D01*
X1762Y1201D01*
X1752D01*
Y1191D01*
X1762Y1181D01*
X1752Y1171D01*
Y1161D01*
X1653Y2145D02*
X1663D01*
X1673Y2155D01*
X1683Y2145D01*
X1693D01*
Y2155D01*
X1683Y2165D01*
X1693Y2175D01*
Y2185D01*
X1683D01*
X1673Y2175D01*
X1663Y2185D01*
X1653D01*
Y2175D01*
X1663Y2165D01*
X1653Y2155D01*
Y2145D01*
X1555Y1949D02*
X1565D01*
X1575Y1959D01*
X1585Y1949D01*
X1595D01*
Y1959D01*
X1585Y1969D01*
X1595Y1979D01*
Y1989D01*
X1585D01*
X1575Y1979D01*
X1565Y1989D01*
X1555D01*
Y1979D01*
X1565Y1969D01*
X1555Y1959D01*
Y1949D01*
X1653Y1752D02*
X1663D01*
X1673Y1762D01*
X1683Y1752D01*
X1693D01*
Y1762D01*
X1683Y1772D01*
X1693Y1782D01*
Y1792D01*
X1683D01*
X1673Y1782D01*
X1663Y1792D01*
X1653D01*
Y1782D01*
X1663Y1772D01*
X1653Y1762D01*
Y1752D01*
X1555Y1555D02*
X1565D01*
X1575Y1565D01*
X1585Y1555D01*
X1595D01*
Y1565D01*
X1585Y1575D01*
X1595Y1585D01*
Y1595D01*
X1585D01*
X1575Y1585D01*
X1565Y1595D01*
X1555D01*
Y1585D01*
X1565Y1575D01*
X1555Y1565D01*
Y1555D01*
X1653Y1358D02*
X1663D01*
X1673Y1368D01*
X1683Y1358D01*
X1693D01*
Y1368D01*
X1683Y1378D01*
X1693Y1388D01*
Y1398D01*
X1683D01*
X1673Y1388D01*
X1663Y1398D01*
X1653D01*
Y1388D01*
X1663Y1378D01*
X1653Y1368D01*
Y1358D01*
X1555Y1161D02*
X1565D01*
X1575Y1171D01*
X1585Y1161D01*
X1595D01*
Y1171D01*
X1585Y1181D01*
X1595Y1191D01*
Y1201D01*
X1585D01*
X1575Y1191D01*
X1565Y1201D01*
X1555D01*
Y1191D01*
X1565Y1181D01*
X1555Y1171D01*
Y1161D01*
X1358Y2736D02*
X1368D01*
X1378Y2746D01*
X1388Y2736D01*
X1398D01*
Y2746D01*
X1388Y2756D01*
X1398Y2766D01*
Y2776D01*
X1388D01*
X1378Y2766D01*
X1368Y2776D01*
X1358D01*
Y2766D01*
X1368Y2756D01*
X1358Y2746D01*
Y2736D01*
Y1949D02*
X1368D01*
X1378Y1959D01*
X1388Y1949D01*
X1398D01*
Y1959D01*
X1388Y1969D01*
X1398Y1979D01*
Y1989D01*
X1388D01*
X1378Y1979D01*
X1368Y1989D01*
X1358D01*
Y1979D01*
X1368Y1969D01*
X1358Y1959D01*
Y1949D01*
Y1555D02*
X1368D01*
X1378Y1565D01*
X1388Y1555D01*
X1398D01*
Y1565D01*
X1388Y1575D01*
X1398Y1585D01*
Y1595D01*
X1388D01*
X1378Y1585D01*
X1368Y1595D01*
X1358D01*
Y1585D01*
X1368Y1575D01*
X1358Y1565D01*
Y1555D01*
Y1161D02*
X1368D01*
X1378Y1171D01*
X1388Y1161D01*
X1398D01*
Y1171D01*
X1388Y1181D01*
X1398Y1191D01*
Y1201D01*
X1388D01*
X1378Y1191D01*
X1368Y1201D01*
X1358D01*
Y1191D01*
X1368Y1181D01*
X1358Y1171D01*
Y1161D01*
X1260Y1358D02*
X1270D01*
X1280Y1368D01*
X1290Y1358D01*
X1300D01*
Y1368D01*
X1290Y1378D01*
X1300Y1388D01*
Y1398D01*
X1290D01*
X1280Y1388D01*
X1270Y1398D01*
X1260D01*
Y1388D01*
X1270Y1378D01*
X1260Y1368D01*
Y1358D01*
X1520Y2616D02*
X1530D01*
X1540Y2626D01*
X1550Y2616D01*
X1560D01*
Y2626D01*
X1550Y2636D01*
X1560Y2646D01*
Y2656D01*
X1550D01*
X1540Y2646D01*
X1530Y2656D01*
X1520D01*
Y2646D01*
X1530Y2636D01*
X1520Y2626D01*
Y2616D01*
X1666Y2555D02*
X1676D01*
X1686Y2565D01*
X1696Y2555D01*
X1706D01*
Y2565D01*
X1696Y2575D01*
X1706Y2585D01*
Y2595D01*
X1696D01*
X1686Y2585D01*
X1676Y2595D01*
X1666D01*
Y2585D01*
X1676Y2575D01*
X1666Y2565D01*
Y2555D01*
X1588Y2358D02*
X1598D01*
X1608Y2368D01*
X1618Y2358D01*
X1628D01*
Y2368D01*
X1618Y2378D01*
X1628Y2388D01*
Y2398D01*
X1618D01*
X1608Y2388D01*
X1598Y2398D01*
X1588D01*
Y2388D01*
X1598Y2378D01*
X1588Y2368D01*
Y2358D01*
X1621Y2285D02*
X1631D01*
X1641Y2295D01*
X1651Y2285D01*
X1661D01*
Y2295D01*
X1651Y2305D01*
X1661Y2315D01*
Y2325D01*
X1651D01*
X1641Y2315D01*
X1631Y2325D01*
X1621D01*
Y2315D01*
X1631Y2305D01*
X1621Y2295D01*
Y2285D01*
X1439Y2238D02*
X1449D01*
X1459Y2248D01*
X1469Y2238D01*
X1479D01*
Y2248D01*
X1469Y2258D01*
X1479Y2268D01*
Y2278D01*
X1469D01*
X1459Y2268D01*
X1449Y2278D01*
X1439D01*
Y2268D01*
X1449Y2258D01*
X1439Y2248D01*
Y2238D01*
X1884Y2072D02*
X1894D01*
X1904Y2082D01*
X1914Y2072D01*
X1924D01*
Y2082D01*
X1914Y2092D01*
X1924Y2102D01*
Y2112D01*
X1914D01*
X1904Y2102D01*
X1894Y2112D01*
X1884D01*
Y2102D01*
X1894Y2092D01*
X1884Y2082D01*
Y2072D01*
X1839Y2353D02*
X1849D01*
X1859Y2363D01*
X1869Y2353D01*
X1879D01*
Y2363D01*
X1869Y2373D01*
X1879Y2383D01*
Y2393D01*
X1869D01*
X1859Y2383D01*
X1849Y2393D01*
X1839D01*
Y2383D01*
X1849Y2373D01*
X1839Y2363D01*
Y2353D01*
X1512Y2071D02*
X1522D01*
X1532Y2081D01*
X1542Y2071D01*
X1552D01*
Y2081D01*
X1542Y2091D01*
X1552Y2101D01*
Y2111D01*
X1542D01*
X1532Y2101D01*
X1522Y2111D01*
X1512D01*
Y2101D01*
X1522Y2091D01*
X1512Y2081D01*
Y2071D01*
X1477Y2096D02*
X1487D01*
X1497Y2106D01*
X1507Y2096D01*
X1517D01*
Y2106D01*
X1507Y2116D01*
X1517Y2126D01*
Y2136D01*
X1507D01*
X1497Y2126D01*
X1487Y2136D01*
X1477D01*
Y2126D01*
X1487Y2116D01*
X1477Y2106D01*
Y2096D01*
X1863Y2098D02*
X1873D01*
X1883Y2108D01*
X1893Y2098D01*
X1903D01*
Y2108D01*
X1893Y2118D01*
X1903Y2128D01*
Y2138D01*
X1893D01*
X1883Y2128D01*
X1873Y2138D01*
X1863D01*
Y2128D01*
X1873Y2118D01*
X1863Y2108D01*
Y2098D01*
X1384Y2391D02*
X1394D01*
X1404Y2401D01*
X1414Y2391D01*
X1424D01*
Y2401D01*
X1414Y2411D01*
X1424Y2421D01*
Y2431D01*
X1414D01*
X1404Y2421D01*
X1394Y2431D01*
X1384D01*
Y2421D01*
X1394Y2411D01*
X1384Y2401D01*
Y2391D01*
X1376Y2163D02*
X1386D01*
X1396Y2173D01*
X1406Y2163D01*
X1416D01*
Y2173D01*
X1406Y2183D01*
X1416Y2193D01*
Y2203D01*
X1406D01*
X1396Y2193D01*
X1386Y2203D01*
X1376D01*
Y2193D01*
X1386Y2183D01*
X1376Y2173D01*
Y2163D01*
X1298Y2346D02*
X1308D01*
X1318Y2356D01*
X1328Y2346D01*
X1338D01*
Y2356D01*
X1328Y2366D01*
X1338Y2376D01*
Y2386D01*
X1328D01*
X1318Y2376D01*
X1308Y2386D01*
X1298D01*
Y2376D01*
X1308Y2366D01*
X1298Y2356D01*
Y2346D01*
X1505Y2344D02*
X1515D01*
X1525Y2354D01*
X1535Y2344D01*
X1545D01*
Y2354D01*
X1535Y2364D01*
X1545Y2374D01*
Y2384D01*
X1535D01*
X1525Y2374D01*
X1515Y2384D01*
X1505D01*
Y2374D01*
X1515Y2364D01*
X1505Y2354D01*
Y2344D01*
X2515Y1130D02*
X2525D01*
X2535Y1140D01*
X2545Y1130D01*
X2555D01*
Y1140D01*
X2545Y1150D01*
X2555Y1160D01*
Y1170D01*
X2545D01*
X2535Y1160D01*
X2525Y1170D01*
X2515D01*
Y1160D01*
X2525Y1150D01*
X2515Y1140D01*
Y1130D01*
X2515Y1382D02*
X2525D01*
X2535Y1392D01*
X2545Y1382D01*
X2555D01*
Y1392D01*
X2545Y1402D01*
X2555Y1412D01*
Y1422D01*
X2545D01*
X2535Y1412D01*
X2525Y1422D01*
X2515D01*
Y1412D01*
X2525Y1402D01*
X2515Y1392D01*
Y1382D01*
X2547Y1230D02*
X2557D01*
X2567Y1240D01*
X2577Y1230D01*
X2587D01*
Y1240D01*
X2577Y1250D01*
X2587Y1260D01*
Y1270D01*
X2577D01*
X2567Y1260D01*
X2557Y1270D01*
X2547D01*
Y1260D01*
X2557Y1250D01*
X2547Y1240D01*
Y1230D01*
X2548Y1394D02*
X2558D01*
X2568Y1404D01*
X2578Y1394D01*
X2588D01*
Y1404D01*
X2578Y1414D01*
X2588Y1424D01*
Y1434D01*
X2578D01*
X2568Y1424D01*
X2558Y1434D01*
X2548D01*
Y1424D01*
X2558Y1414D01*
X2548Y1404D01*
Y1394D01*
X1392Y2290D02*
X1402D01*
X1412Y2300D01*
X1422Y2290D01*
X1432D01*
Y2300D01*
X1422Y2310D01*
X1432Y2320D01*
Y2330D01*
X1422D01*
X1412Y2320D01*
X1402Y2330D01*
X1392D01*
Y2320D01*
X1402Y2310D01*
X1392Y2300D01*
Y2290D01*
X1151D02*
X1161D01*
X1171Y2300D01*
X1181Y2290D01*
X1191D01*
Y2300D01*
X1181Y2310D01*
X1191Y2320D01*
Y2330D01*
X1181D01*
X1171Y2320D01*
X1161Y2330D01*
X1151D01*
Y2320D01*
X1161Y2310D01*
X1151Y2300D01*
Y2290D01*
X1748Y2163D02*
X1758D01*
X1768Y2173D01*
X1778Y2163D01*
X1788D01*
Y2173D01*
X1778Y2183D01*
X1788Y2193D01*
Y2203D01*
X1778D01*
X1768Y2193D01*
X1758Y2203D01*
X1748D01*
Y2193D01*
X1758Y2183D01*
X1748Y2173D01*
Y2163D01*
X2136D02*
X2146D01*
X2156Y2173D01*
X2166Y2163D01*
X2176D01*
Y2173D01*
X2166Y2183D01*
X2176Y2193D01*
Y2203D01*
X2166D01*
X2156Y2193D01*
X2146Y2203D01*
X2136D01*
Y2193D01*
X2146Y2183D01*
X2136Y2173D01*
Y2163D01*
X2135Y1753D02*
X2145D01*
X2155Y1763D01*
X2165Y1753D01*
X2175D01*
Y1763D01*
X2165Y1773D01*
X2175Y1783D01*
Y1793D01*
X2165D01*
X2155Y1783D01*
X2145Y1793D01*
X2135D01*
Y1783D01*
X2145Y1773D01*
X2135Y1763D01*
Y1753D01*
X1717Y2151D02*
X1727D01*
X1737Y2161D01*
X1747Y2151D01*
X1757D01*
Y2161D01*
X1747Y2171D01*
X1757Y2181D01*
Y2191D01*
X1747D01*
X1737Y2181D01*
X1727Y2191D01*
X1717D01*
Y2181D01*
X1727Y2171D01*
X1717Y2161D01*
Y2151D01*
X2216D02*
X2226D01*
X2236Y2161D01*
X2246Y2151D01*
X2256D01*
Y2161D01*
X2246Y2171D01*
X2256Y2181D01*
Y2191D01*
X2246D01*
X2236Y2181D01*
X2226Y2191D01*
X2216D01*
Y2181D01*
X2226Y2171D01*
X2216Y2161D01*
Y2151D01*
X2215Y1484D02*
X2225D01*
X2235Y1494D01*
X2245Y1484D01*
X2255D01*
Y1494D01*
X2245Y1504D01*
X2255Y1514D01*
Y1524D01*
X2245D01*
X2235Y1514D01*
X2225Y1524D01*
X2215D01*
Y1514D01*
X2225Y1504D01*
X2215Y1494D01*
Y1484D01*
X2162Y2089D02*
X2172D01*
X2182Y2099D01*
X2192Y2089D01*
X2202D01*
Y2099D01*
X2192Y2109D01*
X2202Y2119D01*
Y2129D01*
X2192D01*
X2182Y2119D01*
X2172Y2129D01*
X2162D01*
Y2119D01*
X2172Y2109D01*
X2162Y2099D01*
Y2089D01*
X2197Y2115D02*
X2207D01*
X2217Y2125D01*
X2227Y2115D01*
X2237D01*
Y2125D01*
X2227Y2135D01*
X2237Y2145D01*
Y2155D01*
X2227D01*
X2217Y2145D01*
X2207Y2155D01*
X2197D01*
Y2145D01*
X2207Y2135D01*
X2197Y2125D01*
Y2115D01*
X2258Y2270D02*
X2268D01*
X2278Y2280D01*
X2288Y2270D01*
X2298D01*
Y2280D01*
X2288Y2290D01*
X2298Y2300D01*
Y2310D01*
X2288D01*
X2278Y2300D01*
X2268Y2310D01*
X2258D01*
Y2300D01*
X2268Y2290D01*
X2258Y2280D01*
Y2270D01*
X2199Y2633D02*
X2209D01*
X2219Y2643D01*
X2229Y2633D01*
X2239D01*
Y2643D01*
X2229Y2653D01*
X2239Y2663D01*
Y2673D01*
X2229D01*
X2219Y2663D01*
X2209Y2673D01*
X2199D01*
Y2663D01*
X2209Y2653D01*
X2199Y2643D01*
Y2633D01*
X1875Y2655D02*
X1885D01*
X1895Y2665D01*
X1905Y2655D01*
X1915D01*
Y2665D01*
X1905Y2675D01*
X1915Y2685D01*
Y2695D01*
X1905D01*
X1895Y2685D01*
X1885Y2695D01*
X1875D01*
Y2685D01*
X1885Y2675D01*
X1875Y2665D01*
Y2655D01*
X1785Y2618D02*
X1795D01*
X1805Y2628D01*
X1815Y2618D01*
X1825D01*
Y2628D01*
X1815Y2638D01*
X1825Y2648D01*
Y2658D01*
X1815D01*
X1805Y2648D01*
X1795Y2658D01*
X1785D01*
Y2648D01*
X1795Y2638D01*
X1785Y2628D01*
Y2618D01*
X1810Y2635D02*
X1820D01*
X1830Y2645D01*
X1840Y2635D01*
X1850D01*
Y2645D01*
X1840Y2655D01*
X1850Y2665D01*
Y2675D01*
X1840D01*
X1830Y2665D01*
X1820Y2675D01*
X1810D01*
Y2665D01*
X1820Y2655D01*
X1810Y2645D01*
Y2635D01*
X1865Y2583D02*
X1875D01*
X1885Y2593D01*
X1895Y2583D01*
X1905D01*
Y2593D01*
X1895Y2603D01*
X1905Y2613D01*
Y2623D01*
X1895D01*
X1885Y2613D01*
X1875Y2623D01*
X1865D01*
Y2613D01*
X1875Y2603D01*
X1865Y2593D01*
Y2583D01*
X2162Y2633D02*
X2172D01*
X2182Y2643D01*
X2192Y2633D01*
X2202D01*
Y2643D01*
X2192Y2653D01*
X2202Y2663D01*
Y2673D01*
X2192D01*
X2182Y2663D01*
X2172Y2673D01*
X2162D01*
Y2663D01*
X2172Y2653D01*
X2162Y2643D01*
Y2633D01*
X2472Y1941D02*
X2482D01*
X2492Y1951D01*
X2502Y1941D01*
X2512D01*
Y1951D01*
X2502Y1961D01*
X2512Y1971D01*
Y1981D01*
X2502D01*
X2492Y1971D01*
X2482Y1981D01*
X2472D01*
Y1971D01*
X2482Y1961D01*
X2472Y1951D01*
Y1941D01*
X2556Y1752D02*
X2566D01*
X2576Y1762D01*
X2586Y1752D01*
X2596D01*
Y1762D01*
X2586Y1772D01*
X2596Y1782D01*
Y1792D01*
X2586D01*
X2576Y1782D01*
X2566Y1792D01*
X2556D01*
Y1782D01*
X2566Y1772D01*
X2556Y1762D01*
Y1752D01*
X2725Y1795D02*
X2735D01*
X2745Y1805D01*
X2755Y1795D01*
X2765D01*
Y1805D01*
X2755Y1815D01*
X2765Y1825D01*
Y1835D01*
X2755D01*
X2745Y1825D01*
X2735Y1835D01*
X2725D01*
Y1825D01*
X2735Y1815D01*
X2725Y1805D01*
Y1795D01*
X2660Y1677D02*
X2670D01*
X2680Y1687D01*
X2690Y1677D01*
X2700D01*
Y1687D01*
X2690Y1697D01*
X2700Y1707D01*
Y1717D01*
X2690D01*
X2680Y1707D01*
X2670Y1717D01*
X2660D01*
Y1707D01*
X2670Y1697D01*
X2660Y1687D01*
Y1677D01*
X1590Y2614D02*
X1600D01*
X1610Y2624D01*
X1620Y2614D01*
X1630D01*
Y2624D01*
X1620Y2634D01*
X1630Y2644D01*
Y2654D01*
X1620D01*
X1610Y2644D01*
X1600Y2654D01*
X1590D01*
Y2644D01*
X1600Y2634D01*
X1590Y2624D01*
Y2614D01*
X2725Y1720D02*
X2735D01*
X2745Y1730D01*
X2755Y1720D01*
X2765D01*
Y1730D01*
X2755Y1740D01*
X2765Y1750D01*
Y1760D01*
X2755D01*
X2745Y1750D01*
X2735Y1760D01*
X2725D01*
Y1750D01*
X2735Y1740D01*
X2725Y1730D01*
Y1720D01*
X2699Y1880D02*
X2709D01*
X2719Y1890D01*
X2729Y1880D01*
X2739D01*
Y1890D01*
X2729Y1900D01*
X2739Y1910D01*
Y1920D01*
X2729D01*
X2719Y1910D01*
X2709Y1920D01*
X2699D01*
Y1910D01*
X2709Y1900D01*
X2699Y1890D01*
Y1880D01*
X2258D02*
X2268D01*
X2278Y1890D01*
X2288Y1880D01*
X2298D01*
Y1890D01*
X2288Y1900D01*
X2298Y1910D01*
Y1920D01*
X2288D01*
X2278Y1910D01*
X2268Y1920D01*
X2258D01*
Y1910D01*
X2268Y1900D01*
X2258Y1890D01*
Y1880D01*
X2725Y1914D02*
X2735D01*
X2745Y1924D01*
X2755Y1914D01*
X2765D01*
Y1924D01*
X2755Y1934D01*
X2765Y1944D01*
Y1954D01*
X2755D01*
X2745Y1944D01*
X2735Y1954D01*
X2725D01*
Y1944D01*
X2735Y1934D01*
X2725Y1924D01*
Y1914D01*
X2932Y1915D02*
X2942D01*
X2952Y1925D01*
X2962Y1915D01*
X2972D01*
Y1925D01*
X2962Y1935D01*
X2972Y1945D01*
Y1955D01*
X2962D01*
X2952Y1945D01*
X2942Y1955D01*
X2932D01*
Y1945D01*
X2942Y1935D01*
X2932Y1925D01*
Y1915D01*
X2128Y2753D02*
X2138D01*
X2148Y2763D01*
X2158Y2753D01*
X2168D01*
Y2763D01*
X2158Y2773D01*
X2168Y2783D01*
Y2793D01*
X2158D01*
X2148Y2783D01*
X2138Y2793D01*
X2128D01*
Y2783D01*
X2138Y2773D01*
X2128Y2763D01*
Y2753D01*
X2330Y2697D02*
X2340D01*
X2350Y2707D01*
X2360Y2697D01*
X2370D01*
Y2707D01*
X2360Y2717D01*
X2370Y2727D01*
Y2737D01*
X2360D01*
X2350Y2727D01*
X2340Y2737D01*
X2330D01*
Y2727D01*
X2340Y2717D01*
X2330Y2707D01*
Y2697D01*
X2370Y2677D02*
X2380D01*
X2390Y2687D01*
X2400Y2677D01*
X2410D01*
Y2687D01*
X2400Y2697D01*
X2410Y2707D01*
Y2717D01*
X2400D01*
X2390Y2707D01*
X2380Y2717D01*
X2370D01*
Y2707D01*
X2380Y2697D01*
X2370Y2687D01*
Y2677D01*
X2857Y2663D02*
X2867D01*
X2877Y2673D01*
X2887Y2663D01*
X2897D01*
Y2673D01*
X2887Y2683D01*
X2897Y2693D01*
Y2703D01*
X2887D01*
X2877Y2693D01*
X2867Y2703D01*
X2857D01*
Y2693D01*
X2867Y2683D01*
X2857Y2673D01*
Y2663D01*
X2782Y2374D02*
X2792D01*
X2802Y2384D01*
X2812Y2374D01*
X2822D01*
Y2384D01*
X2812Y2394D01*
X2822Y2404D01*
Y2414D01*
X2812D01*
X2802Y2404D01*
X2792Y2414D01*
X2782D01*
Y2404D01*
X2792Y2394D01*
X2782Y2384D01*
Y2374D01*
X1412Y2532D02*
X1422D01*
X1432Y2542D01*
X1442Y2532D01*
X1452D01*
Y2542D01*
X1442Y2552D01*
X1452Y2562D01*
Y2572D01*
X1442D01*
X1432Y2562D01*
X1422Y2572D01*
X1412D01*
Y2562D01*
X1422Y2552D01*
X1412Y2542D01*
Y2532D01*
X1507Y2552D02*
X1517D01*
X1527Y2562D01*
X1537Y2552D01*
X1547D01*
Y2562D01*
X1537Y2572D01*
X1547Y2582D01*
Y2592D01*
X1537D01*
X1527Y2582D01*
X1517Y2592D01*
X1507D01*
Y2582D01*
X1517Y2572D01*
X1507Y2562D01*
Y2552D01*
X1521Y2584D02*
X1531D01*
X1541Y2594D01*
X1551Y2584D01*
X1561D01*
Y2594D01*
X1551Y2604D01*
X1561Y2614D01*
Y2624D01*
X1551D01*
X1541Y2614D01*
X1531Y2624D01*
X1521D01*
Y2614D01*
X1531Y2604D01*
X1521Y2594D01*
Y2584D01*
X1620Y2568D02*
X1630D01*
X1640Y2578D01*
X1650Y2568D01*
X1660D01*
Y2578D01*
X1650Y2588D01*
X1660Y2598D01*
Y2608D01*
X1650D01*
X1640Y2598D01*
X1630Y2608D01*
X1620D01*
Y2598D01*
X1630Y2588D01*
X1620Y2578D01*
Y2568D01*
X1529Y2741D02*
X1539D01*
X1549Y2751D01*
X1559Y2741D01*
X1569D01*
Y2751D01*
X1559Y2761D01*
X1569Y2771D01*
Y2781D01*
X1559D01*
X1549Y2771D01*
X1539Y2781D01*
X1529D01*
Y2771D01*
X1539Y2761D01*
X1529Y2751D01*
Y2741D01*
X2330Y2736D02*
X2340D01*
X2350Y2746D01*
X2360Y2736D01*
X2370D01*
Y2746D01*
X2360Y2756D01*
X2370Y2766D01*
Y2776D01*
X2360D01*
X2350Y2766D01*
X2340Y2776D01*
X2330D01*
Y2766D01*
X2340Y2756D01*
X2330Y2746D01*
Y2736D01*
X1591Y2299D02*
X1601D01*
X1611Y2309D01*
X1621Y2299D01*
X1631D01*
Y2309D01*
X1621Y2319D01*
X1631Y2329D01*
Y2339D01*
X1621D01*
X1611Y2329D01*
X1601Y2339D01*
X1591D01*
Y2329D01*
X1601Y2319D01*
X1591Y2309D01*
Y2299D01*
X1976Y2632D02*
X1986D01*
X1996Y2642D01*
X2006Y2632D01*
X2016D01*
Y2642D01*
X2006Y2652D01*
X2016Y2662D01*
Y2672D01*
X2006D01*
X1996Y2662D01*
X1986Y2672D01*
X1976D01*
Y2662D01*
X1986Y2652D01*
X1976Y2642D01*
Y2632D01*
X1338Y2323D02*
X1348D01*
X1358Y2333D01*
X1368Y2323D01*
X1378D01*
Y2333D01*
X1368Y2343D01*
X1378Y2353D01*
Y2363D01*
X1368D01*
X1358Y2353D01*
X1348Y2363D01*
X1338D01*
Y2353D01*
X1348Y2343D01*
X1338Y2333D01*
Y2323D01*
X1987Y1607D02*
X1997D01*
X2007Y1617D01*
X2017Y1607D01*
X2027D01*
Y1617D01*
X2017Y1627D01*
X2027Y1637D01*
Y1647D01*
X2017D01*
X2007Y1637D01*
X1997Y1647D01*
X1987D01*
Y1637D01*
X1997Y1627D01*
X1987Y1617D01*
Y1607D01*
X1266D02*
X1276D01*
X1286Y1617D01*
X1296Y1607D01*
X1306D01*
Y1617D01*
X1296Y1627D01*
X1306Y1637D01*
Y1647D01*
X1296D01*
X1286Y1637D01*
X1276Y1647D01*
X1266D01*
Y1637D01*
X1276Y1627D01*
X1266Y1617D01*
Y1607D01*
X2107D02*
X2117D01*
X2127Y1617D01*
X2137Y1607D01*
X2147D01*
Y1617D01*
X2137Y1627D01*
X2147Y1637D01*
Y1647D01*
X2137D01*
X2127Y1637D01*
X2117Y1647D01*
X2107D01*
Y1637D01*
X2117Y1627D01*
X2107Y1617D01*
Y1607D01*
X1141Y2590D02*
X1151D01*
X1161Y2600D01*
X1171Y2590D01*
X1181D01*
Y2600D01*
X1171Y2610D01*
X1181Y2620D01*
Y2630D01*
X1171D01*
X1161Y2620D01*
X1151Y2630D01*
X1141D01*
Y2620D01*
X1151Y2610D01*
X1141Y2600D01*
Y2590D01*
X1170Y2639D02*
X1180D01*
X1190Y2649D01*
X1200Y2639D01*
X1210D01*
Y2649D01*
X1200Y2659D01*
X1210Y2669D01*
Y2679D01*
X1200D01*
X1190Y2669D01*
X1180Y2679D01*
X1170D01*
Y2669D01*
X1180Y2659D01*
X1170Y2649D01*
Y2639D01*
X2392Y1944D02*
X2402D01*
X2412Y1954D01*
X2422Y1944D01*
X2432D01*
Y1954D01*
X2422Y1964D01*
X2432Y1974D01*
Y1984D01*
X2422D01*
X2412Y1974D01*
X2402Y1984D01*
X2392D01*
Y1974D01*
X2402Y1964D01*
X2392Y1954D01*
Y1944D01*
X2630D02*
X2640D01*
X2650Y1954D01*
X2660Y1944D01*
X2670D01*
Y1954D01*
X2660Y1964D01*
X2670Y1974D01*
Y1984D01*
X2660D01*
X2650Y1974D01*
X2640Y1984D01*
X2630D01*
Y1974D01*
X2640Y1964D01*
X2630Y1954D01*
Y1944D01*
X2498Y2933D02*
X2508D01*
X2518Y2943D01*
X2528Y2933D01*
X2538D01*
Y2943D01*
X2528Y2953D01*
X2538Y2963D01*
Y2973D01*
X2528D01*
X2518Y2963D01*
X2508Y2973D01*
X2498D01*
Y2963D01*
X2508Y2953D01*
X2498Y2943D01*
Y2933D01*
X2287D02*
X2297D01*
X2307Y2943D01*
X2317Y2933D01*
X2327D01*
Y2943D01*
X2317Y2953D01*
X2327Y2963D01*
Y2973D01*
X2317D01*
X2307Y2963D01*
X2297Y2973D01*
X2287D01*
Y2963D01*
X2297Y2953D01*
X2287Y2943D01*
Y2933D01*
X2417Y2677D02*
X2427D01*
X2437Y2687D01*
X2447Y2677D01*
X2457D01*
Y2687D01*
X2447Y2697D01*
X2457Y2707D01*
Y2717D01*
X2447D01*
X2437Y2707D01*
X2427Y2717D01*
X2417D01*
Y2707D01*
X2427Y2697D01*
X2417Y2687D01*
Y2677D01*
X2456Y2697D02*
X2466D01*
X2476Y2707D01*
X2486Y2697D01*
X2496D01*
Y2707D01*
X2486Y2717D01*
X2496Y2727D01*
Y2737D01*
X2486D01*
X2476Y2727D01*
X2466Y2737D01*
X2456D01*
Y2727D01*
X2466Y2717D01*
X2456Y2707D01*
Y2697D01*
Y2736D02*
X2466D01*
X2476Y2746D01*
X2486Y2736D01*
X2496D01*
Y2746D01*
X2486Y2756D01*
X2496Y2766D01*
Y2776D01*
X2486D01*
X2476Y2766D01*
X2466Y2776D01*
X2456D01*
Y2766D01*
X2466Y2756D01*
X2456Y2746D01*
Y2736D01*
Y2815D02*
X2466D01*
X2476Y2825D01*
X2486Y2815D01*
X2496D01*
Y2825D01*
X2486Y2835D01*
X2496Y2845D01*
Y2855D01*
X2486D01*
X2476Y2845D01*
X2466Y2855D01*
X2456D01*
Y2845D01*
X2466Y2835D01*
X2456Y2825D01*
Y2815D01*
Y2854D02*
X2466D01*
X2476Y2864D01*
X2486Y2854D01*
X2496D01*
Y2864D01*
X2486Y2874D01*
X2496Y2884D01*
Y2894D01*
X2486D01*
X2476Y2884D01*
X2466Y2894D01*
X2456D01*
Y2884D01*
X2466Y2874D01*
X2456Y2864D01*
Y2854D01*
Y2893D02*
X2466D01*
X2476Y2903D01*
X2486Y2893D01*
X2496D01*
Y2903D01*
X2486Y2913D01*
X2496Y2923D01*
Y2933D01*
X2486D01*
X2476Y2923D01*
X2466Y2933D01*
X2456D01*
Y2923D01*
X2466Y2913D01*
X2456Y2903D01*
Y2893D01*
Y2933D02*
X2466D01*
X2476Y2943D01*
X2486Y2933D01*
X2496D01*
Y2943D01*
X2486Y2953D01*
X2496Y2963D01*
Y2973D01*
X2486D01*
X2476Y2963D01*
X2466Y2973D01*
X2456D01*
Y2963D01*
X2466Y2953D01*
X2456Y2943D01*
Y2933D01*
X2330Y2815D02*
X2340D01*
X2350Y2825D01*
X2360Y2815D01*
X2370D01*
Y2825D01*
X2360Y2835D01*
X2370Y2845D01*
Y2855D01*
X2360D01*
X2350Y2845D01*
X2340Y2855D01*
X2330D01*
Y2845D01*
X2340Y2835D01*
X2330Y2825D01*
Y2815D01*
Y2854D02*
X2340D01*
X2350Y2864D01*
X2360Y2854D01*
X2370D01*
Y2864D01*
X2360Y2874D01*
X2370Y2884D01*
Y2894D01*
X2360D01*
X2350Y2884D01*
X2340Y2894D01*
X2330D01*
Y2884D01*
X2340Y2874D01*
X2330Y2864D01*
Y2854D01*
Y2893D02*
X2340D01*
X2350Y2903D01*
X2360Y2893D01*
X2370D01*
Y2903D01*
X2360Y2913D01*
X2370Y2923D01*
Y2933D01*
X2360D01*
X2350Y2923D01*
X2340Y2933D01*
X2330D01*
Y2923D01*
X2340Y2913D01*
X2330Y2903D01*
Y2893D01*
Y2933D02*
X2340D01*
X2350Y2943D01*
X2360Y2933D01*
X2370D01*
Y2943D01*
X2360Y2953D01*
X2370Y2963D01*
Y2973D01*
X2360D01*
X2350Y2963D01*
X2340Y2973D01*
X2330D01*
Y2963D01*
X2340Y2953D01*
X2330Y2943D01*
Y2933D01*
X2456Y2775D02*
X2466D01*
X2476Y2785D01*
X2486Y2775D01*
X2496D01*
Y2785D01*
X2486Y2795D01*
X2496Y2805D01*
Y2815D01*
X2486D01*
X2476Y2805D01*
X2466Y2815D01*
X2456D01*
Y2805D01*
X2466Y2795D01*
X2456Y2785D01*
Y2775D01*
X2498D02*
X2508D01*
X2518Y2785D01*
X2528Y2775D01*
X2538D01*
Y2785D01*
X2528Y2795D01*
X2538Y2805D01*
Y2815D01*
X2528D01*
X2518Y2805D01*
X2508Y2815D01*
X2498D01*
Y2805D01*
X2508Y2795D01*
X2498Y2785D01*
Y2775D01*
X2539D02*
X2549D01*
X2559Y2785D01*
X2569Y2775D01*
X2579D01*
Y2785D01*
X2569Y2795D01*
X2579Y2805D01*
Y2815D01*
X2569D01*
X2559Y2805D01*
X2549Y2815D01*
X2539D01*
Y2805D01*
X2549Y2795D01*
X2539Y2785D01*
Y2775D01*
X2330D02*
X2340D01*
X2350Y2785D01*
X2360Y2775D01*
X2370D01*
Y2785D01*
X2360Y2795D01*
X2370Y2805D01*
Y2815D01*
X2360D01*
X2350Y2805D01*
X2340Y2815D01*
X2330D01*
Y2805D01*
X2340Y2795D01*
X2330Y2785D01*
Y2775D01*
X2287D02*
X2297D01*
X2307Y2785D01*
X2317Y2775D01*
X2327D01*
Y2785D01*
X2317Y2795D01*
X2327Y2805D01*
Y2815D01*
X2317D01*
X2307Y2805D01*
X2297Y2815D01*
X2287D01*
Y2805D01*
X2297Y2795D01*
X2287Y2785D01*
Y2775D01*
X2244D02*
X2254D01*
X2264Y2785D01*
X2274Y2775D01*
X2284D01*
Y2785D01*
X2274Y2795D01*
X2284Y2805D01*
Y2815D01*
X2274D01*
X2264Y2805D01*
X2254Y2815D01*
X2244D01*
Y2805D01*
X2254Y2795D01*
X2244Y2785D01*
Y2775D01*
Y2933D02*
X2254D01*
X2264Y2943D01*
X2274Y2933D01*
X2284D01*
Y2943D01*
X2274Y2953D01*
X2284Y2963D01*
Y2973D01*
X2274D01*
X2264Y2963D01*
X2254Y2973D01*
X2244D01*
Y2963D01*
X2254Y2953D01*
X2244Y2943D01*
Y2933D01*
Y2893D02*
X2254D01*
X2264Y2903D01*
X2274Y2893D01*
X2284D01*
Y2903D01*
X2274Y2913D01*
X2284Y2923D01*
Y2933D01*
X2274D01*
X2264Y2923D01*
X2254Y2933D01*
X2244D01*
Y2923D01*
X2254Y2913D01*
X2244Y2903D01*
Y2893D01*
Y2854D02*
X2254D01*
X2264Y2864D01*
X2274Y2854D01*
X2284D01*
Y2864D01*
X2274Y2874D01*
X2284Y2884D01*
Y2894D01*
X2274D01*
X2264Y2884D01*
X2254Y2894D01*
X2244D01*
Y2884D01*
X2254Y2874D01*
X2244Y2864D01*
Y2854D01*
Y2815D02*
X2254D01*
X2264Y2825D01*
X2274Y2815D01*
X2284D01*
Y2825D01*
X2274Y2835D01*
X2284Y2845D01*
Y2855D01*
X2274D01*
X2264Y2845D01*
X2254Y2855D01*
X2244D01*
Y2845D01*
X2254Y2835D01*
X2244Y2825D01*
Y2815D01*
X2539Y2933D02*
X2549D01*
X2559Y2943D01*
X2569Y2933D01*
X2579D01*
Y2943D01*
X2569Y2953D01*
X2579Y2963D01*
Y2973D01*
X2569D01*
X2559Y2963D01*
X2549Y2973D01*
X2539D01*
Y2963D01*
X2549Y2953D01*
X2539Y2943D01*
Y2933D01*
Y2893D02*
X2549D01*
X2559Y2903D01*
X2569Y2893D01*
X2579D01*
Y2903D01*
X2569Y2913D01*
X2579Y2923D01*
Y2933D01*
X2569D01*
X2559Y2923D01*
X2549Y2933D01*
X2539D01*
Y2923D01*
X2549Y2913D01*
X2539Y2903D01*
Y2893D01*
Y2854D02*
X2549D01*
X2559Y2864D01*
X2569Y2854D01*
X2579D01*
Y2864D01*
X2569Y2874D01*
X2579Y2884D01*
Y2894D01*
X2569D01*
X2559Y2884D01*
X2549Y2894D01*
X2539D01*
Y2884D01*
X2549Y2874D01*
X2539Y2864D01*
Y2854D01*
Y2815D02*
X2549D01*
X2559Y2825D01*
X2569Y2815D01*
X2579D01*
Y2825D01*
X2569Y2835D01*
X2579Y2845D01*
Y2855D01*
X2569D01*
X2559Y2845D01*
X2549Y2855D01*
X2539D01*
Y2845D01*
X2549Y2835D01*
X2539Y2825D01*
Y2815D01*
X2556Y1664D02*
X2566D01*
X2576Y1674D01*
X2586Y1664D01*
X2596D01*
Y1674D01*
X2586Y1684D01*
X2596Y1694D01*
Y1704D01*
X2586D01*
X2576Y1694D01*
X2566Y1704D01*
X2556D01*
Y1694D01*
X2566Y1684D01*
X2556Y1674D01*
Y1664D01*
X2359Y1701D02*
X2369D01*
X2379Y1711D01*
X2389Y1701D01*
X2399D01*
Y1711D01*
X2389Y1721D01*
X2399Y1731D01*
Y1741D01*
X2389D01*
X2379Y1731D01*
X2369Y1741D01*
X2359D01*
Y1731D01*
X2369Y1721D01*
X2359Y1711D01*
Y1701D01*
X1920Y1261D02*
X1930D01*
X1940Y1271D01*
X1950Y1261D01*
X1960D01*
Y1271D01*
X1950Y1281D01*
X1960Y1291D01*
Y1301D01*
X1950D01*
X1940Y1291D01*
X1930Y1301D01*
X1920D01*
Y1291D01*
X1930Y1281D01*
X1920Y1271D01*
Y1261D01*
Y1434D02*
X1930D01*
X1940Y1444D01*
X1950Y1434D01*
X1960D01*
Y1444D01*
X1950Y1454D01*
X1960Y1464D01*
Y1474D01*
X1950D01*
X1940Y1464D01*
X1930Y1474D01*
X1920D01*
Y1464D01*
X1930Y1454D01*
X1920Y1444D01*
Y1434D01*
X2834Y1653D02*
X2844D01*
X2854Y1663D01*
X2864Y1653D01*
X2874D01*
Y1663D01*
X2864Y1673D01*
X2874Y1683D01*
Y1693D01*
X2864D01*
X2854Y1683D01*
X2844Y1693D01*
X2834D01*
Y1683D01*
X2844Y1673D01*
X2834Y1663D01*
Y1653D01*
D89*
X2709Y2139D02*
G03*
X2709Y2139I-20J0D01*
G01*
X2788D02*
G03*
X2788Y2139I-20J0D01*
G01*
X2866D02*
G03*
X2866Y2139I-20J0D01*
G01*
X2945D02*
G03*
X2945Y2139I-20J0D01*
G01*
M02*
