M48
;Layer_Color=9474304
;FILE_FORMAT=2:3
INCH,LZ
;TYPE=PLATED
T1F00S00C0.012
T3F00S00C0.028
T4F00S00C0.030
T5F00S00C0.031
T6F00S00C0.039
T7F00S00C0.043
%
T01
X01378Y01181
X0128Y01378
X01673
X0187
X0194Y01454
Y01281
X01969Y01181
X01772
X01575
X02165
X02067Y01378
X02264
X02235Y01504
X02535Y01402
X02568Y01414
X02567Y0125
X02559Y01181
X02535Y0115
X02756Y01181
X02854Y01378
X02854Y01673
X02745Y0174
Y01815
X02719Y019
X02745Y01934
X0265Y01964
X02492Y01961
X02412Y01964
X02362Y01969
X02278Y019
X02155Y01773
X02127Y01627
X02165Y01575
X01969
X02007Y01627
X0187Y01772
X01673
X01575Y01575
X01772
Y01969
X01575
X01575Y02075
Y02185
X01673Y02165
X01737Y02171
X01768Y02183
X01883Y02118
X01904Y02092
X01969Y01969
X02182Y02109
X02217Y02135
X02236Y02171
X02156Y02183
X02278Y0229
X02362Y02362
X02461Y02165
X02756Y02362
X02802Y02394
X02657Y02559
X02559Y02795
X02559Y02835
Y02874
Y02913
Y02953
X02518
X02476
Y02913
Y02874
Y02835
Y02795
Y02756
Y02717
X02437Y02697
X0239
X0235Y02717
Y02756
Y02795
Y02835
Y02874
Y02913
Y02953
X02307
Y02913
Y02874
Y02835
Y02795
X02264
Y02835
Y02874
Y02913
Y02953
X0252Y02913
Y02874
Y02835
X02518Y02795
X02148Y02773
X02182Y02653
X02219
X01996Y02652
X01895Y02675
X01885Y02603
X0183Y02655
X01805Y02638
X01686Y02575
X0164Y02588
X0161Y02634
X01673Y02476
X01608Y02378
X01611Y02319
X01641Y02305
X01673Y02303
X01859Y02373
X01893Y02476
X02044Y02463
X02072
X02099
X02877Y02683
X02952Y01935
X0268Y01697
X02576Y01684
X02576Y01772
X02379Y01721
X02756Y01575
X01378
X01286Y01627
X01378Y01969
X01396Y02183
X01471
X01504Y02185
X01497Y02116
X01532Y02091
X01539Y02138
X01459Y02258
X01412Y0231
X01358Y02343
X01318Y02366
X01404Y02411
X01435Y0246
X01432Y02552
X01527Y02572
X01541Y02604
X0154Y02636
X01549Y02761
X01378Y02756
X0119Y02659
X01161Y0261
X01171Y0231
X01525Y02364
T03
X02689Y02139
X02768
X02846
X02925
T04
X02382Y0105
X02432
Y012
X02382
Y0135
X02432
T05
X02473Y02211
Y02289
T06
X02663Y0105
Y0115
Y0125
Y0135
X02618Y02265
X02718
X02818
X02918
X02478Y02469
X02378
X02278
Y02569
X02378
X02478
T07
X01171Y01074
X01271
X01371
X01471
X01571
X01671
X01771
X01871
X01971
X02071
X02171
M30
