%FSLAX23Y23*%
%MOIN*%
G70*
G01*
G75*
G04 Layer_Color=8388736*
%ADD10R,0.039X0.022*%
%ADD11R,0.035X0.031*%
%ADD12R,0.031X0.035*%
%ADD13R,0.063X0.118*%
%ADD14R,0.122X0.157*%
%ADD15R,0.063X0.157*%
%ADD16R,0.073X0.051*%
%ADD17R,0.039X0.059*%
%ADD18R,0.059X0.039*%
%ADD19C,0.006*%
%ADD20C,0.012*%
%ADD21C,0.012*%
G04:AMPARAMS|DCode=22|XSize=39mil|YSize=55mil|CornerRadius=10mil|HoleSize=0mil|Usage=FLASHONLY|Rotation=270.000|XOffset=0mil|YOffset=0mil|HoleType=Round|Shape=RoundedRectangle|*
%AMROUNDEDRECTD22*
21,1,0.039,0.035,0,0,270.0*
21,1,0.020,0.055,0,0,270.0*
1,1,0.020,-0.018,-0.010*
1,1,0.020,-0.018,0.010*
1,1,0.020,0.018,0.010*
1,1,0.020,0.018,-0.010*
%
%ADD22ROUNDEDRECTD22*%
%ADD23C,0.047*%
%ADD24C,0.061*%
%ADD25C,0.051*%
%ADD26R,0.051X0.051*%
%ADD27R,0.043X0.059*%
%ADD28R,0.051X0.051*%
%ADD29O,0.079X0.047*%
%ADD30C,0.024*%
%ADD31C,0.020*%
%ADD32R,0.071X0.094*%
%ADD33R,0.069X0.018*%
%ADD34R,0.020X0.035*%
%ADD35O,0.059X0.018*%
%ADD36O,0.018X0.059*%
%ADD37R,0.039X0.039*%
%ADD38R,0.030X0.035*%
%ADD39R,0.073X0.079*%
%ADD40C,0.008*%
%ADD41R,0.006X0.159*%
%ADD42R,0.006X0.159*%
%ADD43R,0.248X0.006*%
%ADD44R,0.350X0.006*%
%ADD45R,0.008X0.008*%
%ADD46R,0.006X0.314*%
%ADD47R,0.269X0.006*%
%ADD48R,0.008X0.012*%
%ADD49R,0.047X0.030*%
%ADD50R,0.043X0.039*%
%ADD51R,0.039X0.043*%
%ADD52R,0.071X0.126*%
%ADD53R,0.130X0.165*%
%ADD54R,0.071X0.165*%
%ADD55R,0.081X0.059*%
%ADD56R,0.047X0.067*%
%ADD57R,0.067X0.047*%
G04:AMPARAMS|DCode=58|XSize=47mil|YSize=63mil|CornerRadius=14mil|HoleSize=0mil|Usage=FLASHONLY|Rotation=270.000|XOffset=0mil|YOffset=0mil|HoleType=Round|Shape=RoundedRectangle|*
%AMROUNDEDRECTD58*
21,1,0.047,0.035,0,0,270.0*
21,1,0.020,0.063,0,0,270.0*
1,1,0.028,-0.018,-0.010*
1,1,0.028,-0.018,0.010*
1,1,0.028,0.018,0.010*
1,1,0.028,0.018,-0.010*
%
%ADD58ROUNDEDRECTD58*%
%ADD59C,0.055*%
%ADD60C,0.069*%
%ADD61C,0.059*%
%ADD62R,0.059X0.059*%
%ADD63R,0.051X0.067*%
%ADD64R,0.059X0.059*%
%ADD65O,0.087X0.055*%
D49*
X2797Y1740D02*
D03*
Y1778D02*
D03*
Y1815D02*
D03*
X2689D02*
D03*
Y1740D02*
D03*
X2797Y1555D02*
D03*
Y1593D02*
D03*
Y1630D02*
D03*
X2689D02*
D03*
Y1555D02*
D03*
D50*
X2578Y1806D02*
D03*
Y1749D02*
D03*
X2634Y1564D02*
D03*
Y1621D02*
D03*
X2854Y1564D02*
D03*
Y1621D02*
D03*
X2633Y1806D02*
D03*
Y1749D02*
D03*
X2853D02*
D03*
Y1806D02*
D03*
X2579Y1621D02*
D03*
Y1564D02*
D03*
D51*
X2574Y1684D02*
D03*
X2631D02*
D03*
D52*
X2492Y2788D02*
D03*
X2413D02*
D03*
X2886Y2040D02*
D03*
X2807D02*
D03*
X2728D02*
D03*
X2650D02*
D03*
X2571D02*
D03*
X2492D02*
D03*
X2413D02*
D03*
D53*
X2305Y2890D02*
D03*
X2522D02*
D03*
D54*
X2413D02*
D03*
D55*
X2503Y1832D02*
D03*
Y1723D02*
D03*
Y1538D02*
D03*
Y1647D02*
D03*
D56*
X1289Y2020D02*
D03*
X1348D02*
D03*
X1407D02*
D03*
X1467D02*
D03*
X1526D02*
D03*
X1585D02*
D03*
X1644D02*
D03*
X1703D02*
D03*
X1762D02*
D03*
X1821D02*
D03*
X1880D02*
D03*
X1939D02*
D03*
X1998D02*
D03*
Y1508D02*
D03*
X1939D02*
D03*
X1880D02*
D03*
X1821D02*
D03*
X1762D02*
D03*
X1703D02*
D03*
X1644D02*
D03*
X1585D02*
D03*
X1526D02*
D03*
X1467D02*
D03*
X1407D02*
D03*
X1348D02*
D03*
X1289D02*
D03*
D03*
D57*
X2071Y1970D02*
D03*
Y1911D02*
D03*
Y1852D02*
D03*
Y1793D02*
D03*
Y1734D02*
D03*
Y1675D02*
D03*
Y1616D02*
D03*
Y1557D02*
D03*
D58*
X1037Y2583D02*
D03*
X1154Y2381D02*
D03*
Y2572D02*
D03*
X1034Y2370D02*
D03*
D59*
X2689Y2139D02*
D03*
X2768D02*
D03*
X2846D02*
D03*
X2925D02*
D03*
D60*
X1171Y1074D02*
D03*
X1271D02*
D03*
X1371D02*
D03*
X1471D02*
D03*
X1571D02*
D03*
X1671D02*
D03*
X1771D02*
D03*
X1871D02*
D03*
X1971D02*
D03*
X2071D02*
D03*
X2171D02*
D03*
D61*
X2918Y2265D02*
D03*
X2818D02*
D03*
X2718D02*
D03*
X2663Y1150D02*
D03*
Y1250D02*
D03*
Y1350D02*
D03*
X2478Y2569D02*
D03*
Y2469D02*
D03*
X2378D02*
D03*
Y2569D02*
D03*
X2278Y2469D02*
D03*
D62*
X2618Y2265D02*
D03*
D63*
X2432Y1350D02*
D03*
X2382D02*
D03*
X2432Y1200D02*
D03*
X2382D02*
D03*
X2432Y1050D02*
D03*
X2382D02*
D03*
D64*
X2663D02*
D03*
X2278Y2569D02*
D03*
D65*
X2473Y2211D02*
D03*
Y2289D02*
D03*
M02*
