M48
;Layer_Color=9474304
;FILE_FORMAT=2:3
INCH,LZ
;TYPE=PLATED
T1F00S00C0.012
T2F00S00C0.030
T3F00S00C0.031
T4F00S00C0.039
T5F00S00C0.040
T6F00S00C0.043
%
T01
X01053Y01009
X01201Y01422
X01703Y0117
X0194Y01281
Y01454
X02338Y01647
X02382Y01723
X02413Y01868
X02558Y01863
X02649Y01862
X02671Y01984
X02888Y01981
X02854Y01673
X02889Y01566
X02661Y01697
X02576Y01684
X02578Y01751
X02203Y01999
X02156Y02035
X0213Y01965
X02051Y02021
T02
X02382Y0105
X02432
Y012
X02382
Y0135
X02432
T03
X02809Y02911
X02888
T04
X02663Y0105
Y0115
Y0125
Y0135
T05
X01654Y02187
X01754
X01854
X01954
X02054
X02154
X02254
X02354
Y02787
X02254
X02154
X02054
X01954
X01854
X01754
X01654
X01554
X01454
X01354
X01254
X01154
X01054
X01154Y02287
Y02187
X01254
X01354
X01454
X01554
X01054
T06
X01171Y01074
X01271
X01371
X01471
X01571
X01671
X01771
X01871
X01971
X02071
X02171
M30
