%FSLAX23Y23*%
%MOIN*%
G70*
G01*
G75*
G04 Layer_Color=16711935*
%ADD10R,0.022X0.039*%
%ADD11R,0.031X0.035*%
%ADD12R,0.118X0.063*%
%ADD13R,0.087X0.059*%
%ADD14R,0.028X0.071*%
%ADD15R,0.071X0.028*%
%ADD16R,0.087X0.039*%
%ADD17R,0.039X0.039*%
%ADD18R,0.051X0.073*%
%ADD19C,0.006*%
%ADD20C,0.012*%
%ADD21R,0.063X0.087*%
%ADD22R,0.087X0.063*%
%ADD23R,0.087X0.063*%
%ADD24C,0.047*%
%ADD25C,0.059*%
%ADD26C,0.051*%
%ADD27R,0.051X0.051*%
%ADD28C,0.024*%
%ADD29R,0.157X0.098*%
%ADD30R,0.035X0.031*%
%ADD31R,0.035X0.024*%
%ADD32R,0.079X0.039*%
%ADD33R,0.150X0.071*%
%ADD34C,0.016*%
%ADD35C,0.008*%
%ADD36C,0.001*%
%ADD37R,0.193X0.006*%
%ADD38R,0.006X0.259*%
%ADD39R,0.006X0.258*%
%ADD40R,0.161X0.006*%
%ADD41R,0.004X0.004*%
%ADD42R,0.030X0.047*%
%ADD43R,0.039X0.043*%
%ADD44R,0.126X0.071*%
%ADD45R,0.095X0.067*%
%ADD46R,0.036X0.079*%
%ADD47R,0.079X0.036*%
%ADD48R,0.095X0.047*%
%ADD49R,0.047X0.047*%
%ADD50R,0.059X0.081*%
%ADD51R,0.071X0.095*%
%ADD52R,0.095X0.071*%
%ADD53R,0.095X0.071*%
%ADD54C,0.055*%
%ADD55C,0.067*%
%ADD56C,0.059*%
%ADD57R,0.059X0.059*%
%ADD58C,0.032*%
%ADD59R,0.165X0.106*%
%ADD60R,0.043X0.039*%
%ADD61R,0.043X0.032*%
%ADD62R,0.087X0.047*%
%ADD63R,0.158X0.079*%
D47*
X1232Y2087D02*
D03*
Y2136D02*
D03*
Y2037D02*
D03*
Y2185D02*
D03*
X2705Y2185D02*
D03*
Y2087D02*
D03*
Y2136D02*
D03*
D52*
X1110Y1945D02*
D03*
Y2277D02*
D03*
X2827Y1994D02*
D03*
Y2277D02*
D03*
D54*
X1583Y2150D02*
D03*
X1882D02*
D03*
X2138Y2039D02*
D03*
Y1961D02*
D03*
Y1882D02*
D03*
Y1803D02*
D03*
D55*
X1292Y1491D02*
D03*
Y1391D02*
D03*
X1192Y1491D02*
D03*
Y1391D02*
D03*
Y1291D02*
D03*
X1292D02*
D03*
X2792Y1791D02*
D03*
Y1691D02*
D03*
Y1591D02*
D03*
Y1491D02*
D03*
Y1391D02*
D03*
Y1291D02*
D03*
D56*
X1671Y2288D02*
D03*
X1771D02*
D03*
X1871D02*
D03*
D57*
X1971D02*
D03*
D58*
X2825Y1142D02*
D03*
X2615Y1969D02*
D03*
X2786Y2093D02*
D03*
X2461Y1653D02*
D03*
X1212Y1988D02*
D03*
X2129Y2218D02*
D03*
X2753Y1860D02*
D03*
X2012Y1267D02*
D03*
X2795Y2044D02*
D03*
X2336Y1533D02*
D03*
X2753Y1520D02*
D03*
X2372Y1595D02*
D03*
X1423Y2143D02*
D03*
X2408Y1759D02*
D03*
X2450Y2063D02*
D03*
X2202Y1313D02*
D03*
D59*
X1945Y2150D02*
D03*
X1520D02*
D03*
D60*
X1447Y1927D02*
D03*
Y1984D02*
D03*
X1246Y1931D02*
D03*
Y1988D02*
D03*
D61*
X1392Y1997D02*
D03*
Y1922D02*
D03*
X1301Y1960D02*
D03*
D62*
X2079Y2175D02*
D03*
Y2096D02*
D03*
D63*
X2262Y2268D02*
D03*
Y2004D02*
D03*
M02*
