%FSLAX23Y23*%
%MOIN*%
G70*
G01*
G75*
G04 Layer_Color=2752767*
%ADD10R,0.022X0.039*%
%ADD11R,0.031X0.035*%
%ADD12R,0.118X0.063*%
%ADD13R,0.087X0.059*%
%ADD14R,0.028X0.071*%
%ADD15R,0.071X0.028*%
%ADD16R,0.087X0.039*%
%ADD17R,0.039X0.039*%
%ADD18R,0.051X0.073*%
%ADD19C,0.006*%
%ADD20C,0.012*%
%ADD21R,0.063X0.087*%
%ADD22R,0.087X0.063*%
%ADD23R,0.087X0.063*%
%ADD24C,0.047*%
%ADD25C,0.059*%
%ADD26C,0.051*%
%ADD27R,0.051X0.051*%
%ADD28C,0.024*%
%ADD29R,0.157X0.098*%
%ADD30R,0.035X0.031*%
%ADD31R,0.035X0.024*%
%ADD32R,0.079X0.039*%
%ADD33R,0.150X0.071*%
%ADD34C,0.016*%
%ADD35C,0.008*%
%ADD36C,0.001*%
%ADD37R,0.193X0.006*%
%ADD38R,0.006X0.259*%
%ADD39R,0.006X0.258*%
%ADD40R,0.161X0.006*%
%ADD41R,0.004X0.004*%
%ADD42R,0.030X0.047*%
%ADD43R,0.039X0.043*%
%ADD44R,0.126X0.071*%
%ADD45R,0.095X0.067*%
%ADD46R,0.036X0.079*%
%ADD47R,0.079X0.036*%
%ADD48R,0.095X0.047*%
%ADD49R,0.047X0.047*%
%ADD50R,0.059X0.081*%
%ADD51R,0.071X0.095*%
%ADD52R,0.095X0.071*%
%ADD53R,0.095X0.071*%
%ADD54C,0.055*%
%ADD55C,0.067*%
%ADD56C,0.059*%
%ADD57R,0.059X0.059*%
%ADD58C,0.032*%
%ADD59R,0.165X0.106*%
%ADD60R,0.043X0.039*%
%ADD61R,0.043X0.032*%
%ADD62R,0.087X0.047*%
%ADD63R,0.158X0.079*%
%ADD64C,0.010*%
%ADD65C,0.002*%
%ADD66R,0.295X0.006*%
%ADD67R,0.295X0.006*%
%ADD68R,0.295X0.006*%
%ADD69C,0.005*%
%ADD70C,0.007*%
D69*
X1563Y2130D02*
Y2170D01*
X1603D01*
Y2130D01*
X1563D01*
X1862D02*
Y2170D01*
X1902D01*
Y2130D01*
X1862D01*
X1292Y1471D02*
X1272Y1511D01*
X1312D01*
X1292Y1471D01*
Y1371D02*
X1272Y1411D01*
X1312D01*
X1292Y1371D01*
X1192Y1471D02*
X1172Y1511D01*
X1212D01*
X1192Y1471D01*
Y1371D02*
X1172Y1411D01*
X1212D01*
X1192Y1371D01*
Y1271D02*
X1172Y1311D01*
X1212D01*
X1192Y1271D01*
X1292D02*
X1272Y1311D01*
X1312D01*
X1292Y1271D01*
X2792Y1771D02*
X2772Y1811D01*
X2812D01*
X2792Y1771D01*
Y1671D02*
X2772Y1711D01*
X2812D01*
X2792Y1671D01*
Y1571D02*
X2772Y1611D01*
X2812D01*
X2792Y1571D01*
Y1471D02*
X2772Y1511D01*
X2812D01*
X2792Y1471D01*
Y1371D02*
X2772Y1411D01*
X2812D01*
X2792Y1371D01*
Y1271D02*
X2772Y1311D01*
X2812D01*
X2792Y1271D01*
X1671Y2268D02*
X1651Y2308D01*
X1691D01*
X1671Y2268D01*
X1771D02*
X1751Y2308D01*
X1791D01*
X1771Y2268D01*
X1871D02*
X1851Y2308D01*
X1891D01*
X1871Y2268D01*
X1971D02*
X1951Y2308D01*
X1991D01*
X1971Y2268D01*
X2773Y1199D02*
X2783Y1209D01*
X2793D01*
X2783Y1219D01*
X2793Y1229D01*
X2783D01*
X2773Y1239D01*
X2763Y1229D01*
X2753D01*
X2763Y1219D01*
X2753Y1209D01*
X2763D01*
X2773Y1199D01*
X2374Y1291D02*
X2384Y1301D01*
X2394D01*
X2384Y1311D01*
X2394Y1321D01*
X2384D01*
X2374Y1331D01*
X2364Y1321D01*
X2354D01*
X2364Y1311D01*
X2354Y1301D01*
X2364D01*
X2374Y1291D01*
X2471Y1574D02*
X2481Y1584D01*
X2491D01*
X2481Y1594D01*
X2491Y1604D01*
X2481D01*
X2471Y1614D01*
X2461Y1604D01*
X2451D01*
X2461Y1594D01*
X2451Y1584D01*
X2461D01*
X2471Y1574D01*
X1232Y1623D02*
X1242Y1633D01*
X1252D01*
X1242Y1643D01*
X1252Y1653D01*
X1242D01*
X1232Y1663D01*
X1222Y1653D01*
X1212D01*
X1222Y1643D01*
X1212Y1633D01*
X1222D01*
X1232Y1623D01*
X1173Y2093D02*
X1183Y2103D01*
X1193D01*
X1183Y2113D01*
X1193Y2123D01*
X1183D01*
X1173Y2133D01*
X1163Y2123D01*
X1153D01*
X1163Y2113D01*
X1153Y2103D01*
X1163D01*
X1173Y2093D01*
X2825Y1122D02*
X2835Y1132D01*
X2845D01*
X2835Y1142D01*
X2845Y1152D01*
X2835D01*
X2825Y1162D01*
X2815Y1152D01*
X2805D01*
X2815Y1142D01*
X2805Y1132D01*
X2815D01*
X2825Y1122D01*
X2615Y1949D02*
X2625Y1959D01*
X2635D01*
X2625Y1969D01*
X2635Y1979D01*
X2625D01*
X2615Y1989D01*
X2605Y1979D01*
X2595D01*
X2605Y1969D01*
X2595Y1959D01*
X2605D01*
X2615Y1949D01*
X2786Y2073D02*
X2796Y2083D01*
X2806D01*
X2796Y2093D01*
X2806Y2103D01*
X2796D01*
X2786Y2113D01*
X2776Y2103D01*
X2766D01*
X2776Y2093D01*
X2766Y2083D01*
X2776D01*
X2786Y2073D01*
X2461Y1633D02*
X2471Y1643D01*
X2481D01*
X2471Y1653D01*
X2481Y1663D01*
X2471D01*
X2461Y1673D01*
X2451Y1663D01*
X2441D01*
X2451Y1653D01*
X2441Y1643D01*
X2451D01*
X2461Y1633D01*
X1212Y1968D02*
X1222Y1978D01*
X1232D01*
X1222Y1988D01*
X1232Y1998D01*
X1222D01*
X1212Y2008D01*
X1202Y1998D01*
X1192D01*
X1202Y1988D01*
X1192Y1978D01*
X1202D01*
X1212Y1968D01*
X2129Y2198D02*
X2139Y2208D01*
X2149D01*
X2139Y2218D01*
X2149Y2228D01*
X2139D01*
X2129Y2238D01*
X2119Y2228D01*
X2109D01*
X2119Y2218D01*
X2109Y2208D01*
X2119D01*
X2129Y2198D01*
X2753Y1840D02*
X2763Y1850D01*
X2773D01*
X2763Y1860D01*
X2773Y1870D01*
X2763D01*
X2753Y1880D01*
X2743Y1870D01*
X2733D01*
X2743Y1860D01*
X2733Y1850D01*
X2743D01*
X2753Y1840D01*
X2012Y1247D02*
X2022Y1257D01*
X2032D01*
X2022Y1267D01*
X2032Y1277D01*
X2022D01*
X2012Y1287D01*
X2002Y1277D01*
X1992D01*
X2002Y1267D01*
X1992Y1257D01*
X2002D01*
X2012Y1247D01*
X2795Y2024D02*
X2805Y2034D01*
X2815D01*
X2805Y2044D01*
X2815Y2054D01*
X2805D01*
X2795Y2064D01*
X2785Y2054D01*
X2775D01*
X2785Y2044D01*
X2775Y2034D01*
X2785D01*
X2795Y2024D01*
X2336Y1513D02*
X2346Y1523D01*
X2356D01*
X2346Y1533D01*
X2356Y1543D01*
X2346D01*
X2336Y1553D01*
X2326Y1543D01*
X2316D01*
X2326Y1533D01*
X2316Y1523D01*
X2326D01*
X2336Y1513D01*
X2753Y1500D02*
X2763Y1510D01*
X2773D01*
X2763Y1520D01*
X2773Y1531D01*
X2763D01*
X2753Y1541D01*
X2743Y1531D01*
X2733D01*
X2743Y1520D01*
X2733Y1510D01*
X2743D01*
X2753Y1500D01*
X2372Y1575D02*
X2382Y1585D01*
X2392D01*
X2382Y1595D01*
X2392Y1605D01*
X2382D01*
X2372Y1615D01*
X2362Y1605D01*
X2352D01*
X2362Y1595D01*
X2352Y1585D01*
X2362D01*
X2372Y1575D01*
X1423Y2123D02*
X1433Y2133D01*
X1443D01*
X1433Y2143D01*
X1443Y2153D01*
X1433D01*
X1423Y2163D01*
X1413Y2153D01*
X1403D01*
X1413Y2143D01*
X1403Y2133D01*
X1413D01*
X1423Y2123D01*
X2408Y1739D02*
X2418Y1749D01*
X2428D01*
X2418Y1759D01*
X2428Y1769D01*
X2418D01*
X2408Y1779D01*
X2398Y1769D01*
X2388D01*
X2398Y1759D01*
X2388Y1749D01*
X2398D01*
X2408Y1739D01*
X2450Y2043D02*
X2460Y2053D01*
X2470D01*
X2460Y2063D01*
X2470Y2073D01*
X2460D01*
X2450Y2083D01*
X2440Y2073D01*
X2430D01*
X2440Y2063D01*
X2430Y2053D01*
X2440D01*
X2450Y2043D01*
X2202Y1293D02*
X2212Y1303D01*
X2222D01*
X2212Y1313D01*
X2222Y1323D01*
X2212D01*
X2202Y1333D01*
X2192Y1323D01*
X2182D01*
X2192Y1313D01*
X2182Y1303D01*
X2192D01*
X2202Y1293D01*
D70*
X2158Y2039D02*
G03*
X2158Y2039I-20J0D01*
G01*
Y1961D02*
G03*
X2158Y1961I-20J0D01*
G01*
Y1882D02*
G03*
X2158Y1882I-20J0D01*
G01*
Y1803D02*
G03*
X2158Y1803I-20J0D01*
G01*
M02*
