M48
;Layer_Color=9474304
;FILE_FORMAT=2:3
INCH,LZ
;TYPE=PLATED
T1F00S00C0.012
T2F00S00C0.028
T3F00S00C0.031
T4F00S00C0.039
T5F00S00C0.130
%
T01
X01083Y01083
X01181
X0128
X01329Y01181
X01427
X01526
X01476Y0128
X01526Y01378
X01535Y01433
Y01465
X01504
Y01433
X01472
Y01465
X01441
Y01433
X01409
Y01465
X01378
Y01433
X01346
Y01465
Y01496
Y01528
Y01559
X01378
Y01528
Y01496
X01427Y01378
X01132
X01083Y01476
X01132Y01181
X01476Y01083
X01575
X01673
X01772
X0187
X01969
X02067
X02165
X02264
X02362
X02461
X02657
X02756
X02854
X02825Y01142
X02773Y01219
X02559Y0128
X02461
X02362
X02374Y01311
X02202Y01313
X02215Y01181
X02313
X02264Y01476
X02165
X02067
X01969
X0187
X01821Y01378
Y01181
X01919
X02012Y01267
X02067Y0128
X01673
X01575
X01624Y01378
X01598Y01433
Y01465
X01598Y01496
Y01528
Y01559
X01567
Y01528
Y01496
X01567Y01465
Y01433
X01673Y01476
X02336Y01533
X0251Y01378
X02753Y0152
Y0186
X02795Y02044
X02786Y02093
X02805Y02165
X02608
X0251
X02411
X02313
X02215
X02129Y02218
X02362Y02264
X02461
X0245Y02063
X02362Y02067
X02559
X02615Y01969
X02362Y0187
X02408Y01759
X02461Y01653
X02471Y01594
X02372Y01595
X02116Y01575
X02018
X01919
X01821
X0187Y01673
X01969
X02067
X02018Y01772
X01919
X01821
X01624
X01673Y01673
X01575
X01567Y01622
Y01591
X01598
Y01622
X01624Y01575
X01673Y02067
X01575
Y02264
X01722Y02165
X01821
X0187Y02067
X01919Y01969
X02018
X01526Y01772
X01427
X01476Y01673
X01472Y01622
Y01591
X01441
Y01622
X01409
Y01591
X01378
Y01622
X01346
Y01591
X01378Y01673
X01232Y01643
X01083Y01673
X01132Y01772
X01181Y0187
X01083
Y02067
X01173Y02113
X01132Y02165
X01181Y02264
X0128
X01329Y02165
X01423Y02143
X01476Y02264
X01212Y01988
X01504Y01622
Y01591
X01535
Y01622
T02
X02138Y01803
Y01882
Y01961
Y02039
T03
X01583Y0215
X01882
T04
X01192Y01291
X01292
Y01391
X01192
Y01491
X01292
X02792
Y01391
Y01291
Y01591
Y01691
Y01791
X01971Y02288
X01871
X01771
X01671
T05
X01378Y01102
X02559
Y02283
X01378
M30
