M48
;Layer_Color=9474304
;FILE_FORMAT=2:3
INCH,LZ
;TYPE=PLATED
T1F00S00C0.012
T2F00S00C0.028
T3F00S00C0.031
T4F00S00C0.039
%
T01
X02012Y01267
X02202Y01313
X02374Y01311
X02336Y01533
X02753Y0152
X02773Y01219
X02825Y01142
X02753Y0186
X02795Y02044
X02786Y02093
X02615Y01969
X0245Y02063
X02408Y01759
X02461Y01653
X02471Y01594
X02372Y01595
X02129Y02218
X01423Y02143
X01173Y02113
X01212Y01988
X01232Y01643
T02
X02138Y01803
Y01882
Y01961
Y02039
T03
X01583Y0215
X01882
T04
X01192Y01291
Y01391
X01292
Y01491
X01192
X01292Y01291
X02792
Y01391
Y01491
Y01591
Y01691
Y01791
X01971Y02288
X01871
X01771
X01671
M30
