%FSLAX23Y23*%
%MOIN*%
G70*
G01*
G75*
G04 Layer_Color=8388736*
%ADD10R,0.031X0.035*%
%ADD11R,0.051X0.073*%
%ADD12R,0.039X0.039*%
%ADD13R,0.087X0.039*%
%ADD14R,0.071X0.028*%
%ADD15R,0.028X0.071*%
%ADD16R,0.087X0.059*%
%ADD17R,0.118X0.063*%
%ADD18R,0.022X0.039*%
%ADD19C,0.012*%
%ADD20C,0.006*%
%ADD21R,0.087X0.063*%
%ADD22R,0.087X0.063*%
%ADD23R,0.063X0.087*%
%ADD24R,0.051X0.051*%
%ADD25C,0.051*%
%ADD26C,0.150*%
%ADD27C,0.059*%
%ADD28C,0.047*%
%ADD29C,0.020*%
%ADD30C,0.024*%
%ADD31R,0.079X0.039*%
%ADD32R,0.035X0.024*%
%ADD33R,0.035X0.031*%
%ADD34R,0.157X0.098*%
%ADD35R,0.150X0.071*%
%ADD36C,0.016*%
%ADD37C,0.001*%
%ADD38C,0.008*%
%ADD39R,0.004X0.004*%
%ADD40R,0.193X0.006*%
%ADD41R,0.161X0.006*%
%ADD42R,0.006X0.258*%
%ADD43R,0.006X0.259*%
%ADD44R,0.039X0.043*%
%ADD45R,0.059X0.081*%
%ADD46R,0.047X0.047*%
%ADD47R,0.095X0.047*%
%ADD48R,0.079X0.036*%
%ADD49R,0.036X0.079*%
%ADD50R,0.095X0.067*%
%ADD51R,0.126X0.071*%
%ADD52R,0.030X0.047*%
%ADD53R,0.095X0.071*%
%ADD54R,0.095X0.071*%
%ADD55R,0.071X0.095*%
%ADD56R,0.059X0.059*%
%ADD57C,0.059*%
%ADD58C,0.158*%
%ADD59C,0.067*%
%ADD60C,0.055*%
D44*
X2442Y1989D02*
D03*
X2499D02*
D03*
X2442Y1768D02*
D03*
X2499D02*
D03*
Y1824D02*
D03*
X2442D02*
D03*
X2499Y1934D02*
D03*
X2442D02*
D03*
X2499Y1879D02*
D03*
X2442D02*
D03*
D45*
X2525Y1528D02*
D03*
X2416D02*
D03*
D46*
X1441D02*
D03*
D47*
X1382Y1470D02*
D03*
Y1585D02*
D03*
D48*
X1232Y1117D02*
D03*
Y1166D02*
D03*
X1232Y1684D02*
D03*
Y1832D02*
D03*
Y1733D02*
D03*
Y1782D02*
D03*
Y2136D02*
D03*
Y2087D02*
D03*
Y2185D02*
D03*
D49*
X2304Y1312D02*
D03*
X2255D02*
D03*
X1917D02*
D03*
X1770D02*
D03*
X1868D02*
D03*
X1819D02*
D03*
X1720D02*
D03*
X1967D02*
D03*
D50*
X2900Y1142D02*
D03*
Y1220D02*
D03*
Y1299D02*
D03*
Y1378D02*
D03*
Y1457D02*
D03*
Y1535D02*
D03*
Y1614D02*
D03*
Y1693D02*
D03*
Y1772D02*
D03*
Y1850D02*
D03*
Y1929D02*
D03*
Y2008D02*
D03*
Y2087D02*
D03*
Y2165D02*
D03*
Y2244D02*
D03*
X2691Y1142D02*
D03*
Y1220D02*
D03*
Y1299D02*
D03*
Y1378D02*
D03*
Y1457D02*
D03*
Y1535D02*
D03*
Y1614D02*
D03*
Y1693D02*
D03*
Y1772D02*
D03*
Y1850D02*
D03*
Y1929D02*
D03*
Y2008D02*
D03*
Y2087D02*
D03*
Y2165D02*
D03*
Y2244D02*
D03*
D51*
X1488Y1606D02*
D03*
Y1528D02*
D03*
X2236Y2000D02*
D03*
Y1921D02*
D03*
Y1843D02*
D03*
Y1764D02*
D03*
Y1685D02*
D03*
Y1606D02*
D03*
Y1528D02*
D03*
D52*
X2508Y1603D02*
D03*
X2433D02*
D03*
Y1712D02*
D03*
X2470D02*
D03*
X2508D02*
D03*
D53*
X1110Y1025D02*
D03*
X1110Y1592D02*
D03*
Y1924D02*
D03*
Y2277D02*
D03*
Y1994D02*
D03*
D54*
X1110Y1259D02*
D03*
D55*
X2397Y1190D02*
D03*
X2162D02*
D03*
X2059D02*
D03*
X1628D02*
D03*
D56*
X1971Y2288D02*
D03*
D57*
X1871D02*
D03*
X1771D02*
D03*
X1671D02*
D03*
D58*
X2559Y1102D02*
D03*
Y2283D02*
D03*
X1378D02*
D03*
Y1102D02*
D03*
D59*
X2792Y1291D02*
D03*
Y1391D02*
D03*
Y1491D02*
D03*
Y1591D02*
D03*
Y1691D02*
D03*
Y1791D02*
D03*
X1292Y1291D02*
D03*
X1192D02*
D03*
Y1391D02*
D03*
Y1491D02*
D03*
X1292Y1391D02*
D03*
Y1491D02*
D03*
D60*
X2138Y1803D02*
D03*
Y1882D02*
D03*
Y1961D02*
D03*
Y2039D02*
D03*
X1882Y2150D02*
D03*
X1583D02*
D03*
M02*
