%FSLAX23Y23*%
%MOIN*%
G70*
G01*
G75*
G04 Layer_Physical_Order=1*
G04 Layer_Color=255*
%ADD10R,0.022X0.039*%
%ADD11R,0.031X0.035*%
%ADD12R,0.118X0.063*%
%ADD13R,0.087X0.059*%
%ADD14R,0.028X0.071*%
%ADD15R,0.071X0.028*%
%ADD16R,0.087X0.039*%
%ADD17R,0.039X0.039*%
%ADD18R,0.051X0.073*%
%ADD19C,0.006*%
%ADD20C,0.012*%
%ADD21R,0.063X0.087*%
%ADD22R,0.087X0.063*%
%ADD23R,0.087X0.063*%
%ADD24C,0.047*%
%ADD25C,0.059*%
%ADD26C,0.051*%
%ADD27R,0.051X0.051*%
%ADD28C,0.024*%
G36*
X2813Y2031D02*
X2843Y2001D01*
X2846Y1999D01*
X2849Y1999D01*
X2850D01*
Y1972D01*
X2945D01*
Y1965D01*
X2850D01*
Y1945D01*
X2846Y1943D01*
X2804Y1985D01*
Y2028D01*
X2808Y2031D01*
X2813Y2031D01*
D02*
G37*
G36*
X2618Y1923D02*
X2620Y1921D01*
X2624Y1920D01*
X2642D01*
Y1898D01*
X2639D01*
X2635Y1897D01*
X2633Y1895D01*
X2625Y1888D01*
X2521D01*
Y1903D01*
X2508D01*
Y1910D01*
X2521D01*
Y1958D01*
X2508D01*
Y1965D01*
X2521D01*
Y2007D01*
X2533D01*
X2618Y1923D01*
D02*
G37*
G36*
X2838Y1861D02*
Y1855D01*
X2834Y1853D01*
X2791Y1895D01*
X2788Y1897D01*
X2784Y1898D01*
X2740D01*
Y1952D01*
X2745Y1954D01*
X2838Y1861D01*
D02*
G37*
G36*
X2945Y2280D02*
X2850D01*
Y2209D01*
X2847Y2205D01*
X2846D01*
Y2170D01*
X2900D01*
Y2160D01*
X2846D01*
Y2126D01*
X2847D01*
X2850Y2122D01*
Y2051D01*
X2945D01*
Y2043D01*
X2850D01*
Y2026D01*
X2846Y2024D01*
X2826Y2044D01*
Y2062D01*
X2825Y2066D01*
X2823Y2069D01*
X2803Y2089D01*
X2804Y2093D01*
X2803Y2100D01*
X2799Y2106D01*
X2793Y2110D01*
X2786Y2111D01*
X2779Y2110D01*
X2773Y2106D01*
X2769Y2100D01*
X2768Y2093D01*
X2769Y2086D01*
X2773Y2080D01*
X2779Y2076D01*
X2786Y2075D01*
X2790Y2076D01*
X2800Y2066D01*
X2797Y2062D01*
X2795Y2062D01*
X2788Y2061D01*
X2782Y2057D01*
X2778Y2051D01*
X2777Y2044D01*
X2778Y2037D01*
X2782Y2031D01*
X2786Y2029D01*
Y1981D01*
X2787Y1978D01*
X2789Y1975D01*
X2841Y1923D01*
X2843Y1921D01*
X2847Y1920D01*
X2850D01*
Y1906D01*
X2846Y1904D01*
X2753Y1996D01*
Y2289D01*
X2752Y2293D01*
X2750Y2295D01*
X2701Y2344D01*
X2699Y2346D01*
X2695Y2347D01*
X1834D01*
X1830Y2346D01*
X1828Y2344D01*
X1815Y2331D01*
X1813Y2329D01*
X1812Y2325D01*
Y2222D01*
X1763Y2173D01*
X1761Y2170D01*
X1761Y2167D01*
Y1353D01*
X1750D01*
Y1271D01*
X1789D01*
Y1353D01*
X1779D01*
Y2163D01*
X1827Y2212D01*
X1829Y2214D01*
X1830Y2218D01*
Y2321D01*
X1838Y2329D01*
X1892D01*
X1893Y2324D01*
X1886Y2316D01*
X1879Y2319D01*
X1871Y2320D01*
X1862Y2319D01*
X1855Y2316D01*
X1848Y2311D01*
X1843Y2304D01*
X1840Y2297D01*
X1839Y2288D01*
X1840Y2280D01*
X1843Y2272D01*
X1848Y2266D01*
X1855Y2261D01*
X1862Y2258D01*
X1871Y2257D01*
X1879Y2258D01*
X1887Y2261D01*
X1893Y2266D01*
X1898Y2272D01*
X1901Y2280D01*
X1902Y2288D01*
X1901Y2297D01*
X1899Y2303D01*
X1909Y2314D01*
X1939D01*
Y2257D01*
X1961D01*
Y1970D01*
X1962Y1967D01*
X1964Y1964D01*
X2111Y1817D01*
X2109Y1811D01*
X2108Y1803D01*
X2109Y1795D01*
X2112Y1788D01*
X2117Y1782D01*
X2123Y1777D01*
X2130Y1774D01*
X2138Y1773D01*
X2146Y1774D01*
X2153Y1777D01*
X2159Y1782D01*
X2164Y1788D01*
X2166Y1794D01*
X2171Y1793D01*
Y1727D01*
X2167D01*
Y1690D01*
X2305D01*
Y1727D01*
X2301D01*
Y1748D01*
X2306Y1751D01*
X2363Y1694D01*
Y1610D01*
X2359Y1608D01*
X2355Y1602D01*
X2354Y1595D01*
X2355Y1588D01*
X2359Y1582D01*
X2365Y1578D01*
X2372Y1577D01*
X2379Y1578D01*
X2381Y1574D01*
Y1533D01*
X2452D01*
Y1574D01*
X2452D01*
X2452Y1574D01*
X2452Y1574D01*
D01*
X2452Y1574D01*
X2452Y1574D01*
X2450Y1578D01*
Y1629D01*
X2442D01*
Y1639D01*
X2446Y1640D01*
X2447Y1641D01*
X2448Y1640D01*
X2454Y1636D01*
X2461Y1634D01*
X2467Y1636D01*
X2473Y1640D01*
X2477Y1646D01*
X2479Y1653D01*
X2477Y1660D01*
X2476Y1662D01*
X2478Y1667D01*
X2507D01*
X2512Y1668D01*
X2516Y1670D01*
X2517Y1671D01*
X2519Y1675D01*
X2520Y1680D01*
Y1686D01*
X2525D01*
Y1737D01*
X2524D01*
X2522Y1739D01*
X2521Y1744D01*
X2521D01*
X2521Y1744D01*
Y1791D01*
X2521D01*
X2522Y1796D01*
X2525D01*
Y1819D01*
X2499D01*
Y1829D01*
X2525D01*
Y1843D01*
X2531D01*
X2551Y1823D01*
Y1570D01*
X2529D01*
X2526Y1573D01*
X2525Y1578D01*
X2525D01*
X2525Y1578D01*
Y1629D01*
X2491D01*
Y1578D01*
X2494D01*
X2495Y1573D01*
X2493Y1570D01*
X2493D01*
Y1513D01*
X2467Y1487D01*
X2452D01*
Y1523D01*
X2381D01*
Y1487D01*
X2357D01*
X2334Y1510D01*
X2335Y1513D01*
X2336Y1515D01*
X2343Y1516D01*
X2349Y1520D01*
X2353Y1526D01*
X2354Y1533D01*
X2353Y1540D01*
X2349Y1546D01*
X2345Y1548D01*
Y1587D01*
X2344Y1591D01*
X2342Y1594D01*
X2324Y1613D01*
X2321Y1615D01*
X2317Y1615D01*
X2301D01*
Y1644D01*
X2305D01*
Y1680D01*
X2167D01*
Y1644D01*
X2171D01*
Y1569D01*
X2171D01*
Y1565D01*
X2171D01*
Y1490D01*
X2301D01*
Y1502D01*
X2306Y1504D01*
X2343Y1466D01*
X2347Y1464D01*
X2352Y1463D01*
X2472D01*
X2477Y1464D01*
X2481Y1466D01*
X2499Y1485D01*
X2551D01*
Y1466D01*
X2481Y1397D01*
X1930D01*
X1926Y1396D01*
X1923Y1394D01*
X1911Y1381D01*
X1909Y1379D01*
X1908Y1375D01*
Y1353D01*
X1898D01*
Y1276D01*
X1888D01*
Y1353D01*
X1848D01*
Y1271D01*
X1859D01*
Y1268D01*
X1860Y1264D01*
X1862Y1262D01*
X1863Y1261D01*
X1865Y1259D01*
X1864Y1254D01*
X1840D01*
X1829Y1266D01*
X1830Y1271D01*
X1839D01*
Y1353D01*
X1799D01*
Y1271D01*
X1810D01*
Y1263D01*
X1810Y1259D01*
X1812Y1256D01*
X1830Y1239D01*
X1833Y1237D01*
X1833Y1236D01*
X1836Y1236D01*
X2019D01*
X2021Y1233D01*
Y1147D01*
X2021Y1146D01*
X1742D01*
X1733Y1155D01*
Y1271D01*
X1740D01*
Y1353D01*
X1733D01*
Y2128D01*
X1732Y2132D01*
X1729Y2136D01*
X1628Y2238D01*
X1624Y2240D01*
X1619Y2241D01*
X1509D01*
X1504Y2240D01*
X1500Y2238D01*
X1424Y2161D01*
X1423Y2161D01*
X1416Y2160D01*
X1410Y2156D01*
X1406Y2150D01*
X1405Y2143D01*
X1406Y2136D01*
X1410Y2130D01*
X1416Y2126D01*
X1423Y2125D01*
X1430Y2126D01*
X1436Y2130D01*
X1440Y2136D01*
X1441Y2143D01*
X1441Y2144D01*
X1514Y2217D01*
X1614D01*
X1708Y2122D01*
Y1353D01*
X1701D01*
Y1271D01*
X1708D01*
Y1150D01*
X1709Y1145D01*
X1712Y1141D01*
X1728Y1125D01*
X1732Y1123D01*
X1736Y1122D01*
X2445D01*
X2450Y1123D01*
X2454Y1125D01*
X2458Y1129D01*
X2642D01*
Y1106D01*
X2740D01*
Y1129D01*
X2812D01*
X2812Y1129D01*
X2818Y1125D01*
X2825Y1124D01*
X2832Y1125D01*
X2838Y1129D01*
X2838Y1129D01*
X2850D01*
Y1106D01*
X2945D01*
Y992D01*
X1161D01*
X1160Y993D01*
Y1056D01*
X1158Y1061D01*
X1154Y1063D01*
X1067D01*
X1062Y1061D01*
X1060Y1056D01*
Y993D01*
X1060Y992D01*
X992D01*
Y2394D01*
X2945D01*
Y2280D01*
D02*
G37*
G36*
X2455Y1373D02*
X2454Y1372D01*
X1938D01*
X1936Y1377D01*
X1937Y1378D01*
X2452D01*
X2455Y1373D01*
D02*
G37*
G36*
X2850Y1549D02*
Y1500D01*
X2945D01*
Y1492D01*
X2850D01*
Y1421D01*
X2945D01*
Y1413D01*
X2850D01*
Y1397D01*
X2846Y1395D01*
X2840Y1401D01*
Y1552D01*
X2842Y1553D01*
X2845Y1554D01*
X2850Y1549D01*
D02*
G37*
G36*
X2774Y1460D02*
X2783Y1457D01*
X2792Y1456D01*
X2801Y1457D01*
X2810Y1460D01*
X2817Y1466D01*
X2822Y1464D01*
Y1418D01*
X2817Y1417D01*
X2810Y1422D01*
X2801Y1426D01*
X2792Y1427D01*
X2783Y1426D01*
X2774Y1422D01*
X2767Y1417D01*
X2764Y1418D01*
X2762Y1418D01*
Y1464D01*
X2764Y1465D01*
X2767Y1466D01*
X2774Y1460D01*
D02*
G37*
G36*
X2850Y1770D02*
Y1736D01*
X2945D01*
Y1728D01*
X2850D01*
Y1657D01*
X2945D01*
Y1650D01*
X2850D01*
Y1587D01*
X2845Y1584D01*
X2844Y1585D01*
Y1768D01*
X2849Y1770D01*
X2850Y1770D01*
D02*
G37*
G36*
X2424Y1636D02*
Y1629D01*
X2416D01*
Y1578D01*
X2413Y1574D01*
X2381D01*
X2379Y1578D01*
X2385Y1582D01*
X2389Y1588D01*
X2390Y1595D01*
X2389Y1602D01*
X2385Y1608D01*
X2381Y1610D01*
Y1672D01*
X2386Y1674D01*
X2424Y1636D01*
D02*
G37*
G36*
X2024Y2292D02*
Y1987D01*
X2025Y1983D01*
X2027Y1980D01*
X2111Y1895D01*
X2109Y1890D01*
X2108Y1882D01*
X2109Y1874D01*
X2112Y1867D01*
X2117Y1861D01*
X2123Y1856D01*
X2130Y1853D01*
X2138Y1852D01*
X2146Y1853D01*
X2153Y1856D01*
X2159Y1861D01*
X2164Y1867D01*
X2166Y1873D01*
X2171Y1872D01*
Y1813D01*
X2166Y1812D01*
X2164Y1818D01*
X2159Y1824D01*
X2153Y1829D01*
X2146Y1832D01*
X2138Y1833D01*
X2130Y1832D01*
X2124Y1830D01*
X1980Y1974D01*
Y2257D01*
X2002D01*
Y2307D01*
X2007Y2309D01*
X2024Y2292D01*
D02*
G37*
G36*
X2826Y1834D02*
Y1814D01*
X2821Y1812D01*
X2817Y1817D01*
X2810Y1822D01*
X2801Y1826D01*
X2792Y1827D01*
X2783Y1826D01*
X2774Y1822D01*
X2767Y1817D01*
X2764Y1818D01*
X2762Y1818D01*
Y1845D01*
X2766Y1847D01*
X2770Y1853D01*
X2771Y1860D01*
X2770Y1867D01*
X2766Y1873D01*
X2763Y1875D01*
X2764Y1880D01*
X2780D01*
X2826Y1834D01*
D02*
G37*
G36*
X2642Y1815D02*
Y1815D01*
X2740D01*
X2741Y1814D01*
Y1812D01*
X2736Y1807D01*
X2642D01*
Y1736D01*
X2740D01*
Y1763D01*
X2741Y1763D01*
X2744Y1765D01*
X2755Y1776D01*
X2760Y1776D01*
X2761Y1773D01*
X2767Y1766D01*
X2774Y1760D01*
X2783Y1757D01*
X2792Y1756D01*
X2801Y1757D01*
X2810Y1760D01*
X2817Y1766D01*
X2821Y1771D01*
X2826Y1769D01*
Y1714D01*
X2821Y1712D01*
X2817Y1717D01*
X2810Y1722D01*
X2801Y1726D01*
X2792Y1727D01*
X2783Y1726D01*
X2774Y1722D01*
X2767Y1717D01*
X2761Y1709D01*
X2758Y1701D01*
X2756Y1691D01*
X2758Y1682D01*
X2761Y1673D01*
X2767Y1666D01*
X2774Y1660D01*
X2783Y1657D01*
X2792Y1656D01*
X2801Y1657D01*
X2810Y1660D01*
X2817Y1666D01*
X2821Y1671D01*
X2826Y1669D01*
Y1614D01*
X2821Y1612D01*
X2817Y1617D01*
X2810Y1622D01*
X2801Y1626D01*
X2792Y1627D01*
X2783Y1626D01*
X2774Y1622D01*
X2767Y1617D01*
X2761Y1609D01*
X2758Y1601D01*
X2756Y1591D01*
X2758Y1582D01*
X2761Y1573D01*
X2767Y1566D01*
X2774Y1560D01*
X2783Y1557D01*
X2792Y1556D01*
X2801Y1557D01*
X2810Y1560D01*
X2810Y1560D01*
X2822Y1549D01*
Y1518D01*
X2817Y1517D01*
X2810Y1522D01*
X2801Y1526D01*
X2792Y1527D01*
X2783Y1526D01*
X2776Y1523D01*
X2771Y1525D01*
X2770Y1526D01*
X2770Y1527D01*
X2766Y1533D01*
X2760Y1537D01*
X2753Y1539D01*
X2746Y1537D01*
X2745Y1536D01*
X2740Y1539D01*
Y1571D01*
X2642D01*
Y1500D01*
X2740D01*
X2741Y1499D01*
Y1493D01*
X2740Y1492D01*
X2739Y1492D01*
X2642D01*
Y1421D01*
X2739D01*
X2740Y1421D01*
X2741Y1421D01*
Y1418D01*
X2736Y1413D01*
X2642D01*
Y1342D01*
X2740D01*
Y1369D01*
X2741Y1369D01*
X2744Y1371D01*
X2753Y1380D01*
X2759Y1379D01*
X2761Y1373D01*
X2767Y1366D01*
X2774Y1360D01*
X2783Y1357D01*
X2792Y1356D01*
X2801Y1357D01*
X2810Y1360D01*
X2817Y1366D01*
X2823Y1373D01*
X2826Y1381D01*
X2831Y1384D01*
X2844Y1371D01*
X2846Y1369D01*
X2850Y1369D01*
X2850D01*
Y1342D01*
X2945D01*
Y1335D01*
X2850D01*
Y1264D01*
X2847Y1260D01*
X2846D01*
Y1225D01*
X2900D01*
Y1215D01*
X2846D01*
Y1181D01*
X2847D01*
X2850Y1177D01*
Y1154D01*
X2838D01*
X2838Y1155D01*
X2832Y1159D01*
X2825Y1160D01*
X2818Y1159D01*
X2812Y1155D01*
X2812Y1154D01*
X2744D01*
X2740Y1157D01*
Y1176D01*
X2740Y1177D01*
X2743Y1181D01*
X2744D01*
Y1215D01*
X2638D01*
Y1181D01*
X2638D01*
X2638Y1181D01*
X2642Y1177D01*
X2642Y1176D01*
Y1154D01*
X2453D01*
X2448Y1153D01*
X2444Y1150D01*
X2440Y1146D01*
X2435D01*
X2435Y1147D01*
Y1233D01*
X2436Y1236D01*
X2609D01*
X2613Y1237D01*
X2615Y1239D01*
X2633Y1256D01*
X2636Y1255D01*
X2638Y1254D01*
Y1225D01*
X2744D01*
Y1260D01*
X2743D01*
X2743Y1260D01*
X2740Y1264D01*
X2740Y1265D01*
Y1335D01*
X2642D01*
Y1268D01*
X2639Y1265D01*
X2636Y1267D01*
Y1817D01*
X2637Y1818D01*
X2642Y1815D01*
D02*
G37*
G36*
X2359Y1233D02*
Y1147D01*
X2358Y1146D01*
X2201D01*
X2200Y1147D01*
Y1233D01*
X2202Y1236D01*
X2357D01*
X2359Y1233D01*
D02*
G37*
G36*
X2124D02*
Y1147D01*
X2124Y1146D01*
X2097D01*
X2097Y1147D01*
Y1233D01*
X2099Y1236D01*
X2123D01*
X2124Y1233D01*
D02*
G37*
G36*
X2735Y2285D02*
Y2280D01*
X2642D01*
Y2209D01*
X2735D01*
Y2201D01*
X2642D01*
Y2130D01*
X2735D01*
Y2122D01*
X2642D01*
Y2096D01*
X2474D01*
X2470Y2095D01*
X2467Y2093D01*
X2454Y2080D01*
X2450Y2081D01*
X2443Y2080D01*
X2437Y2076D01*
X2433Y2070D01*
X2432Y2063D01*
X2433Y2056D01*
X2437Y2050D01*
X2443Y2046D01*
X2450Y2045D01*
X2457Y2046D01*
X2463Y2050D01*
X2467Y2056D01*
X2468Y2063D01*
X2467Y2067D01*
X2477Y2077D01*
X2642D01*
Y2051D01*
X2735D01*
Y2043D01*
X2642D01*
Y1979D01*
X2631D01*
X2628Y1982D01*
X2622Y1986D01*
X2615Y1987D01*
X2608Y1986D01*
X2602Y1982D01*
X2599Y1976D01*
X2598Y1975D01*
X2593Y1973D01*
X2544Y2022D01*
X2541Y2024D01*
X2537Y2025D01*
X2475D01*
X2471Y2024D01*
X2469Y2022D01*
X2468Y2021D01*
X2466Y2019D01*
X2465Y2017D01*
X2447D01*
Y1989D01*
X2442D01*
Y1984D01*
X2416D01*
Y1961D01*
X2417D01*
X2420Y1958D01*
Y1951D01*
X2415Y1949D01*
X2152Y2212D01*
Y2218D01*
X2151Y2222D01*
X2148Y2226D01*
X2144Y2229D01*
X2143Y2229D01*
X2142Y2230D01*
X2136Y2234D01*
X2129Y2236D01*
X2122Y2234D01*
X2116Y2230D01*
X2112Y2224D01*
X2111Y2218D01*
X2112Y2211D01*
X2116Y2205D01*
X2122Y2201D01*
X2129Y2199D01*
X2130Y2200D01*
X2131Y2198D01*
X2287Y2042D01*
X2285Y2037D01*
X2175D01*
X2173Y2037D01*
X2172Y2040D01*
X2171Y2045D01*
X2171Y2048D01*
X2167Y2056D01*
X2162Y2063D01*
X2155Y2069D01*
X2147Y2072D01*
X2143Y2073D01*
Y2039D01*
Y2006D01*
X2147Y2007D01*
X2155Y2010D01*
X2162Y2015D01*
X2166Y2021D01*
X2171Y2019D01*
Y1971D01*
X2166Y1970D01*
X2164Y1976D01*
X2159Y1982D01*
X2153Y1987D01*
X2146Y1989D01*
X2138Y1991D01*
X2130Y1989D01*
X2123Y1987D01*
X2117Y1982D01*
X2112Y1976D01*
X2109Y1968D01*
X2108Y1961D01*
X2109Y1953D01*
X2112Y1946D01*
X2117Y1940D01*
X2123Y1935D01*
X2130Y1932D01*
X2138Y1931D01*
X2146Y1932D01*
X2153Y1935D01*
X2159Y1940D01*
X2162Y1944D01*
X2167Y1942D01*
Y1926D01*
X2305D01*
Y1963D01*
X2301D01*
Y2021D01*
X2306Y2023D01*
X2404Y1925D01*
X2406Y1924D01*
X2408Y1923D01*
X2412Y1922D01*
X2417D01*
X2420Y1918D01*
Y1910D01*
X2417Y1907D01*
X2416D01*
Y1884D01*
X2442D01*
Y1874D01*
X2416D01*
Y1851D01*
X2417D01*
X2420Y1848D01*
Y1806D01*
X2416Y1806D01*
X2414Y1806D01*
X2412Y1805D01*
X2412Y1805D01*
X2412Y1805D01*
X2411Y1804D01*
X2410Y1803D01*
X2381Y1775D01*
X2379Y1772D01*
X2378Y1768D01*
Y1711D01*
X2373Y1709D01*
X2312Y1770D01*
X2310Y1772D01*
X2306Y1773D01*
X2301D01*
Y1801D01*
X2301D01*
Y1805D01*
X2301D01*
Y1880D01*
X2305D01*
Y1916D01*
X2167D01*
Y1900D01*
X2162Y1899D01*
X2159Y1903D01*
X2153Y1908D01*
X2146Y1911D01*
X2138Y1912D01*
X2130Y1911D01*
X2124Y1908D01*
X2042Y1990D01*
Y2296D01*
X2041Y2300D01*
X2039Y2302D01*
X2018Y2324D01*
X2020Y2329D01*
X2691D01*
X2735Y2285D01*
D02*
G37*
G36*
X2642Y1872D02*
Y1853D01*
X2621Y1832D01*
X2619Y1829D01*
X2618Y1825D01*
Y1267D01*
X2605Y1254D01*
X2030D01*
X2028Y1259D01*
X2029Y1260D01*
X2030Y1267D01*
X2029Y1274D01*
X2025Y1280D01*
X2019Y1284D01*
X2012Y1285D01*
X2005Y1284D01*
X1999Y1280D01*
X1997Y1276D01*
X1990D01*
Y1307D01*
X1967D01*
Y1317D01*
X1990D01*
Y1353D01*
X2235D01*
Y1325D01*
X2215D01*
X2215Y1326D01*
X2209Y1330D01*
X2202Y1331D01*
X2195Y1330D01*
X2189Y1326D01*
X2185Y1320D01*
X2184Y1313D01*
X2185Y1306D01*
X2189Y1300D01*
X2195Y1296D01*
X2202Y1295D01*
X2209Y1296D01*
X2215Y1300D01*
X2215Y1301D01*
X2235D01*
Y1271D01*
X2275D01*
Y1353D01*
X2280D01*
Y1317D01*
X2328D01*
Y1353D01*
X2460D01*
X2464Y1354D01*
X2466Y1356D01*
X2491Y1381D01*
X2491Y1381D01*
X2566Y1456D01*
X2568Y1459D01*
X2569Y1462D01*
Y1827D01*
X2569Y1830D01*
X2568Y1831D01*
X2566Y1833D01*
X2541Y1858D01*
X2539Y1860D01*
X2535Y1861D01*
X2521D01*
Y1870D01*
X2629D01*
X2632Y1870D01*
X2635Y1872D01*
X2637Y1874D01*
X2642Y1872D01*
D02*
G37*
%LPC*%
G36*
X1435Y1465D02*
X1387D01*
Y1441D01*
X1435D01*
Y1465D01*
D02*
G37*
G36*
X1227Y1141D02*
X1187D01*
Y1122D01*
X1227D01*
Y1141D01*
D02*
G37*
G36*
Y1112D02*
X1187D01*
Y1093D01*
X1227D01*
Y1112D01*
D02*
G37*
G36*
X1483Y1648D02*
X1419D01*
Y1614D01*
X1387D01*
Y1585D01*
Y1555D01*
X1411D01*
X1415Y1553D01*
Y1502D01*
X1411Y1500D01*
X1387D01*
Y1475D01*
X1435D01*
Y1490D01*
X1553D01*
Y1565D01*
X1557D01*
Y1601D01*
X1488D01*
Y1606D01*
X1483D01*
Y1648D01*
D02*
G37*
G36*
X1278Y1112D02*
X1237D01*
Y1093D01*
X1278D01*
Y1112D01*
D02*
G37*
G36*
X2792Y1327D02*
X2783Y1326D01*
X2774Y1322D01*
X2767Y1317D01*
X2761Y1309D01*
X2758Y1301D01*
X2756Y1291D01*
X2758Y1282D01*
X2761Y1273D01*
X2767Y1266D01*
X2774Y1260D01*
X2783Y1257D01*
X2792Y1256D01*
X2801Y1257D01*
X2810Y1260D01*
X2817Y1266D01*
X2823Y1273D01*
X2827Y1282D01*
X2828Y1291D01*
X2827Y1301D01*
X2823Y1309D01*
X2817Y1317D01*
X2810Y1322D01*
X2801Y1326D01*
X2792Y1327D01*
D02*
G37*
G36*
X2299Y1307D02*
X2280D01*
Y1267D01*
X2299D01*
Y1307D01*
D02*
G37*
G36*
X2328D02*
X2309D01*
Y1267D01*
X2328D01*
Y1307D01*
D02*
G37*
G36*
X1278Y1141D02*
X1237D01*
Y1122D01*
X1278D01*
Y1141D01*
D02*
G37*
G36*
X1659Y1240D02*
X1596D01*
X1592Y1238D01*
X1590Y1233D01*
Y1147D01*
X1592Y1142D01*
X1596Y1140D01*
X1659D01*
X1664Y1142D01*
X1666Y1147D01*
Y1233D01*
X1664Y1238D01*
X1659Y1240D01*
D02*
G37*
G36*
X1154Y1630D02*
X1067D01*
X1062Y1628D01*
X1060Y1623D01*
Y1560D01*
X1062Y1555D01*
X1067Y1554D01*
X1154D01*
X1158Y1555D01*
X1160Y1560D01*
Y1623D01*
X1158Y1628D01*
X1154Y1630D01*
D02*
G37*
G36*
X1882Y2179D02*
X1874Y2178D01*
X1867Y2175D01*
X1861Y2171D01*
X1856Y2165D01*
X1853Y2157D01*
X1852Y2150D01*
X1853Y2142D01*
X1856Y2135D01*
X1861Y2128D01*
X1867Y2124D01*
X1874Y2121D01*
X1882Y2120D01*
X1890Y2121D01*
X1897Y2124D01*
X1903Y2128D01*
X1908Y2135D01*
X1911Y2142D01*
X1912Y2150D01*
X1911Y2157D01*
X1908Y2165D01*
X1903Y2171D01*
X1897Y2175D01*
X1890Y2178D01*
X1882Y2179D01*
D02*
G37*
G36*
X1154Y2315D02*
X1067D01*
X1062Y2314D01*
X1060Y2309D01*
Y2246D01*
X1062Y2241D01*
X1067Y2240D01*
X1154D01*
X1158Y2241D01*
X1160Y2246D01*
Y2309D01*
X1158Y2314D01*
X1154Y2315D01*
D02*
G37*
G36*
X1227Y2110D02*
X1187D01*
Y2092D01*
X1227D01*
Y2110D01*
D02*
G37*
G36*
X1274Y2205D02*
X1191D01*
Y2194D01*
X1188D01*
X1184Y2193D01*
X1182Y2191D01*
X1140Y2150D01*
X1138Y2147D01*
X1137Y2144D01*
Y2045D01*
X1138Y2042D01*
X1140Y2039D01*
X1142Y2037D01*
X1140Y2032D01*
X1067D01*
X1062Y2030D01*
X1060Y2026D01*
Y1963D01*
X1062Y1959D01*
X1060Y1956D01*
Y1893D01*
X1062Y1888D01*
X1067Y1886D01*
X1140D01*
X1142Y1882D01*
X1140Y1880D01*
X1138Y1877D01*
X1137Y1873D01*
Y1824D01*
X1138Y1820D01*
X1140Y1817D01*
X1182Y1776D01*
X1184Y1774D01*
X1188Y1773D01*
X1191D01*
Y1763D01*
X1268D01*
Y1753D01*
X1191D01*
Y1742D01*
X1188D01*
X1184Y1742D01*
X1182Y1740D01*
X1181Y1739D01*
X1179Y1736D01*
X1178Y1732D01*
Y1564D01*
X1147Y1532D01*
X1145Y1530D01*
X1144Y1526D01*
Y1330D01*
X1145Y1327D01*
X1147Y1324D01*
X1161Y1309D01*
X1161Y1309D01*
X1158Y1301D01*
X1157Y1299D01*
X1154Y1297D01*
X1067D01*
X1062Y1295D01*
X1060Y1290D01*
Y1227D01*
X1062Y1223D01*
X1067Y1221D01*
X1154D01*
X1158Y1223D01*
X1160Y1227D01*
Y1267D01*
X1165Y1268D01*
X1167Y1266D01*
X1174Y1260D01*
X1183Y1257D01*
X1192Y1256D01*
X1201Y1257D01*
X1210Y1260D01*
X1217Y1266D01*
X1221Y1270D01*
X1226Y1269D01*
Y1236D01*
X1224Y1234D01*
X1221Y1230D01*
X1220Y1225D01*
Y1186D01*
X1191D01*
Y1147D01*
X1274D01*
Y1186D01*
X1245D01*
Y1220D01*
X1247Y1222D01*
X1249Y1226D01*
X1250Y1231D01*
Y1313D01*
X1255Y1315D01*
X1261Y1309D01*
X1261Y1309D01*
X1258Y1301D01*
X1256Y1291D01*
X1258Y1282D01*
X1261Y1273D01*
X1267Y1266D01*
X1274Y1260D01*
X1283Y1257D01*
X1292Y1256D01*
X1301Y1257D01*
X1310Y1260D01*
X1317Y1266D01*
X1323Y1273D01*
X1327Y1282D01*
X1328Y1291D01*
X1327Y1301D01*
X1323Y1309D01*
X1317Y1317D01*
X1310Y1322D01*
X1301Y1326D01*
X1292Y1327D01*
X1283Y1326D01*
X1274Y1322D01*
X1274Y1322D01*
X1240Y1356D01*
Y1419D01*
X1245Y1421D01*
X1260Y1406D01*
X1258Y1401D01*
X1256Y1391D01*
X1258Y1382D01*
X1261Y1373D01*
X1267Y1366D01*
X1274Y1360D01*
X1283Y1357D01*
X1292Y1356D01*
X1301Y1357D01*
X1310Y1360D01*
X1317Y1366D01*
X1323Y1373D01*
X1327Y1382D01*
X1328Y1391D01*
X1327Y1401D01*
X1323Y1409D01*
X1317Y1417D01*
X1310Y1422D01*
X1301Y1426D01*
X1292Y1427D01*
X1283Y1426D01*
X1277Y1424D01*
X1262Y1439D01*
Y1464D01*
X1264Y1465D01*
X1267Y1466D01*
X1274Y1460D01*
X1283Y1457D01*
X1292Y1456D01*
X1301Y1457D01*
X1310Y1460D01*
X1317Y1466D01*
X1323Y1473D01*
X1324Y1474D01*
X1329Y1473D01*
Y1441D01*
X1377D01*
Y1470D01*
Y1500D01*
X1329D01*
Y1500D01*
X1325Y1504D01*
X1323Y1509D01*
X1317Y1517D01*
X1310Y1522D01*
X1301Y1526D01*
X1292Y1527D01*
X1291Y1529D01*
X1290Y1532D01*
X1324Y1565D01*
X1329Y1563D01*
Y1555D01*
X1377D01*
Y1585D01*
Y1614D01*
X1331D01*
Y1881D01*
X1572Y2122D01*
X1575Y2121D01*
X1583Y2120D01*
X1590Y2121D01*
X1598Y2124D01*
X1604Y2128D01*
X1609Y2135D01*
X1612Y2142D01*
X1613Y2150D01*
X1612Y2157D01*
X1609Y2165D01*
X1604Y2171D01*
X1598Y2175D01*
X1590Y2178D01*
X1583Y2179D01*
X1575Y2178D01*
X1568Y2175D01*
X1562Y2171D01*
X1557Y2165D01*
X1554Y2157D01*
X1553Y2150D01*
X1554Y2142D01*
X1555Y2139D01*
X1310Y1895D01*
X1308Y1891D01*
X1307Y1886D01*
Y1583D01*
X1245Y1521D01*
X1240Y1524D01*
Y1545D01*
X1283Y1589D01*
X1285Y1591D01*
X1286Y1592D01*
X1286Y1595D01*
Y2135D01*
X1285Y2138D01*
X1283Y2141D01*
X1282Y2142D01*
X1280Y2144D01*
X1276Y2145D01*
X1274D01*
Y2156D01*
X1191D01*
Y2116D01*
X1268D01*
Y2110D01*
X1237D01*
Y2087D01*
Y2063D01*
X1268D01*
Y1851D01*
X1244D01*
Y1982D01*
X1244Y1984D01*
X1243Y1987D01*
X1243Y1987D01*
X1243Y1987D01*
X1242Y1989D01*
X1241Y1991D01*
X1234Y1997D01*
X1234Y1997D01*
X1234Y1997D01*
X1234Y1997D01*
X1234Y1997D01*
X1232Y1998D01*
X1230Y1999D01*
X1230Y1999D01*
X1230Y1999D01*
X1230Y2000D01*
X1230Y2000D01*
X1228Y2000D01*
X1226Y2000D01*
X1226Y2000D01*
X1226Y2000D01*
X1225D01*
X1224Y2001D01*
X1219Y2005D01*
X1212Y2006D01*
X1205Y2005D01*
X1199Y2001D01*
X1195Y1995D01*
X1193Y1988D01*
X1195Y1981D01*
X1199Y1975D01*
X1205Y1971D01*
X1212Y1970D01*
X1214Y1968D01*
X1219Y1855D01*
X1215Y1851D01*
X1191D01*
Y1812D01*
X1268D01*
Y1802D01*
X1191D01*
Y1799D01*
X1186Y1797D01*
X1156Y1828D01*
Y1869D01*
X1169Y1883D01*
X1171Y1885D01*
X1171Y1886D01*
X1172Y1889D01*
Y2029D01*
X1171Y2032D01*
X1171Y2033D01*
X1169Y2036D01*
X1156Y2049D01*
Y2140D01*
X1186Y2170D01*
X1191Y2168D01*
Y2165D01*
X1274D01*
Y2205D01*
D02*
G37*
G36*
X1666Y2283D02*
X1635D01*
X1636Y2279D01*
X1640Y2270D01*
X1645Y2263D01*
X1653Y2257D01*
X1661Y2254D01*
X1666Y2253D01*
Y2283D01*
D02*
G37*
G36*
Y2324D02*
X1661Y2323D01*
X1653Y2319D01*
X1645Y2314D01*
X1640Y2306D01*
X1636Y2298D01*
X1635Y2293D01*
X1666D01*
Y2324D01*
D02*
G37*
G36*
X1676D02*
Y2293D01*
X1706D01*
X1705Y2298D01*
X1702Y2306D01*
X1696Y2314D01*
X1689Y2319D01*
X1680Y2323D01*
X1676Y2324D01*
D02*
G37*
G36*
X1706Y2283D02*
X1676D01*
Y2253D01*
X1680Y2254D01*
X1689Y2257D01*
X1696Y2263D01*
X1702Y2270D01*
X1705Y2279D01*
X1706Y2283D01*
D02*
G37*
G36*
X1771Y2320D02*
X1762Y2319D01*
X1755Y2316D01*
X1748Y2311D01*
X1743Y2304D01*
X1740Y2297D01*
X1739Y2288D01*
X1740Y2280D01*
X1743Y2272D01*
X1748Y2266D01*
X1755Y2261D01*
X1762Y2258D01*
X1771Y2257D01*
X1779Y2258D01*
X1787Y2261D01*
X1793Y2266D01*
X1798Y2272D01*
X1801Y2280D01*
X1802Y2288D01*
X1801Y2297D01*
X1798Y2304D01*
X1793Y2311D01*
X1787Y2316D01*
X1779Y2319D01*
X1771Y2320D01*
D02*
G37*
G36*
X2740Y1728D02*
X2642D01*
Y1657D01*
X2740D01*
Y1728D01*
D02*
G37*
G36*
X1557Y1648D02*
X1493D01*
Y1611D01*
X1557D01*
Y1648D01*
D02*
G37*
G36*
X2740Y1650D02*
X2642D01*
Y1579D01*
X2740D01*
Y1650D01*
D02*
G37*
G36*
X2437Y2017D02*
X2416D01*
Y1994D01*
X2437D01*
Y2017D01*
D02*
G37*
G36*
X2133Y2073D02*
X2129Y2072D01*
X2121Y2069D01*
X2114Y2063D01*
X2108Y2056D01*
X2105Y2048D01*
X2105Y2044D01*
X2133D01*
Y2073D01*
D02*
G37*
G36*
X1227Y2082D02*
X1187D01*
Y2063D01*
X1227D01*
Y2082D01*
D02*
G37*
G36*
X2133Y2034D02*
X2105D01*
X2105Y2031D01*
X2108Y2022D01*
X2114Y2015D01*
X2121Y2010D01*
X2129Y2007D01*
X2133Y2006D01*
Y2034D01*
D02*
G37*
%LPD*%
G36*
X1237Y1660D02*
X1268D01*
Y1599D01*
X1225Y1555D01*
X1223Y1553D01*
X1222Y1549D01*
Y1518D01*
X1217Y1517D01*
X1210Y1522D01*
X1201Y1526D01*
X1192Y1527D01*
X1183Y1526D01*
X1174Y1522D01*
X1168Y1518D01*
X1163Y1520D01*
X1163Y1523D01*
X1193Y1554D01*
X1195Y1556D01*
X1196Y1560D01*
Y1660D01*
X1227D01*
Y1684D01*
X1237D01*
Y1660D01*
D02*
G37*
G36*
X1174Y1460D02*
X1183Y1457D01*
X1192Y1456D01*
X1201Y1457D01*
X1210Y1460D01*
X1217Y1466D01*
X1222Y1464D01*
Y1418D01*
X1217Y1417D01*
X1210Y1422D01*
X1201Y1426D01*
X1192Y1427D01*
X1183Y1426D01*
X1174Y1422D01*
X1167Y1417D01*
X1164Y1418D01*
X1162Y1418D01*
Y1464D01*
X1164Y1465D01*
X1167Y1466D01*
X1174Y1460D01*
D02*
G37*
D10*
X2508Y1712D02*
D03*
X2470D02*
D03*
X2433D02*
D03*
Y1603D02*
D03*
X2508D02*
D03*
D11*
X2442Y1879D02*
D03*
X2499D02*
D03*
X2442Y1934D02*
D03*
X2499D02*
D03*
X2442Y1824D02*
D03*
X2499D02*
D03*
Y1768D02*
D03*
X2442D02*
D03*
X2499Y1989D02*
D03*
X2442D02*
D03*
D12*
X2236Y1528D02*
D03*
Y1606D02*
D03*
Y1685D02*
D03*
Y1764D02*
D03*
Y1843D02*
D03*
Y1921D02*
D03*
Y2000D02*
D03*
X1488Y1528D02*
D03*
Y1606D02*
D03*
D13*
X2691Y2244D02*
D03*
Y2165D02*
D03*
Y2087D02*
D03*
Y2008D02*
D03*
Y1929D02*
D03*
Y1850D02*
D03*
Y1772D02*
D03*
Y1693D02*
D03*
Y1614D02*
D03*
Y1535D02*
D03*
Y1457D02*
D03*
Y1378D02*
D03*
Y1299D02*
D03*
Y1220D02*
D03*
Y1142D02*
D03*
X2900Y2244D02*
D03*
Y2165D02*
D03*
Y2087D02*
D03*
Y2008D02*
D03*
Y1929D02*
D03*
Y1850D02*
D03*
Y1772D02*
D03*
Y1693D02*
D03*
Y1614D02*
D03*
Y1535D02*
D03*
Y1457D02*
D03*
Y1378D02*
D03*
Y1299D02*
D03*
Y1220D02*
D03*
Y1142D02*
D03*
D14*
X1967Y1312D02*
D03*
X1720D02*
D03*
X1819D02*
D03*
X1868D02*
D03*
X1770D02*
D03*
X1917D02*
D03*
X2255D02*
D03*
X2304D02*
D03*
D15*
X1232Y2185D02*
D03*
Y2087D02*
D03*
Y2136D02*
D03*
Y1782D02*
D03*
Y1733D02*
D03*
Y1832D02*
D03*
Y1684D02*
D03*
X1232Y1166D02*
D03*
Y1117D02*
D03*
D16*
X1382Y1585D02*
D03*
Y1470D02*
D03*
D17*
X1441Y1528D02*
D03*
D18*
X2416D02*
D03*
X2525D02*
D03*
D19*
X2442Y1879D02*
X2444D01*
X2462Y1861D01*
Y1850D02*
Y1861D01*
Y1850D02*
X2472Y1840D01*
X2483D01*
X2499Y1824D01*
X2480Y1852D02*
X2535D01*
X2474Y1858D02*
X2480Y1852D01*
X2474Y1858D02*
Y2015D01*
X2443Y1768D02*
X2499Y1824D01*
X2442Y1768D02*
X2443D01*
X1147Y2045D02*
X1163Y2029D01*
X1147Y1873D02*
X1163Y1889D01*
X1147Y1824D02*
Y1873D01*
Y2045D02*
Y2144D01*
X1163Y1889D02*
Y2029D01*
X1147Y2144D02*
X1188Y2185D01*
X1147Y1824D02*
X1188Y1782D01*
X2537Y2016D02*
X2624Y1929D01*
X2691D01*
X2460Y1362D02*
X2485Y1388D01*
X1917Y1350D02*
Y1375D01*
X2865Y1772D02*
Y1810D01*
X2847Y1789D02*
Y1812D01*
X2628Y1969D02*
X2743D01*
X2615D02*
X2628D01*
X1917Y1312D02*
Y1350D01*
X1930Y1362D01*
X2460D01*
X2560Y1462D02*
Y1827D01*
X2535Y1852D02*
X2560Y1827D01*
X2474Y2015D02*
X2475Y2016D01*
X2537D01*
X2849Y2008D02*
X2900D01*
X2816Y2040D02*
X2849Y2008D01*
X2816Y2040D02*
Y2062D01*
X2786Y2093D02*
X2816Y2062D01*
X2743Y1969D02*
X2847Y1865D01*
Y1789D02*
X2865Y1772D01*
X2753Y1787D02*
Y1860D01*
X2442Y1754D02*
Y1768D01*
Y1754D02*
X2470Y1725D01*
Y1712D02*
Y1725D01*
X2433Y1603D02*
Y1640D01*
X2416Y1797D02*
X2442Y1798D01*
X1834Y2338D02*
X2695D01*
X2744Y1992D02*
X2886Y1850D01*
X1819Y1263D02*
X1836Y1245D01*
X2609D01*
X2627Y1263D01*
X2652Y1850D02*
X2691D01*
X1868Y1268D02*
X1869Y1267D01*
X2795Y1981D02*
Y2044D01*
X1441Y1528D02*
X1488D01*
X1971Y1970D02*
X2138Y1803D01*
X1971Y1970D02*
Y2288D01*
X1905Y2323D02*
X2006D01*
X2033Y2296D01*
Y1987D02*
Y2296D01*
Y1987D02*
X2138Y1882D01*
X2236Y1606D02*
X2317D01*
X2336Y1533D02*
Y1587D01*
X2753Y1393D02*
Y1520D01*
X2306Y1764D02*
X2372Y1698D01*
Y1595D02*
Y1698D01*
X2792Y1591D02*
X2831Y1552D01*
Y1397D02*
X2850Y1378D01*
X2499Y1879D02*
X2629D01*
X2639Y1889D02*
X2784D01*
X2835Y1838D01*
Y1577D02*
Y1838D01*
X2450Y2063D02*
X2474Y2087D01*
X2691D01*
X1231Y1352D02*
Y1549D01*
X1277Y1595D01*
Y2135D01*
X1232Y2136D02*
X1276D01*
X1153Y1330D02*
Y1526D01*
X1187Y1732D02*
X1188Y1733D01*
X1232D01*
X2442Y1798D02*
Y1824D01*
X2387Y1768D02*
X2416Y1797D01*
X2387Y1686D02*
Y1768D01*
Y1686D02*
X2433Y1640D01*
X1868Y1268D02*
Y1312D01*
X1869Y1267D02*
X2012D01*
X2795Y1981D02*
X2847Y1929D01*
X2900D01*
X2485Y1388D02*
X2560Y1462D01*
X1930Y1388D02*
X2485D01*
X1917Y1375D02*
X1930Y1388D01*
X2877Y1535D02*
X2900D01*
X2835Y1577D02*
X2877Y1535D01*
X2629Y1879D02*
X2639Y1889D01*
X2865Y1772D02*
X2900D01*
X2864Y1811D02*
X2865Y1810D01*
X2848Y1811D02*
X2864D01*
X2847Y1812D02*
X2848Y1811D01*
X2847Y1812D02*
Y1865D01*
X2737Y1772D02*
X2753Y1787D01*
X2691Y1772D02*
X2737D01*
X1770Y1312D02*
Y2167D01*
X1821Y2218D01*
Y2325D01*
X1834Y2338D01*
X2695D02*
X2744Y2289D01*
Y1992D02*
Y2289D01*
X2886Y1850D02*
X2900D01*
X1871Y2288D02*
X1905Y2323D01*
X1276Y2136D02*
X1277Y2135D01*
X1231Y1352D02*
X1292Y1291D01*
X2236Y1764D02*
X2306D01*
X2317Y1606D02*
X2336Y1587D01*
X2737Y1378D02*
X2753Y1393D01*
X2691Y1378D02*
X2737D01*
X1819Y1263D02*
Y1312D01*
X2627Y1263D02*
Y1825D01*
X2652Y1850D01*
X2831Y1397D02*
Y1552D01*
X2850Y1378D02*
X2900D01*
X1187Y1560D02*
Y1732D01*
X1153Y1526D02*
X1187Y1560D01*
X1153Y1330D02*
X1192Y1291D01*
X1188Y1782D02*
X1232D01*
X1188Y2185D02*
X1232D01*
X2499Y1934D02*
Y1989D01*
Y1879D02*
Y1934D01*
D20*
X2691Y1142D02*
X2834D01*
X2900D01*
X2434Y1679D02*
X2461Y1653D01*
X2433Y1680D02*
X2434Y1679D01*
X2140Y2207D02*
Y2218D01*
Y2207D02*
X2412Y1934D01*
X2129Y2218D02*
X2140Y2207D01*
X2202Y1313D02*
X2255D01*
X1226Y1988D02*
X1226D01*
X1232Y1832D02*
Y1982D01*
X2433Y1680D02*
Y1712D01*
X1212Y1988D02*
X1226D01*
X1232Y1832D01*
X2412Y1934D02*
X2442D01*
X2236Y1528D02*
X2299D01*
X2352Y1475D02*
X2472D01*
X2525Y1528D01*
Y1557D01*
X2508Y1574D02*
X2525Y1557D01*
X1720Y1150D02*
Y1312D01*
Y1150D02*
X1736Y1134D01*
X2445D01*
X2453Y1142D01*
X1619Y2229D02*
X1720Y2128D01*
X1509Y2229D02*
X1619D01*
X2508Y1680D02*
Y1712D01*
X2507Y1679D02*
X2508Y1680D01*
X2499Y1744D02*
X2508Y1735D01*
X2499Y1744D02*
Y1768D01*
X2408Y1745D02*
X2433Y1712D01*
X2408Y1745D02*
Y1759D01*
X1232Y1166D02*
Y1225D01*
X1238Y1231D01*
Y1318D01*
X1192Y1364D02*
Y1391D01*
X2255Y1312D02*
Y1313D01*
X1226Y1988D02*
X1232Y1982D01*
X2299Y1528D02*
X2352Y1475D01*
X1319Y1886D02*
X1583Y2150D01*
X1319Y1578D02*
Y1886D01*
X1250Y1509D02*
X1319Y1578D01*
X1250Y1433D02*
Y1509D01*
Y1433D02*
X1292Y1391D01*
X1232Y1832D02*
X1232D01*
X2453Y1142D02*
X2691D01*
X1720Y1312D02*
Y2128D01*
X1423Y2143D02*
X1509Y2229D01*
X1192Y1364D02*
X1238Y1318D01*
X2434Y1679D02*
X2507D01*
X2508Y1574D02*
Y1603D01*
Y1712D02*
Y1735D01*
D21*
X1628Y1190D02*
D03*
X2059D02*
D03*
X2162D02*
D03*
X2397D02*
D03*
D22*
X1110Y1994D02*
D03*
Y2277D02*
D03*
Y1924D02*
D03*
Y1592D02*
D03*
X1110Y1025D02*
D03*
D23*
Y1259D02*
D03*
D24*
X1583Y2150D02*
D03*
X1882D02*
D03*
X2138Y2039D02*
D03*
Y1961D02*
D03*
Y1882D02*
D03*
Y1803D02*
D03*
D25*
X1292Y1491D02*
D03*
Y1391D02*
D03*
X1192Y1491D02*
D03*
Y1391D02*
D03*
Y1291D02*
D03*
X1292D02*
D03*
X2792Y1791D02*
D03*
Y1691D02*
D03*
Y1591D02*
D03*
Y1491D02*
D03*
Y1391D02*
D03*
Y1291D02*
D03*
D26*
X1671Y2288D02*
D03*
X1771D02*
D03*
X1871D02*
D03*
D27*
X1971D02*
D03*
D28*
X2773Y1219D02*
D03*
X2374Y1311D02*
D03*
X2471Y1594D02*
D03*
X1232Y1643D02*
D03*
X1173Y2113D02*
D03*
X2825Y1142D02*
D03*
X2615Y1969D02*
D03*
X2786Y2093D02*
D03*
X2461Y1653D02*
D03*
X1212Y1988D02*
D03*
X2129Y2218D02*
D03*
X2753Y1860D02*
D03*
X2012Y1267D02*
D03*
X2795Y2044D02*
D03*
X2336Y1533D02*
D03*
X2753Y1520D02*
D03*
X2372Y1595D02*
D03*
X1423Y2143D02*
D03*
X2408Y1759D02*
D03*
X2450Y2063D02*
D03*
X2202Y1313D02*
D03*
M02*
