%FSLAX23Y23*%
%MOIN*%
G70*
G01*
G75*
G04 Layer_Physical_Order=2*
G04 Layer_Color=16711680*
%ADD10R,0.022X0.039*%
%ADD11R,0.031X0.035*%
%ADD12R,0.118X0.063*%
%ADD13R,0.087X0.059*%
%ADD14R,0.028X0.071*%
%ADD15R,0.071X0.028*%
%ADD16R,0.087X0.039*%
%ADD17R,0.039X0.039*%
%ADD18R,0.051X0.073*%
%ADD19C,0.006*%
%ADD20C,0.012*%
%ADD21R,0.063X0.087*%
%ADD22R,0.087X0.063*%
%ADD23R,0.087X0.063*%
%ADD24C,0.047*%
%ADD25C,0.059*%
%ADD26C,0.051*%
%ADD27R,0.051X0.051*%
%ADD28C,0.024*%
%ADD29R,0.157X0.098*%
%ADD30R,0.035X0.031*%
%ADD31R,0.035X0.024*%
%ADD32R,0.079X0.039*%
%ADD33R,0.150X0.071*%
G36*
X2945Y2394D02*
X2945Y996D01*
X2941Y992D01*
X992Y992D01*
X992Y2390D01*
X996Y2394D01*
X2945Y2394D01*
D02*
G37*
%LPC*%
G36*
X1387Y1944D02*
X1364D01*
Y1927D01*
X1387D01*
Y1944D01*
D02*
G37*
G36*
X1475Y1922D02*
X1452D01*
Y1901D01*
X1475D01*
Y1922D01*
D02*
G37*
G36*
X2138Y1833D02*
X2130Y1832D01*
X2123Y1829D01*
X2117Y1824D01*
X2112Y1818D01*
X2109Y1811D01*
X2108Y1803D01*
X2109Y1795D01*
X2112Y1788D01*
X2117Y1782D01*
X2123Y1777D01*
X2130Y1774D01*
X2138Y1773D01*
X2146Y1774D01*
X2153Y1777D01*
X2159Y1782D01*
X2164Y1788D01*
X2167Y1795D01*
X2168Y1803D01*
X2167Y1811D01*
X2164Y1818D01*
X2159Y1824D01*
X2153Y1829D01*
X2146Y1832D01*
X2138Y1833D01*
D02*
G37*
G36*
X2700Y2082D02*
X2659D01*
Y2063D01*
X2700D01*
Y2082D01*
D02*
G37*
G36*
X2714Y2335D02*
X1538D01*
X1535Y2335D01*
X1535Y2334D01*
X1532Y2332D01*
X1344Y2145D01*
X1274D01*
Y2156D01*
X1191D01*
Y2116D01*
X1274D01*
Y2127D01*
X1348D01*
X1352Y2127D01*
X1354Y2129D01*
X1430Y2205D01*
X1432Y2204D01*
X1432Y2204D01*
X1434Y2203D01*
X1434Y2203D01*
X1435Y2203D01*
X1435Y2203D01*
Y2202D01*
Y2202D01*
X1435Y2201D01*
Y2200D01*
Y2200D01*
Y2162D01*
X1431Y2159D01*
X1430Y2160D01*
X1423Y2161D01*
X1416Y2160D01*
X1410Y2156D01*
X1406Y2150D01*
X1405Y2143D01*
X1405Y2142D01*
X1312Y2050D01*
X1274D01*
Y2057D01*
X1191D01*
Y2018D01*
X1274D01*
Y2025D01*
X1307D01*
X1309Y2020D01*
X1289Y2000D01*
X1270D01*
Y2010D01*
X1222D01*
Y2008D01*
X1217Y2005D01*
X1212Y2006D01*
X1205Y2005D01*
X1199Y2001D01*
X1195Y1995D01*
X1193Y1988D01*
X1195Y1981D01*
X1199Y1975D01*
X1205Y1971D01*
X1212Y1970D01*
X1217Y1971D01*
X1222Y1968D01*
Y1966D01*
X1270D01*
Y1976D01*
X1277D01*
Y1963D01*
X1268Y1953D01*
X1222D01*
Y1909D01*
X1270D01*
Y1929D01*
X1283Y1942D01*
X1325D01*
Y1950D01*
X1350D01*
X1354Y1951D01*
X1356Y1953D01*
X1371Y1968D01*
X1373Y1971D01*
X1374Y1975D01*
Y1979D01*
X1415D01*
X1415Y1979D01*
X1420Y1977D01*
X1421Y1976D01*
X1423Y1975D01*
Y1963D01*
X1471D01*
Y1975D01*
X1808D01*
X1862Y1922D01*
X1864Y1920D01*
X1865Y1919D01*
X1868Y1919D01*
X2097D01*
X2099Y1914D01*
X2081Y1896D01*
X1427D01*
X1424Y1901D01*
X1424Y1901D01*
X1442D01*
Y1927D01*
Y1953D01*
X1419D01*
Y1944D01*
X1397D01*
Y1922D01*
X1392D01*
Y1917D01*
X1364D01*
Y1901D01*
X1364Y1900D01*
X1362Y1896D01*
X1208D01*
X1182Y1922D01*
Y2068D01*
X1186Y2072D01*
X1191Y2070D01*
Y2067D01*
X1274D01*
Y2106D01*
X1191D01*
Y2096D01*
X1188D01*
X1184Y2095D01*
X1181Y2093D01*
X1167Y2079D01*
X1165Y2076D01*
X1164Y2072D01*
Y1980D01*
X1159Y1979D01*
X1158Y1981D01*
X1154Y1983D01*
X1067D01*
X1062Y1981D01*
X1060Y1976D01*
Y1913D01*
X1062Y1909D01*
X1067Y1907D01*
X1154D01*
X1158Y1909D01*
X1160Y1913D01*
X1161Y1913D01*
X1165Y1914D01*
X1167Y1912D01*
X1198Y1881D01*
X1200Y1879D01*
X1204Y1878D01*
X2085D01*
X2089Y1879D01*
X2091Y1881D01*
X2106Y1895D01*
X2110Y1892D01*
X2109Y1890D01*
X2108Y1882D01*
X2109Y1874D01*
X2112Y1867D01*
X2117Y1861D01*
X2123Y1856D01*
X2130Y1853D01*
X2138Y1852D01*
X2146Y1853D01*
X2153Y1856D01*
X2159Y1861D01*
X2164Y1867D01*
X2167Y1874D01*
X2168Y1882D01*
X2167Y1890D01*
X2164Y1897D01*
X2161Y1901D01*
X2163Y1906D01*
X2573D01*
X2577Y1907D01*
X2580Y1909D01*
X2622Y1950D01*
X2624Y1953D01*
X2624Y1954D01*
X2628Y1956D01*
X2632Y1962D01*
X2633Y1969D01*
X2632Y1976D01*
X2628Y1982D01*
X2622Y1986D01*
X2615Y1987D01*
X2608Y1986D01*
X2602Y1982D01*
X2599Y1976D01*
X2597Y1969D01*
X2599Y1962D01*
X2602Y1957D01*
X2570Y1924D01*
X2331D01*
X2329Y1929D01*
X2446Y2046D01*
X2450Y2045D01*
X2457Y2046D01*
X2463Y2050D01*
X2467Y2056D01*
X2468Y2063D01*
X2467Y2070D01*
X2463Y2076D01*
X2457Y2080D01*
X2450Y2081D01*
X2443Y2080D01*
X2437Y2076D01*
X2433Y2070D01*
X2432Y2063D01*
X2433Y2059D01*
X2348Y1974D01*
X2343Y1976D01*
Y2039D01*
X2341Y2044D01*
X2337Y2046D01*
X2187D01*
X2185Y2045D01*
X2180Y2048D01*
Y2223D01*
X2185Y2226D01*
X2187Y2226D01*
X2337D01*
X2341Y2228D01*
X2343Y2232D01*
Y2303D01*
X2341Y2308D01*
X2337Y2310D01*
X2187D01*
X2182Y2308D01*
X2181Y2303D01*
Y2245D01*
X2176Y2242D01*
X2158Y2259D01*
X2156Y2261D01*
X2152Y2262D01*
X2002D01*
Y2317D01*
X2711D01*
X2741Y2287D01*
Y2205D01*
X2663D01*
Y2165D01*
X2733D01*
X2738Y2160D01*
X2736Y2156D01*
X2663D01*
Y2116D01*
X2735D01*
X2735Y2115D01*
X2732Y2110D01*
X2710D01*
Y2087D01*
Y2063D01*
X2741D01*
X2741Y2053D01*
X2459Y1771D01*
X2421D01*
X2421Y1772D01*
X2415Y1776D01*
X2408Y1777D01*
X2401Y1776D01*
X2395Y1772D01*
X2391Y1766D01*
X2390Y1759D01*
X2391Y1752D01*
X2395Y1746D01*
X2401Y1742D01*
X2408Y1741D01*
X2415Y1742D01*
X2421Y1746D01*
X2421Y1747D01*
X2464D01*
X2469Y1748D01*
X2473Y1750D01*
X2762Y2039D01*
X2762Y2039D01*
X2762Y2039D01*
X2763Y2041D01*
X2764Y2043D01*
X2764Y2043D01*
X2764Y2043D01*
X2765Y2046D01*
X2765Y2048D01*
X2765Y2048D01*
X2765Y2048D01*
X2765Y2084D01*
X2766Y2085D01*
X2770Y2085D01*
X2773Y2080D01*
X2779Y2076D01*
X2786Y2075D01*
X2793Y2076D01*
X2799Y2080D01*
X2803Y2086D01*
X2804Y2093D01*
X2803Y2100D01*
X2799Y2106D01*
X2795Y2108D01*
Y2121D01*
X2800Y2123D01*
X2871Y2052D01*
Y2033D01*
X2870Y2032D01*
X2814D01*
X2811Y2036D01*
X2812Y2037D01*
X2813Y2044D01*
X2812Y2051D01*
X2808Y2057D01*
X2802Y2061D01*
X2795Y2062D01*
X2788Y2061D01*
X2782Y2057D01*
X2778Y2051D01*
X2777Y2045D01*
X2016Y1284D01*
X2012Y1285D01*
X2005Y1284D01*
X1999Y1280D01*
X1995Y1274D01*
X1994Y1267D01*
X1995Y1260D01*
X1999Y1254D01*
X2001Y1253D01*
X1999Y1248D01*
X1453D01*
X1324Y1376D01*
X1327Y1382D01*
X1328Y1391D01*
X1327Y1401D01*
X1323Y1409D01*
X1317Y1417D01*
X1310Y1422D01*
X1301Y1426D01*
X1292Y1427D01*
X1283Y1426D01*
X1274Y1422D01*
X1267Y1417D01*
X1261Y1409D01*
X1259Y1404D01*
X1226D01*
X1223Y1409D01*
X1217Y1417D01*
X1210Y1422D01*
X1201Y1426D01*
X1192Y1427D01*
X1183Y1426D01*
X1174Y1422D01*
X1167Y1417D01*
X1161Y1409D01*
X1158Y1401D01*
X1156Y1391D01*
X1158Y1382D01*
X1161Y1373D01*
X1167Y1366D01*
X1174Y1360D01*
X1183Y1357D01*
X1192Y1356D01*
X1201Y1357D01*
X1210Y1360D01*
X1217Y1366D01*
X1223Y1373D01*
X1226Y1379D01*
X1259D01*
X1261Y1373D01*
X1267Y1366D01*
X1274Y1360D01*
X1283Y1357D01*
X1292Y1356D01*
X1301Y1357D01*
X1307Y1359D01*
X1439Y1227D01*
X1443Y1225D01*
X1447Y1224D01*
X2125D01*
X2130Y1225D01*
X2134Y1227D01*
X2201Y1295D01*
X2202Y1295D01*
X2209Y1296D01*
X2215Y1300D01*
X2219Y1306D01*
X2220Y1313D01*
X2219Y1320D01*
X2215Y1326D01*
X2209Y1330D01*
X2202Y1331D01*
X2195Y1330D01*
X2189Y1326D01*
X2185Y1320D01*
X2184Y1313D01*
X2184Y1312D01*
X2120Y1248D01*
X2025D01*
X2023Y1253D01*
X2025Y1254D01*
X2029Y1260D01*
X2030Y1267D01*
X2029Y1271D01*
X2349Y1591D01*
X2355Y1590D01*
X2355Y1588D01*
X2359Y1582D01*
X2365Y1578D01*
X2372Y1577D01*
X2379Y1578D01*
X2385Y1582D01*
X2389Y1588D01*
X2390Y1595D01*
X2389Y1599D01*
X2439Y1649D01*
X2443Y1647D01*
X2444Y1646D01*
X2448Y1640D01*
X2454Y1636D01*
X2461Y1634D01*
X2467Y1636D01*
X2473Y1640D01*
X2474Y1640D01*
X2666D01*
X2775Y1532D01*
X2774Y1527D01*
X2770Y1527D01*
X2766Y1533D01*
X2760Y1537D01*
X2753Y1539D01*
X2749Y1538D01*
X2747Y1539D01*
X2744Y1541D01*
X2740Y1542D01*
X2351D01*
X2349Y1546D01*
X2343Y1550D01*
X2336Y1551D01*
X2329Y1550D01*
X2323Y1546D01*
X2319Y1540D01*
X2318Y1533D01*
X2319Y1526D01*
X2323Y1520D01*
X2329Y1516D01*
X2336Y1515D01*
X2343Y1516D01*
X2349Y1520D01*
X2351Y1524D01*
X2732D01*
X2735Y1520D01*
X2736Y1514D01*
X2740Y1508D01*
X2746Y1504D01*
X2753Y1502D01*
X2753Y1502D01*
X2757Y1498D01*
X2756Y1491D01*
X2758Y1482D01*
X2761Y1473D01*
X2767Y1466D01*
X2774Y1460D01*
X2783Y1457D01*
X2792Y1456D01*
X2801Y1457D01*
X2807Y1459D01*
X2821Y1445D01*
Y1419D01*
X2816Y1417D01*
X2810Y1422D01*
X2801Y1426D01*
X2792Y1427D01*
X2783Y1426D01*
X2774Y1422D01*
X2767Y1417D01*
X2761Y1409D01*
X2758Y1401D01*
X2756Y1391D01*
X2758Y1382D01*
X2761Y1373D01*
X2767Y1366D01*
X2774Y1360D01*
X2783Y1357D01*
X2792Y1356D01*
X2801Y1357D01*
X2810Y1360D01*
X2816Y1365D01*
X2821Y1364D01*
Y1319D01*
X2816Y1317D01*
X2810Y1322D01*
X2801Y1326D01*
X2792Y1327D01*
X2783Y1326D01*
X2774Y1322D01*
X2767Y1317D01*
X2761Y1309D01*
X2758Y1301D01*
X2756Y1291D01*
X2758Y1282D01*
X2761Y1273D01*
X2767Y1266D01*
X2774Y1260D01*
X2783Y1257D01*
X2792Y1256D01*
X2801Y1257D01*
X2808Y1259D01*
X2813Y1256D01*
Y1155D01*
X2812Y1155D01*
X2808Y1149D01*
X2807Y1142D01*
X2808Y1135D01*
X2812Y1129D01*
X2818Y1125D01*
X2825Y1124D01*
X2832Y1125D01*
X2838Y1129D01*
X2842Y1135D01*
X2843Y1142D01*
X2842Y1149D01*
X2838Y1155D01*
X2837Y1155D01*
Y1260D01*
X2842Y1265D01*
X2845Y1269D01*
X2846Y1274D01*
Y1450D01*
X2846Y1450D01*
X2845Y1454D01*
X2842Y1458D01*
X2824Y1476D01*
X2827Y1482D01*
X2828Y1491D01*
X2827Y1501D01*
X2823Y1509D01*
X2817Y1517D01*
X2810Y1522D01*
X2804Y1525D01*
Y1532D01*
X2803Y1537D01*
X2801Y1541D01*
X2790Y1551D01*
X2790Y1551D01*
X2793Y1556D01*
X2801Y1557D01*
X2810Y1560D01*
X2817Y1566D01*
X2823Y1573D01*
X2827Y1582D01*
X2828Y1591D01*
X2827Y1601D01*
X2823Y1609D01*
X2817Y1617D01*
X2810Y1622D01*
X2801Y1626D01*
X2792Y1627D01*
X2783Y1626D01*
X2774Y1622D01*
X2774Y1622D01*
X2717Y1680D01*
X2714Y1682D01*
X2710Y1683D01*
X2450D01*
X2447Y1682D01*
X2444Y1686D01*
X2772Y2014D01*
X2777Y2012D01*
Y1963D01*
X2779Y1958D01*
X2783Y1956D01*
X2870D01*
X2871Y1956D01*
Y1939D01*
X2801Y1869D01*
X2768D01*
X2766Y1873D01*
X2760Y1877D01*
X2753Y1878D01*
X2746Y1877D01*
X2740Y1873D01*
X2736Y1867D01*
X2735Y1860D01*
X2736Y1853D01*
X2740Y1847D01*
X2746Y1843D01*
X2753Y1842D01*
X2760Y1843D01*
X2766Y1847D01*
X2768Y1851D01*
X2805D01*
X2808Y1852D01*
X2811Y1854D01*
X2886Y1929D01*
X2888Y1932D01*
X2889Y1933D01*
X2889Y1936D01*
Y2056D01*
X2888Y2060D01*
X2886Y2062D01*
X2759Y2190D01*
Y2290D01*
X2758Y2294D01*
X2756Y2297D01*
X2721Y2332D01*
X2718Y2334D01*
X2714Y2335D01*
D02*
G37*
G36*
X1475Y1953D02*
X1452D01*
Y1932D01*
X1475D01*
Y1953D01*
D02*
G37*
G36*
X1192Y1527D02*
X1183Y1526D01*
X1174Y1522D01*
X1167Y1517D01*
X1161Y1509D01*
X1158Y1501D01*
X1156Y1491D01*
X1158Y1482D01*
X1161Y1473D01*
X1167Y1466D01*
X1174Y1460D01*
X1183Y1457D01*
X1192Y1456D01*
X1201Y1457D01*
X1210Y1460D01*
X1217Y1466D01*
X1223Y1473D01*
X1227Y1482D01*
X1228Y1491D01*
X1227Y1501D01*
X1223Y1509D01*
X1217Y1517D01*
X1210Y1522D01*
X1201Y1526D01*
X1192Y1527D01*
D02*
G37*
G36*
X1292Y1327D02*
X1283Y1326D01*
X1274Y1322D01*
X1267Y1317D01*
X1261Y1309D01*
X1258Y1301D01*
X1256Y1291D01*
X1258Y1282D01*
X1261Y1273D01*
X1267Y1266D01*
X1274Y1260D01*
X1283Y1257D01*
X1292Y1256D01*
X1301Y1257D01*
X1310Y1260D01*
X1317Y1266D01*
X1323Y1273D01*
X1327Y1282D01*
X1328Y1291D01*
X1327Y1301D01*
X1323Y1309D01*
X1317Y1317D01*
X1310Y1322D01*
X1301Y1326D01*
X1292Y1327D01*
D02*
G37*
G36*
X1192D02*
X1183Y1326D01*
X1174Y1322D01*
X1167Y1317D01*
X1161Y1309D01*
X1158Y1301D01*
X1156Y1291D01*
X1158Y1282D01*
X1161Y1273D01*
X1167Y1266D01*
X1174Y1260D01*
X1183Y1257D01*
X1192Y1256D01*
X1201Y1257D01*
X1210Y1260D01*
X1217Y1266D01*
X1223Y1273D01*
X1227Y1282D01*
X1228Y1291D01*
X1227Y1301D01*
X1223Y1309D01*
X1217Y1317D01*
X1210Y1322D01*
X1201Y1326D01*
X1192Y1327D01*
D02*
G37*
G36*
X2792Y1827D02*
X2783Y1826D01*
X2774Y1822D01*
X2767Y1817D01*
X2761Y1809D01*
X2758Y1801D01*
X2756Y1791D01*
X2758Y1782D01*
X2761Y1773D01*
X2767Y1766D01*
X2774Y1760D01*
X2783Y1757D01*
X2792Y1756D01*
X2801Y1757D01*
X2810Y1760D01*
X2817Y1766D01*
X2823Y1773D01*
X2827Y1782D01*
X2828Y1791D01*
X2827Y1801D01*
X2823Y1809D01*
X2817Y1817D01*
X2810Y1822D01*
X2801Y1826D01*
X2792Y1827D01*
D02*
G37*
G36*
Y1727D02*
X2783Y1726D01*
X2774Y1722D01*
X2767Y1717D01*
X2761Y1709D01*
X2758Y1701D01*
X2756Y1691D01*
X2758Y1682D01*
X2761Y1673D01*
X2767Y1666D01*
X2774Y1660D01*
X2783Y1657D01*
X2792Y1656D01*
X2801Y1657D01*
X2810Y1660D01*
X2817Y1666D01*
X2823Y1673D01*
X2827Y1682D01*
X2828Y1691D01*
X2827Y1701D01*
X2823Y1709D01*
X2817Y1717D01*
X2810Y1722D01*
X2801Y1726D01*
X2792Y1727D01*
D02*
G37*
G36*
X1292Y1527D02*
X1283Y1526D01*
X1274Y1522D01*
X1267Y1517D01*
X1261Y1509D01*
X1258Y1501D01*
X1256Y1491D01*
X1258Y1482D01*
X1261Y1473D01*
X1267Y1466D01*
X1274Y1460D01*
X1283Y1457D01*
X1292Y1456D01*
X1301Y1457D01*
X1310Y1460D01*
X1317Y1466D01*
X1323Y1473D01*
X1327Y1482D01*
X1328Y1491D01*
X1327Y1501D01*
X1323Y1509D01*
X1317Y1517D01*
X1310Y1522D01*
X1301Y1526D01*
X1292Y1527D01*
D02*
G37*
G36*
X1227Y2209D02*
X1187D01*
Y2190D01*
X1227D01*
Y2209D01*
D02*
G37*
G36*
X1278Y2180D02*
X1237D01*
Y2161D01*
X1278D01*
Y2180D01*
D02*
G37*
G36*
X1227D02*
X1187D01*
Y2161D01*
X1227D01*
Y2180D01*
D02*
G37*
G36*
X2870Y2315D02*
X2783D01*
X2779Y2314D01*
X2777Y2309D01*
Y2246D01*
X2779Y2241D01*
X2783Y2240D01*
X2870D01*
X2875Y2241D01*
X2877Y2246D01*
Y2309D01*
X2875Y2314D01*
X2870Y2315D01*
D02*
G37*
G36*
X1154Y2315D02*
X1067D01*
X1062Y2314D01*
X1060Y2309D01*
Y2246D01*
X1062Y2241D01*
X1067Y2240D01*
X1154D01*
X1158Y2241D01*
X1160Y2246D01*
Y2309D01*
X1158Y2314D01*
X1154Y2315D01*
D02*
G37*
G36*
X1278Y2209D02*
X1237D01*
Y2190D01*
X1278D01*
Y2209D01*
D02*
G37*
G36*
X2700Y2110D02*
X2659D01*
Y2092D01*
X2700D01*
Y2110D01*
D02*
G37*
%LPD*%
G36*
X1849Y2312D02*
X1848Y2311D01*
X1843Y2304D01*
X1840Y2297D01*
X1839Y2288D01*
X1840Y2280D01*
X1843Y2272D01*
X1847Y2267D01*
X1845Y2262D01*
X1810D01*
X1799Y2273D01*
X1801Y2280D01*
X1802Y2288D01*
X1801Y2297D01*
X1798Y2304D01*
X1793Y2311D01*
X1792Y2312D01*
X1794Y2317D01*
X1848D01*
X1849Y2312D01*
D02*
G37*
G36*
X2761Y1609D02*
X2761Y1609D01*
X2758Y1601D01*
X2756Y1592D01*
X2752Y1589D01*
X2752Y1589D01*
X2682Y1659D01*
X2684Y1664D01*
X2706D01*
X2761Y1609D01*
D02*
G37*
G36*
X1749Y2312D02*
X1748Y2311D01*
X1743Y2304D01*
X1740Y2297D01*
X1739Y2288D01*
X1740Y2280D01*
X1743Y2272D01*
X1748Y2266D01*
X1755Y2261D01*
X1762Y2258D01*
X1771Y2257D01*
X1779Y2258D01*
X1786Y2260D01*
X1799Y2247D01*
X1802Y2245D01*
X1806Y2244D01*
X2148D01*
X2162Y2230D01*
Y2070D01*
X2157Y2067D01*
X2155Y2069D01*
X2147Y2072D01*
X2143Y2073D01*
Y2039D01*
Y2006D01*
X2147Y2007D01*
X2155Y2010D01*
X2157Y2012D01*
X2162Y2009D01*
Y1998D01*
X2151Y1987D01*
X2146Y1989D01*
X2138Y1991D01*
X2130Y1989D01*
X2123Y1987D01*
X2117Y1982D01*
X2112Y1976D01*
X2109Y1968D01*
X2108Y1961D01*
X2109Y1953D01*
X2112Y1946D01*
X2115Y1942D01*
X2112Y1937D01*
X1872D01*
X1818Y1991D01*
X1815Y1993D01*
X1812Y1993D01*
X1474D01*
X1471Y1997D01*
Y2006D01*
X1474Y2009D01*
X1750D01*
X1754Y2009D01*
X1757Y2011D01*
X1856Y2110D01*
X1860Y2108D01*
Y2094D01*
X2029D01*
Y2067D01*
X2074D01*
Y2096D01*
Y2126D01*
X2030D01*
Y2146D01*
X2033Y2149D01*
X2124D01*
Y2196D01*
X2128Y2200D01*
X2129Y2199D01*
X2136Y2201D01*
X2142Y2205D01*
X2146Y2211D01*
X2147Y2218D01*
X2146Y2224D01*
X2142Y2230D01*
X2136Y2234D01*
X2129Y2236D01*
X2122Y2234D01*
X2116Y2230D01*
X2114Y2227D01*
X2077Y2221D01*
X2075Y2221D01*
X2074Y2220D01*
X2073Y2220D01*
X2072Y2219D01*
X2071Y2218D01*
X2070Y2218D01*
X2070Y2217D01*
X2069Y2216D01*
X2068Y2215D01*
X2067Y2214D01*
X2067Y2213D01*
X2067Y2212D01*
X2067Y2210D01*
X2067Y2209D01*
Y2201D01*
X2050D01*
Y2208D01*
X2049Y2213D01*
X2047Y2217D01*
X2044Y2220D01*
X2040Y2222D01*
X2035Y2223D01*
X1644D01*
X1639Y2222D01*
X1635Y2220D01*
X1609Y2193D01*
X1604Y2195D01*
Y2205D01*
X1439D01*
X1439D01*
X1439Y2205D01*
X1438Y2205D01*
X1438D01*
X1437D01*
X1437Y2205D01*
X1437Y2205D01*
X1437Y2206D01*
X1436Y2208D01*
Y2208D01*
X1435Y2210D01*
X1542Y2317D01*
X1641D01*
X1644Y2312D01*
X1640Y2306D01*
X1636Y2298D01*
X1635Y2293D01*
X1706D01*
X1705Y2298D01*
X1702Y2306D01*
X1697Y2312D01*
X1700Y2317D01*
X1748D01*
X1749Y2312D01*
D02*
G37*
G36*
X1939Y2262D02*
X1896D01*
X1894Y2267D01*
X1898Y2272D01*
X1901Y2280D01*
X1902Y2288D01*
X1901Y2297D01*
X1898Y2304D01*
X1893Y2311D01*
X1892Y2312D01*
X1894Y2317D01*
X1939D01*
Y2262D01*
D02*
G37*
G36*
X2181Y1983D02*
Y1968D01*
X2182Y1964D01*
X2187Y1962D01*
X2329D01*
X2331Y1957D01*
X2311Y1937D01*
X2163D01*
X2161Y1942D01*
X2164Y1946D01*
X2167Y1953D01*
X2168Y1961D01*
X2167Y1968D01*
X2164Y1974D01*
X2176Y1985D01*
X2181Y1983D01*
D02*
G37*
G36*
X1860Y2170D02*
X1856Y2165D01*
X1853Y2157D01*
X1852Y2150D01*
X1853Y2142D01*
X1855Y2136D01*
X1746Y2027D01*
X1366D01*
X1362Y2026D01*
X1360Y2024D01*
X1359Y2023D01*
X1357Y2020D01*
X1356Y2017D01*
Y1978D01*
X1346Y1969D01*
X1325D01*
Y1977D01*
X1308D01*
X1305Y1982D01*
X1417Y2094D01*
X1455D01*
X1456Y2094D01*
X1604D01*
Y2129D01*
X1609Y2135D01*
X1612Y2142D01*
X1613Y2150D01*
X1612Y2157D01*
X1610Y2160D01*
X1649Y2199D01*
X1860D01*
Y2170D01*
D02*
G37*
%LPC*%
G36*
X2128Y2126D02*
X2084D01*
Y2101D01*
X2128D01*
Y2126D01*
D02*
G37*
G36*
X2133Y2034D02*
X2105D01*
X2105Y2031D01*
X2108Y2022D01*
X2114Y2015D01*
X2121Y2010D01*
X2129Y2007D01*
X2133Y2006D01*
Y2034D01*
D02*
G37*
G36*
X2128Y2091D02*
X2084D01*
Y2067D01*
X2110D01*
X2113Y2062D01*
X2108Y2056D01*
X2105Y2048D01*
X2105Y2044D01*
X2133D01*
Y2073D01*
X2128Y2077D01*
Y2091D01*
D02*
G37*
G36*
X1666Y2283D02*
X1635D01*
X1636Y2279D01*
X1640Y2270D01*
X1645Y2263D01*
X1653Y2257D01*
X1661Y2254D01*
X1666Y2253D01*
Y2283D01*
D02*
G37*
G36*
X1706D02*
X1676D01*
Y2253D01*
X1680Y2254D01*
X1689Y2257D01*
X1696Y2263D01*
X1702Y2270D01*
X1705Y2279D01*
X1706Y2283D01*
D02*
G37*
%LPD*%
D15*
X1232Y2087D02*
D03*
Y2136D02*
D03*
Y2037D02*
D03*
Y2185D02*
D03*
X2705Y2185D02*
D03*
Y2087D02*
D03*
Y2136D02*
D03*
D19*
X2615Y1957D02*
Y1969D01*
X2573Y1915D02*
X2615Y1957D01*
X2786Y2093D02*
Y2125D01*
X2726Y2185D02*
X2786Y2125D01*
X2705Y2185D02*
X2726D01*
X1188Y2087D02*
X1232D01*
X1173Y2072D02*
X1188Y2087D01*
X1173Y1918D02*
Y2072D01*
Y1918D02*
X1204Y1887D01*
X2085D01*
X2113Y1915D01*
X2573D01*
X1232Y2136D02*
X1348D01*
X1538Y2326D01*
X2714D01*
X2750Y2290D01*
Y2186D02*
Y2290D01*
Y2186D02*
X2880Y2056D01*
Y1936D02*
Y2056D01*
X2805Y1860D02*
X2880Y1936D01*
X2753Y1860D02*
X2805D01*
X2012Y1267D02*
X2789Y2044D01*
X2795D01*
X1771Y2288D02*
X1806Y2253D01*
X2152D01*
X2171Y2234D01*
Y1994D02*
Y2234D01*
X2138Y1961D02*
X2171Y1994D01*
X2336Y1533D02*
X2740D01*
X2753Y1520D01*
X2372Y1595D02*
X2450Y1673D01*
X2710D01*
X2792Y1591D01*
X1392Y1997D02*
X1412D01*
X1425Y1984D01*
X1447D01*
X1812D01*
X1868Y1928D01*
X2315D01*
X2450Y2063D01*
X1246Y1931D02*
X1259D01*
X1288Y1960D01*
X1301D01*
X1350D01*
X1365Y1975D01*
Y2017D01*
X1366Y2018D01*
X1750D01*
X1882Y2150D01*
X1945D01*
D20*
X2834Y1274D02*
Y1450D01*
X2834Y1450D01*
X2825Y1265D02*
X2834Y1274D01*
X2825Y1142D02*
Y1265D01*
X1455Y2106D02*
Y2150D01*
X2792Y1491D02*
X2834Y1450D01*
X2792Y1491D02*
Y1532D01*
X2671Y1653D02*
X2792Y1532D01*
X2461Y1653D02*
X2671D01*
X1212Y1988D02*
X1246D01*
X2079Y2175D02*
Y2209D01*
X2129Y2218D01*
X1317Y2037D02*
X1423Y2143D01*
X1232Y2037D02*
X1317D01*
X2408Y1759D02*
X2464D01*
X2753Y2048D01*
X2752Y2136D02*
X2753Y2048D01*
X2705Y2136D02*
X2752D01*
X1192Y1391D02*
X1292D01*
X1447Y1236D01*
X2125D01*
X2202Y1313D01*
X1520Y2150D02*
X1583D01*
X1644Y2211D01*
X2035D01*
X2038Y2208D01*
Y2176D02*
Y2208D01*
Y2176D02*
X2039Y2175D01*
X2079D01*
X1455Y2150D02*
X1520D01*
X1412Y2106D02*
X1455D01*
X1294Y1988D02*
X1412Y2106D01*
X1246Y1988D02*
X1294D01*
D22*
X1110Y1945D02*
D03*
Y2277D02*
D03*
X2827Y1994D02*
D03*
Y2277D02*
D03*
D24*
X1583Y2150D02*
D03*
X1882D02*
D03*
X2138Y2039D02*
D03*
Y1961D02*
D03*
Y1882D02*
D03*
Y1803D02*
D03*
D25*
X1292Y1491D02*
D03*
Y1391D02*
D03*
X1192Y1491D02*
D03*
Y1391D02*
D03*
Y1291D02*
D03*
X1292D02*
D03*
X2792Y1791D02*
D03*
Y1691D02*
D03*
Y1591D02*
D03*
Y1491D02*
D03*
Y1391D02*
D03*
Y1291D02*
D03*
D26*
X1671Y2288D02*
D03*
X1771D02*
D03*
X1871D02*
D03*
D27*
X1971D02*
D03*
D28*
X2773Y1219D02*
D03*
X2374Y1311D02*
D03*
X2471Y1594D02*
D03*
X1232Y1643D02*
D03*
X1173Y2113D02*
D03*
X2825Y1142D02*
D03*
X2615Y1969D02*
D03*
X2786Y2093D02*
D03*
X2461Y1653D02*
D03*
X1212Y1988D02*
D03*
X2129Y2218D02*
D03*
X2753Y1860D02*
D03*
X2012Y1267D02*
D03*
X2795Y2044D02*
D03*
X2336Y1533D02*
D03*
X2753Y1520D02*
D03*
X2372Y1595D02*
D03*
X1423Y2143D02*
D03*
X2408Y1759D02*
D03*
X2450Y2063D02*
D03*
X2202Y1313D02*
D03*
D29*
X1945Y2150D02*
D03*
X1520D02*
D03*
D30*
X1447Y1927D02*
D03*
Y1984D02*
D03*
X1246Y1931D02*
D03*
Y1988D02*
D03*
D31*
X1392Y1997D02*
D03*
Y1922D02*
D03*
X1301Y1960D02*
D03*
D32*
X2079Y2175D02*
D03*
Y2096D02*
D03*
D33*
X2262Y2268D02*
D03*
Y2004D02*
D03*
M02*
