%FSLAX23Y23*%
%MOIN*%
G70*
G01*
G75*
G04 Layer_Color=16711935*
%ADD10R,0.031X0.035*%
%ADD11R,0.051X0.073*%
%ADD12R,0.039X0.039*%
%ADD13R,0.087X0.039*%
%ADD14R,0.071X0.028*%
%ADD15R,0.028X0.071*%
%ADD16R,0.087X0.059*%
%ADD17R,0.118X0.063*%
%ADD18R,0.022X0.039*%
%ADD19C,0.012*%
%ADD20C,0.006*%
%ADD21R,0.087X0.063*%
%ADD22R,0.087X0.063*%
%ADD23R,0.063X0.087*%
%ADD24R,0.051X0.051*%
%ADD25C,0.051*%
%ADD26C,0.150*%
%ADD27C,0.059*%
%ADD28C,0.047*%
%ADD29C,0.020*%
%ADD30C,0.024*%
%ADD31R,0.079X0.039*%
%ADD32R,0.035X0.024*%
%ADD33R,0.035X0.031*%
%ADD34R,0.157X0.098*%
%ADD35R,0.150X0.071*%
%ADD36C,0.016*%
%ADD37C,0.001*%
%ADD38C,0.008*%
%ADD39R,0.004X0.004*%
%ADD40R,0.193X0.006*%
%ADD41R,0.161X0.006*%
%ADD42R,0.006X0.258*%
%ADD43R,0.006X0.259*%
%ADD44R,0.039X0.043*%
%ADD45R,0.059X0.081*%
%ADD46R,0.047X0.047*%
%ADD47R,0.095X0.047*%
%ADD48R,0.079X0.036*%
%ADD49R,0.036X0.079*%
%ADD50R,0.095X0.067*%
%ADD51R,0.126X0.071*%
%ADD52R,0.030X0.047*%
%ADD53R,0.095X0.071*%
%ADD54R,0.095X0.071*%
%ADD55R,0.071X0.095*%
%ADD56R,0.059X0.059*%
%ADD57C,0.059*%
%ADD58C,0.158*%
%ADD59C,0.067*%
%ADD60C,0.055*%
%ADD61R,0.087X0.047*%
%ADD62R,0.043X0.032*%
%ADD63R,0.043X0.039*%
%ADD64R,0.165X0.106*%
%ADD65R,0.158X0.079*%
D48*
X2705Y2136D02*
D03*
Y2087D02*
D03*
Y2185D02*
D03*
X1232Y2185D02*
D03*
Y2037D02*
D03*
Y2136D02*
D03*
Y2087D02*
D03*
D53*
X2827Y2277D02*
D03*
Y1994D02*
D03*
X1110Y2277D02*
D03*
Y1945D02*
D03*
D56*
X1971Y2288D02*
D03*
D57*
X1871D02*
D03*
X1771D02*
D03*
X1671D02*
D03*
D58*
X2559Y1102D02*
D03*
Y2283D02*
D03*
X1378D02*
D03*
Y1102D02*
D03*
D59*
X2792Y1291D02*
D03*
Y1391D02*
D03*
Y1491D02*
D03*
Y1591D02*
D03*
Y1691D02*
D03*
Y1791D02*
D03*
X1292Y1291D02*
D03*
X1192D02*
D03*
Y1391D02*
D03*
Y1491D02*
D03*
X1292Y1391D02*
D03*
Y1491D02*
D03*
D60*
X2138Y1803D02*
D03*
Y1882D02*
D03*
Y1961D02*
D03*
Y2039D02*
D03*
X1882Y2150D02*
D03*
X1583D02*
D03*
D61*
X2079Y2096D02*
D03*
Y2175D02*
D03*
D62*
X1301Y1960D02*
D03*
X1392Y1922D02*
D03*
Y1997D02*
D03*
D63*
X1246Y1988D02*
D03*
Y1931D02*
D03*
X1447Y1984D02*
D03*
Y1927D02*
D03*
D64*
X1520Y2150D02*
D03*
X1945D02*
D03*
D65*
X2262Y2004D02*
D03*
Y2268D02*
D03*
M02*
