%FSLAX23Y23*%
%MOIN*%
G70*
G01*
G75*
%ADD10R,0.031X0.035*%
%ADD11R,0.051X0.073*%
%ADD12R,0.039X0.039*%
%ADD13R,0.087X0.039*%
%ADD14R,0.071X0.028*%
%ADD15R,0.028X0.071*%
%ADD16R,0.087X0.059*%
%ADD17R,0.118X0.063*%
%ADD18R,0.022X0.039*%
%ADD19C,0.012*%
%ADD20C,0.006*%
%ADD21R,0.087X0.063*%
%ADD22R,0.087X0.063*%
%ADD23R,0.063X0.087*%
%ADD24R,0.051X0.051*%
%ADD25C,0.051*%
%ADD26C,0.150*%
%ADD27C,0.059*%
%ADD28C,0.047*%
%ADD29C,0.020*%
%ADD30C,0.024*%
%ADD31R,0.079X0.039*%
%ADD32R,0.035X0.024*%
%ADD33R,0.035X0.031*%
%ADD34R,0.157X0.098*%
%ADD35R,0.150X0.071*%
%ADD36C,0.016*%
%ADD37C,0.001*%
%ADD38C,0.008*%
%ADD39R,0.004X0.004*%
%ADD40R,0.193X0.006*%
%ADD41R,0.161X0.006*%
%ADD42R,0.006X0.258*%
%ADD43R,0.006X0.259*%
%ADD44R,0.039X0.043*%
%ADD45R,0.059X0.081*%
%ADD46R,0.047X0.047*%
%ADD47R,0.095X0.047*%
%ADD48R,0.079X0.036*%
%ADD49R,0.036X0.079*%
%ADD50R,0.095X0.067*%
%ADD51R,0.126X0.071*%
%ADD52R,0.030X0.047*%
%ADD53R,0.095X0.071*%
%ADD54R,0.095X0.071*%
%ADD55R,0.071X0.095*%
%ADD56R,0.059X0.059*%
%ADD57C,0.059*%
%ADD58C,0.158*%
%ADD59C,0.067*%
%ADD60C,0.055*%
%ADD61R,0.087X0.047*%
%ADD62R,0.043X0.032*%
%ADD63R,0.043X0.039*%
%ADD64R,0.165X0.106*%
%ADD65R,0.158X0.079*%
%ADD66C,0.010*%
%ADD67C,0.002*%
%ADD68R,0.295X0.006*%
%ADD69R,0.295X0.006*%
%ADD70R,0.295X0.006*%
%ADD71C,0.005*%
%ADD72C,0.007*%
D71*
X1951Y2288D02*
X1990D01*
X1971Y2269D02*
Y2308D01*
X1851Y2288D02*
X1890D01*
X1871Y2269D02*
Y2308D01*
X1751Y2288D02*
X1790D01*
X1771Y2269D02*
Y2308D01*
X1651Y2288D02*
X1690D01*
X1671Y2269D02*
Y2308D01*
X2494Y1102D02*
X2624D01*
X2559Y1037D02*
Y1167D01*
X2494Y2283D02*
X2624D01*
X2559Y2219D02*
Y2348D01*
X1313Y2283D02*
X1443D01*
X1378Y2219D02*
Y2348D01*
X1313Y1102D02*
X1443D01*
X1378Y1037D02*
Y1167D01*
X2772Y1291D02*
X2812D01*
X2792Y1272D02*
Y1311D01*
X2772Y1391D02*
X2812D01*
X2792Y1372D02*
Y1411D01*
X2772Y1491D02*
X2812D01*
X2792Y1472D02*
Y1511D01*
X2772Y1591D02*
X2812D01*
X2792Y1572D02*
Y1611D01*
X2772Y1691D02*
X2812D01*
X2792Y1672D02*
Y1711D01*
X2772Y1791D02*
X2812D01*
X2792Y1772D02*
Y1811D01*
X1272Y1291D02*
X1312D01*
X1292Y1272D02*
Y1311D01*
X1172Y1291D02*
X1212D01*
X1192Y1272D02*
Y1311D01*
X1172Y1391D02*
X1212D01*
X1192Y1372D02*
Y1411D01*
X1172Y1491D02*
X1212D01*
X1192Y1472D02*
Y1511D01*
X1272Y1391D02*
X1312D01*
X1292Y1372D02*
Y1411D01*
X1272Y1491D02*
X1312D01*
X1292Y1472D02*
Y1511D01*
X2124Y1803D02*
X2152D01*
X2138Y1789D02*
Y1817D01*
X2124Y1882D02*
X2152D01*
X2138Y1868D02*
Y1896D01*
X2124Y1961D02*
X2152D01*
X2138Y1947D02*
Y1974D01*
X2124Y2039D02*
X2152D01*
X2138Y2026D02*
Y2053D01*
X1866Y2150D02*
X1898D01*
X1882Y2134D02*
Y2165D01*
X1567Y2150D02*
X1598D01*
X1583Y2134D02*
Y2165D01*
X2848Y1083D02*
X2860D01*
X2854Y1077D02*
Y1089D01*
X2799Y2165D02*
X2811D01*
X2805Y2159D02*
Y2171D01*
X2750Y1083D02*
X2762D01*
X2756Y1077D02*
Y1089D01*
X2652Y1083D02*
X2663D01*
X2657Y1077D02*
Y1089D01*
X2602Y2165D02*
X2614D01*
X2608Y2159D02*
Y2171D01*
X2553Y2067D02*
X2565D01*
X2559Y2061D02*
Y2073D01*
X2553Y1280D02*
X2565D01*
X2559Y1274D02*
Y1285D01*
X2455Y2264D02*
X2467D01*
X2461Y2258D02*
Y2270D01*
X2504Y2165D02*
X2516D01*
X2510Y2159D02*
Y2171D01*
X2504Y1378D02*
X2516D01*
X2510Y1372D02*
Y1384D01*
X2455Y1280D02*
X2467D01*
X2461Y1274D02*
Y1285D01*
X2455Y1083D02*
X2467D01*
X2461Y1077D02*
Y1089D01*
X2356Y2264D02*
X2368D01*
X2362Y2258D02*
Y2270D01*
X2406Y2165D02*
X2417D01*
X2411Y2159D02*
Y2171D01*
X2356Y2067D02*
X2368D01*
X2362Y2061D02*
Y2073D01*
X2356Y1870D02*
X2368D01*
X2362Y1864D02*
Y1876D01*
X2356Y1280D02*
X2368D01*
X2362Y1274D02*
Y1285D01*
X2356Y1083D02*
X2368D01*
X2362Y1077D02*
Y1089D01*
X2307Y2165D02*
X2319D01*
X2313Y2159D02*
Y2171D01*
X2258Y1476D02*
X2270D01*
X2264Y1470D02*
Y1482D01*
X2307Y1181D02*
X2319D01*
X2313Y1175D02*
Y1187D01*
X2258Y1083D02*
X2270D01*
X2264Y1077D02*
Y1089D01*
X2209Y2165D02*
X2220D01*
X2215Y2159D02*
Y2171D01*
X2159Y1476D02*
X2171D01*
X2165Y1470D02*
Y1482D01*
X2209Y1181D02*
X2220D01*
X2215Y1175D02*
Y1187D01*
X2159Y1083D02*
X2171D01*
X2165Y1077D02*
Y1089D01*
X2061Y1673D02*
X2073D01*
X2067Y1667D02*
Y1679D01*
X2110Y1575D02*
X2122D01*
X2116Y1569D02*
Y1581D01*
X2061Y1476D02*
X2073D01*
X2067Y1470D02*
Y1482D01*
X2061Y1280D02*
X2073D01*
X2067Y1274D02*
Y1285D01*
X2061Y1083D02*
X2073D01*
X2067Y1077D02*
Y1089D01*
X2012Y1969D02*
X2024D01*
X2018Y1963D02*
Y1974D01*
X2012Y1772D02*
X2024D01*
X2018Y1766D02*
Y1778D01*
X1963Y1673D02*
X1974D01*
X1969Y1667D02*
Y1679D01*
X2012Y1575D02*
X2024D01*
X2018Y1569D02*
Y1581D01*
X1963Y1476D02*
X1974D01*
X1969Y1470D02*
Y1482D01*
X1963Y1083D02*
X1974D01*
X1969Y1077D02*
Y1089D01*
X1864Y2067D02*
X1876D01*
X1870Y2061D02*
Y2073D01*
X1913Y1969D02*
X1925D01*
X1919Y1963D02*
Y1974D01*
X1913Y1772D02*
X1925D01*
X1919Y1766D02*
Y1778D01*
X1864Y1673D02*
X1876D01*
X1870Y1667D02*
Y1679D01*
X1913Y1575D02*
X1925D01*
X1919Y1569D02*
Y1581D01*
X1864Y1476D02*
X1876D01*
X1870Y1470D02*
Y1482D01*
X1913Y1181D02*
X1925D01*
X1919Y1175D02*
Y1187D01*
X1864Y1083D02*
X1876D01*
X1870Y1077D02*
Y1089D01*
X1815Y2165D02*
X1827D01*
X1821Y2159D02*
Y2171D01*
X1815Y1772D02*
X1827D01*
X1821Y1766D02*
Y1778D01*
X1815Y1575D02*
X1827D01*
X1821Y1569D02*
Y1581D01*
X1815Y1378D02*
X1827D01*
X1821Y1372D02*
Y1384D01*
X1815Y1181D02*
X1827D01*
X1821Y1175D02*
Y1187D01*
X1766Y1083D02*
X1778D01*
X1772Y1077D02*
Y1089D01*
X1717Y2165D02*
X1728D01*
X1722Y2159D02*
Y2171D01*
X1667Y2067D02*
X1679D01*
X1673Y2061D02*
Y2073D01*
X1667Y1673D02*
X1679D01*
X1673Y1667D02*
Y1679D01*
X1667Y1476D02*
X1679D01*
X1673Y1470D02*
Y1482D01*
X1667Y1280D02*
X1679D01*
X1673Y1274D02*
Y1285D01*
X1667Y1083D02*
X1679D01*
X1673Y1077D02*
Y1089D01*
X1569Y2264D02*
X1581D01*
X1575Y2258D02*
Y2270D01*
X1569Y2067D02*
X1581D01*
X1575Y2061D02*
Y2073D01*
X1618Y1772D02*
X1630D01*
X1624Y1766D02*
Y1778D01*
X1569Y1673D02*
X1581D01*
X1575Y1667D02*
Y1679D01*
X1618Y1575D02*
X1630D01*
X1624Y1569D02*
Y1581D01*
X1618Y1378D02*
X1630D01*
X1624Y1372D02*
Y1384D01*
X1569Y1280D02*
X1581D01*
X1575Y1274D02*
Y1285D01*
X1569Y1083D02*
X1581D01*
X1575Y1077D02*
Y1089D01*
X1470Y2264D02*
X1482D01*
X1476Y2258D02*
Y2270D01*
X1520Y1772D02*
X1531D01*
X1526Y1766D02*
Y1778D01*
X1470Y1673D02*
X1482D01*
X1476Y1667D02*
Y1679D01*
X1520Y1378D02*
X1531D01*
X1526Y1372D02*
Y1384D01*
X1470Y1280D02*
X1482D01*
X1476Y1274D02*
Y1285D01*
X1520Y1181D02*
X1531D01*
X1526Y1175D02*
Y1187D01*
X1470Y1083D02*
X1482D01*
X1476Y1077D02*
Y1089D01*
X1421Y1772D02*
X1433D01*
X1427Y1766D02*
Y1778D01*
X1372Y1673D02*
X1384D01*
X1378Y1667D02*
Y1679D01*
X1421Y1378D02*
X1433D01*
X1427Y1372D02*
Y1384D01*
X1421Y1181D02*
X1433D01*
X1427Y1175D02*
Y1187D01*
X1274Y2264D02*
X1285D01*
X1280Y2258D02*
Y2270D01*
X1323Y2165D02*
X1335D01*
X1329Y2159D02*
Y2171D01*
X1323Y1181D02*
X1335D01*
X1329Y1175D02*
Y1187D01*
X1274Y1083D02*
X1285D01*
X1280Y1077D02*
Y1089D01*
X1175Y2264D02*
X1187D01*
X1181Y2258D02*
Y2270D01*
X1175Y1870D02*
X1187D01*
X1181Y1864D02*
Y1876D01*
X1175Y1083D02*
X1187D01*
X1181Y1077D02*
Y1089D01*
X1126Y2165D02*
X1138D01*
X1132Y2159D02*
Y2171D01*
X1077Y2067D02*
X1089D01*
X1083Y2061D02*
Y2073D01*
X1077Y1870D02*
X1089D01*
X1083Y1864D02*
Y1876D01*
X1126Y1772D02*
X1138D01*
X1132Y1766D02*
Y1778D01*
X1077Y1673D02*
X1089D01*
X1083Y1667D02*
Y1679D01*
X1077Y1476D02*
X1089D01*
X1083Y1470D02*
Y1482D01*
X1126Y1378D02*
X1138D01*
X1132Y1372D02*
Y1384D01*
X1126Y1181D02*
X1138D01*
X1132Y1175D02*
Y1187D01*
X1077Y1083D02*
X1089D01*
X1083Y1077D02*
Y1089D01*
X1561Y1622D02*
X1573D01*
X1567Y1616D02*
Y1628D01*
X1593Y1622D02*
X1604D01*
X1598Y1616D02*
Y1628D01*
X1561Y1591D02*
X1573D01*
X1567Y1585D02*
Y1596D01*
X1593Y1591D02*
X1604D01*
X1598Y1585D02*
Y1596D01*
X1561Y1559D02*
X1573D01*
X1567Y1553D02*
Y1565D01*
X1593Y1559D02*
X1604D01*
X1598Y1553D02*
Y1565D01*
X1561Y1528D02*
X1573D01*
X1567Y1522D02*
Y1533D01*
X1593Y1528D02*
X1604D01*
X1598Y1522D02*
Y1533D01*
X1561Y1496D02*
X1573D01*
X1567Y1490D02*
Y1502D01*
X1593Y1496D02*
X1604D01*
X1598Y1490D02*
Y1502D01*
X1593Y1465D02*
X1604D01*
X1598Y1459D02*
Y1470D01*
X1593Y1433D02*
X1604D01*
X1598Y1427D02*
Y1439D01*
X1561Y1465D02*
X1573D01*
X1567Y1459D02*
Y1470D01*
X1561Y1433D02*
X1573D01*
X1567Y1427D02*
Y1439D01*
X1530Y1465D02*
X1541D01*
X1535Y1459D02*
Y1470D01*
X1530Y1433D02*
X1541D01*
X1535Y1427D02*
Y1439D01*
X1498Y1465D02*
X1510D01*
X1504Y1459D02*
Y1470D01*
X1498Y1433D02*
X1510D01*
X1504Y1427D02*
Y1439D01*
X1467Y1465D02*
X1478D01*
X1472Y1459D02*
Y1470D01*
X1467Y1433D02*
X1478D01*
X1472Y1427D02*
Y1439D01*
X1435Y1465D02*
X1447D01*
X1441Y1459D02*
Y1470D01*
X1435Y1433D02*
X1447D01*
X1441Y1427D02*
Y1439D01*
X1404Y1465D02*
X1415D01*
X1409Y1459D02*
Y1470D01*
X1404Y1433D02*
X1415D01*
X1409Y1427D02*
Y1439D01*
X1372Y1433D02*
X1384D01*
X1378Y1427D02*
Y1439D01*
X1341Y1433D02*
X1352D01*
X1346Y1427D02*
Y1439D01*
X1372Y1465D02*
X1384D01*
X1378Y1459D02*
Y1470D01*
X1341Y1465D02*
X1352D01*
X1346Y1459D02*
Y1470D01*
X1372Y1496D02*
X1384D01*
X1378Y1490D02*
Y1502D01*
X1341Y1496D02*
X1352D01*
X1346Y1490D02*
Y1502D01*
X1341Y1528D02*
X1352D01*
X1346Y1522D02*
Y1533D01*
X1372Y1528D02*
X1384D01*
X1378Y1522D02*
Y1533D01*
X1372Y1559D02*
X1384D01*
X1378Y1553D02*
Y1565D01*
X1341Y1559D02*
X1352D01*
X1346Y1553D02*
Y1565D01*
X1341Y1622D02*
X1352D01*
X1346Y1616D02*
Y1628D01*
X1341Y1591D02*
X1352D01*
X1346Y1585D02*
Y1596D01*
X1372Y1622D02*
X1384D01*
X1378Y1616D02*
Y1628D01*
X1372Y1591D02*
X1384D01*
X1378Y1585D02*
Y1596D01*
X1404Y1622D02*
X1415D01*
X1409Y1616D02*
Y1628D01*
X1404Y1591D02*
X1415D01*
X1409Y1585D02*
Y1596D01*
X1435Y1622D02*
X1447D01*
X1441Y1616D02*
Y1628D01*
X1435Y1591D02*
X1447D01*
X1441Y1585D02*
Y1596D01*
X1467Y1622D02*
X1478D01*
X1472Y1616D02*
Y1628D01*
X1467Y1591D02*
X1478D01*
X1472Y1585D02*
Y1596D01*
X1498Y1591D02*
X1510D01*
X1504Y1585D02*
Y1596D01*
X1498Y1622D02*
X1510D01*
X1504Y1616D02*
Y1628D01*
X1530Y1622D02*
X1541D01*
X1535Y1616D02*
Y1628D01*
X1530Y1591D02*
X1541D01*
X1535Y1585D02*
Y1596D01*
X2196Y1313D02*
X2208D01*
X2202Y1307D02*
Y1319D01*
X2444Y2063D02*
X2456D01*
X2450Y2057D02*
Y2069D01*
X2402Y1759D02*
X2414D01*
X2408Y1753D02*
Y1765D01*
X1417Y2143D02*
X1429D01*
X1423Y2137D02*
Y2149D01*
X2366Y1595D02*
X2378D01*
X2372Y1589D02*
Y1601D01*
X2747Y1520D02*
X2759D01*
X2753Y1515D02*
Y1526D01*
X2330Y1533D02*
X2342D01*
X2336Y1527D02*
Y1539D01*
X2789Y2044D02*
X2801D01*
X2795Y2038D02*
Y2050D01*
X2006Y1267D02*
X2018D01*
X2012Y1261D02*
Y1273D01*
X2747Y1860D02*
X2759D01*
X2753Y1854D02*
Y1866D01*
X2123Y2218D02*
X2135D01*
X2129Y2212D02*
Y2223D01*
X1206Y1988D02*
X1218D01*
X1212Y1982D02*
Y1994D01*
X2455Y1653D02*
X2466D01*
X2461Y1647D02*
Y1658D01*
X2780Y2093D02*
X2792D01*
X2786Y2087D02*
Y2099D01*
X2609Y1969D02*
X2621D01*
X2615Y1963D02*
Y1975D01*
X2819Y1142D02*
X2831D01*
X2825Y1136D02*
Y1148D01*
X1167Y2113D02*
X1179D01*
X1173Y2107D02*
Y2119D01*
X1226Y1643D02*
X1238D01*
X1232Y1637D02*
Y1649D01*
X2466Y1594D02*
X2477D01*
X2471Y1589D02*
Y1600D01*
X2368Y1311D02*
X2380D01*
X2374Y1305D02*
Y1317D01*
X2767Y1219D02*
X2779D01*
X2773Y1214D02*
Y1225D01*
M02*
